<?xml version="1.0" encoding="UTF-8" standalone="no"?>
<!-- Created with Inkscape (http://www.inkscape.org/) -->

<svg
   xmlns:dc="http://purl.org/dc/elements/1.1/"
   xmlns:cc="http://creativecommons.org/ns#"
   xmlns:rdf="http://www.w3.org/1999/02/22-rdf-syntax-ns#"
   xmlns:svg="http://www.w3.org/2000/svg"
   xmlns="http://www.w3.org/2000/svg"
   xmlns:sodipodi="http://sodipodi.sourceforge.net/DTD/sodipodi-0.dtd"
   xmlns:inkscape="http://www.inkscape.org/namespaces/inkscape"
   width="141.73228pt"
   height="141.73228pt"
   viewBox="0 0 177.16535 177.16535"
   id="svg2"
   version="1.1"
   inkscape:version="0.91 r13725"
   sodipodi:docname="tigert.svg">
  <defs
     id="defs4" />
  <sodipodi:namedview
     id="base"
     pagecolor="#ffffff"
     bordercolor="#666666"
     borderopacity="1.0"
     inkscape:pageopacity="0.0"
     inkscape:pageshadow="2"
     inkscape:zoom="2.8"
     inkscape:cx="81.996031"
     inkscape:cy="109.55334"
     inkscape:document-units="px"
     inkscape:current-layer="layer1"
     showgrid="false"
     inkscape:window-width="2560"
     inkscape:window-height="1376"
     inkscape:window-x="0"
     inkscape:window-y="27"
     inkscape:window-maximized="1"
     units="pt" />
  <metadata
     id="metadata7">
    <rdf:RDF>
      <cc:Work
         rdf:about="">
        <dc:format>image/svg+xml</dc:format>
        <dc:type
           rdf:resource="http://purl.org/dc/dcmitype/StillImage" />
        <dc:title></dc:title>
      </cc:Work>
    </rdf:RDF>
  </metadata>
  <g
     inkscape:label="Layer 1"
     inkscape:groupmode="layer"
     id="layer1"
     transform="translate(0,-875.19685)">
    <path
       style="color:#000000;clip-rule:nonzero;display:inline;overflow:visible;visibility:visible;opacity:1;isolation:auto;mix-blend-mode:normal;color-interpolation:sRGB;color-interpolation-filters:linearRGB;solid-color:#000000;solid-opacity:1;fill:#000000;fill-opacity:1;fill-rule:evenodd;stroke:none;stroke-width:0.30000001;stroke-linecap:round;stroke-linejoin:round;stroke-miterlimit:4;stroke-dasharray:none;stroke-dashoffset:8.05119991;stroke-opacity:1;marker:none;color-rendering:auto;image-rendering:auto;shape-rendering:auto;text-rendering:auto;enable-background:accumulate"
       d="m 105.63974,890.10612 c -1.76068,-0.0662 -4.7105,0.86588 -7.040173,2.28264 -3.890758,2.36611 -5.695286,2.61927 -9.193895,1.2891 -3.685386,-1.40118 -4.673196,-1.17265 -6.441197,1.49008 -1.804415,2.7176 -2.749496,2.91443 -6.952481,1.44926 -3.899911,-1.35952 -5.207,-1.23088 -6.595293,0.6489 -0.952343,1.28947 -3.684659,2.83067 -6.071807,3.42503 -2.387149,0.59435 -4.340438,2.05657 -4.340438,3.24924 0,1.19268 -1.065169,2.57727 -2.367258,3.07692 -1.302089,0.49966 -2.367704,1.95404 -2.367704,3.23189 0,2.03126 -0.545397,2.03891 -4.339993,0.0595 -14.252576,-7.43485 -27.861374,6.69406 -16.953713,17.60172 5.604414,5.6044 8.48358,3.04952 3.006191,-2.66763 -3.809374,-3.97614 -4.120051,-5.01991 -2.530908,-8.50766 1.472962,-3.23283 2.931256,-3.9754 7.807112,-3.9754 3.29769,0 7.707486,1.19893 9.799379,2.66415 2.977568,2.08558 3.953357,2.21427 4.494088,0.59204 0.379901,-1.1397 2.022269,-3.40382 3.649857,-5.03142 1.627612,-1.62761 2.959302,-3.66986 2.959302,-4.53792 0,-0.86806 1.333845,-1.57817 2.963657,-1.57817 1.629833,0 3.873621,-1.09691 4.986282,-2.43758 1.403114,-1.69065 3.429159,-2.12886 6.612201,-1.42975 3.159487,0.69394 5.476365,0.20576 7.435587,-1.56732 2.367242,-2.14231 3.546261,-2.25641 7.011508,-0.67755 3.665886,1.67029 4.648121,1.44548 8.181286,-1.87376 3.75821,-3.53065 4.2873,-3.62001 8.27024,-1.39501 3.02794,1.69152 4.4001,3.87005 4.75712,7.55321 0.5653,5.83201 3.92113,6.07901 4.75971,0.35027 0.57827,-3.95035 -5.96075,-11.92278 -10.82199,-13.19403 -0.19772,-0.0517 -0.42515,-0.0812 -0.67667,-0.0906 z m 37.35415,19.4972 c -0.68089,0 -2.55463,2.22878 -4.16379,4.95286 -1.60912,2.72408 -4.27712,6.3041 -5.92858,7.95557 -2.95139,2.95138 -2.94735,3.07254 0.21832,7.09703 7.33119,9.3201 0.77113,22.5456 -12.49912,25.19964 l -4.79488,0.95925 3.40595,-7.69385 c 1.8732,-4.2316 3.63423,-9.6471 3.91333,-12.03426 0.62624,-5.35629 -2.67285,-5.71904 -12.46919,-1.3707 -3.67976,1.63334 -8.99865,3.85025 -11.819849,4.92638 -6.879603,2.62418 -6.459768,5.22922 1.414989,8.78025 11.95169,5.38946 13.78254,10.20222 6.60961,17.37515 -4.9518,4.95181 -11.788562,8.04347 -19.467254,8.80412 -5.286449,0.52368 -5.504918,0.34361 -5.080487,-4.18764 l 0.443592,-4.73453 -3.063895,3.55089 c -3.377541,3.91463 -8.081881,4.75119 -8.081881,1.43712 0,-1.16275 1.775301,-2.92324 3.945445,-3.91203 3.944976,-1.79745 5.414851,-5.02187 2.289141,-5.02187 -0.911154,0 -3.66203,1.03686 -6.113049,2.30433 -4.858388,2.51238 -6.434686,1.88353 -6.434686,-2.56735 0,-2.01559 1.168951,-2.89377 3.852576,-2.89377 5.517102,0 6.378645,-2.62323 1.28171,-3.90247 -2.372459,-0.59545 -4.866233,-1.91399 -5.541856,-2.93022 -0.884231,-1.33006 -1.659301,-1.11858 -2.766583,0.75436 -1.439495,2.43487 -8.51807,4.59041 -22.472992,6.84398 -3.255222,0.52568 -5.918602,1.63404 -5.918602,2.46276 0,1.77472 8.806301,1.8177 19.270192,0.0942 7.177713,-1.18225 7.48619,-1.07193 8.981219,3.21669 1.388781,3.9839 1.075637,4.72047 -3.043082,7.15346 -4.94248,2.9196 -7.380453,6.83185 -4.246678,6.8149 1.057814,-0.006 3.940334,-1.34028 6.405174,-2.96538 4.042538,-2.66528 4.929436,-2.73108 9.053688,-0.67363 l 4.572206,2.28089 -3.194982,6.26237 c -1.757149,3.4443 -2.763894,6.95989 -2.237053,7.81234 1.430337,2.31432 2.967768,0.79493 6.360015,-6.28408 2.894522,-6.0403 3.44041,-6.38717 10.076307,-6.40429 5.500561,-0.0142 7.984401,0.90981 11.499962,4.27792 5.949013,5.69951 9.695183,3.60328 10.387063,-5.8127 0.28629,-3.89591 1.77867,-8.09847 3.55135,-10.00121 1.68158,-1.80496 3.05695,-4.5684 3.05695,-6.14084 0,-4.05011 8.12962,-3.79921 11.90016,0.3672 1.60575,1.77433 4.3794,3.01705 6.1634,2.76182 2.65474,-0.3798 3.24359,-1.61022 3.24359,-6.77715 0,-3.47221 0.88768,-7.86425 1.97273,-9.76031 1.08509,-1.89606 1.97273,-4.55945 1.97273,-5.9186 0,-1.58375 1.41713,-2.47101 3.94589,-2.47101 4.84149,0 5.25477,-2.74456 0.51824,-3.44153 -5.12419,-0.754 -5.02368,-3.28048 0.27127,-6.8175 2.59895,-1.73612 4.72725,-3.68939 4.72976,-4.34042 0.01,-2.34266 -4.30029,-1.11771 -7.15129,2.03261 -2.51395,2.77791 -3.09453,2.88774 -4.25926,0.80646 -0.91454,-1.63418 -0.0568,-4.31098 2.6659,-8.31756 4.00071,-5.88755 5.12777,-9.90963 2.77658,-9.90963 z m -33.24594,3.92895 c -1.25162,0.005 -2.95464,0.47203 -5.20027,1.37245 -2.91338,1.16816 -6.584998,2.57903 -8.159128,3.13509 -4.643664,1.64037 -1.520628,4.09493 3.410702,2.68065 2.502836,-0.71781 5.608256,-0.62981 7.093556,0.20139 3.33349,1.86553 5.77322,0.41721 5.77322,-3.4272 0,-2.69471 -0.83205,-3.97055 -2.91808,-3.96238 z m -24.295102,9.361 c -1.964508,0.004 -4.741252,0.75671 -8.183006,2.27916 -7.386524,3.26741 -10.368693,7.78815 -3.66635,5.55792 1.953108,-0.64991 6.02587,-1.23035 9.050212,-1.28997 3.930135,-0.0775 5.651527,-0.89762 6.034923,-2.8751 0.472949,-2.43938 -0.709975,-3.67614 -3.235779,-3.67201 z m 45.171682,33.09445 c 0.5752,0.0193 0.98094,0.64523 0.98094,1.66022 0,2.77229 -0.94702,3.1805 -2.29999,0.99135 -0.49941,-0.80808 -0.18602,-1.91535 0.69621,-2.46059 0.22054,-0.13631 0.43111,-0.19744 0.62284,-0.19098 z M 103.4808,974.4519 c 0.8278,-0.0227 0.83263,0.8106 0.48571,2.62292 -0.29081,1.51909 -0.58291,3.29483 -0.64933,3.94588 -0.1967,1.92822 -2.75039,1.35251 -4.764059,-1.07383 -1.496068,-1.80264 -1.238373,-2.59719 1.280864,-3.94544 1.861245,-0.99612 3.002975,-1.53185 3.646815,-1.54953 z m -73.698255,17.97413 c -0.600332,-0.0407 -1.354757,0.42361 -2.217519,1.46316 -1.408382,1.69701 -2.965191,1.96235 -5.610436,0.95663 -3.563834,-1.35497 -5.563991,-0.73683 -5.563991,1.71968 0,0.66488 1.296444,1.62051 2.880721,2.12335 2.129451,0.6758 2.709137,2.07975 2.224054,5.38465 -0.541175,3.6873 0.267697,5.062 4.616469,7.8462 5.971581,3.8231 7.640016,4.1904 7.640016,1.6828 0,-0.9601 -1.775749,-3.1421 -3.945891,-4.8491 -4.243389,-3.3379 -5.329315,-6.4632 -1.771326,-5.0979 1.497095,0.5745 2.427816,-0.7929 2.987523,-4.38985 0.656379,-4.21826 0.08108,-6.75018 -1.23962,-6.83962 z m 108.043185,5.56139 c -3.01297,0 -1.33361,4.34378 4.16161,10.76378 6.38898,7.4641 10.81648,8.3496 16.28312,3.2566 2.54714,-2.373 3.09652,-3.8299 1.89675,-5.0297 -1.19978,-1.1997 -2.76041,-0.6821 -5.38863,1.787 -3.58519,3.3681 -3.78182,3.3852 -6.33441,0.5647 -1.4488,-1.601 -2.63423,-4.5287 -2.63423,-6.5063 0,-2.5129 -0.69773,-3.32795 -2.3169,-2.7067 -1.27428,0.489 -2.73663,0.2099 -3.24969,-0.62025 -0.51306,-0.8301 -1.60079,-1.50913 -2.41762,-1.50913 z m -81.057017,9.46948 c -1.374425,0 -2.499219,1.1243 -2.499219,2.4988 0,2.7871 3.397917,2.3019 4.373416,-0.6246 0.343613,-1.0309 -0.499772,-1.8742 -1.874197,-1.8742 z m -4.431573,5.6204 c -0.901764,0.013 -2.161919,1.085 -3.394229,3.468 -2.3311,4.5079 -2.038957,6.6942 0.894143,6.6942 0.744869,0 2.073093,-1.8909 2.951923,-4.2024 1.418427,-3.7307 0.866097,-5.9777 -0.451837,-5.9598 z m 71.59055,0.5469 c -1.07432,0.019 -2.89551,1.0511 -5.18507,3.1841 l -3.26096,3.0383 4.30352,5.6422 c 4.39882,5.7671 7.12494,7.1888 7.0354,3.6694 -0.0276,-1.0851 -1.06566,-3.3139 -2.3065,-4.9529 -1.583,-2.091 -1.80322,-3.8258 -0.73874,-5.8149 1.68033,-3.1397 1.53361,-4.7904 0.15235,-4.7662 z m -48.054594,6.5922 c -0.910137,0.014 -2.136443,0.1845 -3.379889,0.4966 -2.955679,0.7418 -4.019249,2.0447 -4.019249,4.9242 0,2.1536 0.752225,3.9155 1.671502,3.9155 0.919298,0 1.232686,0.7106 0.696201,1.5786 -0.536485,0.868 -2.709359,1.5782 -4.828276,1.5782 -2.372303,0 -3.852576,0.9095 -3.852576,2.3673 0,2.6053 7.183178,3.2688 10.769901,0.9948 2.145834,-1.3605 5.732991,-14.2161 4.352153,-15.5969 -0.185382,-0.1854 -0.701889,-0.2692 -1.409767,-0.2583 z m 23.334137,3.2562 c -2.971329,-0.1171 -7.058846,3.1011 -7.058846,6.7043 0,6.9068 9.989923,7.7222 10.508163,0.8576 0.16785,-2.2234 -0.30168,-5.0243 -1.04299,-6.2237 -0.54972,-0.8895 -1.41589,-1.2991 -2.406327,-1.3382 z"
       id="rect4149"
       inkscape:connector-curvature="0" />
  </g>
</svg>
