<?xml version="1.0" encoding="UTF-8" standalone="no"?>
<!-- Created with Inkscape (http://www.inkscape.org/) -->

<svg
   xmlns:dc="http://purl.org/dc/elements/1.1/"
   xmlns:cc="http://creativecommons.org/ns#"
   xmlns:rdf="http://www.w3.org/1999/02/22-rdf-syntax-ns#"
   xmlns:svg="http://www.w3.org/2000/svg"
   xmlns="http://www.w3.org/2000/svg"
   xmlns:sodipodi="http://sodipodi.sourceforge.net/DTD/sodipodi-0.dtd"
   xmlns:inkscape="http://www.inkscape.org/namespaces/inkscape"
   width="210mm"
   height="297mm"
   viewBox="0 0 744.09448819 1052.3622047"
   id="svg2"
   version="1.1"
   inkscape:version="0.91 r13725"
   sodipodi:docname="tigert.svg">
  <defs
     id="defs4" />
  <sodipodi:namedview
     id="base"
     pagecolor="#ffffff"
     bordercolor="#666666"
     borderopacity="1.0"
     inkscape:pageopacity="0.0"
     inkscape:pageshadow="2"
     inkscape:zoom="0.35"
     inkscape:cx="-346.42857"
     inkscape:cy="514.28571"
     inkscape:document-units="px"
     inkscape:current-layer="layer1"
     showgrid="false"
     inkscape:window-width="2560"
     inkscape:window-height="1376"
     inkscape:window-x="0"
     inkscape:window-y="27"
     inkscape:window-maximized="1" />
  <metadata
     id="metadata7">
    <rdf:RDF>
      <cc:Work
         rdf:about="">
        <dc:format>image/svg+xml</dc:format>
        <dc:type
           rdf:resource="http://purl.org/dc/dcmitype/StillImage" />
        <dc:title></dc:title>
      </cc:Work>
    </rdf:RDF>
  </metadata>
  <g
     inkscape:label="Layer 1"
     inkscape:groupmode="layer"
     id="layer1">
    <path
       style="color:#000000;clip-rule:nonzero;display:inline;overflow:visible;visibility:visible;opacity:1;isolation:auto;mix-blend-mode:normal;color-interpolation:sRGB;color-interpolation-filters:linearRGB;solid-color:#000000;solid-opacity:1;fill:#000000;fill-opacity:1;fill-rule:evenodd;stroke:none;stroke-width:0.30000001;stroke-linecap:round;stroke-linejoin:round;stroke-miterlimit:4;stroke-dasharray:none;stroke-dashoffset:8.05119991;stroke-opacity:1;marker:none;color-rendering:auto;image-rendering:auto;shape-rendering:auto;text-rendering:auto;enable-background:accumulate"
       d="m 456.34154,207.03627 c -7.9228,-0.29772 -21.1965,3.89627 -31.6797,10.27149 -17.5078,10.64713 -25.6279,11.78635 -41.3711,5.80078 -16.5837,-6.30509 -21.0287,-5.2768 -28.9844,6.70508 -8.1196,12.22879 -12.3723,13.11453 -31.2851,6.52148 -17.549,-6.11764 -23.4307,-5.53878 -29.6778,2.91992 -4.2854,5.80248 -16.5804,12.7376 -27.3222,15.41211 -10.7418,2.67451 -19.5313,9.25425 -19.5313,14.6211 0,5.36686 -4.7931,11.59732 -10.6523,13.8457 -5.8592,2.24838 -10.6543,8.79283 -10.6543,14.54297 0,9.14037 -2.4542,9.17479 -19.5293,0.26758 -64.1344,-33.45566 -125.371897,30.12223 -76.2891,79.20507 25.219,25.21897 38.1748,13.72238 13.5274,-12.0039 -17.1416,-17.89204 -18.5396,-22.58884 -11.3887,-38.2832 6.6281,-14.54722 13.1902,-17.88868 35.1308,-17.88868 14.8391,0 34.6825,5.395 44.0957,11.98828 13.3986,9.38473 17.7895,9.96384 20.2227,2.66407 1.7095,-5.12847 9.0999,-15.31665 16.4238,-22.64063 7.324,-7.32398 13.3164,-16.51379 13.3164,-20.41992 0,-3.90612 6.0021,-7.10156 13.336,-7.10156 7.334,0 17.4307,-4.93591 22.4375,-10.96875 6.3138,-7.60759 15.4307,-9.57949 29.7539,-6.4336 14.2172,3.12263 24.6428,0.92589 33.459,-7.05273 10.6522,-9.64005 15.9576,-10.1535 31.5507,-3.04883 16.4959,7.51602 20.9158,6.50441 36.8145,-8.43164 16.9114,-15.88742 19.2922,-16.28947 37.2148,-6.27734 13.6253,7.61159 19.7998,17.4146 21.4063,33.98828 2.5438,26.24315 17.6445,27.35461 21.418,1.57617 2.6021,-17.77593 -26.8225,-53.65069 -48.6973,-59.37109 -0.8897,-0.23266 -1.9131,-0.36567 -3.0449,-0.40821 z m 168.0879,87.73438 c -3.0639,0 -11.4954,10.02917 -18.7364,22.28711 -7.2408,12.25793 -19.2464,28.36747 -26.6777,35.79883 -13.2808,13.28074 -13.2626,13.82596 0.9824,31.93554 32.9892,41.939 3.47,101.45171 -56.2441,113.39453 l -21.5762,4.31641 15.3262,-34.62109 c 8.4291,-19.04155 16.3535,-43.41051 17.6094,-54.15235 2.818,-24.10245 -12.0274,-25.73481 -56.1094,-6.16797 -16.5584,7.34986 -40.4926,17.32557 -53.1875,22.16797 -30.9572,11.80845 -29.068,23.5307 6.3672,39.50977 53.7808,24.25178 62.0193,45.90844 29.7422,78.18554 -22.2823,22.28237 -53.0467,36.19439 -87.5996,39.61719 -23.7882,2.35645 -24.7713,1.54616 -22.8614,-18.84375 l 1.9961,-21.30469 -13.7871,15.97852 c -15.1984,17.61523 -36.3672,21.3796 -36.3672,6.4668 0,-5.23219 7.9886,-13.15415 17.7539,-17.60352 17.7518,-8.08827 24.366,-22.59766 10.3008,-22.59766 -4.1001,0 -16.4786,4.66575 -27.5078,10.36915 -21.862,11.30531 -28.9551,8.4756 -28.9551,-11.55274 0,-9.06979 5.2601,-13.02148 17.336,-13.02148 24.8261,0 28.7029,-11.80414 5.7675,-17.56055 -10.6757,-2.67943 -21.8973,-8.61259 -24.9375,-13.18555 -3.9789,-5.98503 -7.4666,-5.03338 -12.4492,3.39453 -6.4775,10.95656 -38.33,20.65618 -101.125,30.79688 -14.648,2.36548 -26.6328,7.3529 -26.6328,11.08203 0,7.98597 39.627,8.17937 86.7129,0.42383 32.2986,-5.31994 33.6867,-4.82354 40.4141,14.47461 6.2493,17.92695 4.8402,21.24137 -13.6934,32.18945 -22.2404,13.13772 -33.2109,30.74227 -19.1094,30.66602 4.76,-0.0256 17.7309,-6.03104 28.8223,-13.34375 18.1908,-11.99335 22.1817,-12.28946 40.7402,-3.03125 l 20.5742,10.26367 -14.3769,28.17969 c -7.9069,15.49883 -12.4371,31.31842 -10.0664,35.15429 6.4363,10.41411 13.3545,3.57711 28.6191,-28.27734 13.0249,-27.18043 15.4813,-28.74129 45.3418,-28.81836 24.7517,-0.0639 35.9286,4.09398 51.7481,19.25 26.7696,25.64692 43.6268,16.21417 46.7402,-26.15625 1.2882,-17.53097 8.0037,-36.44187 15.9805,-45.00391 7.5668,-8.12201 13.7558,-20.55711 13.7558,-27.63281 0,-18.22486 36.582,-17.09589 53.5489,1.65234 7.2256,7.9842 19.7066,13.57621 27.7343,12.42774 11.9459,-1.70902 14.5957,-7.24576 14.5957,-30.49609 0,-15.62449 3.9944,-35.38794 8.877,-43.91993 4.8827,-8.53198 8.8769,-20.51683 8.8769,-26.63281 0,-7.1266 6.3769,-11.11914 17.7559,-11.11914 21.786,0 23.6457,-12.35012 2.332,-15.48633 -23.058,-3.39287 -22.6058,-14.76166 1.2207,-30.67773 11.6949,-7.81225 21.2719,-16.60165 21.2832,-19.53125 0.043,-10.54158 -19.3506,-5.02948 -32.1797,9.14648 -11.3124,12.50014 -13.9249,12.99435 -19.166,3.62891 -4.1153,-7.35351 -0.2551,-19.39877 11.9961,-37.42773 18.0026,-26.49308 23.0742,-44.5918 12.4942,-44.5918 z m -149.6016,17.67969 c -5.6321,0.0221 -13.2954,2.12406 -23.4004,6.17578 -13.1098,5.25656 -29.6315,11.60526 -36.7148,14.10742 -20.8958,7.38141 -6.8426,18.42656 15.3476,12.0625 11.2624,-3.23002 25.2363,-2.83404 31.9199,0.90625 15.0002,8.39458 25.9786,1.87736 25.9786,-15.42188 0,-12.1258 -3.7441,-17.8669 -13.1309,-17.83007 z m -109.3242,42.12304 c -8.84,0.0145 -21.3349,3.40503 -36.8223,10.25586 -33.2382,14.7028 -46.6575,35.04547 -16.498,25.00977 8.7887,-2.92451 27.1155,-5.53638 40.7246,-5.80469 17.685,-0.34864 25.431,-4.03911 27.1562,-12.9375 2.1282,-10.9768 -3.1948,-16.54205 -14.5605,-16.52344 z m 203.2656,148.91992 c 2.5883,0.0871 4.4141,2.90342 4.4141,7.47071 0,12.47492 -4.2615,14.31177 -10.3496,4.46093 -2.2473,-3.63622 -0.8371,-8.61876 3.1328,-11.07226 0.9924,-0.61337 1.9399,-0.88842 2.8027,-0.85938 z m -122.1426,83.08594 c 3.725,-0.10232 3.7467,3.64762 2.1856,11.80274 -1.3086,6.83571 -2.623,14.82626 -2.9219,17.75585 -0.8851,8.67669 -12.3763,6.08612 -21.4375,-4.83203 -6.7321,-8.11161 -5.5725,-11.68697 5.7637,-17.7539 8.3753,-4.48236 13.5129,-6.89308 16.4101,-6.97266 z m -331.6308,80.88086 c -2.7014,-0.18294 -6.0962,1.90612 -9.9785,6.58399 -6.337497,7.63628 -13.342897,8.83024 -25.246097,4.30468 -16.0367,-6.09716 -25.0371,-3.31562 -25.0371,7.73828 0,2.99189 5.8338,7.29205 12.9628,9.55469 9.5822,3.04123 12.1907,9.35872 10.0079,24.23047 -2.4352,16.59235 1.2046,22.77829 20.7734,35.30664 26.871197,17.20342 34.378897,18.85614 34.378897,7.57227 0,-4.32045 -7.9906,-14.13889 -17.7559,-21.82031 -19.094597,-15.01991 -23.981097,-29.08329 -7.9707,-22.93946 6.7367,2.58508 10.9248,-3.56814 13.4434,-19.7539 2.9536,-18.98165 0.3648,-30.37489 -5.5781,-30.77735 z m 486.1777,25.02539 c -13.5579,0 -6.0011,19.54679 18.7266,48.43555 28.7494,33.58711 48.6725,37.5718 73.2715,14.6543 11.4618,-10.67835 13.9339,-17.23406 8.5351,-22.63282 -5.3988,-5.39876 -12.4214,-3.06934 -24.248,8.04102 -16.1328,15.15604 -17.0176,15.23314 -28.5039,2.54101 -6.5194,-7.20394 -11.8536,-20.3782 -11.8536,-29.27734 0,-11.30773 -3.1397,-14.97562 -10.4257,-12.17969 -5.7341,2.20035 -12.3144,0.94453 -14.6231,-2.79101 -2.3087,-3.73553 -7.2033,-6.79102 -10.8789,-6.79102 z m -364.7441,42.61133 c -6.1847,0 -11.2461,5.05947 -11.2461,11.24414 0,12.54171 15.2901,10.35819 19.6797,-2.81055 1.5462,-4.63856 -2.2489,-8.43359 -8.4336,-8.43359 z m -19.9414,25.29102 c -4.0578,0.0553 -9.7283,4.88229 -15.2735,15.60547 -10.4896,20.28478 -9.175,30.12304 4.0235,30.12304 3.3518,0 9.3286,-8.50878 13.2832,-18.91015 6.3827,-16.78782 3.8973,-26.89912 -2.0332,-26.81836 z m 322.1464,2.46093 c -4.8342,0.0847 -13.0293,4.72976 -23.332,14.32813 l -14.6738,13.67187 19.3652,25.38868 c 19.794,25.95129 32.0611,32.34904 31.6582,16.51171 -0.1242,-4.88266 -4.7953,-14.91179 -10.3789,-22.28711 -7.1232,-9.40892 -8.1142,-17.21566 -3.3242,-26.16601 7.5612,-14.12827 6.901,-21.5562 0.6855,-21.44727 z m -216.2382,29.66407 c -4.0955,0.0631 -9.6137,0.83001 -15.209,2.23437 -13.3001,3.3381 -18.086,9.20088 -18.086,22.1582 0,9.69087 3.3849,17.61914 7.5215,17.61914 4.1367,0 5.5469,3.19739 3.1328,7.10352 -2.4141,3.90612 -12.1917,7.10156 -21.7265,7.10156 -10.675,0 -17.336,4.09248 -17.336,10.65235 0,11.72348 32.3232,14.70947 48.4629,4.47656 9.6559,-6.12203 25.7976,-63.97001 19.584,-70.18359 -0.8342,-0.83418 -3.1584,-1.21118 -6.3437,-1.16211 z m 105,14.65234 c -13.3705,-0.52718 -31.7637,13.95438 -31.7637,30.16797 0,31.0798 44.9531,34.74892 47.2851,3.85937 0.7553,-10.00507 -1.3575,-22.60852 -4.6933,-28.00586 -2.4736,-4.00228 -6.3713,-5.84575 -10.8281,-6.02148 z"
       id="rect4149"
       inkscape:connector-curvature="0" />
  </g>
</svg>
