<?xml version="1.0" encoding="UTF-8" standalone="no"?>
<!-- Created with Inkscape (http://www.inkscape.org/) -->

<svg
   xmlns:dc="http://purl.org/dc/elements/1.1/"
   xmlns:cc="http://creativecommons.org/ns#"
   xmlns:rdf="http://www.w3.org/1999/02/22-rdf-syntax-ns#"
   xmlns:svg="http://www.w3.org/2000/svg"
   xmlns="http://www.w3.org/2000/svg"
   xmlns:sodipodi="http://sodipodi.sourceforge.net/DTD/sodipodi-0.dtd"
   xmlns:inkscape="http://www.inkscape.org/namespaces/inkscape"
   id="svg4827"
   version="1.1"
   inkscape:version="0.91 r13725"
   xml:space="preserve"
   width="10cm"
   height="3cm"
   viewBox="0 0 354.3307 106.29921"
   sodipodi:docname="sticker.svg"><metadata
     id="metadata4833"><rdf:RDF><cc:Work
         rdf:about=""><dc:format>image/svg+xml</dc:format><dc:type
           rdf:resource="http://purl.org/dc/dcmitype/StillImage" /><dc:title></dc:title></cc:Work></rdf:RDF></metadata><defs
     id="defs4831" /><sodipodi:namedview
     pagecolor="#ffffff"
     bordercolor="#666666"
     borderopacity="1"
     objecttolerance="10"
     gridtolerance="10"
     guidetolerance="10"
     inkscape:pageopacity="0"
     inkscape:pageshadow="2"
     inkscape:window-width="2560"
     inkscape:window-height="1376"
     id="namedview4829"
     showgrid="false"
     units="cm"
     inkscape:zoom="1"
     inkscape:cx="-268.43413"
     inkscape:cy="-56.205227"
     inkscape:window-x="0"
     inkscape:window-y="27"
     inkscape:window-maximized="1"
     inkscape:current-layer="g4835" /><g
     id="g4835"
     inkscape:groupmode="layer"
     inkscape:label="sticker"
     transform="matrix(1.25,0,0,-1.25,0,106.29922)"><g
       id="g5587"
       transform="matrix(0.15901396,0,0,0.15901396,16.311362,-3.5645414)"><path
         d="m 346.133,413.516 -0.516,-7.296 c -0.285,-4.012 -1.461,-14.047 -2.609,-22.301 l -2.09,-15 -0.074,-10 -0.071,-10 1.754,-9.688 1.754,-9.691 -0.011,-6.309 -0.012,-6.312 -3.156,-20 -0.024,-10.547 2.211,-7.336 5.047,-7.484 -1.852,-2.235 -7.804,0 -0.02,-29 -0.015,-29 -1.086,-8.207 -1.086,-8.211 1.066,-2.988 1.07,-2.992 0.071,-12.242 -3.344,-22.157 0.367,-4.851 0.367,-4.848 1.575,-3.562 1.578,-3.563 2.523,-2.383 2.527,-2.386 2.602,-0.942 0,-0.004 2.605,-0.941 4.067,-0.063 c 3.473,-0.05 11.254,1.012 14.508,1.981 l 0.976,0.293 -3.117,6.867 -0.008,5.199 -0.011,5.199 1.996,4.286 1.992,4.285 3.476,-4.723 c 1.914,-2.598 5.672,-6.867 8.348,-9.484 l 4.863,-4.762 8.969,-5.43 4.016,1.828 4.847,0 2.453,-2.453 2.457,-2.453 9.282,2.438 c 5.109,1.34 15.011,3.882 22.015,5.648 l 12.727,3.211 5.695,2.813 5.692,2.812 4.14,3.621 4.137,3.621 2.574,3.973 c 2.438,3.758 3.906,4.949 3.906,3.172 l 0,-0.801 1.801,0.027 1.797,0.024 1.535,1.164 1.535,1.16 -1.41,1.559 c -0.777,0.859 -1.898,2.933 -2.5,4.613 l -1.09,3.055 -0.07,8.335 2.402,10.735 c 1.321,5.902 2.399,11.457 2.399,12.34 l 0,1.605 -1.996,1.309 -2,1.308 -5.613,1.063 c -3.09,0.582 -5.879,1.332 -6.204,1.668 l -0.586,0.601 3.981,3.524 c 2.191,1.933 4.566,3.703 5.281,3.93 l 1.297,0.414 1.047,16.367 1.102,4.648 1.101,4.645 -0.801,6.554 -0.804,6.551 -0.051,18.403 -0.055,18.398 1.371,24.402 c 0.754,13.418 1.547,26.246 1.766,28.508 l 0.394,4.11 -1.812,0.457 -1.817,0.46 -0.375,12.469 -2.73,8.223 -2.734,8.226 -5.36,9.133 -6.445,6.407 -6.441,6.406 -13.29,7.812 -0.628,-1.019 -0.633,-1.02 -3.883,0.531 c -2.133,0.29 -6.07,0.747 -8.746,1.008 l -4.863,0.485 -3.36,-4.274 -11.457,1.281 -11.457,1.278 -20.586,0.722 c -11.324,0.399 -23.238,0.965 -26.472,1.258 l -5.887,0.535 z m 61.746,-27.605 2.891,-0.695 2.89,-0.7 2.945,-2 c 1.618,-1.097 3.11,-1.996 3.309,-1.996 0.199,0 0.363,1.078 0.363,2.399 l 0,2.398 1.664,0 2.168,-3.492 2.168,-3.488 4.403,-1.754 4.398,-1.754 5,-4.766 5,-4.761 0,-3.758 -4.574,-2.711 -4.574,-2.715 -2.602,-3.434 -2.605,-3.433 -0.996,-3.367 -0.993,-3.364 0.289,-16 0.915,-6.402 0.914,-6.398 -0.598,-20 c -0.328,-11 -0.637,-30.184 -0.684,-42.629 l -0.093,-22.625 -1.039,-0.649 -1.047,-0.648 4.843,-4.485 c 2.664,-2.464 4.844,-4.629 4.844,-4.804 0,-0.18 -1.848,-0.149 -4.105,0.066 l -4.11,0.395 0.371,-8.711 0.368,-8.711 1.285,-2.461 c 0.707,-1.352 1.851,-2.922 2.539,-3.496 l 1.254,-1.039 0,-12.758 -1.262,-4.332 -1.258,-4.332 -2.105,-2.5 -2.102,-2.5 -2.609,-1.09 -2.614,-1.094 -8.453,0.141 -2.398,0.781 -2.402,0.785 -11.68,-0.094 -2.93,1.227 c -1.613,0.672 -3.566,1.797 -4.344,2.504 l -1.414,1.277 -2.429,-2.015 -0.075,4.297 c -0.039,2.363 -0.289,8.8 -0.554,14.3 -0.266,5.5 -0.446,12.887 -0.395,16.418 l 0.086,6.422 1.32,5.18 1.325,5.18 3.343,5.597 c 1.84,3.082 3.797,6.633 4.348,7.895 l 1,2.289 0,7.105 -3.445,1.528 -3.445,1.523 -17.227,1.633 -3.168,0.949 -3.172,0.949 -1.973,1.828 -1.968,1.825 0,3.328 1.125,0.433 1.129,0.434 2.433,-1.258 c 1.336,-0.695 3.153,-1.258 4.031,-1.258 l 1.602,0 0.727,1.301 0.73,1.301 5.188,-2.902 c 2.851,-1.594 5.402,-2.903 5.667,-2.903 0.266,0 -0.039,1.25 -0.675,2.774 l -1.16,2.777 0,4.012 c 0,5.054 1.238,13.777 3.128,22.039 l 1.465,6.398 -0.359,3.203 -0.359,3.2 1.261,5.449 1.266,5.449 0,11 -1.285,5.449 -1.289,5.453 0.461,12 0.464,12 2.684,15.598 2.688,15.602 7.14,0.093 7.137,0.098 z"
         style="fill:#000000;fill-opacity:1;fill-rule:nonzero;stroke:none"
         id="path4839"
         inkscape:connector-curvature="0" /><path
         d="m 441.879,164.173 c 0,0.222 -0.719,0.015 -1.602,-0.453 -0.879,-0.473 -1.597,-1.04 -1.597,-1.258 0,-0.219 0.718,-0.016 1.597,0.457 0.883,0.469 1.602,1.035 1.602,1.254 z"
         style="fill:#000000;fill-opacity:1;fill-rule:nonzero;stroke:none"
         id="path4841"
         inkscape:connector-curvature="0" /><path
         d="m 190.84,421.317 -4.211,-4.597 -4.211,-4.602 -1.922,-4.184 -1.918,-4.179 -0.324,-21.93 -0.328,-21.93 0.793,-10.289 c 0.437,-5.66 1.136,-15.687 1.551,-22.289 l 0.753,-12 1.227,-7.199 c 0.672,-3.961 1.207,-8.82 1.191,-10.801 l -0.035,-3.597 -2.273,-6.399 1.031,-1.035 1.039,-1.031 -1.851,-3.77 -1.848,-3.765 -0.766,-5.489 -0.765,-5.492 0.875,-21.82 -1.27,-5.938 -1.269,-5.933 0.968,-1.172 0.973,-1.168 0.016,-14.895 0.011,-14.894 -1.031,-2.906 -1.031,-2.911 1.34,-2.804 1.336,-2.805 -1.305,-5.785 c -0.719,-3.184 -1.309,-7.028 -1.309,-8.539 l 0,-2.758 0.825,-1.531 0.82,-1.535 -1.352,-4.118 -1.343,-4.121 1.437,-7.695 c 0.793,-4.231 1.606,-8.145 1.813,-8.695 l 0.375,-1 3.71,-1.141 3.715,-1.145 4.45,-0.054 4.445,-0.059 17.508,3.297 6.644,0.07 6.645,0.067 0.875,-0.879 0.879,-0.879 3.48,2.043 3.481,2.039 2.597,-0.918 2.598,-0.914 13.289,-0.766 13.293,-0.769 6.094,2.547 4.461,0.097 c 2.457,0.055 6.152,-0.175 8.218,-0.511 l 3.758,-0.606 -0.703,2.442 -0.699,2.441 7.344,-0.023 7.343,-0.028 1.555,-1.176 1.551,-1.171 4.469,0 4.937,4.406 -0.855,2.25 -0.856,2.246 0,5.613 2.07,8.942 2.075,8.941 -0.36,3.84 -0.355,3.836 -2.317,2.429 c -1.273,1.34 -2.976,2.793 -3.789,3.235 l -1.476,0.797 -1.637,-1.758 -1.641,-1.758 -4.484,0.484 c -2.469,0.266 -6.676,0.711 -9.352,0.989 l -4.863,0.504 -1.676,-2.133 -1.679,-2.133 -11.86,1.363 -11.855,1.364 -18.801,0.07 c -10.34,0.039 -20.586,-0.109 -22.766,-0.328 l -3.964,-0.399 -0.754,2.618 -0.758,2.617 1.914,6.39 5.102,5.813 2.589,1.078 c 1.422,0.598 3.497,1.082 4.614,1.082 l 2.023,0 0.031,11.402 c 0.036,13.246 0.395,19.848 1.938,35.797 l 1.121,11.602 -0.125,7.199 -0.121,7.199 2.18,4.699 2.175,4.7 0,11.851 2.438,5.836 -0.617,0.539 c -0.34,0.297 -2.282,0.985 -4.309,1.531 l -3.695,0.993 -0.953,13.851 0.382,13.203 c 0.211,7.258 0.727,17.16 1.145,22 0.418,4.84 0.992,14.739 1.277,22 l 0.52,13.2 -0.914,9.199 c -0.504,5.058 -1.125,10.371 -1.383,11.801 l -0.469,2.597 -38.859,0 z m 54.328,-259.597 1.156,-1.555 c 0.637,-0.852 1.153,-1.844 1.153,-2.199 l 0,-0.649 -6.762,0 2.226,2.203 2.227,2.2 z"
         style="fill:#000000;fill-opacity:1;fill-rule:nonzero;stroke:none"
         id="path4843"
         inkscape:connector-curvature="0" /><path
         d="m 743.734,113.899 -3.316,1.106 -4.305,3.992 0.364,1.359 c 0.199,0.75 3.16,5.235 6.582,9.965 l 6.218,8.606 2.727,2.394 2.73,2.399 4.559,0 1.238,-1.891 c 0.68,-1.039 1.844,-3.977 2.59,-6.531 l 1.348,-4.649 -0.465,-3.922 -0.465,-3.918 -1.711,-2.769 -1.711,-2.774 -3.144,-1.601 c -1.727,-0.883 -4.668,-1.891 -6.532,-2.238 l -3.39,-0.633 -3.317,1.105 z"
         style="fill:#000000;fill-opacity:1;fill-rule:nonzero;stroke:none"
         id="path4845"
         inkscape:connector-curvature="0" /><path
         d="m 817.48,119.516 c -0.312,0.774 -1.265,3.383 -2.121,5.801 l -1.554,4.403 -3.16,18.265 -3.165,18.266 1,6.242 -1.289,1.969 -1.289,1.965 -5.136,2.871 c -2.825,1.582 -5.571,3.398 -6.106,4.043 l -0.972,1.168 2.507,3.828 2.891,1.785 2.891,1.789 -0.559,1.301 c -0.309,0.718 -1.195,4.187 -1.977,7.707 -1.464,6.633 -3.003,10.801 -3.992,10.801 -0.312,0 -2.156,-0.887 -4.094,-1.973 l -3.523,-1.969 -7.578,-1.269 c -4.164,-0.7 -9.41,-1.786 -11.652,-2.418 l -4.075,-1.145 -0.504,-9.953 -0.503,-9.949 -1.258,-6.082 c -1.367,-6.629 -3.485,-12.137 -6.047,-15.735 l -1.645,-2.308 -5.422,0 -2,-2.602 c -1.101,-1.429 -3.285,-4.32 -4.851,-6.426 l -2.848,-3.824 0.797,-1.484 0.793,-1.488 -2.211,-0.915 -2.211,-0.917 -9.531,0.23 -9.531,0.227 -2.243,7.226 3.286,31.586 c 1.808,17.371 6.914,66.508 11.351,109.188 l 8.063,77.597 0.711,14.801 c 0.39,8.141 1.035,18.578 1.429,23.199 l 0.719,8.403 1.203,2.796 1.199,2.801 4.258,3.93 2.574,-1.035 c 1.415,-0.567 3.833,-1.356 5.375,-1.746 l 2.797,-0.711 4.985,-0.02 4.984,-0.015 16.617,3.261 16.617,3.266 5.399,-0.356 5.398,-0.359 3.27,-2.164 3.273,-2.168 2.129,-4.539 2.129,-4.543 0.121,-16 0.117,-16 0.911,-6.801 c 1.378,-10.328 2.914,-17.793 8.07,-39.199 l 4.723,-19.602 2.078,-12 2.074,-12 0.473,-11.679 0.468,-11.68 -0.508,-2.019 -0.507,-2.016 -4.61,-1.664 c -2.535,-0.918 -6.05,-2.039 -7.808,-2.5 l -3.2,-0.832 -10.8,-0.809 c -5.942,-0.449 -12.871,-0.996 -15.403,-1.219 l -4.597,-0.406 0,0.668 c 0,2.129 -8.36,69.988 -10.012,81.278 -2.043,13.96 -6.488,36.886 -7.504,38.695 l -0.574,1.027 -5.426,-60.344 -5.426,-60.347 1.598,-3.617 1.602,-3.622 2.562,-1.324 2.559,-1.324 8.218,-0.82 3.602,1.265 c 1.98,0.696 4.465,1.274 5.523,1.278 l 1.926,0.011 2.875,-2.136 c 1.582,-1.176 3.02,-2.25 3.195,-2.387 0.176,-0.137 0.469,-1.965 0.653,-4.063 0.183,-2.097 0.683,-4.941 1.113,-6.316 l 0.774,-2.504 3.093,-2.797 6.262,3.258 c 3.441,1.793 11.43,5.246 17.742,7.676 l 11.485,4.414 0.691,-0.426 c 1.144,-0.707 3.641,-6.094 4.98,-10.742 l 1.258,-4.375 1.254,-11.199 c 1.699,-15.137 3.016,-22.77 7.192,-41.602 4.343,-19.609 5.75,-27.66 6.453,-36.976 l 0.543,-7.188 -0.563,-5.262 -0.566,-5.261 -6.485,2.289 -11.742,0 -11.258,-2.403 c -6.187,-1.32 -11.922,-2.398 -12.742,-2.398 l -1.484,0 -0.571,1.398 z"
         style="fill:#000000;fill-opacity:1;fill-rule:nonzero;stroke:none"
         id="path4847"
         inkscape:connector-curvature="0" /><path
         d="m 105.793,420.794 -5.113,-1.016 -5.11,-1.015 -3.445,0.593 c -1.895,0.324 -4.793,0.539 -6.441,0.481 l -2.996,-0.106 -3.805,-1.758 -3.805,-1.761 -11.601,-11.739 -11.598,-11.734 -4.402,-2.504 c -2.418,-1.375 -4.813,-2.5 -5.321,-2.508 l -0.918,-0.007 -1.582,2.675 -1.578,2.676 -2.406,-0.355 -2.41,-0.352 -2.141,-4.375 c -2.91,-5.941 -5.074,-12.957 -6.473,-20.976 l -1.171,-6.704 0.031,-9.296 0.027,-9.293 1.121,-6.282 1.117,-6.281 2.161,-3.262 2.156,-3.261 -0.918,-1.258 c -0.508,-0.692 -1.992,-3.543 -3.305,-6.332 l -2.387,-5.074 -0.019,-14.125 -0.016,-14.125 -1.086,-8.211 -1.086,-8.207 2.133,-5.985 0.039,-6.125 0.032,-6.129 -1.594,-10.672 c -1.785,-11.945 -1.961,-16.55 -0.805,-20.722 l 0.793,-2.852 2.805,-1.336 2.801,-1.336 0,-4.226 2.757,-8.235 c 3.305,-9.871 6.375,-16.179 12.078,-24.804 l 4.254,-6.442 5.582,-5.558 5.586,-5.563 9,-5.429 2.012,0.914 2.008,0.918 4.828,0 4.297,-4.68 1.598,0.238 c 0.882,0.129 10.906,2.61 22.281,5.508 l 20.68,5.273 5.742,2.836 5.742,2.84 4.14,3.621 4.137,3.617 2.574,3.973 c 2.438,3.762 3.907,4.953 3.907,3.172 l 0,-0.801 1.797,0.028 1.8,0.023 1.496,1.133 1.493,1.129 -1.684,2.136 -1.68,2.137 -1.257,5.016 0.417,35.601 0.415,35.598 2.418,5.199 2.417,5.203 -1.117,9.598 -1.109,9.602 -0.106,36.164 -0.101,36.168 -3.402,2.148 -3.399,2.148 0,5.856 -5.437,16.367 -2.68,4.567 -2.684,4.57 -12.882,12.812 -6.606,3.883 c -3.637,2.133 -8.047,4.449 -9.805,5.137 l -3.191,1.254 z m -17.516,-28.828 1.485,-1.344 c 0.816,-0.738 2.133,-2.539 2.918,-4.004 l 1.437,-2.664 2.656,-0.961 2.661,-0.961 2.343,-2.844 2.34,-2.84 0.969,-3.449 0.965,-3.449 -0.574,-3.867 -0.571,-3.863 -0.328,-40.356 -0.328,-40.351 -1.281,-1.415 -1.281,-1.421 0.515,-7.43 c 0.289,-4.086 0.735,-9.77 0.988,-12.629 l 0.465,-5.199 -0.941,-6.801 c -0.52,-3.738 -1.598,-9.141 -2.399,-12 l -1.457,-5.199 2.016,-3.629 2.016,-3.625 -2.418,-5.574 c -1.328,-3.067 -2.676,-6.473 -2.996,-7.571 l -0.579,-2 -1.894,-2.031 -1.895,-2.023 -1.273,-6.731 -1.277,-6.73 -1.254,-2.446 c -2,-3.898 -4.133,-6.308 -7.289,-8.238 l -2.938,-1.793 -1.703,0 -1.703,-0.008 -1.09,2.598 -1.09,2.602 0.07,3.32 0.067,3.32 1.668,2.832 1.672,2.828 -2.535,7.696 -2.536,7.691 1.352,2.356 1.355,2.355 -0.8,0 c -0.442,0 -1.684,0.953 -2.766,2.117 l -1.961,2.117 0,6.836 1.305,5.067 1.308,5.062 -0.613,16.801 c -0.726,19.996 -0.805,24.191 -0.551,30 0.106,2.422 -0.195,10.52 -0.668,18 -0.468,7.48 -1.043,19.691 -1.273,27.141 l -0.414,13.543 2.656,6.961 -0.984,4.101 -0.985,4.106 0.536,9.273 0.535,9.277 2.882,4 6.192,2.125 6.191,2.129 1.543,1.395 1.539,1.398 0,6.399 z"
         style="fill:#000000;fill-opacity:1;fill-rule:nonzero;stroke:none"
         id="path4849"
         inkscape:connector-curvature="0" /><path
         d="m 63.48,203.005 c 0,1.148 -1.39,0.82 -1.875,-0.446 l -0.445,-1.16 1.16,0.446 c 0.637,0.246 1.16,0.765 1.16,1.16 z"
         style="fill:#000000;fill-opacity:1;fill-rule:nonzero;stroke:none"
         id="path4851"
         inkscape:connector-curvature="0" /><path
         d="m 49.879,323.317 c 0,0.223 -0.18,0.403 -0.399,0.403 -0.222,0 -0.402,-0.18 -0.402,-0.403 0,-0.219 0.18,-0.398 0.402,-0.398 0.219,0 0.399,0.179 0.399,0.398 z"
         style="fill:#000000;fill-opacity:1;fill-rule:nonzero;stroke:none"
         id="path4853"
         inkscape:connector-curvature="0" /><path
         d="m 961.477,420.575 -1.68,-2.641 -1.68,-2.636 -4.004,-2.18 -4.004,-2.176 -11.031,-1.578 -10.398,0.438 -10.403,0.437 -4.215,-1.148 -4.21,-1.149 -12.375,2.961 -3.875,0.008 -3.883,0.008 -2.657,-1.262 -2.66,-1.262 -2.398,-5.078 0.711,-3.789 c 0.39,-2.086 1.082,-8.926 1.531,-15.203 l 0.816,-11.406 0.008,-22.914 0.008,-22.918 1,-8.285 1,-8.282 0,-13.601 c 0,-16.387 -1.183,-90.043 -1.598,-99.602 -0.164,-3.738 -0.343,-15.023 -0.406,-25.074 l -0.109,-18.273 1.457,-1.614 c 0.801,-0.883 2.734,-2.261 4.301,-3.058 l 2.843,-1.453 5.137,-0.93 5.137,-0.934 12.25,0.93 c 6.738,0.508 13.945,0.82 16.019,0.691 l 3.77,-0.23 0.059,3.574 c 0.031,1.965 0.722,8.793 1.535,15.172 l 1.472,11.602 0.028,33.199 0.023,33.199 -1.465,2.223 -1.469,2.226 0.602,4.574 c 0.332,2.52 0.547,5.633 0.484,6.922 l -0.117,2.348 -1.593,1.922 1.171,0.449 c 0.649,0.246 1.782,1.375 2.524,2.508 l 1.351,2.058 0.637,6.34 0.641,6.34 1.367,2.879 1.363,2.883 4.375,2.258 1.703,-1.817 1.707,-1.816 0,-2.692 -5.976,-6.804 1.699,1.437 1.695,1.442 1.782,-5.118 0,-16.25 1.98,-12.757 c 4.129,-26.625 5.621,-47.657 5.621,-79.2 l 0,-20.046 12.102,-2.454 12.101,-2.449 4.699,-2.383 0,-0.003 4.7,-2.383 2.398,2.218 0,13.211 2.836,4.329 2.969,0 1.992,-2.399 2.203,0 0,26.863 1.184,4.539 1.183,4.543 -6.406,11.868 -2.348,6.953 c -3.168,9.367 -5.136,18.804 -8.046,38.543 -2.672,18.105 -5.813,34.515 -7.547,39.433 l -1.106,3.137 21,20.477 1.016,6.82 c 0.558,3.754 1.972,14.195 3.14,23.203 l 2.125,16.379 -0.375,10.82 -0.378,10.821 -2.172,6.402 c -2.653,7.808 -5.27,12.414 -9.828,17.289 l -3.473,3.711 -3.762,1.055 -3.762,1.05 -6.039,4.137 c -7.418,5.082 -11.632,7.273 -15.242,7.918 l -2.765,0.5 z m 12.507,-17.277 1.524,-1.989 c 0.84,-1.097 2.074,-3.586 2.75,-5.535 l 1.219,-3.543 0,-24.66 -2.723,-3.18 -2.723,-3.183 -2.086,-6.543 -2.09,-6.547 -2,-14.219 -1.996,-14.215 -1.113,-3.226 c -0.609,-1.778 -2.086,-4.637 -3.277,-6.356 l -2.172,-3.132 -4.067,-2.028 0,0.004 -4.066,-2.027 -12.246,0 -0.719,15.801 c -0.394,8.687 -0.699,23.179 -0.676,32.199 l 0.047,16.398 -1.847,1.461 -1.844,1.457 0,1.719 c 0,0.945 0.988,4.687 2.199,8.32 l 2.199,6.606 0.973,0.019 c 0.535,0.012 2.246,1.137 3.801,2.504 l 2.828,2.481 0.09,1.718 0.086,1.715 2.265,-11.449 2.27,-11.449 1.445,-2.469 c 1.707,-2.918 4.586,-5.082 7.676,-5.777 l 2.234,-0.504 1.907,4.226 1.91,4.223 2.504,11.844 2.507,11.843 3.211,7.493 z"
         style="fill:#000000;fill-opacity:1;fill-rule:nonzero;stroke:none"
         id="path4855"
         inkscape:connector-curvature="0" /><path
         d="m 610.258,131.786 c -0.223,0.703 -1.117,5.016 -1.988,9.582 l -1.582,8.305 -4.047,4.047 -7.164,-0.243 -7.161,-0.242 -0.218,30.586 -0.219,30.582 2,2 4.601,0.957 4.598,0.957 6.801,-0.422 6.801,-0.418 2.898,-1.246 2.899,-1.25 0.812,-3.109 4.508,-0.938 4.508,-0.933 7.172,0.437 0.73,-0.758 0.731,-0.761 1.402,-12.403 1.402,-12.398 0.02,-23.602 0.019,-23.597 -0.554,-2.145 -0.551,-2.144 -4.199,-0.817 -4.2,-0.82 -9.808,-0.238 -9.809,-0.242 -0.402,1.273 z"
         style="fill:#000000;fill-opacity:1;fill-rule:nonzero;stroke:none"
         id="path4857"
         inkscape:connector-curvature="0" /><path
         d="m 627.078,222.665 c -0.879,0.195 -6.164,2.527 -11.742,5.176 l -10.145,4.816 -3.168,0.422 -3.168,0.426 -4.183,-1.387 -4.18,-1.391 -1.195,1.93 -0.582,25.332 c -0.317,13.93 -0.692,27.488 -0.824,30.129 -0.133,2.641 -0.508,15.781 -0.829,29.199 -0.324,13.422 -0.675,26.02 -0.785,28 -0.105,1.981 -0.476,20.399 -0.824,40.93 l -0.629,37.324 3.129,0.875 c 1.719,0.481 6.184,1.504 9.926,2.274 l 6.801,1.398 20.398,-0.043 20.402,-0.047 23.711,-2.781 1.68,2.137 1.68,2.132 4.863,-0.503 c 2.676,-0.278 6.883,-0.723 9.352,-0.989 l 4.484,-0.484 1.637,1.758 1.64,1.757 1.477,-0.8 c 0.808,-0.438 2.516,-1.891 3.789,-3.231 l 2.312,-2.429 0.36,-3.84 0.355,-3.836 -4.14,-17.883 0,-5.613 0.851,-2.246 0.856,-2.25 -2.465,-2.204 -2.469,-2.203 -4.418,0 -1.578,1.094 -1.578,1.098 -13.199,0.41 -13.2,0.414 -2.644,0.984 -2.641,0.985 -8.023,-4.985 -3.692,0 -0.5,2.5 c -0.277,1.375 -0.5,4.723 -0.5,7.446 l 0,4.945 -2.187,2.992 -7.438,-6.094 -0.468,-1.875 -0.469,-1.871 2.879,-5.152 2.883,-5.152 0,-50.735 1.226,-8.258 c 0.672,-4.539 1.715,-9.625 2.313,-11.3 l 1.086,-3.047 1.086,0.308 c 0.597,0.168 3.648,0.536 6.781,0.813 l 5.691,0.504 2.219,1.844 1.551,-1.137 1.551,-1.133 6.656,0 2.32,0.777 c 1.274,0.426 3.399,0.91 4.719,1.078 l 2.398,0.301 2.125,-0.73 c 1.164,-0.399 2.723,-1.391 3.457,-2.203 l 1.336,-1.477 -0.863,-12.672 c -0.473,-6.969 -1.074,-15.105 -1.336,-18.074 l -0.48,-5.398 -0.918,0 c -0.504,0 -2.868,1.027 -5.246,2.289 l -4.325,2.285 -1.715,-3.285 -1.71,-3.289 -5.571,-2.766 -13.953,-1.07 0,1.226 c 0,0.68 -0.66,2.047 -1.465,3.039 l -1.465,1.809 -3.328,-3.008 -3.332,-3.008 -1.617,-5.238 -1.617,-5.234 0.062,-14.215 0.067,-14.215 -2.547,-4.922 -2.578,0.094 c -1.418,0.051 -3.301,0.254 -4.18,0.453 z"
         style="fill:#000000;fill-opacity:1;fill-rule:nonzero;stroke:none"
         id="path4859"
         inkscape:connector-curvature="0" /><path
         d="m 1081.023,162.899 c -1.574,0.832 -3.246,1.985 -3.714,2.567 l -0.86,1.05 -0.496,20.403 c -0.66,27.246 -1.844,63.07 -2.48,75.199 -0.196,3.738 -0.563,12.922 -0.817,20.398 -0.25,7.481 -0.601,15.223 -0.781,17.204 -0.184,1.976 -0.543,8.82 -0.809,15.199 -0.851,20.722 -3.675,73.246 -4.043,75.199 -0.121,0.66 -0.25,1.641 -0.285,2.176 l -0.058,0.976 -2.91,-1.976 -2.911,-1.973 -2.89,-0.777 c -1.59,-0.426 -6.414,-1.168 -10.719,-1.649 -4.309,-0.48 -9.406,-1.347 -11.336,-1.925 l -3.504,-1.055 -4.195,9.351 -0.793,6.961 -0.789,6.961 0.836,6.024 0.84,6.023 1.984,4.34 1.988,4.344 2.598,-0.582 c 1.43,-0.321 4.039,-0.891 5.801,-1.266 l 3.199,-0.683 14.801,-0.008 14.8,-0.012 1.551,1.176 1.555,1.176 6.711,0 1.289,-1.973 1.293,-1.973 0,-4.605 -1.602,-4.653 c -0.879,-2.554 -1.597,-5.445 -1.597,-6.418 l 0,-1.765 1.672,-2.125 c 0.918,-1.168 2.699,-2.656 3.957,-3.305 l 2.289,-1.183 15.957,0 2.437,-2.051 2.434,-2.047 1,-5.344 6.32,3.121 c 3.473,1.715 6.609,3.117 6.969,3.117 0.359,0 1.894,0.914 3.406,2.036 l 2.758,2.031 1.797,2.969 1.797,2.964 0.015,17.86 2.278,1.914 2.277,1.918 19.461,-3.25 4.855,1.262 4.856,1.265 0.898,-2.082 0.903,-2.086 0.3,-18.113 0.301,-18.109 -13.32,-0.59 -13.32,-0.586 -12.836,0.742 -3.93,-5.938 -0.129,-3.253 -0.133,-3.254 1.391,-1.536 1.387,-1.535 -1.219,-1.011 -1.223,-1.012 0,-3.711 0.91,-0.559 0.91,-0.562 -0.515,-9.957 c -0.281,-5.477 -1.102,-19.914 -1.824,-32.086 l -1.313,-22.129 0.012,-19.199 0.01,-19.199 1.625,-13.094 -2.524,-10.11 0.039,-12 0.043,-12 1.305,-11.281 c 0.719,-6.207 1.516,-15.926 1.769,-21.601 l 0.465,-10.317 -0.672,-3.578 -0.675,-3.582 -3.18,-0.957 -3.18,-0.961 -5.859,-0.059 -5.859,-0.062 -6.141,2.059 c -3.379,1.132 -7.234,2.734 -8.567,3.558 l -2.425,1.496 -5.149,-4.031 0,-3.883 -3.601,0.071 -2.856,1.511 -0.01,0 z"
         style="fill:#000000;fill-opacity:1;fill-rule:nonzero;stroke:none"
         id="path4861"
         inkscape:connector-curvature="0" /><path
         d="m 1196.363,386.95 -1.015,3.383 0.187,7.293 c 0.102,4.012 0.098,11.906 -0.012,17.543 l -0.199,10.254 1.403,1.547 1.398,1.546 4.305,0 1.523,-1.687 1.527,-1.691 -0.351,-39.29 -0.625,-0.625 c -0.344,-0.343 -2.086,-0.855 -3.875,-1.144 l -3.25,-0.516 -1.016,3.387 z"
         style="fill:#000000;fill-opacity:1;fill-rule:nonzero;stroke:none"
         id="path4863"
         inkscape:connector-curvature="0" /><g
         style="fill:#c8050b"
         transform="translate(-22.154729,16)"
         id="g5473"><path
           d="m 1385.477,412.575 -1.68,-2.641 -1.68,-2.636 -4.004,-2.18 -4.004,-2.176 -11.031,-1.578 -10.398,0.438 -10.403,0.437 -4.215,-1.148 -4.21,-1.149 -12.375,2.961 -3.875,0.008 -3.883,0.008 -2.657,-1.262 -2.66,-1.262 -2.398,-5.078 0.711,-3.789 c 0.39,-2.086 1.082,-8.926 1.531,-15.203 l 0.816,-11.406 0.01,-22.914 0.01,-22.918 1,-8.285 1,-8.282 0,-13.601 c 0,-16.387 -1.183,-90.043 -1.598,-99.602 -0.164,-3.738 -0.343,-15.023 -0.406,-25.074 l -0.109,-18.273 1.457,-1.614 c 0.801,-0.883 2.734,-2.261 4.301,-3.058 l 2.843,-1.453 5.137,-0.93 5.137,-0.934 12.25,0.93 c 6.738,0.508 13.945,0.82 16.019,0.691 l 3.77,-0.23 0.059,3.574 c 0.031,1.965 0.722,8.793 1.535,15.172 l 1.472,11.602 0.028,33.199 0.023,33.199 -1.465,2.223 -1.469,2.226 0.602,4.574 c 0.332,2.52 0.547,5.633 0.484,6.922 l -0.117,2.348 -1.593,1.922 1.171,0.449 c 0.649,0.246 1.782,1.375 2.524,2.508 l 1.351,2.058 0.637,6.34 0.641,6.34 1.367,2.879 1.363,2.883 4.375,2.258 1.703,-1.817 1.707,-1.816 0,-2.692 -5.976,-6.804 1.699,1.437 1.695,1.442 1.782,-5.118 0,-16.25 1.98,-12.757 c 4.129,-26.625 5.621,-47.657 5.621,-79.2 l 0,-20.046 12.102,-2.454 12.101,-2.449 4.699,-2.383 0,-0.003 4.7,-2.383 2.398,2.218 0,13.211 2.836,4.329 2.969,0 1.992,-2.399 2.203,0 0,26.863 1.184,4.539 1.183,4.543 -6.406,11.868 -2.348,6.953 c -3.168,9.367 -5.136,18.804 -8.046,38.543 -2.672,18.105 -5.813,34.515 -7.547,39.433 l -1.106,3.137 21,20.477 1.016,6.82 c 0.558,3.754 1.972,14.195 3.14,23.203 l 2.125,16.379 -0.375,10.82 -0.378,10.821 -2.172,6.402 c -2.653,7.808 -5.27,12.414 -9.828,17.289 l -3.473,3.711 -3.762,1.055 -3.762,1.05 -6.039,4.137 c -7.418,5.082 -11.632,7.273 -15.242,7.918 l -2.765,0.5 z m 12.507,-17.277 1.524,-1.989 c 0.84,-1.097 2.074,-3.586 2.75,-5.535 l 1.219,-3.543 0,-24.66 -2.723,-3.18 -2.723,-3.183 -2.086,-6.543 -2.09,-6.547 -2,-14.219 -1.996,-14.215 -1.113,-3.226 c -0.609,-1.778 -2.086,-4.637 -3.277,-6.356 l -2.172,-3.132 -4.067,-2.028 0,0.004 -4.066,-2.027 -12.246,0 -0.719,15.801 c -0.394,8.687 -0.699,23.179 -0.676,32.199 l 0.047,16.398 -1.847,1.461 -1.844,1.457 0,1.719 c 0,0.945 0.988,4.687 2.199,8.32 l 2.199,6.606 0.973,0.019 c 0.535,0.012 2.246,1.137 3.801,2.504 l 2.828,2.481 0.09,1.718 0.086,1.715 2.265,-11.449 2.27,-11.449 1.445,-2.469 c 1.707,-2.918 4.586,-5.082 7.676,-5.777 l 2.234,-0.504 1.907,4.226 1.91,4.223 2.504,11.844 2.507,11.843 3.211,7.493 z"
           style="fill:#c8050b;fill-opacity:1;fill-rule:nonzero;stroke:none"
           id="path5466"
           inkscape:connector-curvature="0" /><path
           style="fill:#c8050b;fill-opacity:1;fill-rule:nonzero;stroke:none"
           d="m 1916.2422,58.261719 -6.3926,1.269531 -6.3867,1.269531 -4.3067,-0.742187 c -2.3687,-0.405 -5.9907,-0.674063 -8.0507,-0.601563 l -3.7461,0.132813 -4.7559,2.197265 -4.7558,2.201172 -14.502,14.673828 -14.4961,14.667969 -5.5039,3.13086 c -3.0225,1.71875 -6.0154,3.124765 -6.6504,3.134765 l -1.1484,0.0078 -1.9766,-3.34375 -1.9726,-3.34375 -3.0079,0.443359 -3.0117,0.439453 -2.6777,5.46875 c -3.6375,7.426255 -6.3411,16.196955 -8.0899,26.220705 l -1.4648,8.37891 0.039,11.62109 0.033,11.61524 1.4023,7.85351 1.3965,7.85156 2.7012,4.07618 2.6953,4.07617 -1.1485,1.57226 c -0.635,0.865 -2.4896,4.42977 -4.1308,7.91602 l -2.9844,6.3418 -0.023,17.65625 -0.02,17.65625 -1.3574,10.26367 -1.3574,10.25976 2.666,7.48047 0.049,7.65625 0.039,7.66211 -1.9922,13.33984 c -2.2312,14.93126 -2.4508,20.68735 -1.0058,25.90235 l 0.9902,3.56445 3.5078,1.66992 3.5,1.66993 0,5.2832 3.4473,10.29297 c 4.1312,12.33875 7.9689,20.22461 15.0976,31.00586 l 5.3164,8.05273 6.9785,6.94727 6.9825,6.95312 11.25,6.78711 2.5136,-1.14258 2.5118,-1.14843 6.0351,0 5.3711,5.8496 1.9961,-0.29687 c 1.1025,-0.16125 13.6328,-3.26227 27.8516,-6.88477 l 25.8496,-6.59179 7.1777,-3.54492 7.1777,-3.54883 5.1758,-4.52735 5.1699,-4.52148 3.2188,-4.96484 c 3.0475,-4.7025 4.8828,-6.19305 4.8828,-3.9668 l 0,1.00195 2.2461,-0.0351 2.25,-0.0293 1.8711,-1.41602 1.8652,-1.41015 -2.1035,-2.66992 -2.1015,-2.67188 -1.5704,-6.26953 0.3028,-25.79883 c -23.0932,-0.58576 -34.8344,-1.04696 -58.8997,1.28368 l -5.4113,2.63952 -2.7714,8.15902 -2.396,8.81619 -1.5957,10.42272 -5.5895,3.45876 c -4.657,2.88169 -7.9813,3.46298 -11.9263,4.26699 l -3.6718,2.24023 -2.1289,0 -2.129,0.01 -1.3613,-3.24805 -1.3633,-3.25195 0.088,-4.1504 0.084,-4.14843 2.084,-3.54102 2.0898,-3.53515 -3.1679,-9.61914 -3.17,-9.61329 1.6895,-2.94531 1.6934,-2.94531 -1,0 c -0.5525,0 -2.1046,-1.18953 -3.4571,-2.64453 l -2.4511,-2.64649 0,-8.54492 1.6308,-6.33398 1.6348,-6.32813 -0.7656,-21.00195 c -0.9075,-24.995 -1.007,-30.23875 -0.6895,-37.5 0.1325,-3.0275 -0.2427,-13.15 -0.834,-22.5 -0.585,-9.35 -1.3043,-24.61328 -1.5918,-33.92578 l -0.5176,-16.92774 3.3204,-8.70117 -1.2305,-5.12695 -1.2305,-5.13281 0.6699,-11.5918 0.668,-11.5957 3.6035,-5 7.7403,-2.65625 7.7382,-2.66016 1.9278,-1.74414 1.9238,-1.74805 0,-7.998048 1.8574,1.679687 c 1.02,0.922501 2.6653,3.172657 3.6465,5.003911 l 1.7969,3.33008 3.3203,1.20117 3.3262,1.20312 2.9277,3.55469 2.9258,3.54883 1.2109,4.3125 1.2071,4.31055 -0.7188,4.83398 -0.1914,1.29102 c 17.127,-0.98404 33.3908,-0.24192 51.4764,-3.14324 l 3.217,-6.42512 -6.7969,-20.457037 -3.3496,-5.708985 -3.3555,-5.71289 -16.1016,-16.015625 -8.2578,-4.853516 c -4.5462,-2.66625 -10.0583,-5.561875 -12.2558,-6.421875 z"
           transform="matrix(0.8,0,0,-0.8,-4.8828125e-5,459.40311)"
           id="path5468"
           inkscape:connector-curvature="0"
           sodipodi:nodetypes="ccccccccccccccccccccccccccccccccccccccccccccccccccccccccccccsccccccccccccccsccccccccccccccsccccccccccccccccccccccccccccccccccccccccc" /></g></g></g></svg>