<?xml version="1.0" encoding="UTF-8" standalone="no"?>
<!-- Created with Inkscape (http://www.inkscape.org/) -->

<svg
   xmlns:dc="http://purl.org/dc/elements/1.1/"
   xmlns:cc="http://creativecommons.org/ns#"
   xmlns:rdf="http://www.w3.org/1999/02/22-rdf-syntax-ns#"
   xmlns:svg="http://www.w3.org/2000/svg"
   xmlns="http://www.w3.org/2000/svg"
   xmlns:sodipodi="http://sodipodi.sourceforge.net/DTD/sodipodi-0.dtd"
   xmlns:inkscape="http://www.inkscape.org/namespaces/inkscape"
   width="210mm"
   height="297mm"
   viewBox="0 0 744.09448819 1052.3622047"
   id="svg4174"
   version="1.1"
   inkscape:version="0.91 r13725"
   sodipodi:docname="martian-arm.svg">
  <defs
     id="defs4176" />
  <sodipodi:namedview
     id="base"
     pagecolor="#ffffff"
     bordercolor="#666666"
     borderopacity="1.0"
     inkscape:pageopacity="0.0"
     inkscape:pageshadow="2"
     inkscape:zoom="1.979899"
     inkscape:cx="229.34526"
     inkscape:cy="520.5284"
     inkscape:document-units="px"
     inkscape:current-layer="layer1"
     showgrid="false"
     inkscape:window-width="1366"
     inkscape:window-height="704"
     inkscape:window-x="0"
     inkscape:window-y="27"
     inkscape:window-maximized="1" />
  <metadata
     id="metadata4179">
    <rdf:RDF>
      <cc:Work
         rdf:about="">
        <dc:format>image/svg+xml</dc:format>
        <dc:type
           rdf:resource="http://purl.org/dc/dcmitype/StillImage" />
        <dc:title></dc:title>
      </cc:Work>
    </rdf:RDF>
  </metadata>
  <g
     inkscape:label="Layer 1"
     inkscape:groupmode="layer"
     id="layer1">
    <path
       style="fill:none;fill-opacity:0.54777066;fill-rule:evenodd;stroke:#cf5900;stroke-width:4;stroke-linecap:butt;stroke-linejoin:miter;stroke-miterlimit:4;stroke-dasharray:none;stroke-opacity:1"
       d="m 278.49512,438.57193 c -7.9261,0.17195 -15.56137,3.19569 -19.46174,9.61336 -6.9147,11.97663 -17.86627,31.74523 -26.24055,46.24991 -8.37429,14.50466 -10.07839,35.29199 0,52.74824 10.07837,17.45625 13.67843,62.98495 13.67843,78.4977 23.16396,14.88177 46.12202,16.79988 69.57274,0 0,-15.51275 3.60006,-61.04145 13.67843,-78.4977 10.07837,-17.45625 8.37427,-38.24358 0,-52.74824 -8.37428,-14.50468 -19.32585,-34.27328 -26.24055,-46.24991 -3.90037,-6.41767 -11.53564,-9.44141 -19.46174,-9.61336 -0.91899,-0.0199 -1.84105,0.005 -2.76251,0.061 -0.92146,-0.0559 -1.84352,-0.0809 -2.76251,-0.061 z"
       id="path4147"
       inkscape:connector-curvature="0"
       sodipodi:nodetypes="scssccsscscs" />
  </g>
</svg>
