<?xml version="1.0" encoding="UTF-8" standalone="no"?>
<!-- Created with Inkscape (http://www.inkscape.org/) -->

<svg
   xmlns:dc="http://purl.org/dc/elements/1.1/"
   xmlns:cc="http://creativecommons.org/ns#"
   xmlns:rdf="http://www.w3.org/1999/02/22-rdf-syntax-ns#"
   xmlns:svg="http://www.w3.org/2000/svg"
   xmlns="http://www.w3.org/2000/svg"
   xmlns:sodipodi="http://sodipodi.sourceforge.net/DTD/sodipodi-0.dtd"
   xmlns:inkscape="http://www.inkscape.org/namespaces/inkscape"
   width="210mm"
   height="297mm"
   viewBox="0 0 744.09448819 1052.3622047"
   id="svg4174"
   version="1.1"
   inkscape:version="0.91 r13725"
   sodipodi:docname="martian-arm.svg">
  <defs
     id="defs4176" />
  <sodipodi:namedview
     id="base"
     pagecolor="#ffffff"
     bordercolor="#666666"
     borderopacity="1.0"
     inkscape:pageopacity="0.0"
     inkscape:pageshadow="2"
     inkscape:zoom="1.979899"
     inkscape:cx="229.34526"
     inkscape:cy="520.5284"
     inkscape:document-units="px"
     inkscape:current-layer="layer1"
     showgrid="false"
     inkscape:window-width="1366"
     inkscape:window-height="704"
     inkscape:window-x="0"
     inkscape:window-y="27"
     inkscape:window-maximized="1" />
  <metadata
     id="metadata4179">
    <rdf:RDF>
      <cc:Work
         rdf:about="">
        <dc:format>image/svg+xml</dc:format>
        <dc:type
           rdf:resource="http://purl.org/dc/dcmitype/StillImage" />
        <dc:title></dc:title>
      </cc:Work>
    </rdf:RDF>
  </metadata>
  <g
     inkscape:label="Layer 1"
     inkscape:groupmode="layer"
     id="layer1">
    <path
       style="fill:#eb7e00;fill-opacity:0.54777066;fill-rule:evenodd;stroke:none;stroke-width:4;stroke-linecap:butt;stroke-linejoin:miter;stroke-miterlimit:4;stroke-dasharray:none;stroke-opacity:1"
       d="m 238.6073,439.61226 c -7.60424,0.16497 -14.92946,3.06593 -18.67145,9.22299 -6.63391,11.49029 -17.14076,30.45613 -25.17498,44.37181 -8.03423,13.91566 -9.66913,33.85887 0,50.60626 9.66911,16.74739 13.12298,60.42728 13.12298,75.31009 22.22333,14.27746 44.24912,16.11768 66.74756,0 0,-14.88281 3.45387,-58.5627 13.12298,-75.31009 9.66911,-16.74739 8.03421,-36.6906 0,-50.60626 -8.03422,-13.91568 -18.54107,-32.88152 -25.17498,-44.37181 -3.74199,-6.15706 -11.06721,-9.05802 -18.67145,-9.22299 -0.88167,-0.0191 -1.76629,0.005 -2.65033,0.0585 -0.88404,-0.0536 -1.76866,-0.0776 -2.65033,-0.0585 z"
       id="path4147"
       inkscape:connector-curvature="0"
       sodipodi:nodetypes="scssccsscscs" />
  </g>
</svg>
