<?xml version="1.0" encoding="UTF-8" standalone="no"?>
<svg
   xmlns:dc="http://purl.org/dc/elements/1.1/"
   xmlns:cc="http://creativecommons.org/ns#"
   xmlns:rdf="http://www.w3.org/1999/02/22-rdf-syntax-ns#"
   xmlns:svg="http://www.w3.org/2000/svg"
   xmlns="http://www.w3.org/2000/svg"
   xmlns:xlink="http://www.w3.org/1999/xlink"
   xmlns:sodipodi="http://sodipodi.sourceforge.net/DTD/sodipodi-0.dtd"
   xmlns:inkscape="http://www.inkscape.org/namespaces/inkscape"
   width="195.33376mm"
   height="168.90645mm"
   viewBox="-86.649002 -73.434998 195.33375 168.90643"
   version="1.1"
   id="svg2"
   inkscape:version="0.91 r13725"
   sodipodi:docname="diatone-et-160-skirt-workfile.svg"
   enable-background="new">
  <metadata
     id="metadata14">
    <rdf:RDF>
      <cc:Work
         rdf:about="">
        <dc:format>image/svg+xml</dc:format>
        <dc:type
           rdf:resource="http://purl.org/dc/dcmitype/StillImage" />
        <dc:title>Daring Densor-Wolt</dc:title>
      </cc:Work>
    </rdf:RDF>
  </metadata>
  <defs
     id="defs12">
    <inkscape:perspective
       sodipodi:type="inkscape:persp3d"
       inkscape:vp_x="0 : 84.453215 : 1"
       inkscape:vp_y="0 : 1000 : 0"
       inkscape:vp_z="195.33375 : 84.453215 : 1"
       inkscape:persp3d-origin="97.666875 : 56.302143 : 1"
       id="perspective4193" />
  </defs>
  <sodipodi:namedview
     pagecolor="#ffffff"
     bordercolor="#666666"
     borderopacity="1"
     objecttolerance="10"
     gridtolerance="10"
     guidetolerance="10"
     inkscape:pageopacity="0"
     inkscape:pageshadow="2"
     inkscape:window-width="1366"
     inkscape:window-height="704"
     id="namedview10"
     showgrid="false"
     units="mm"
     fit-margin-top="12"
     fit-margin-left="12"
     fit-margin-right="12"
     fit-margin-bottom="12"
     inkscape:snap-bbox="true"
     inkscape:bbox-paths="true"
     inkscape:bbox-nodes="true"
     inkscape:snap-bbox-midpoints="true"
     inkscape:snap-bbox-edge-midpoints="true"
     inkscape:object-paths="true"
     inkscape:snap-intersection-paths="true"
     inkscape:object-nodes="true"
     inkscape:snap-smooth-nodes="true"
     inkscape:snap-midpoints="true"
     inkscape:snap-object-midpoints="true"
     inkscape:snap-center="true"
     inkscape:snap-global="false"
     inkscape:zoom="3.6644086"
     inkscape:cx="340.36722"
     inkscape:cy="332.07069"
     inkscape:window-x="0"
     inkscape:window-y="27"
     inkscape:window-maximized="1"
     inkscape:current-layer="layer3" />
  <title
     id="title4">Daring Densor-Wolt</title>
  <desc
     id="desc6"> made with tinkercad </desc>
  <g
     inkscape:groupmode="layer"
     id="layer1"
     inkscape:label="stl"
     transform="translate(28.46794,31.169428)"
     style="display:inline"
     sodipodi:insensitive="true">
    <path
       inkscape:connector-curvature="0"
       id="path4195"
       d="m -33.631271,-10.852782 c -0.1859,-0.097 -0.81404,-0.5772 -1.39587,-1.06716 -1.54645,-1.30225 -1.5569,-1.36944 -0.55316,-3.55673 0.43372,-0.94514 0.93112,-1.86344 1.10533,-2.04067 0.21712,-0.22089 0.65031,-0.41036 1.37736,-0.60243 0.58334,-0.1541 1.17542,-0.37236 1.31574,-0.48502 0.40045,-0.32152 6.18938,-7.36165 6.41831,-7.80554 0.1816,-0.35212 0.20499,-1.03553 0.20499,-5.9904 l 0,-5.59294 -0.34154,-0.38195 c -0.34955,-0.39092 -1.04833,-0.60293 -7.96864,-2.41757 l -1.16904,-0.30654 -1.12855,0.38842 c -0.6207,0.21362 -1.27641,0.38458 -1.45712,0.3799 -0.50776,-0.0131 -3.6951,-1.87668 -3.9054,-2.28335 -0.25548,-0.49405 -0.20853,-0.99673 0.23538,-2.52022 0.55162,-1.89314 0.60827,-1.92876 3.06697,-1.92876 1.0043,0 1.99115,0.0576 2.193,0.12793 0.21057,0.0734 0.69637,0.51959 1.1398,1.04684 0.90916,1.08102 0.42253,0.8878 5.95508,2.36438 2.34063,0.62469 4.11247,1.03739 4.25694,0.99154 0.13612,-0.0432 0.32539,-0.20006 0.42061,-0.34857 0.0952,-0.14851 0.54387,-1.63925 0.99699,-3.31276 1.11101,-4.10322 1.00162,-3.81582 1.56116,-4.10128 0.44224,-0.22561 0.73872,-0.24551 3.65808,-0.24551 2.91936,0 3.21585,0.0199 3.65809,0.24551 0.55954,0.28546 0.45014,-0.002 1.561155,4.10128 0.453125,1.67351 0.901782,3.16425 0.996995,3.31276 0.09522,0.14851 0.284491,0.30536 0.420604,0.34857 0.144468,0.0459 1.9163155,-0.36685 4.2569465,-0.99154 5.532547,-1.47658 5.045913,-1.28336 5.955071,-2.36438 0.443431,-0.52725 0.929237,-0.97343 1.139806,-1.04684 0.201847,-0.0704 1.188694,-0.12793 2.193001,-0.12793 2.458703,0 2.51535,0.0356 3.066961,1.92876 0.444308,1.52484 0.490903,2.0261 0.234416,2.52208 -0.212719,0.41136 -3.385519,2.26801 -3.898508,2.28133 -0.183966,0.005 -0.84234,-0.16612 -1.463039,-0.37974 l -1.128552,-0.38842 -1.169037,0.30597 c -6.668776,1.74543 -7.621637,2.03487 -7.968645,2.42053 l -0.3415375,0.37956 0,5.59294 c 0,4.95407 0.02341,5.63833 0.2049225,5.9904 0.227144,0.44057 6.017269,7.48051 6.419816,7.80554 0.139522,0.11266 0.730958,0.33092 1.314302,0.48502 0.727047,0.19207 1.160236,0.38154 1.37736,0.60243 0.174209,0.17723 0.671611,1.09553 1.105326,2.04067 1.019304,2.2212 1.013816,2.24996 -0.700659,3.67582 -1.252996,1.04206 -1.782545,1.27447 -2.332738,1.02378 -0.504428,-0.22983 -3.270896,-2.27852 -3.362947,-2.4904 -0.04823,-0.111 -0.156567,-0.77679 -0.240756,-1.47954 -0.08936,-0.74583 -0.229422,-1.36623 -0.33647,-1.49033 -0.10086,-0.11693 -1.426409,-1.72156 -2.945664,-3.56584 -1.5192555,-1.84427 -2.8996495,-3.47898 -3.0675395,-3.63267 -0.44505,-0.4074 -0.82451,-0.34712 -1.7337,0.27542 -0.44569,0.30517 -0.99078,0.5887 -1.21132,0.63008 -0.22054,0.0414 -1.27012,0.0572 -2.3324,0.0351 l -1.93141,-0.0402 -0.88658,-0.58992 c -0.98862,-0.65781 -1.35412,-0.72082 -1.80104,-0.31049 -0.16739,0.15369 -1.54761,1.7884 -3.06714,3.63267 -1.51954,1.84428 -2.84549,3.44891 -2.94658,3.56584 -0.10759,0.12446 -0.24724,0.7423 -0.33686,1.49033 -0.0842,0.70275 -0.19237,1.36813 -0.2404,1.47864 -0.0772,0.1776 -1.61108,1.34551 -2.97821,2.26763 -0.54159,0.3653 -0.97013,0.40845 -1.46946,0.14796 z"
       style="color:#000000;clip-rule:nonzero;display:inline;overflow:visible;visibility:visible;opacity:1;isolation:auto;mix-blend-mode:normal;color-interpolation:sRGB;color-interpolation-filters:linearRGB;solid-color:#000000;solid-opacity:1;fill:#bfbfbf;fill-opacity:1;fill-rule:evenodd;stroke:none;stroke-width:1;stroke-linecap:butt;stroke-linejoin:round;stroke-miterlimit:4;stroke-dasharray:none;stroke-dashoffset:8.05119991;stroke-opacity:1;marker:none;color-rendering:auto;image-rendering:auto;shape-rendering:auto;text-rendering:auto;enable-background:accumulate" />
  </g>
  <g
     inkscape:groupmode="layer"
     id="layer2"
     inkscape:label="design"
     transform="translate(28.46794,31.169428)"
     style="display:none;opacity:1"
     sodipodi:insensitive="true">
    <g
       id="g4226"
       transform="matrix(0.28222208,0,0,0.28222208,-12.716741,-24.964192)">
      <ellipse
         ry="50.535061"
         rx="50.535057"
         cy="-67.413826"
         cx="-88.919182"
         id="path4214"
         style="color:#000000;clip-rule:nonzero;display:inline;overflow:visible;visibility:visible;opacity:1;isolation:auto;mix-blend-mode:normal;color-interpolation:sRGB;color-interpolation-filters:linearRGB;solid-color:#000000;solid-opacity:1;fill:none;fill-opacity:1;fill-rule:evenodd;stroke:#6699ff;stroke-width:0.52987552;stroke-linecap:butt;stroke-linejoin:round;stroke-miterlimit:4;stroke-dasharray:none;stroke-dashoffset:8.05119991;stroke-opacity:1;marker:none;color-rendering:auto;image-rendering:auto;shape-rendering:auto;text-rendering:auto;enable-background:accumulate" />
      <ellipse
         ry="3.3554351"
         rx="3.3554349"
         cy="-67.413826"
         cx="-88.919182"
         id="path4216"
         style="color:#000000;clip-rule:nonzero;display:inline;overflow:visible;visibility:visible;opacity:1;isolation:auto;mix-blend-mode:normal;color-interpolation:sRGB;color-interpolation-filters:linearRGB;solid-color:#000000;solid-opacity:1;fill:none;fill-opacity:1;fill-rule:evenodd;stroke:#6699ff;stroke-width:0.28222221;stroke-linecap:butt;stroke-linejoin:round;stroke-miterlimit:4;stroke-dasharray:none;stroke-dashoffset:8.05119991;stroke-opacity:1;marker:none;color-rendering:auto;image-rendering:auto;shape-rendering:auto;text-rendering:auto;enable-background:accumulate" />
    </g>
    <g
       id="g4222"
       transform="matrix(0.28222208,0,0,0.28222208,-12.716741,-24.964192)">
      <ellipse
         style="color:#000000;clip-rule:nonzero;display:inline;overflow:visible;visibility:visible;opacity:1;isolation:auto;mix-blend-mode:normal;color-interpolation:sRGB;color-interpolation-filters:linearRGB;solid-color:#000000;solid-opacity:1;fill:none;fill-opacity:1;fill-rule:evenodd;stroke:#6699ff;stroke-width:0.52987552;stroke-linecap:butt;stroke-linejoin:round;stroke-miterlimit:4;stroke-dasharray:none;stroke-dashoffset:8.05119991;stroke-opacity:1;marker:none;color-rendering:auto;image-rendering:auto;shape-rendering:auto;text-rendering:auto;enable-background:accumulate"
         id="ellipse4218"
         cx="53.995277"
         cy="-67.413826"
         rx="50.535057"
         ry="50.535061" />
      <ellipse
         style="color:#000000;clip-rule:nonzero;display:inline;overflow:visible;visibility:visible;opacity:1;isolation:auto;mix-blend-mode:normal;color-interpolation:sRGB;color-interpolation-filters:linearRGB;solid-color:#000000;solid-opacity:1;fill:none;fill-opacity:1;fill-rule:evenodd;stroke:#6699ff;stroke-width:0.28222221;stroke-linecap:butt;stroke-linejoin:round;stroke-miterlimit:4;stroke-dasharray:none;stroke-dashoffset:8.05119991;stroke-opacity:1;marker:none;color-rendering:auto;image-rendering:auto;shape-rendering:auto;text-rendering:auto;enable-background:accumulate"
         id="ellipse4220"
         cx="53.995277"
         cy="-67.413826"
         rx="3.3554349"
         ry="3.3554351" />
    </g>
    <g
       id="g4230"
       transform="matrix(0.28222208,0,0,0.28222208,-7.6677835,4.7294879)">
      <ellipse
         style="color:#000000;clip-rule:nonzero;display:inline;overflow:visible;visibility:visible;opacity:1;isolation:auto;mix-blend-mode:normal;color-interpolation:sRGB;color-interpolation-filters:linearRGB;solid-color:#000000;solid-opacity:1;fill:none;fill-opacity:1;fill-rule:evenodd;stroke:#6699ff;stroke-width:0.52987552;stroke-linecap:butt;stroke-linejoin:round;stroke-miterlimit:4;stroke-dasharray:none;stroke-dashoffset:8.05119991;stroke-opacity:1;marker:none;color-rendering:auto;image-rendering:auto;shape-rendering:auto;text-rendering:auto;enable-background:accumulate"
         id="ellipse4232"
         cx="-88.919182"
         cy="-67.413826"
         rx="50.535057"
         ry="50.535061" />
      <ellipse
         style="color:#000000;clip-rule:nonzero;display:inline;overflow:visible;visibility:visible;opacity:1;isolation:auto;mix-blend-mode:normal;color-interpolation:sRGB;color-interpolation-filters:linearRGB;solid-color:#000000;solid-opacity:1;fill:none;fill-opacity:1;fill-rule:evenodd;stroke:#6699ff;stroke-width:0.28222221;stroke-linecap:butt;stroke-linejoin:round;stroke-miterlimit:4;stroke-dasharray:none;stroke-dashoffset:8.05119991;stroke-opacity:1;marker:none;color-rendering:auto;image-rendering:auto;shape-rendering:auto;text-rendering:auto;enable-background:accumulate"
         id="ellipse4234"
         cx="-88.919182"
         cy="-67.413826"
         rx="3.3554349"
         ry="3.3554351" />
    </g>
    <g
       id="g4236"
       transform="matrix(0.28222208,0,0,0.28222208,-17.756601,4.7294879)">
      <ellipse
         ry="50.535061"
         rx="50.535057"
         cy="-67.413826"
         cx="53.995277"
         id="ellipse4238"
         style="color:#000000;clip-rule:nonzero;display:inline;overflow:visible;visibility:visible;opacity:1;isolation:auto;mix-blend-mode:normal;color-interpolation:sRGB;color-interpolation-filters:linearRGB;solid-color:#000000;solid-opacity:1;fill:none;fill-opacity:1;fill-rule:evenodd;stroke:#6699ff;stroke-width:0.52987552;stroke-linecap:butt;stroke-linejoin:round;stroke-miterlimit:4;stroke-dasharray:none;stroke-dashoffset:8.05119991;stroke-opacity:1;marker:none;color-rendering:auto;image-rendering:auto;shape-rendering:auto;text-rendering:auto;enable-background:accumulate" />
      <ellipse
         ry="3.3554351"
         rx="3.3554349"
         cy="-67.413826"
         cx="53.995277"
         id="ellipse4240"
         style="color:#000000;clip-rule:nonzero;display:inline;overflow:visible;visibility:visible;opacity:1;isolation:auto;mix-blend-mode:normal;color-interpolation:sRGB;color-interpolation-filters:linearRGB;solid-color:#000000;solid-opacity:1;fill:none;fill-opacity:1;fill-rule:evenodd;stroke:#6699ff;stroke-width:0.28222221;stroke-linecap:butt;stroke-linejoin:round;stroke-miterlimit:4;stroke-dasharray:none;stroke-dashoffset:8.05119991;stroke-opacity:1;marker:none;color-rendering:auto;image-rendering:auto;shape-rendering:auto;text-rendering:auto;enable-background:accumulate" />
    </g>
    <g
       id="g4185"
       style="fill:#003399;stroke:none;stroke-width:0.99999994;stroke-miterlimit:4;stroke-dasharray:none"
       transform="matrix(0.28222208,0,0,0.28222208,-12.716741,23.621898)">
      <path
         sodipodi:nodetypes="cscccccc"
         inkscape:connector-curvature="0"
         id="path4242"
         d="m -17.395525,-90.079104 -6.943174,0.08728 c -8.117717,0.102045 -7.680198,-0.128106 -8.907245,4.451289 l -4.402656,15.673763 c 0.78801,10.553551 -2.572325,21.028825 -6.53737,27.602738 3.634963,2.054765 0.08503,7.473103 0.08503,36.2259656 4.959724,3.2752572 9.901422,7.4043406 12.093772,10.597866 2.688318,-2.1715712 2.652434,3.9817099 14.597265,3.9817099"
         style="fill:#003399;fill-opacity:0.50867052;fill-rule:evenodd;stroke:none;stroke-width:0.99999994;stroke-linecap:butt;stroke-linejoin:miter;stroke-miterlimit:4;stroke-dasharray:none;stroke-opacity:1" />
      <ellipse
         ry="2.0083032"
         rx="2.0083029"
         style="color:#000000;clip-rule:nonzero;display:inline;overflow:visible;visibility:visible;opacity:1;isolation:auto;mix-blend-mode:normal;color-interpolation:sRGB;color-interpolation-filters:linearRGB;solid-color:#000000;solid-opacity:1;fill:#003399;fill-opacity:1;fill-rule:evenodd;stroke:none;stroke-width:0.99999994;stroke-linecap:butt;stroke-linejoin:round;stroke-miterlimit:4;stroke-dasharray:none;stroke-dashoffset:8.05119991;stroke-opacity:1;marker:none;color-rendering:auto;image-rendering:auto;shape-rendering:auto;text-rendering:auto;enable-background:accumulate"
         id="ellipse4206"
         cx="-40.461609"
         cy="-43.680611" />
      <use
         height="100%"
         width="100%"
         transform="translate(10.106544,-42.825564)"
         id="use4181"
         xlink:href="#ellipse4206"
         y="0"
         x="0"
         style="fill:#003399;stroke:none;stroke-width:0.99999994;stroke-miterlimit:4;stroke-dasharray:none" />
      <use
         height="100%"
         width="100%"
         transform="translate(7.0719134,42.774504)"
         id="use4183"
         xlink:href="#ellipse4206"
         y="0"
         x="0"
         style="fill:#003399;stroke:none;stroke-width:0.99999994;stroke-miterlimit:4;stroke-dasharray:none" />
      <path
         sodipodi:type="inkscape:offset"
         inkscape:radius="-2.6936336"
         inkscape:original="M -17.396484 -90.080078 L -24.337891 -89.992188 C -32.455608 -89.890142 -32.019047 -90.120411 -33.246094 -85.541016 L -37.648438 -69.867188 C -36.860428 -59.313637 -40.220502 -48.837585 -44.185547 -42.263672 C -40.550584 -40.208907 -44.101562 -34.789972 -44.101562 -6.0371094 C -39.141838 -2.7618522 -34.200163 1.3670215 -32.007812 4.5605469 C -29.319495 2.3889757 -29.354987 8.5410156 -17.410156 8.5410156 L -17.396484 -90.080078 z "
         style="fill:#ffcc00;fill-opacity:0.50867052;fill-rule:evenodd;stroke:none;stroke-width:0.99999994;stroke-linecap:butt;stroke-linejoin:miter;stroke-miterlimit:4;stroke-dasharray:none;stroke-opacity:1"
         id="path4212"
         d="m -20.089844,-87.351562 -4.214844,0.05273 c -3.972259,0.04993 -5.738315,0.306905 -5.708984,0.255859 -0.122803,0.315491 -0.326329,1.062698 -0.630859,2.199219 a 2.6939029,2.6939029 0 0 1 -0.0078,0.03125 l -4.320312,15.380859 c 0.610478,10.149376 -2.245998,19.799281 -5.97461,26.707032 0.504004,0.788618 0.849498,1.687839 0.97461,2.5625 0.249456,1.743955 0.09615,3.589676 -0.123047,6.222656 -0.421738,5.065913 -1.213367,13.289354 -1.275391,26.5859374 4.010075,2.7501683 7.798693,5.8095933 10.335938,8.8691406 0.721257,-0.00124 1.454848,0.093787 1.935547,0.3261719 1.180632,0.5707542 1.692482,1.1516126 2.457031,1.6835937 1.239287,0.8623093 3.015316,1.8159433 6.539062,2.1601563 l 0.01367,-93.0371089 z" />
    </g>
    <use
       x="0"
       y="0"
       xlink:href="#g4185"
       id="use4191"
       transform="matrix(-1,0,0,1,-35.285201,2.0532098e-6)"
       width="100%"
       height="100%" />
    <path
       inkscape:connector-curvature="0"
       style="fill:#003399;fill-opacity:0.50867052;fill-rule:evenodd;stroke:none;stroke-width:0.99999994;stroke-linecap:butt;stroke-linejoin:miter;stroke-miterlimit:4;stroke-dasharray:none;stroke-opacity:1"
       d="m -17.658041,-50.362842 0,5.6e-4 -1.92668,0.0243 c -1.36013,0.0171 -1.86914,10e-4 -2.13077,0.25591 -0.17906,0.17427 -0.2423,0.47516 -0.383,1.00028 l -1.2425,4.4235 c 0.22239,2.97845 -0.72598,5.93478 -1.845,7.79008 0.3847,0.21747 0.48429,0.56849 0.45845,1.35016 -0.009,0.26055 -0.0312,0.56891 -0.0618,0.93619 -0.0459,0.55091 -0.10966,1.23425 -0.17159,2.08722 -0.10323,1.42161 -0.20115,3.31434 -0.20115,5.85018 0,0 1.6e-4,0 1.6e-4,0 0.17493,0.11552 0.34974,0.23496 0.52301,0.35702 0,0 1.6e-4,0 1.6e-4,0 0.0866,0.061 0.17275,0.12268 0.25839,0.18497 0,0 1.6e-4,0 1.6e-4,0 0.0856,0.0623 0.17069,0.12524 0.25497,0.18855 0,0 1.6e-4,0 1.6e-4,0 0.0843,0.0633 0.16776,0.12711 0.25031,0.19119 0,0 1.6e-4,0 1.6e-4,0 0.16513,0.12818 0.3263,0.25787 0.48225,0.38766 0,0 1.6e-4,0 1.6e-4,0 0.078,0.0649 0.15452,0.12985 0.22961,0.19477 0,0 1.6e-4,0 1.6e-4,0 0.0751,0.0649 0.14858,0.12991 0.22044,0.19461 0,0 1.6e-4,0 1.6e-4,0 0.0719,0.0647 0.14192,0.12928 0.21017,0.19353 0,0 1.5e-4,0 1.5e-4,0 0.40959,0.3856 0.7507,0.7608 0.98271,1.09876 0.75678,-0.61131 0.74936,1.1144 4.09479,1.12318 l 0,5.6e-4 c 0.004,0 0.008,-1.6e-4 0.0124,-1.6e-4 0.004,10e-6 0.008,1.6e-4 0.0125,1.6e-4 l 0,-5.6e-4 c 1.8818,-0.005 2.70279,-0.55305 3.19562,-0.92297 0.38331,-0.28772 0.56807,-0.46766 0.89916,-0.20021 0.61873,-0.90129 2.013358,-2.06671 3.413102,-2.99106 0,0 1.59e-4,0 1.59e-4,0 0,-2.53584 -0.09792,-4.42857 -0.201146,-5.85018 -0.06194,-0.85297 -0.125746,-1.53631 -0.171588,-2.08722 -0.03056,-0.36728 -0.05315,-0.67564 -0.06176,-0.93619 -0.02581,-0.78167 0.07375,-1.13269 0.458451,-1.35016 -1.119023,-1.8553 -2.067396,-4.81163 -1.845002,-7.79008 l -1.242496,-4.4235 c -0.14071,-0.52512 -0.20395,-0.82601 -0.383,-1.00028 -0.0138,-0.0134 -0.0281,-0.0262 -0.0433,-0.0381 0,0 -1.6e-4,0 -1.6e-4,0 -0.0152,-0.0119 -0.0311,-0.0232 -0.0479,-0.0337 0,0 -1.5e-4,0 -1.5e-4,0 -0.0168,-0.0106 -0.0346,-0.0204 -0.0532,-0.0297 0,0 -1.6e-4,0 -1.6e-4,0 -0.0186,-0.009 -0.0382,-0.018 -0.0588,-0.0261 0,0 -1.6e-4,0 -1.6e-4,0 -0.0206,-0.008 -0.0422,-0.0157 -0.065,-0.0227 0,0 -1.5e-4,0 -1.5e-4,0 -0.0228,-0.007 -0.0466,-0.0135 -0.0717,-0.0194 0,0 -1.6e-4,0 -1.6e-4,0 -0.0251,-0.006 -0.0514,-0.0116 -0.079,-0.0167 0,0 -1.6e-4,0 -1.6e-4,0 -0.0553,-0.0102 -0.11591,-0.0185 -0.18232,-0.0255 0,0 -1.6e-4,0 -1.6e-4,0 -0.0664,-0.007 -0.1387,-0.0126 -0.21763,-0.0171 0,0 -1.6e-4,0 -1.6e-4,0 -0.079,-0.005 -0.16459,-0.008 -0.25746,-0.0109 0,0 -1.6e-4,0 -1.6e-4,0 -0.0929,-0.003 -0.19312,-0.005 -0.30133,-0.007 0,0 -1.6e-4,0 -1.6e-4,0 -0.21651,-0.003 -0.46508,-0.006 -0.75138,-0.009 l -1.6e-4,0 -1.92652,-0.0243 0,-5.6e-4 -0.0165,1.6e-4 -0.0165,-1.6e-4 z m -3.62452,0.44165 a 0.56678743,0.56678751 0 0 1 0.56673,0.56672 0.56678743,0.56678751 0 0 1 -0.56673,0.56688 0.56678743,0.56678751 0 0 1 -0.56688,-0.56688 0.56678743,0.56678751 0 0 1 0.56688,-0.56672 z m 7.28201,0 a 0.56678743,0.56678751 0 0 1 0.56672,0.56672 0.56678743,0.56678751 0 0 1 -0.56672,0.56688 0.56678743,0.56678751 0 0 1 -0.56688,-0.56688 0.56678743,0.56678751 0 0 1 0.56688,-0.56672 z m -4.38492,0.32824 1.48783,0 1.18945,0.0148 1.6e-4,0 c 0.004,4e-5 0.007,8e-5 0.0101,1.6e-4 0.1396,0.002 0.26899,0.005 0.38938,0.008 0.0654,0.002 0.12184,0.004 0.1817,0.006 0.0522,0.002 0.10772,0.004 0.15572,0.006 0.0123,5.7e-4 0.0186,10e-4 0.0306,0.002 -0.0615,0.51044 0.1459,1.22239 1.16565,1.18525 l 1.07744,3.83561 c -0.008,0.13125 -0.0131,0.26206 -0.017,0.39265 -8.2e-4,0.0276 -0.002,0.0552 -0.002,0.0828 -0.003,0.12755 -0.004,0.25466 -0.003,0.38145 8e-5,0.0189 3.9e-4,0.0377 6.5e-4,0.0566 10e-4,0.12527 0.004,0.25021 0.009,0.37461 4e-4,0.0105 6.5e-4,0.0211 10e-4,0.0316 0.005,0.12818 0.0126,0.25574 0.0213,0.38285 0.002,0.0249 0.003,0.0497 0.005,0.0745 0.009,0.12403 0.0198,0.24751 0.0322,0.3704 0.002,0.0208 0.004,0.0416 0.007,0.0624 0.0121,0.11463 0.0255,0.22872 0.0403,0.34224 0.002,0.0176 0.004,0.0353 0.007,0.0529 0.0162,0.12102 0.0342,0.24129 0.0534,0.36092 0.004,0.0265 0.009,0.0529 0.0129,0.0793 0.0195,0.11754 0.0401,0.23444 0.0622,0.35049 0.004,0.0229 0.009,0.0455 0.0135,0.0683 0.0201,0.10247 0.0411,0.20434 0.06316,0.30554 0.0053,0.0243 0.01046,0.0487 0.01587,0.073 0.02569,0.11506 0.05276,0.22909 0.08089,0.3424 0.0053,0.0213 0.01066,0.0424 0.01602,0.0636 0.02935,0.11601 0.05956,0.23135 0.09132,0.34536 0.0405,0.14536 0.08324,0.28887 0.127408,0.43076 0.01181,0.0379 0.02434,0.0751 0.0364,0.11278 0.03331,0.10409 0.06723,0.20738 0.102362,0.30942 0.01612,0.0468 0.03267,0.093 0.04916,0.13939 0.03213,0.0904 0.06485,0.17988 0.09832,0.2685 0.01839,0.0487 0.03677,0.0973 0.05554,0.14546 0.03648,0.0936 0.07369,0.18575 0.11154,0.27721 0.01538,0.0372 0.03045,0.0749 0.04605,0.1117 0.0049,0.0116 0.0095,0.0237 0.01447,0.0353 -0.522888,0.0119 -1.059619,1.46439 0.26026,1.83614 -0.0704,0.49218 -0.02717,1.01309 0.03469,1.75617 0.04463,0.53615 0.103996,1.19757 0.161632,2.01286 0.09606,1.35883 0.187405,3.145 0.198346,5.49037 -0.52703,0.36144 -1.023284,0.71492 -1.511004,1.13236 -1.407824,-0.94569 -2.182044,0.73893 -1.405994,1.37068 -0.0509,-8e-5 -0.102,0.001 -0.15215,0.005 -0.15048,0.0105 -0.29245,0.0379 -0.3942,0.0871 -0.3332,0.16108 -0.47758,0.32496 -0.69335,0.4751 -0.34976,0.24336 -0.85099,0.51252 -1.84547,0.60966 l -1.4956,0 c -0.99448,-0.0971 -1.49572,-0.3663 -1.84547,-0.60966 -0.10785,-0.075 -0.19786,-0.15366 -0.30258,-0.2335 0,0 -1.6e-4,0 -1.6e-4,0 -0.0262,-0.02 -0.0532,-0.04 -0.0817,-0.0601 0,0 -1.6e-4,0 -1.6e-4,0 -0.0285,-0.0201 -0.0584,-0.0404 -0.0902,-0.0605 0,0 -1.6e-4,0 -1.6e-4,0 -0.0319,-0.0202 -0.0655,-0.0403 -0.10174,-0.0605 0,0 -1.6e-4,0 -1.6e-4,0 -0.0362,-0.0202 -0.0749,-0.0404 -0.11652,-0.0605 0,0 -1.6e-4,0 -1.6e-4,0 -0.0169,-0.008 -0.035,-0.0159 -0.054,-0.0229 0,0 -1.6e-4,0 -1.6e-4,0 -0.038,-0.014 -0.0798,-0.0256 -0.12445,-0.0351 0,0 -1.6e-4,0 -1.6e-4,0 -0.0223,-0.005 -0.0453,-0.009 -0.0688,-0.0128 0,0 -1.6e-4,0 -1.6e-4,0 -0.0941,-0.0149 -0.19675,-0.0215 -0.29853,-0.0213 0.77604,-0.63175 0.002,-2.31637 -1.406,-1.37068 -0.48772,-0.41743 -0.98397,-0.77091 -1.511,-1.13236 0.0109,-2.34537 0.10228,-4.13154 0.19834,-5.49037 0.0576,-0.81529 0.117,-1.47671 0.16163,-2.01285 0.0619,-0.74309 0.1051,-1.264 0.0347,-1.75618 1.31987,-0.37175 0.78314,-1.82419 0.26026,-1.83614 0.005,-0.0116 0.01,-0.0237 0.0145,-0.0353 0.0156,-0.0368 0.0307,-0.0745 0.0461,-0.11169 0.0378,-0.0915 0.0751,-0.18363 0.11154,-0.27722 0.0188,-0.0482 0.0371,-0.0968 0.0555,-0.14545 0.0335,-0.0886 0.0662,-0.17813 0.0983,-0.26851 0.0165,-0.0464 0.0331,-0.0926 0.0492,-0.13939 0.0351,-0.10203 0.0691,-0.20533 0.10237,-0.30942 0.0121,-0.0377 0.0246,-0.0748 0.0364,-0.11278 0.0442,-0.14189 0.0869,-0.2854 0.12741,-0.43076 0.0318,-0.11401 0.062,-0.22935 0.0913,-0.34536 0.005,-0.0212 0.0108,-0.0424 0.016,-0.0636 0.0281,-0.1133 0.0552,-0.22734 0.0809,-0.3424 0.005,-0.0242 0.0106,-0.0486 0.0159,-0.073 0.0221,-0.1012 0.0431,-0.20307 0.0632,-0.30553 0.004,-0.0228 0.009,-0.0454 0.0135,-0.0683 0.0222,-0.11606 0.0427,-0.23296 0.0622,-0.35049 0.004,-0.0264 0.009,-0.0529 0.0129,-0.0793 0.0191,-0.11962 0.0371,-0.23989 0.0534,-0.36091 0.002,-0.0176 0.004,-0.0353 0.007,-0.0529 0.0148,-0.11353 0.0282,-0.22761 0.0403,-0.34225 0.002,-0.0208 0.005,-0.0415 0.007,-0.0624 0.0124,-0.12289 0.023,-0.24637 0.0322,-0.3704 0.002,-0.0248 0.004,-0.0497 0.005,-0.0745 0.009,-0.12711 0.0161,-0.25467 0.0213,-0.38284 2.8e-4,-0.0105 8.4e-4,-0.0211 0.001,-0.0316 0.005,-0.12202 0.007,-0.24459 0.009,-0.36745 2.4e-4,-0.0233 5.6e-4,-0.0466 8.4e-4,-0.07 5.7e-4,-0.12472 -2.8e-4,-0.24977 -0.003,-0.37523 -5.6e-4,-0.0276 -0.001,-0.0552 -0.002,-0.0828 -0.004,-0.13059 -0.009,-0.2614 -0.017,-0.39264 l 1.07745,-3.83562 c 1.01974,0.0371 1.22716,-0.67481 1.16565,-1.18525 0.0121,-5.6e-4 0.0183,-10e-4 0.0306,-0.002 0.048,-0.002 0.10354,-0.004 0.15572,-0.006 0.0599,-0.002 0.11627,-0.004 0.1817,-0.006 0.12039,-0.003 0.24978,-0.006 0.38938,-0.008 0.004,-5e-5 0.006,-8e-5 0.0101,-1.6e-4 l 1.18961,-0.0148 z m -5.74937,11.75809 a 0.56678743,0.56678751 0 0 1 0.56672,0.56672 0.56678743,0.56678751 0 0 1 -0.56672,0.56688 0.56678743,0.56678751 0 0 1 -0.56688,-0.56688 0.56678743,0.56678751 0 0 1 0.56688,-0.56672 z m 12.986574,0 a 0.56678743,0.56678751 0 0 1 0.566724,0.56672 0.56678743,0.56678751 0 0 1 -0.566724,0.56688 0.56678743,0.56678751 0 0 1 -0.566879,-0.56688 0.56678743,0.56678751 0 0 1 0.566879,-0.56672 z m -10.990834,12.07186 a 0.56678743,0.56678751 0 0 1 0.56688,0.56688 0.56678743,0.56678751 0 0 1 -0.56688,0.56672 0.56678743,0.56678751 0 0 1 -0.56672,-0.56672 0.56678743,0.56678751 0 0 1 0.56672,-0.56688 z m 8.99493,0 a 0.56678743,0.56678751 0 0 1 0.56688,0.56688 0.56678743,0.56678751 0 0 1 -0.56688,0.56672 0.56678743,0.56678751 0 0 1 -0.56672,-0.56672 0.56678743,0.56678751 0 0 1 0.56672,-0.56688 z"
       id="path4242-6" />
    <path
       style="fill:#cc0000;fill-opacity:1;fill-rule:evenodd;stroke:none;stroke-width:0.99999994;stroke-linecap:butt;stroke-linejoin:miter;stroke-miterlimit:4;stroke-dasharray:none;stroke-opacity:1"
       d="m -17.658091,-50.362753 0,5.5e-4 -1.926497,0.02425 c -1.36013,0.0171 -1.869368,8.56e-4 -2.130998,0.255764 -0.17906,0.17427 -0.242394,0.475336 -0.383094,1.000455 l -1.242439,4.423504 c 0.06994,0.936743 0.02361,1.871093 -0.106936,2.769855 l 0.730911,0.172531 c 0.01078,-0.07141 0.02229,-0.142539 0.03197,-0.214421 0.002,-0.0176 0.0042,-0.03532 0.0072,-0.05292 0.0148,-0.113533 0.02814,-0.227666 0.04024,-0.342305 0.002,-0.0208 0.0052,-0.04139 0.0072,-0.06229 0.0124,-0.122888 0.02277,-0.246386 0.03197,-0.370417 0.002,-0.0248 0.004,-0.04962 0.005,-0.07441 0.009,-0.127111 0.0163,-0.254373 0.0215,-0.382544 2.8e-4,-0.0105 9.42e-4,-0.02147 0.0011,-0.03197 0.005,-0.122019 0.0068,-0.24425 0.0088,-0.367109 2.4e-4,-0.0233 8.22e-4,-0.0466 0.0011,-0.07001 5.7e-4,-0.124719 -5.87e-4,-0.249916 -0.0033,-0.375378 -5.6e-4,-0.0276 -0.0012,-0.05508 -0.0022,-0.08268 -0.004,-0.130589 -0.0085,-0.261778 -0.01654,-0.393017 l 1.077074,-3.835357 c 1.01974,0.0371 1.22733,-0.674672 1.16582,-1.185113 0.0121,-5.56e-4 0.01857,-0.0012 0.03087,-0.0022 0.048,-0.002 0.103263,-0.0041 0.155443,-0.0061 0.0599,-0.002 0.116471,-0.0041 0.181901,-0.0061 0.12039,-0.003 0.249558,-0.0057 0.389158,-0.0077 0.004,-5e-5 0.0058,-4.71e-4 0.0099,-5.5e-4 l 1.187317,-0.01433 0.0028,0 1.485525,0 1.188971,0.01433 5.51e-4,0 c 0.004,4e-5 0.0068,4.71e-4 0.0099,5.5e-4 0.1396,0.002 0.268768,0.0047 0.389158,0.0077 0.0654,0.002 0.122041,0.0041 0.181901,0.0061 0.0522,0.002 0.107994,0.0041 0.155994,0.0061 0.0123,5.71e-4 0.01832,0.0012 0.03032,0.0022 -0.0615,0.510441 0.14607,1.222253 1.16582,1.185113 l 1.077074,3.835357 c -0.008,0.131251 -0.01264,0.262428 -0.01654,0.393017 -8.2e-4,0.0276 -0.0022,0.05508 -0.0022,0.08268 -0.003,0.127551 -0.0038,0.254652 -0.0028,0.381443 8e-5,0.0189 2.92e-4,0.03787 5.51e-4,0.05678 10e-4,0.12527 0.0038,0.249874 0.0088,0.374275 4e-4,0.0105 7.52e-4,0.02092 0.0011,0.03142 0.005,0.12818 0.0128,0.255984 0.0215,0.383095 0.002,0.0249 0.003,0.04961 0.005,0.07441 0.009,0.124031 0.01957,0.247529 0.03197,0.370417 0.002,0.0208 0.0042,0.04149 0.0072,0.06229 0.0121,0.114627 0.02544,0.228783 0.04024,0.342305 0.002,0.0176 0.0042,0.03531 0.0072,0.05292 0.0096,0.07169 0.02082,0.142647 0.03142,0.213871 l 0.729257,-0.171981 c -0.130543,-0.898762 -0.17688,-1.833112 -0.106935,-2.769855 l -1.24244,-4.423504 c -0.14071,-0.525119 -0.204044,-0.826185 -0.383094,-1.000455 -0.0138,-0.0134 -0.02835,-0.02613 -0.04355,-0.03804 -0.0152,-0.01189 -0.03116,-0.02312 -0.04796,-0.03362 -0.0168,-0.0106 -0.03487,-0.02046 -0.05347,-0.02976 -0.0186,-0.009 -0.03838,-0.01781 -0.05898,-0.02591 -0.0206,-0.008 -0.04224,-0.0156 -0.06504,-0.0226 -0.0228,-0.007 -0.04656,-0.01394 -0.07166,-0.01984 -0.0251,-0.006 -0.05178,-0.01144 -0.07938,-0.01654 -0.0553,-0.0102 -0.116043,-0.01835 -0.182453,-0.02535 -0.0664,-0.007 -0.1388,-0.01259 -0.217729,-0.01709 -0.079,-0.005 -0.164548,-0.0081 -0.257418,-0.01102 l -5.51e-4,0 c -0.0929,-0.003 -0.192754,-0.0052 -0.300964,-0.0072 l -5.51e-4,0 c -0.21651,-0.003 -0.465006,-0.0058 -0.751306,-0.0088 l -1.926497,-0.02425 0,-5.5e-4 -0.01654,0 -0.01654,0 z m -3.62424,0.441522 a 0.56678741,0.56678751 0 0 1 0.56665,0.566652 0.56678741,0.56678751 0 0 1 -0.56665,0.567199 0.56678741,0.56678751 0 0 1 -0.5672,-0.567199 0.56678741,0.56678751 0 0 1 0.5672,-0.566652 z m 7.281554,0 a 0.56678741,0.56678751 0 0 1 0.5672,0.566652 0.56678741,0.56678751 0 0 1 -0.5672,0.567199 0.56678741,0.56678751 0 0 1 -0.56665,-0.567199 0.56678741,0.56678751 0 0 1 0.56665,-0.566652 z m -10.327569,11.304874 c -0.259913,0.649484 -0.551859,1.240847 -0.857691,1.747904 0.3847,0.217472 0.484451,0.568808 0.458611,1.350479 -0.009,0.26055 -0.03114,0.568683 -0.06174,0.935964 -0.0459,0.550909 -0.110049,1.234482 -0.171979,2.087451 -0.10323,1.42161 -0.201194,3.314209 -0.201194,5.850049 l 5.52e-4,0 c 0.105473,0.06965 0.21022,0.143307 0.315295,0.215525 l 0.479557,-0.568856 c -0.0081,-0.0056 -0.01554,-0.01149 -0.0237,-0.01709 0.0109,-2.345371 0.102377,-4.131826 0.198437,-5.490655 0.0576,-0.815292 0.116876,-1.476903 0.161506,-2.013038 0.0619,-0.743091 0.105127,-1.263994 0.03473,-1.756173 1.31987,-0.371751 0.783054,-1.824149 0.260173,-1.836098 0.005,-0.0116 0.01038,-0.02368 0.01488,-0.03528 0.0156,-0.0368 0.03035,-0.07416 0.04575,-0.111345 0.02555,-0.06184 0.05043,-0.124734 0.07552,-0.187412 l -0.728707,-0.171431 z m 13.373584,0 -0.727053,0.170877 c 0.02516,0.06292 0.0504,0.125939 0.07607,0.187966 0.01538,0.0372 0.03015,0.07455 0.04575,0.111345 0.0049,0.0116 0.0094,0.02368 0.01433,0.03528 -0.522887,0.0119 -1.059705,1.464347 0.260174,1.836098 -0.0704,0.492179 -0.02713,1.01309 0.03473,1.756173 0.04463,0.536146 0.104422,1.197746 0.162058,2.013038 0.09606,1.358829 0.186945,3.145284 0.197886,5.490655 -0.0085,0.0058 -0.01632,0.01181 -0.0248,0.01764 l 0.479006,0.568303 c 0.105109,-0.07219 0.209799,-0.145858 0.315296,-0.215525 0,-2.53584 -0.09742,-4.428439 -0.200643,-5.850049 -0.06194,-0.852969 -0.126137,-1.536542 -0.171979,-2.087451 -0.03056,-0.367281 -0.05313,-0.675414 -0.06174,-0.935964 -0.02581,-0.781671 0.07391,-1.133007 0.458611,-1.350479 -0.305832,-0.507057 -0.597778,-1.09842 -0.857691,-1.747904 z m -13.180107,0.781626 a 0.56678741,0.56678751 0 0 1 0.566649,0.566649 0.56678741,0.56678751 0 0 1 -0.566649,0.566648 0.56678741,0.56678751 0 0 1 -0.56665,-0.566648 0.56678741,0.56678751 0 0 1 0.56665,-0.566649 z m 12.986631,0 a 0.56678741,0.56678751 0 0 1 0.566649,0.566649 0.56678741,0.56678751 0 0 1 -0.566649,0.566648 0.56678741,0.56678751 0 0 1 -0.56665,-0.566648 0.56678741,0.56678751 0 0 1 0.56665,-0.566649 z m -2.754423,13.326178 c -0.01892,7.73e-4 -0.03806,1.63e-4 -0.05678,0.0017 -0.15048,0.0105 -0.29292,0.03789 -0.39467,0.08709 -0.3332,0.161079 -0.477108,0.325007 -0.692878,0.475147 -0.34976,0.24336 -0.850989,0.512504 -1.845468,0.609645 l -1.495999,0 c -0.994479,-0.0971 -1.495718,-0.366285 -1.845468,-0.609645 -0.10785,-0.075 -0.197897,-0.153876 -0.302617,-0.233714 -0.0262,-0.02 -0.05308,-0.03998 -0.08158,-0.06008 -0.0285,-0.0201 -0.0586,-0.04054 -0.0904,-0.06064 -0.0319,-0.0202 -0.06574,-0.04043 -0.101975,-0.06063 -0.0362,-0.0202 -0.07524,-0.03998 -0.116858,-0.06008 -0.0169,-0.008 -0.03502,-0.01615 -0.05402,-0.02315 -0.038,-0.014 -0.07993,-0.02578 -0.124575,-0.03528 -0.0223,-0.005 -0.0454,-0.0089 -0.0689,-0.01268 -0.06562,-0.01039 -0.137617,-0.0115 -0.208359,-0.01433 l -0.531371,0.630042 c 0.05909,0.07529 0.116377,0.149425 0.165915,0.221586 0.75678,-0.61131 0.748997,1.114598 4.094427,1.123377 l 0,5.51e-4 0.01268,0 c 0.004,1.1e-5 0.0082,0 0.01268,0 l 0,-5.51e-4 c 1.8818,-0.005 2.702565,-0.552814 3.195395,-0.922734 0.38331,-0.287719 0.567942,-0.468093 0.899032,-0.200643 0.04861,-0.07081 0.109755,-0.145559 0.167569,-0.219382 l -0.535781,-0.635553 z"
       id="path5880"
       inkscape:connector-curvature="0" />
  </g>
  <g
     inkscape:groupmode="layer"
     id="layer3"
     inkscape:label="bumper">
    <path
       d="m 31.753491,-13.875194 0.178928,-0.38382 0.02427,-0.0847 -0.009,-0.065 -0.01665,-0.0856 -0.03013,-0.0386 -0.02297,-0.0294 -0.04539,-0.0471 -0.165662,-0.0474 -0.06915,0.0172 -0.05785,0.0144 -0.08616,0.0923 -0.03294,0.0353 -0.178644,0.38354 -0.02145,0.17329 0.02882,0.0589 0.04229,0.0761 0.09266,0.0544 0.07894,0.0369 0.08626,-0.0122 0.04356,-0.006 0.0045,-0.004 0.07572,-0.0673 0.0554,-0.0347 z m -16.574863,5.7003197 -0.0847,-0.0135 -0.0847,0.0135 -0.0547,0.009 -0.118539,0.0603 -0.007,0.004 -0.0999,0.0999 -0.0643,0.12588 -0.022,0.13941 0.022,0.1397 1.5e-4,3.1e-4 0.0642,0.12559 0.0999,0.0999 0.125872,0.0641 0.139421,0.022 0.139417,-0.022 0.125872,-0.0641 0.0547,-0.0547 0.0452,-0.0452 0.0642,-0.12559 1.59e-4,-3.1e-4 0.02201,-0.1397 -0.02201,-0.13941 -0.0644,-0.12588 -0.0452,-0.0452 -0.0547,-0.0547 -0.12588,-0.0641 z m -4.38859,-9.5351497 2.10283,0 0.20913,0.0276 0.009,9.9e-4 0.20377,0.0841 0.17498,0.13349 0.13462,0.17442 0.0852,0.2032 0.0658,0.2413 0.31526,1.15598 0.1643,0.60242 0.46621,1.70954 0.0848,0.31113 0.01,0.0854 0.0165,0.11061 -0.002,0.0127 -0.0114,0.0581 -0.0192,0.0979 -0.0824,0.15128 -0.12418,0.11909 -0.15437,0.0765 -0.1699,0.0262 -0.0107,0 -1.155989,0 -2.31196,0 -2.3119608,0 -1.155979,0 -0.0107,0 -0.1699,-0.0262 -0.15437,-0.0765 -0.12418,-0.11909 -0.0824,-0.15128 -0.0192,-0.0979 -0.0139,-0.0708 0.0195,-0.17103 0.0917,-0.33613 0.63049,-2.31196 0.31525,-1.15598 0.0658,-0.2413 0.0852,-0.2032 0.13462,-0.17442 0.17498,-0.13349 0.20376,-0.0841 0.009,-9.9e-4 0.20912,-0.0276 z m 17.339722,0.2572 0.370888,0.11763 0.785094,0.249 1.501705,0.47627 0.704141,0.17752 0.106116,0.008 0.618067,0.0465 0.227471,-0.003 0.310444,0.0378 0.176107,0.0215 0.454377,0.18401 0.390596,0.29633 0.117492,0.15212 0.01741,0.0225 0.164818,0.2134 0.18796,0.45268 0.435271,1.62334 0.20114,0.75015 0.05279,0.40584 0.01041,0.0801 -0.06576,0.48598 -0.189939,0.45184 -0.107583,0.13801 -0.193827,0.24864 -0.392007,0.29464 -0.103293,0.0581 -2.311964,1.3015897 -0.510823,0.28758 -0.312146,0.12136 -0.105257,0.0409 -0.446476,0.0387 -0.395647,-0.0796 -0.04349,-0.009 -0.498119,-0.17651 -1.155985,-0.40963 -0.16256,-0.0576 -0.199528,-0.0381 -0.201789,0.0223 -0.592102,0.15867 -1.901808,0.50963 -5.034082,1.349 -0.589848,0.15807 -0.231419,0.0957 -0.198967,0.15268 -0.135749,0.17698 -0.01665,0.0217 -0.09596,0.23142 -0.01651,0.12643 -0.01592,0.12192 0,2.19005 0,2.31196 0,2.3119603 0,2.31197 0,0.96209 0.02246,0.19389 0.02551,0.22013 0.141679,0.39173 0.227468,0.34911 0.162145,0.19501 0.721778,0.86811 3.122729,3.75582 1.501197,1.80554 0.421055,0.50642 0.03332,0.0401 0.152118,0.1349 0.185138,0.0838 0.364349,0.10277 1.155979,0.32612 0.334433,0.0943 0.409505,0.18147 0.228001,0.19247 0.114334,0.0965 0.06971,0.10536 0.177518,0.26831 0.325103,0.68579 0.547996,1.15599 0.105365,0.22226 0.442629,0.93372 0.01738,0.0367 0.149857,0.46651 0.02286,0.48994 -0.036,0.16284 -0.06983,0.31581 -0.226907,0.43462 -0.299999,0.32496 -0.03246,0.0352 -0.05465,0.0454 -1.834549,1.52541 -0.390313,0.24571 -0.02484,0.0156 -0.468489,0.14393 -0.489937,0.0166 -0.17272,-0.0405 -0.3048,-0.0715 -0.431518,-0.23283 -0.419665,-0.30356 -1.416473,-1.02458 -0.455791,-0.27432 -0.153809,-0.0926 -0.285891,-0.11218 -0.376484,-0.14774 -0.696525,-0.14535 -0.08297,-0.0101 -1.155982,-0.14095 -8.906082,-1.08592 -0.34177,0 -0.341771,0 -8.9060888,1.08592 -1.15598095,0.14095 -0.083,0.0101 -0.696521,0.14535 -0.376489,0.14774 -0.28589105,0.11218 -0.15381,0.0926 -0.45579,0.27432 -1.416469,1.02458 -0.41967,0.30356 -0.43151,0.23283 -0.304801,0.0715 -0.17272,0.0405 -0.48994,-0.0166 -0.46849,-0.14393 -0.0207,-0.013 -0.004,-0.003 -0.39031,-0.2457 -1.83455,-1.52541 -0.0546,-0.0454 -0.0325,-0.0352 -0.3,-0.32496 -0.22691,-0.43462 -0.0698,-0.3158 -0.036,-0.16285 0.0229,-0.48993 0.14986,-0.46652 0.0174,-0.0367 0.44263,-0.93371 0.10536,-0.22227 0.548,-1.15598 0.3251,-0.6858 0.17752,-0.2683 0.0697,-0.10536 0.11433,-0.0965 0.228,-0.19248 0.40951,-0.18147 0.33443,-0.0943 1.15598,-0.32611 0.36435,-0.10279 0.18514,-0.0838 0.15212,-0.13491 0.0333,-0.0401 0.42105,-0.50642 1.5012,-1.80555 3.12273,-3.75583 0.72178,-0.8681 0.16214,-0.19502 0.22747,-0.34911 0.14168,-0.39171 0.0255,-0.22013 0.0225,-0.19389 0,-0.96211 0,-2.31195 0,-2.3119703 0,-2.31196 0,-2.19004 -0.0159,-0.12192 -0.0165,-0.12643 -0.096,-0.23143 -0.0166,-0.0217 -0.13575,-0.17698 -0.19896,-0.15268 -0.23142,-0.0957 -0.58985,-0.15806 -5.03408,-1.349 -1.90181,-0.50964 -0.5921,-0.15867 -0.20179,-0.0223 -0.19953,0.0381 -0.16256,0.0576 -1.15598,0.40963 -0.49812,0.17652 -0.0435,0.009 -0.395653,0.0796 -0.44648,-0.0387 -0.105261,-0.0409 -0.312139,-0.12136 -0.5108202,-0.28758 -2.31197,-1.3015997 -0.10329,-0.0581 -0.39201,-0.29463 -0.19382,-0.24864 -0.10759,-0.13801 -0.18994,-0.45184 -0.0658,-0.48598 0.0104,-0.0802 0.0528,-0.40584 0.20114,-0.75015 0.43527,-1.62334 0.18796,-0.45268 0.16482,-0.2134 0.0174,-0.0225 0.1175,-0.15212 0.39059,-0.29633 0.45438,-0.18401 0.17611,-0.0215 0.31044,-0.0378 0.22747,0.003 0.61807,-0.0465 0.0452,-0.003 0.0609,-0.005 0.769759,-0.20484 0.10077,-0.0254 0.427451,-0.13558 0.90787,-0.28797 1.15598,-0.36668 0.216579,-0.0687 0.112781,-0.0358 0.18766,-0.0491 0.10666,-0.0301 0.5323,-0.13929 0.85933,-0.22486 0.0177,-0.005 0.0204,-0.005 0.2059,-0.0517 1.10168,-0.28832 3.06831005,-0.63698 1.66256995,-0.25742 1.43426,-0.22208 0.87771,-0.0901 2.23943,-0.22992 0.0725,-0.004 1.15598,-0.0593 1.155979,-0.0593 0.74507,-0.0382 1.5669008,0 1.566889,0 0.745071,0.0382 1.15598,0.0593 1.155978,0.0593 0.0725,0.004 1.976715,0.20295 0.262715,0.027 0.877711,0.0901 1.434253,0.22208 1.662568,0.25742 3.068317,0.63697 1.101674,0.28833 0.205901,0.0517 0.03807,0.01 0.574255,0.15037 0.285101,0.078 0.992759,0.27149 0.10666,0.0301 z m 1.352104,3.61954 -0.04421,0.002 -0.08599,0.003 -0.06592,0.0366 -0.01036,0.006 -0.0554,0.0347 -0.03079,0.0579 -0.03679,0.0789 -0.0045,0.0654 0.0014,0.0389 1.61e-4,0.005 0.01837,0.0458 0.01507,0.0414 0.04424,0.0412 0.01947,0.0181 0.03915,0.0357 0.02145,0.0196 0.425874,0.19106 0.130669,0.009 0.08297,-0.0302 0.04718,-0.0455 0.05949,-0.0637 0.02402,-0.0793 0.0067,-0.0548 0.0039,-0.0316 -0.02966,-0.0846 -0.02862,-0.0588 -0.09032,-0.0759 -0.01016,-0.009 -0.212866,-0.0954 -0.189984,-0.0886 z m -1.845163,29.76101 0.03073,0.0578 0.04223,0.0503 0.0076,0.0435 0.0037,0.0211 2.6e-5,2.8e-4 0.0045,0.0649 -0.01846,0.0457 -0.01583,0.0636 -0.02046,0.0262 -0.0068,0.009 -0.06034,0.0553 -0.03658,0.0247 -0.383822,0.17865 -0.128975,0.0229 -0.06344,-0.0158 -0.01699,-0.007 -0.08146,-0.0356 -0.03482,-0.0272 -0.06152,-0.11571 -0.0096,-0.11599 0.01535,-0.0488 0.0291,-0.0662 0.06372,-0.0593 0.05014,-0.0421 0.02907,-0.0136 0.354753,-0.16537 0.04229,-0.0121 0.06485,0.009 0.08659,-0.0106 0.0589,0.0287 0.0045,0.003 z m -6.147909,-0.5554 0.03701,0.15043 0.01154,0.0469 0.06237,0.68043 -0.01185,0.20857 -0.07281,0.19586 -0.01851,0.0243 -0.108216,0.14195 -0.169615,0.12164 -0.02484,0.008 -0.173281,0.0583 -0.208848,0.006 -0.77385,-0.0944 -8.735344,-1.06529 -0.512509,-0.031 -0.51252,0.031 -8.7353398,1.06529 -0.77384995,0.0944 -0.208841,-0.006 -0.173289,-0.0583 -0.0248,-0.008 -0.16962,-0.12164 -0.10821,-0.14195 -0.0185,-0.0243 -0.0728,-0.19586 -0.0118,-0.20857 0.0624,-0.68043 0.0115,-0.0469 0.037,-0.15043 0.10499,-0.17413 0.69128997,-0.83142 0.65461998,-0.78733 3.18995,-3.8366 1.42834,-1.71789 0.006,-0.005 0.0124,-0.011 0.0689,-0.0615 0.10612,-0.0491 0.11571,-0.0155 0.11543,0.0186 0.1047,0.0516 0.0547,0.038 0.0258,0.0179 0.55217,0.3829 0.281309,0.19509 0.265351,0.184 0.505459,0.24723 0.103861,0.0159 0.452119,0.0691 1.8598408,0 1.859839,0 0.452121,-0.0691 0.103859,-0.0159 0.505461,-0.24723 0.265349,-0.184 0.28132,-0.19509 0.552161,-0.3829 0.0258,-0.0179 0.0547,-0.038 0.104698,-0.0516 0.115432,-0.0186 0.115708,0.0155 0.106122,0.0491 0.0689,0.0615 0.01239,0.011 0.006,0.005 1.428341,1.71789 3.189946,3.8366 0.654626,0.78733 0.691289,0.83142 z m -5.409248,-21.8447403 -0.03877,-0.0483 -0.01668,-0.007 -0.110327,-0.0451 -0.0655,0.003 -0.0782,0.01 -0.0706,0.0513 -0.0576,0.0447 -0.007,0.0226 -0.0466,0.14337 0,1.01261 0,1.15598 0,2.31197 0,1.15598 0,0.0926 0.007,0.0436 0.02701,0.083 0.02001,0.0393 0.0651,0.0447 0.0613,0.0445 0.009,0.007 0.0436,0.007 0.0436,-0.007 0.0925,0.006 0.0347,-0.0225 0.02023,-0.0131 0.07049,-0.0512 0.03574,-0.0551 0.02692,-0.0829 0.0069,-0.0437 0,-0.0926 0,-1.15598 0,-2.31196 0,-1.15599 0,-1.01261 -0.01693,-0.0631 -0.02605,-0.0802 -8.46e-4,-0.003 z m 11.150774,-8.5325097 -0.25654,0.30052 -0.146516,0.17163 -0.178039,0.20857 -0.153529,0.13292 -0.186264,0.0813 -0.491634,0.13174 -1.155979,0.30975 -1.088681,0.29173 -3.535248,0.9473 -2.261729,0.60605 -0.05024,0.005 -0.07225,0.008 -0.120788,-0.0254 -0.106965,-0.0615 -0.08269,-0.0912 -0.05052,-0.11261 -0.03264,-0.11966 -0.31529,-1.15598 -1.039478,-3.81113 -0.0299,-0.2317 0.0347,-0.23114 0.09652,-0.2128 0.116109,-0.13716 0.03488,-0.0412 0.193887,-0.1301 0.222109,-0.0723 0.23368,-0.009 0.918633,0.11276 1.139278,0.13983 0.471364,0.0579 0.701323,0.11653 1.812428,0.30116 2.493715,0.52437 0.317782,0.0811 2.15138,0.5491 0.160585,0.0706 0.06096,0.0268 0.184573,0.15607 0.133209,0.20179 0.06937,0.22663 0.0014,0.005 0.0023,0.24187 -0.06604,0.23255 z m -20.0013598,-3.51169 0.0827,0.0421 0.0104,0.0104 0.055,0.055 0.0421,0.0827 0.0147,0.0914 -0.0147,0.0917 -0.0421,0.0824 -0.055,0.0553 -0.005,0.005 -0.006,0.006 -0.0827,0.0421 -0.0914,0.0144 -0.0917,-0.0144 -0.0824,-0.0421 -0.006,-0.006 -0.0601,-0.0601 -0.0421,-0.0824 -0.0144,-0.0917 0.009,-0.0548 0.006,-0.0367 0.0421,-0.0827 0.0658,-0.0655 0.0824,-0.0421 0.0917,-0.0147 z m 17.6699248,35.65594 0.05935,0.0637 0.04718,0.0455 0.0014,0.008 0.01,0.0562 0.02458,0.0609 -0.0061,0.0433 -0.0031,0.0217 -0.01578,0.0636 -0.02721,0.0347 -0.03475,0.0555 -0.01874,0.0127 -0.05438,0.0367 -0.189746,0.0884 -0.02982,0.0139 -0.16228,0.0757 -2.38e-4,4e-5 -0.06616,0.0124 -0.0084,0.002 -0.03408,0.01 -0.01103,-0.002 -0.03899,-0.008 -0.03559,-0.007 -0.06344,-0.0159 -0.04708,-0.0454 -0.05961,-0.0638 -0.02382,-0.0828 -0.01143,-0.0645 0.01592,-0.0634 0.02952,-0.0809 0.06372,-0.0595 0.05029,-0.0422 0.402731,-0.18056 0.02343,-0.0105 0.130669,-0.009 0.07214,0.0262 z M 6.4627282,6.163136 l -0.008,0.004 -0.0751,0.0382 -0.0914,0.0147 -0.0917,-0.0147 -0.0308,-0.0157 -0.0516,-0.0264 -0.0658,-0.0655 -0.0421,-0.0827 -0.0144,-0.0914 0.0144,-0.0917 0.0421,-0.0824 0.0658,-0.0658 0.0516,-0.0263 0.0308,-0.0157 0.0917,-0.0144 0.0914,0.0144 0.0827,0.042 0.0132,0.0133 0.0523,0.0525 0.042,0.0824 0.0147,0.0917 -0.01,0.0624 -0.005,0.0291 -0.042,0.0827 z m 26.2761048,-18.17756 0.01485,-0.022 0.0099,-0.0146 3.3e-5,-1.8e-4 0.01154,-0.0606 -0.009,-0.0648 -0.01044,-0.0442 -0.002,-0.008 -1.61e-4,-8.2e-4 -0.0033,-0.0142 -0.02726,-0.0347 -0.03468,-0.0554 -0.0731,-0.0494 -0.383822,-0.17893 -0.04243,-0.0121 -0.01318,-0.002 -0.07342,-0.009 -0.08543,0.0166 -0.07642,0.0422 -0.01764,0.0137 -0.01716,0.0134 -0.03079,0.0579 -0.02467,0.0367 -0.01058,0.0864 -0.0044,0.0642 -7.9e-5,9.9e-4 0.016,0.0322 0.01451,0.0291 0.02791,0.0573 5.64e-4,9.8e-4 0.04845,0.0398 0.05018,0.0422 0.18288,0.0853 0.20066,0.0936 0.128976,0.0226 0.127279,-0.0316 0.03475,-0.0273 z m -6.148919,29.77172 0.07228,0.0774 0.04348,0.0466 0.176953,0.37959 0.01309,0.0444 0.0123,0.0665 -0.0079,0.0409 -0.0087,0.0447 -0.02952,0.0811 -0.06372,0.0593 -0.07147,0.0482 -0.08656,0.0106 -0.0654,0.005 -0.0523,-0.0235 -0.04577,-0.0184 -0.0035,-0.004 -0.05177,-0.0568 -0.04849,-0.0553 -0.04064,-0.0906 -0.150422,-0.33528 0.003,-0.086 -0.0045,-0.0654 0.0075,-0.0205 0.0076,-0.021 0.03109,-0.0498 0.0036,-0.006 0.06385,-0.0596 0.03665,-0.0247 0.07175,-0.0111 0.06088,-0.0116 0.0049,0.001 0.05119,0.0143 0.06723,0.0161 z m 4.096212,-29.54517 0.01834,0.12982 -0.2032,0.46849 -0.04939,0.0731 -0.01016,0.006 -0.07256,0.0453 -0.02848,0.0178 -0.172159,0.006 -0.04512,-0.024 -0.07059,-0.0375 -0.06942,-0.1112 0.0031,-0.10713 -0.009,-0.065 0.01211,-0.0409 8.46e-4,-0.003 7.9e-5,-4e-4 0.08938,-0.19172 0.0098,-0.0211 0.07875,-0.16905 0.04209,-0.0501 0.05935,-0.0637 0.04144,-0.0151 0.0589,-0.0288 0.02244,-7.9e-4 0.04896,-0.002 0.01693,-5.6e-4 0.121638,0.0491 z m -17.584128,10.2268797 0.66548,0 0.17441,-0.0277 0.15748,-0.0801 0.12475,-0.12502 0.0118,-0.0232 0.0683,-0.13405 0.0277,-0.17442 0,-2.00349 0,-0.61129 -0.0277,-0.1747 -0.0801,-0.1572 -0.12475,-0.12502 -0.15748,-0.0802 -0.17441,-0.0274 -2.97744,0 -2.9774398,0 -0.17442,0.0274 -0.15748,0.0802 -0.12474,0.12502 -0.0802,0.1572 -0.0277,0.1747 0,0.61129 0,2.00349 0.0277,0.17442 0.0683,0.13405 0.0118,0.0232 0.12474,0.12502 0.15748,0.0801 0.17442,0.0277 0.66548,0 2.3119598,0 z m -7.1097398,-3.72392 0,-1.01262 -0.0169,-0.0633 -0.026,-0.0801 -9.03e-4,-0.003 -0.0388,-0.0485 -0.0577,-0.0447 -0.0418,-0.0226 -0.0437,-0.007 -0.0782,-0.01 -0.0144,0.002 -0.0292,0.005 -0.0418,0.0226 -0.0146,0.006 -0.0462,0.0177 -2.3e-4,8e-5 -0.0312,0.0312 -0.0288,0.0287 -0.007,0.0226 -0.0466,0.14337 0,1.01262 0,1.15598 0,2.31196 0,1.15598 0,0.06 0,0.0326 0.007,0.0436 0.0357,0.0551 0.0269,0.0829 0.0312,0.0311 0.0596,0.0304 0.0171,0.009 0.0393,0.02 0.0654,0.004 0.0655,-0.004 0.0541,-0.02 0.0706,-0.0513 0.0381,-0.0347 0.0201,-0.0394 0.0269,-0.0829 0.007,-0.0436 0,-0.0926 0,-1.15598 0,-2.31196 z m -15.86588,-9.2478597 -0.0862,-0.0923 -0.0579,-0.0144 -0.0691,-0.0172 -0.128969,0.0226 -0.0734,0.0494 -0.0324,0.0519 -0.002,0.004 -0.0421,0.0763 0.003,0.10735 0.0106,0.0864 0.171603,0.36809 0.007,0.0157 0.0595,0.0639 0.0202,0.024 0.0219,0.026 0.0543,0.0135 0.009,0.002 0.0532,0.026 0.006,0.003 0.0645,-0.0114 0.0717,-0.009 0.0149,-0.002 0.0501,-0.0421 0.0365,-0.0247 0.0423,-0.0761 0.0288,-0.0589 -0.0215,-0.17328 -0.17865,-0.38354 z m 25.3392308,20.21642 0.0658,0.0658 0.0421,0.0824 0.01439,0.0917 -0.01439,0.0914 -0.0421,0.0827 -0.0658,0.0655 -0.0517,0.0264 -0.0308,0.0157 -0.0917,0.0147 -0.0914,-0.0147 -0.0827,-0.0421 -0.0655,-0.0655 -0.0421,-0.0827 -0.005,-0.0291 -0.01,-0.0624 0.0147,-0.0917 0.0421,-0.0824 0.0523,-0.0525 0.01321,-0.0133 0.0827,-0.042 0.0914,-0.0144 0.0917,0.0144 0.0308,0.0157 z m 9.4691,9.55794 -0.01507,0.0414 0.01058,0.0866 0.01129,0.0645 0.04134,0.0886 0.137586,0.29492 0.04223,0.0503 0.05949,0.0637 0.01767,0.006 0.06328,0.0231 0.06344,0.0159 0.119634,-0.0212 0.0093,-0.002 0.06385,-0.0596 0.03985,-0.0334 0.01033,-0.009 0.01597,-0.0636 0.02946,-0.0809 -0.02286,-0.12897 -0.02633,-0.0565 -0.133968,-0.28717 -0.01863,-0.0399 -0.04209,-0.0503 -0.02467,-0.0367 -0.0554,-0.0347 -0.01953,-0.01 -0.03936,-0.0192 -0.03229,0.002 -0.03325,0.002 -0.06485,-0.009 -0.06076,0.0244 -0.04494,0.0239 -0.01284,0.007 -0.02726,0.0348 -0.03356,0.0348 -0.01183,0.0123 z m -9.701372,-13.94113 -0.13942,0.022 -0.13941,-0.022 -0.125869,-0.0641 -0.0999,-0.0999 -0.0325,-0.0635 -0.0319,-0.0624 -0.022,-0.1397 0.022,-0.13942 0.0644,-0.12588 0.0999,-0.0999 0.0211,-0.0107 0.1048,-0.0533 0.139409,-0.0223 0.139421,0.0223 0.1048,0.0533 0.02111,0.0107 0.0547,0.0548 0.0452,0.0452 0.0643,0.12587 0.02201,0.13942 -0.02201,0.1397 -0.0643,0.12587 -0.0452,0.0452 -0.0547,0.0547 z m -20.7879588,14.66798 -0.19172,-0.0894 0,0 -0.0667,-0.0124 -0.0423,-0.0121 -0.0849,0.0164 -0.0459,0.0115 -0.0177,0.004 -0.0472,0.0455 -0.0355,0.0274 -0.0247,0.0367 -0.0237,0.0829 -0.003,0.0215 -0.008,0.0649 0.0311,0.0832 0.0303,0.061 0.0971,0.0799 0.38382,0.17865 0.12897,0.0229 0.0804,-0.02 0.0466,-0.0116 0.0348,-0.0272 0.0595,-0.0638 0.0245,-0.0365 0.011,-0.0794 0.009,-0.0763 9.87e-4,-0.0102 -0.0291,-0.0662 -0.0151,-0.0414 -0.0637,-0.0593 -0.0501,-0.0421 -0.0291,-0.0136 z m 20.0888998,-34.48505 0.0824,0.0421 0.0657,0.0655 0.0421,0.0827 0.006,0.0367 0.009,0.0548 -0.0144,0.0917 -0.0421,0.0824 -0.0601,0.0601 -0.006,0.006 -0.0824,0.042 -0.0917,0.0144 -0.0914,-0.0144 -0.0827,-0.042 -0.006,-0.006 -0.005,-0.005 -0.055,-0.0553 -0.0421,-0.0824 -0.0147,-0.0917 0.0147,-0.0915 0.0421,-0.0827 0.055,-0.055 0.0104,-0.0104 0.0827,-0.0421 0.0914,-0.0147 z m -23.4128598,6.54388 0.008,0.002 0.008,0.002 0.15438,0.03 0.11868,0.12742 1.3e-4,1.6e-4 0.0787,0.16905 0.01,0.0211 0.0894,0.19172 0.0114,0.0644 0.0131,0.0443 -0.002,0.0167 -0.007,0.0483 -0.0159,0.0634 -0.0271,0.0348 -0.0347,0.0556 -0.0145,0.008 -0.0433,0.023 -0.0101,0.007 -0.0266,0.0179 -0.0145,0.003 -0.05,0.009 -0.0653,0.005 -0.0414,-0.0151 -0.0659,-0.0186 -0.002,-5.7e-4 -0.0348,-0.0272 -0.0203,-0.0223 -0.0349,-0.0382 -0.0247,-0.0365 -0.0954,-0.21286 -0.1017,-0.23448 0.0106,-0.10671 0.009,-0.065 0.0454,-0.0471 0.0348,-0.0555 0.0307,-0.0124 0.03,-0.0121 z m 26.2675318,5.5352197 0.08269,0.0421 0.06548,0.0655 0.04205,0.0827 0.01468,0.0914 -5.65e-4,0.004 -0.01405,0.0878 -0.04205,0.0827 -0.06548,0.0655 -0.08269,0.042 -0.06992,0.011 -0.0215,0.003 -0.02159,-0.003 -0.07014,-0.011 -0.05786,-0.0294 -0.02484,-0.0126 -0.06548,-0.0655 -0.04205,-0.0827 -0.01439,-0.0917 0.01439,-0.0914 0.04205,-0.0827 0.06548,-0.0655 0.02484,-0.0126 0.05786,-0.0294 0.02117,-0.003 0.07056,-0.0113 0.07034,0.0113 z m -13.5850418,-5.3859197 -2.26173,-0.60605 -3.53524,-0.9473 -1.08868,-0.29173 -1.15598,-0.30975 -0.49164,-0.13174 -0.18626,-0.0813 -0.15353,-0.13292 -0.17804,-0.20857 -0.146521,-0.17163 -0.256539,-0.30052 -0.12925,-0.20461 -0.066,-0.23256 0.002,-0.24186 9.87e-4,-0.005 0.0694,-0.22662 0.13321,-0.20179 0.18457,-0.15607 0.061,-0.0268 0.16059,-0.0706 2.15138,-0.54909 0.31778,-0.0811 2.49371005,-0.52437 1.81242995,-0.30115 0.70133,-0.11654 0.47136,-0.0578 1.13928,-0.13984 0.91863,-0.11275 0.23368,0.009 0.22211,0.0722 0.19389,0.13011 0.0349,0.0412 0.1161,0.13716 0.0965,0.2128 0.0347,0.23113 -0.0299,0.23171 -1.03947,3.81113 -0.31529,1.15598 -0.0326,0.11966 -0.0505,0.11261 -0.0827,0.0911 -0.10696,0.0615 -0.12079,0.0254 -0.0722,-0.008 z m 0.57037,5.3859197 0.0579,0.0294 0.0248,0.0126 0.0655,0.0655 0.0421,0.0827 0.0144,0.0914 -0.0144,0.0917 -0.0421,0.0827 -0.0655,0.0655 -0.0248,0.0126 -0.0579,0.0294 -0.0701,0.011 -0.0216,0.003 -0.0215,-0.003 -0.0699,-0.011 -0.0827,-0.042 -0.0655,-0.0655 -0.0421,-0.0827 -0.014,-0.0878 -6.49e-4,-0.004 0.0147,-0.0914 0.042,-0.0827 0.0655,-0.0655 0.0827,-0.0421 0.0211,-0.003 0.0703,-0.0113 0.0706,0.0113 z m 2.11187,-1.7509 0.0847,0.0135 0.0547,0.009 0.11853,0.0603 0.007,0.004 0.0999,0.0999 0.0644,0.12587 0.022,0.13942 -0.022,0.1397 -1.6e-4,3.1e-4 -0.0642,0.12559 -0.0999,0.0999 -0.12587,0.0641 -0.13942,0.022 -0.13941,-0.022 -0.12588,-0.0641 -0.0547,-0.0547 -0.0452,-0.0452 -0.0642,-0.12559 -1.6e-4,-3.1e-4 -0.022,-0.1397 0.022,-0.13942 0.0643,-0.12587 0.0452,-0.0452 0.0547,-0.0547 0.12587,-0.0641 0.0547,-0.009 z m -10.06978,23.2299803 0.0644,0.0114 0.0365,0.0247 0.0715,0.0482 8e-5,2.4e-4 0.0422,0.0759 0.0294,0.0811 -0.0106,0.0865 -0.0113,0.0646 -0.0413,0.0886 -0.13758,0.29492 -0.0595,0.0637 -0.0414,0.0151 -0.0184,0.0144 -0.0827,0.0646 -0.0867,-0.0106 -0.0863,-0.0106 -0.127559,-0.1191 -0.0319,-0.127 0.0229,-0.12897 0.0263,-0.0564 0.15259,-0.32709 0.042,-0.0502 0.0595,-0.0638 0.0809,-0.0295 0.0415,-0.0152 3.11e-4,2e-5 z m -4.06341,-28.41835 0.0442,-0.0412 0.0184,-0.0458 0.0166,-0.0856 -0.0244,-0.0608 -0.0329,-0.11469 -0.002,-0.009 -0.0348,-0.0273 -0.0434,-0.0419 -0.004,-0.004 -0.12729,-0.0316 -0.12898,0.0226 -0.38354,0.17893 -0.0503,0.0422 -0.0637,0.0595 -0.0302,0.10311 -0.0106,0.0545 -0.003,0.0161 -0.003,0.0149 0.0246,0.0607 0.0121,0.0423 0.042,0.0502 0.0366,0.0353 0.0106,0.0102 0.0415,0.0151 0.0589,0.0286 0.173,-0.0212 0.38354,-0.17893 0.0215,-0.0195 0.0392,-0.0357 z m 14.49839,13.98241 0.0643,0.12587 0.008,0.0525 0.0137,0.0869 -0.022,0.1397 -0.0319,0.0624 -0.0325,0.0635 -0.0999,0.0999 -0.007,0.004 -0.11853,0.0603 -0.13942,0.022 -0.13941,-0.022 -0.12588,-0.0641 -0.0547,-0.0548 -0.0451,-0.0452 -0.0644,-0.12587 -0.022,-0.1397 0.022,-0.13942 0.0644,-0.12587 0.0451,-0.0452 0.0547,-0.0548 0.0211,-0.0107 0.1048,-0.0533 0.13941,-0.0223 0.13942,0.0223 0.1048,0.0533 0.0137,0.007 0.007,0.004 z m -9.76884,17.21526 -0.16425,-0.0766 -0.21957,-0.10236 -0.0501,-0.042 -0.0638,-0.0595 -0.0295,-0.0809 -0.0158,-0.0637 0.0474,-0.16566 0.0943,-0.0909 0.0856,-0.0166 0.0415,-0.0151 0.0222,0.003 0.0645,0.008 0.0232,0.007 0.0192,0.005 0.27102,0.12643 0.11252,0.0525 0.0503,0.0422 0.0637,0.0595 0.0151,0.0414 0.0295,0.0809 -2e-5,1.6e-4 -9.88e-4,0.0123 -0.009,0.074 -0.0114,0.0645 -0.0494,0.0734 -0.111201,0.0694 -0.10713,-0.003 -0.0648,0.009 z m -7.9857802,-29.66944 -0.0856,-0.0166 -0.0637,-0.0158 -0.0471,-0.0454 -0.0595,-0.0639 -0.0145,-0.0507 -0.009,-0.032 -0.0117,-0.0569 0.009,-0.0506 0.01,-0.0403 0.002,-0.009 0.004,-0.0142 0.0637,-0.0593 0.0347,-0.0555 0.0366,-0.0247 0.0285,-0.0128 0.39761,-0.17827 0.0133,-9.1e-4 0.117401,-0.008 0.0763,0.0421 0.0918,0.0712 0.0368,0.079 -0.002,0.0441 0.0199,0.0944 -0.0117,0.0322 -0.003,0.009 -0.0305,0.0613 -0.0637,0.0595 -0.0484,0.0398 -0.18288,0.0853 -0.15369,0.0717 -0.043,0.02 -0.0665,0.0123 z m 5.6007202,30.10943 -0.0116,0.0887 -0.006,0.0336 -0.005,0.0295 -5.64e-4,0.003 0.0288,0.0589 0.0137,0.0551 0.002,0.008 0.0715,0.0482 0.085,0.0654 0.13067,0.009 0.083,-0.0302 0.11882,-0.12757 0.0406,-0.0906 0.15042,-0.33528 0.009,-0.13067 -0.0151,-0.0414 -0.0482,-0.0706 -0.0124,-0.0181 -0.0271,-0.0348 -0.0578,-0.0307 -0.047,-0.019 -0.0137,-0.006 -0.0442,0.002 -0.0653,-0.005 -0.11769,0.0573 -0.0453,0.0539 -0.0391,0.0466 -0.169,0.36253 z"
       id="path8"
       inkscape:connector-curvature="0"
       style="display:inline;fill:none;stroke:#0000ff;stroke-width:0.00282222mm" />
    <path
       id="path5058"
       d="m 27.135571,-9.7149907 0.327623,-0.089386 0.319758,-0.0356 0.316089,0.0607 1.186462,0.4205 0.629917,0.22325 0.329636,0.066 0.334715,-0.0288 0.31327,-0.12164 0.704423,-0.39664 2.221654,-1.2509703 0.09031,-0.0679 0.174252,-0.13104 0.04391,-0.033 0.237631,-0.3048 0.149578,-0.35589 0.05165,-0.38297 -0.01033,-0.0793 -0.03961,-0.30367 -0.228357,-0.85231 -0.378702,-1.41345 -0.02879,-0.10744 -0.148167,-0.35673 -0.23622,-0.30565 -0.169415,-0.12869 -0.138207,-0.10499 -0.357858,-0.14506 -0.38354,-0.0466 -0.849771,0.009 -2.311961,0.0251 -0.196021,0.0037 -0.331894,0.0511 -0.304517,0.14252 -0.07567,0.0666 -0.176352,0.15522 -0.538627,0.63095 -0.229376,0.26869 -0.355224,0.41611 -0.104157,0.12201 -0.02399,0.0281 -0.243276,0.21053 -0.519381,0.186743 c -0.251614,0.13097 -0.391141,-0.295708 -0.160045,-0.363845 l 0.468489,-0.158318 0.153529,-0.13293 0.324555,-0.3802 0.25654,-0.30052 c 0,0 0.432712,-0.590021 0.854772,-1.080155 0.272297,-0.272297 0.687786,-0.332907 0.687786,-0.332905 l 2.71914,-0.01309 0.106112,0.008 0.04336,0.003 0.574712,0.0432 0.227471,-0.003 0.486551,0.0593 0.454378,0.18401 0.390598,0.29633 0.117489,0.15212 0.01741,0.0225 0.164818,0.21339 0.18796,0.45269 0.435271,1.62334 0.20114,0.75015 0.05279,0.40583 0.01044,0.0802 -0.06576,0.48599 -0.189935,0.45184 -0.107583,0.138 -0.193831,0.24864 -0.392003,0.29464 -0.103297,0.0581 -2.311961,1.3016003 -0.510822,0.28758 -0.312149,0.12136 -0.105258,0.0409 -0.446475,0.0387 -0.395645,-0.0796 -0.04349,-0.009 -0.03482,-0.0123 -0.463296,-0.16418 -1.318545,-0.46723 -0.199531,-0.0381 -0.201786,0.0223 -0.354289,0.090317 c -0.170813,0.035847 -0.319188,-0.3404265 -0.07625,-0.382951 z m -5.547941,26.1720457 0.01185,-0.20857 -0.06237,-0.68043 -0.01154,-0.0469 -0.03701,-0.15043 -0.104987,-0.17413 -0.353655,-0.422418 c -0.09916,-0.149132 0.174503,-0.395429 0.310886,-0.253011 l 0.346274,0.423427 0.166229,0.27544 0.0744,0.30171 0.0028,0.0107 0.104927,1.14526 0.0709,0.77385 0.07761,0.32709 0.0314,0.055 0.134262,0.2353 8.46e-4,10e-4 0.241583,0.23368 0.947809,0.68552 1.121726,0.81131 0.651369,0.47111 0.339795,0.18316 0.164818,0.0386 0.211385,0.0495 0.38608,-0.013 0.369143,-0.11317 0.189374,-0.11911 0.137725,-0.0866 1.469336,-1.22174 0.419856,-0.34911 0.261903,-0.28392 0.02314,-0.0443 0.155784,-0.29806 0.03985,-0.18062 0.0434,-0.19671 -0.01806,-0.3858 -0.118251,-0.36773 -0.09752,-0.20574 -0.0052,-0.011 -1.090667,-2.30098 -0.244805,-0.51646 -0.18542,-0.28025 -0.256825,-0.21703 -0.307055,-0.13603 -0.227189,-0.0641 -1.627576,-0.4589 -0.293228,-0.13292 -0.240454,-0.21365 -0.208469,-0.277532 c -0.111197,-0.147048 0.136245,-0.368539 0.299036,-0.240341 l 0.213616,0.265713 0.152118,0.1349 0.185137,0.0838 1.520331,0.42889 0.334434,0.0944 0.409501,0.18147 0.342339,0.28899 0.247223,0.37366 0.01569,0.0331 0.259119,0.54662 0.0503,0.10609 0.653361,1.37826 0.442626,0.93371 0.01738,0.0367 0.14986,0.46653 0.02286,0.48993 -0.03601,0.16285 -0.06983,0.31579 -0.226906,0.43463 -0.3,0.32496 -0.03246,0.0351 -0.05465,0.0454 -1.834549,1.52541 -0.390311,0.2457 -0.02484,0.0156 -0.468489,0.14394 -0.489938,0.0166 -0.02373,-0.006 -0.148979,-0.035 -0.3048,-0.0715 -0.431518,-0.23284 -0.419664,-0.30356 -1.416474,-1.02458 -0.455791,-0.27432 C 22.332918,18.65733 21.872335,18.304927 21.783009,17.942087 21.646861,17.574486 21.58763,16.457055 21.58763,16.457055 Z"
       inkscape:connector-curvature="0"
       style="display:inline;fill:#3366cc;stroke:#00cc00;stroke-width:0.08466666;stroke-miterlimit:4;stroke-dasharray:none"
       sodipodi:nodetypes="ccccccccccccccccccccccccccccccccccccccccccccccccccccccccccccccccccccccccccccccccccccccccccccccccccccccccccccccccccccccccccccccccccccccccccccccccccccccccccccccccccccccccccccc" />
    <use
       x="0"
       y="0"
       xlink:href="#path5058"
       id="use11587"
       transform="matrix(-1,0,0,1,21.617608,0)"
       width="100%"
       height="100%" />
  </g>
</svg>
