<?xml version="1.0" encoding="UTF-8" standalone="no"?>
<svg
   xmlns:dc="http://purl.org/dc/elements/1.1/"
   xmlns:cc="http://creativecommons.org/ns#"
   xmlns:rdf="http://www.w3.org/1999/02/22-rdf-syntax-ns#"
   xmlns:svg="http://www.w3.org/2000/svg"
   xmlns="http://www.w3.org/2000/svg"
   xmlns:xlink="http://www.w3.org/1999/xlink"
   xmlns:sodipodi="http://sodipodi.sourceforge.net/DTD/sodipodi-0.dtd"
   xmlns:inkscape="http://www.inkscape.org/namespaces/inkscape"
   width="195.33376mm"
   height="168.90645mm"
   viewBox="-86.649002 -73.434998 195.33375 168.90643"
   version="1.1"
   id="svg2"
   inkscape:version="0.91 r13725"
   sodipodi:docname="diatone-et-160-bumpers-walls.svg"
   enable-background="new">
  <metadata
     id="metadata14">
    <rdf:RDF>
      <cc:Work
         rdf:about="">
        <dc:format>image/svg+xml</dc:format>
        <dc:type
           rdf:resource="http://purl.org/dc/dcmitype/StillImage" />
        <dc:title>Daring Densor-Wolt</dc:title>
      </cc:Work>
    </rdf:RDF>
  </metadata>
  <defs
     id="defs12">
    <inkscape:perspective
       sodipodi:type="inkscape:persp3d"
       inkscape:vp_x="0 : 84.453215 : 1"
       inkscape:vp_y="0 : 1000 : 0"
       inkscape:vp_z="195.33375 : 84.453215 : 1"
       inkscape:persp3d-origin="97.666875 : 56.302143 : 1"
       id="perspective4193" />
  </defs>
  <sodipodi:namedview
     pagecolor="#ffffff"
     bordercolor="#666666"
     borderopacity="1"
     objecttolerance="10"
     gridtolerance="10"
     guidetolerance="10"
     inkscape:pageopacity="0"
     inkscape:pageshadow="2"
     inkscape:window-width="1366"
     inkscape:window-height="704"
     id="namedview10"
     showgrid="false"
     units="mm"
     fit-margin-top="12"
     fit-margin-left="12"
     fit-margin-right="12"
     fit-margin-bottom="12"
     inkscape:snap-bbox="true"
     inkscape:bbox-paths="true"
     inkscape:bbox-nodes="true"
     inkscape:snap-bbox-midpoints="true"
     inkscape:snap-bbox-edge-midpoints="true"
     inkscape:object-paths="true"
     inkscape:snap-intersection-paths="true"
     inkscape:object-nodes="true"
     inkscape:snap-smooth-nodes="true"
     inkscape:snap-midpoints="true"
     inkscape:snap-object-midpoints="true"
     inkscape:snap-center="true"
     inkscape:snap-global="false"
     inkscape:zoom="2.9347909"
     inkscape:cx="343.41526"
     inkscape:cy="322.25258"
     inkscape:window-x="0"
     inkscape:window-y="27"
     inkscape:window-maximized="1"
     inkscape:current-layer="layer3" />
  <title
     id="title4">Daring Densor-Wolt</title>
  <desc
     id="desc6"> made with tinkercad </desc>
  <g
     inkscape:groupmode="layer"
     id="layer1"
     inkscape:label="stl"
     transform="translate(28.46794,31.169428)"
     style="display:none"
     sodipodi:insensitive="true">
    <path
       inkscape:connector-curvature="0"
       id="path4195"
       d="m -33.631271,-10.852782 c -0.1859,-0.097 -0.81404,-0.5772 -1.39587,-1.06716 -1.54645,-1.30225 -1.5569,-1.36944 -0.55316,-3.55673 0.43372,-0.94514 0.93112,-1.86344 1.10533,-2.04067 0.21712,-0.22089 0.65031,-0.41036 1.37736,-0.60243 0.58334,-0.1541 1.17542,-0.37236 1.31574,-0.48502 0.40045,-0.32152 6.18938,-7.36165 6.41831,-7.80554 0.1816,-0.35212 0.20499,-1.03553 0.20499,-5.9904 l 0,-5.59294 -0.34154,-0.38195 c -0.34955,-0.39092 -1.04833,-0.60293 -7.96864,-2.41757 l -1.16904,-0.30654 -1.12855,0.38842 c -0.6207,0.21362 -1.27641,0.38458 -1.45712,0.3799 -0.50776,-0.0131 -3.6951,-1.87668 -3.9054,-2.28335 -0.25548,-0.49405 -0.20853,-0.99673 0.23538,-2.52022 0.55162,-1.89314 0.60827,-1.92876 3.06697,-1.92876 1.0043,0 1.99115,0.0576 2.193,0.12793 0.21057,0.0734 0.69637,0.51959 1.1398,1.04684 0.90916,1.08102 0.42253,0.8878 5.95508,2.36438 2.34063,0.62469 4.11247,1.03739 4.25694,0.99154 0.13612,-0.0432 0.32539,-0.20006 0.42061,-0.34857 0.0952,-0.14851 0.54387,-1.63925 0.99699,-3.31276 1.11101,-4.10322 1.00162,-3.81582 1.56116,-4.10128 0.44224,-0.22561 0.73872,-0.24551 3.65808,-0.24551 2.91936,0 3.21585,0.0199 3.65809,0.24551 0.55954,0.28546 0.45014,-0.002 1.561155,4.10128 0.453125,1.67351 0.901782,3.16425 0.996995,3.31276 0.09522,0.14851 0.284491,0.30536 0.420604,0.34857 0.144468,0.0459 1.9163155,-0.36685 4.2569465,-0.99154 5.532547,-1.47658 5.045913,-1.28336 5.95507095,-2.36438 0.443431,-0.52725 0.929237,-0.97343 1.139806,-1.04684 0.201847,-0.0704 1.18869405,-0.12793 2.19300105,-0.12793 2.458703,0 2.51535,0.0356 3.066961,1.92876 0.444308,1.52484 0.490903,2.0261 0.234416,2.52208 -0.212719,0.41136 -3.385519,2.26801 -3.898508,2.28133 -0.183966,0.005 -0.84234,-0.16612 -1.46303905,-0.37974 l -1.128552,-0.38842 -1.16903695,0.30597 c -6.668776,1.74543 -7.621637,2.03487 -7.968645,2.42053 l -0.3415375,0.37956 0,5.59294 c 0,4.95407 0.02341,5.63833 0.2049225,5.9904 0.227144,0.44057 6.017269,7.48051 6.419816,7.80554 0.139522,0.11266 0.730958,0.33092 1.314302,0.48502 0.727047,0.19207 1.160236,0.38154 1.37735995,0.60243 0.174209,0.17723 0.671611,1.09553 1.105326,2.04067 1.01930405,2.2212 1.01381605,2.24996 -0.700659,3.67582 -1.25299595,1.04206 -1.78254495,1.27447 -2.33273795,1.02378 -0.504428,-0.22983 -3.270896,-2.27852 -3.362947,-2.4904 -0.04823,-0.111 -0.156567,-0.77679 -0.240756,-1.47954 -0.08936,-0.74583 -0.229422,-1.36623 -0.33647,-1.49033 -0.10086,-0.11693 -1.426409,-1.72156 -2.945664,-3.56584 -1.5192555,-1.84427 -2.8996495,-3.47898 -3.0675395,-3.63267 -0.44505,-0.4074 -0.82451,-0.34712 -1.7337,0.27542 -0.44569,0.30517 -0.99078,0.5887 -1.21132,0.63008 -0.22054,0.0414 -1.27012,0.0572 -2.3324,0.0351 l -1.93141,-0.0402 -0.88658,-0.58992 c -0.98862,-0.65781 -1.35412,-0.72082 -1.80104,-0.31049 -0.16739,0.15369 -1.54761,1.7884 -3.06714,3.63267 -1.51954,1.84428 -2.84549,3.44891 -2.94658,3.56584 -0.10759,0.12446 -0.24724,0.7423 -0.33686,1.49033 -0.0842,0.70275 -0.19237,1.36813 -0.2404,1.47864 -0.0772,0.1776 -1.61108,1.34551 -2.97821,2.26763 -0.54159,0.3653 -0.97013,0.40845 -1.46946,0.14796 z"
       style="color:#000000;clip-rule:nonzero;display:inline;overflow:visible;visibility:visible;opacity:1;isolation:auto;mix-blend-mode:normal;color-interpolation:sRGB;color-interpolation-filters:linearRGB;solid-color:#000000;solid-opacity:1;fill:#bfbfbf;fill-opacity:1;fill-rule:evenodd;stroke:none;stroke-width:1;stroke-linecap:butt;stroke-linejoin:round;stroke-miterlimit:4;stroke-dasharray:none;stroke-dashoffset:8.05119991;stroke-opacity:1;marker:none;color-rendering:auto;image-rendering:auto;shape-rendering:auto;text-rendering:auto;enable-background:accumulate" />
  </g>
  <g
     inkscape:groupmode="layer"
     id="layer2"
     inkscape:label="design"
     transform="translate(28.46794,31.169428)"
     style="display:none;opacity:1"
     sodipodi:insensitive="true">
    <g
       id="g4226"
       transform="matrix(0.28222208,0,0,0.28222208,-12.716741,-24.964192)">
      <ellipse
         ry="50.535061"
         rx="50.535057"
         cy="-67.413826"
         cx="-88.919182"
         id="path4214"
         style="color:#000000;clip-rule:nonzero;display:inline;overflow:visible;visibility:visible;opacity:1;isolation:auto;mix-blend-mode:normal;color-interpolation:sRGB;color-interpolation-filters:linearRGB;solid-color:#000000;solid-opacity:1;fill:none;fill-opacity:1;fill-rule:evenodd;stroke:#6699ff;stroke-width:0.52987552;stroke-linecap:butt;stroke-linejoin:round;stroke-miterlimit:4;stroke-dasharray:none;stroke-dashoffset:8.05119991;stroke-opacity:1;marker:none;color-rendering:auto;image-rendering:auto;shape-rendering:auto;text-rendering:auto;enable-background:accumulate" />
      <ellipse
         ry="3.3554351"
         rx="3.3554349"
         cy="-67.413826"
         cx="-88.919182"
         id="path4216"
         style="color:#000000;clip-rule:nonzero;display:inline;overflow:visible;visibility:visible;opacity:1;isolation:auto;mix-blend-mode:normal;color-interpolation:sRGB;color-interpolation-filters:linearRGB;solid-color:#000000;solid-opacity:1;fill:none;fill-opacity:1;fill-rule:evenodd;stroke:#6699ff;stroke-width:0.28222221;stroke-linecap:butt;stroke-linejoin:round;stroke-miterlimit:4;stroke-dasharray:none;stroke-dashoffset:8.05119991;stroke-opacity:1;marker:none;color-rendering:auto;image-rendering:auto;shape-rendering:auto;text-rendering:auto;enable-background:accumulate" />
    </g>
    <g
       id="g4222"
       transform="matrix(0.28222208,0,0,0.28222208,-12.716741,-24.964192)">
      <ellipse
         style="color:#000000;clip-rule:nonzero;display:inline;overflow:visible;visibility:visible;opacity:1;isolation:auto;mix-blend-mode:normal;color-interpolation:sRGB;color-interpolation-filters:linearRGB;solid-color:#000000;solid-opacity:1;fill:none;fill-opacity:1;fill-rule:evenodd;stroke:#6699ff;stroke-width:0.52987552;stroke-linecap:butt;stroke-linejoin:round;stroke-miterlimit:4;stroke-dasharray:none;stroke-dashoffset:8.05119991;stroke-opacity:1;marker:none;color-rendering:auto;image-rendering:auto;shape-rendering:auto;text-rendering:auto;enable-background:accumulate"
         id="ellipse4218"
         cx="53.995277"
         cy="-67.413826"
         rx="50.535057"
         ry="50.535061" />
      <ellipse
         style="color:#000000;clip-rule:nonzero;display:inline;overflow:visible;visibility:visible;opacity:1;isolation:auto;mix-blend-mode:normal;color-interpolation:sRGB;color-interpolation-filters:linearRGB;solid-color:#000000;solid-opacity:1;fill:none;fill-opacity:1;fill-rule:evenodd;stroke:#6699ff;stroke-width:0.28222221;stroke-linecap:butt;stroke-linejoin:round;stroke-miterlimit:4;stroke-dasharray:none;stroke-dashoffset:8.05119991;stroke-opacity:1;marker:none;color-rendering:auto;image-rendering:auto;shape-rendering:auto;text-rendering:auto;enable-background:accumulate"
         id="ellipse4220"
         cx="53.995277"
         cy="-67.413826"
         rx="3.3554349"
         ry="3.3554351" />
    </g>
    <g
       id="g4230"
       transform="matrix(0.28222208,0,0,0.28222208,-7.6677835,4.7294879)">
      <ellipse
         style="color:#000000;clip-rule:nonzero;display:inline;overflow:visible;visibility:visible;opacity:1;isolation:auto;mix-blend-mode:normal;color-interpolation:sRGB;color-interpolation-filters:linearRGB;solid-color:#000000;solid-opacity:1;fill:none;fill-opacity:1;fill-rule:evenodd;stroke:#6699ff;stroke-width:0.52987552;stroke-linecap:butt;stroke-linejoin:round;stroke-miterlimit:4;stroke-dasharray:none;stroke-dashoffset:8.05119991;stroke-opacity:1;marker:none;color-rendering:auto;image-rendering:auto;shape-rendering:auto;text-rendering:auto;enable-background:accumulate"
         id="ellipse4232"
         cx="-88.919182"
         cy="-67.413826"
         rx="50.535057"
         ry="50.535061" />
      <ellipse
         style="color:#000000;clip-rule:nonzero;display:inline;overflow:visible;visibility:visible;opacity:1;isolation:auto;mix-blend-mode:normal;color-interpolation:sRGB;color-interpolation-filters:linearRGB;solid-color:#000000;solid-opacity:1;fill:none;fill-opacity:1;fill-rule:evenodd;stroke:#6699ff;stroke-width:0.28222221;stroke-linecap:butt;stroke-linejoin:round;stroke-miterlimit:4;stroke-dasharray:none;stroke-dashoffset:8.05119991;stroke-opacity:1;marker:none;color-rendering:auto;image-rendering:auto;shape-rendering:auto;text-rendering:auto;enable-background:accumulate"
         id="ellipse4234"
         cx="-88.919182"
         cy="-67.413826"
         rx="3.3554349"
         ry="3.3554351" />
    </g>
    <g
       id="g4236"
       transform="matrix(0.28222208,0,0,0.28222208,-17.756601,4.7294879)">
      <ellipse
         ry="50.535061"
         rx="50.535057"
         cy="-67.413826"
         cx="53.995277"
         id="ellipse4238"
         style="color:#000000;clip-rule:nonzero;display:inline;overflow:visible;visibility:visible;opacity:1;isolation:auto;mix-blend-mode:normal;color-interpolation:sRGB;color-interpolation-filters:linearRGB;solid-color:#000000;solid-opacity:1;fill:none;fill-opacity:1;fill-rule:evenodd;stroke:#6699ff;stroke-width:0.52987552;stroke-linecap:butt;stroke-linejoin:round;stroke-miterlimit:4;stroke-dasharray:none;stroke-dashoffset:8.05119991;stroke-opacity:1;marker:none;color-rendering:auto;image-rendering:auto;shape-rendering:auto;text-rendering:auto;enable-background:accumulate" />
      <ellipse
         ry="3.3554351"
         rx="3.3554349"
         cy="-67.413826"
         cx="53.995277"
         id="ellipse4240"
         style="color:#000000;clip-rule:nonzero;display:inline;overflow:visible;visibility:visible;opacity:1;isolation:auto;mix-blend-mode:normal;color-interpolation:sRGB;color-interpolation-filters:linearRGB;solid-color:#000000;solid-opacity:1;fill:none;fill-opacity:1;fill-rule:evenodd;stroke:#6699ff;stroke-width:0.28222221;stroke-linecap:butt;stroke-linejoin:round;stroke-miterlimit:4;stroke-dasharray:none;stroke-dashoffset:8.05119991;stroke-opacity:1;marker:none;color-rendering:auto;image-rendering:auto;shape-rendering:auto;text-rendering:auto;enable-background:accumulate" />
    </g>
    <g
       id="g4185"
       style="fill:#003399;stroke:none;stroke-width:0.99999994;stroke-miterlimit:4;stroke-dasharray:none"
       transform="matrix(0.28222208,0,0,0.28222208,-12.716741,23.621898)">
      <path
         sodipodi:nodetypes="cscccccc"
         inkscape:connector-curvature="0"
         id="path4242"
         d="m -17.395525,-90.079104 -6.943174,0.08728 c -8.117717,0.102045 -7.680198,-0.128106 -8.907245,4.451289 l -4.402656,15.673763 c 0.78801,10.553551 -2.572325,21.028825 -6.53737,27.602738 3.634963,2.054765 0.08503,7.473103 0.08503,36.2259656 4.959724,3.2752572 9.901422,7.4043406 12.093772,10.597866 2.688318,-2.1715712 2.652434,3.9817099 14.597265,3.9817099"
         style="fill:#003399;fill-opacity:0.50867052;fill-rule:evenodd;stroke:none;stroke-width:0.99999994;stroke-linecap:butt;stroke-linejoin:miter;stroke-miterlimit:4;stroke-dasharray:none;stroke-opacity:1" />
      <ellipse
         ry="2.0083032"
         rx="2.0083029"
         style="color:#000000;clip-rule:nonzero;display:inline;overflow:visible;visibility:visible;opacity:1;isolation:auto;mix-blend-mode:normal;color-interpolation:sRGB;color-interpolation-filters:linearRGB;solid-color:#000000;solid-opacity:1;fill:#003399;fill-opacity:1;fill-rule:evenodd;stroke:none;stroke-width:0.99999994;stroke-linecap:butt;stroke-linejoin:round;stroke-miterlimit:4;stroke-dasharray:none;stroke-dashoffset:8.05119991;stroke-opacity:1;marker:none;color-rendering:auto;image-rendering:auto;shape-rendering:auto;text-rendering:auto;enable-background:accumulate"
         id="ellipse4206"
         cx="-40.461609"
         cy="-43.680611" />
      <use
         height="100%"
         width="100%"
         transform="translate(10.106544,-42.825564)"
         id="use4181"
         xlink:href="#ellipse4206"
         y="0"
         x="0"
         style="fill:#003399;stroke:none;stroke-width:0.99999994;stroke-miterlimit:4;stroke-dasharray:none" />
      <use
         height="100%"
         width="100%"
         transform="translate(7.0719134,42.774504)"
         id="use4183"
         xlink:href="#ellipse4206"
         y="0"
         x="0"
         style="fill:#003399;stroke:none;stroke-width:0.99999994;stroke-miterlimit:4;stroke-dasharray:none" />
      <path
         sodipodi:type="inkscape:offset"
         inkscape:radius="-2.6936336"
         inkscape:original="M -17.396484 -90.080078 L -24.337891 -89.992188 C -32.455608 -89.890142 -32.019047 -90.120411 -33.246094 -85.541016 L -37.648438 -69.867188 C -36.860428 -59.313637 -40.220502 -48.837585 -44.185547 -42.263672 C -40.550584 -40.208907 -44.101562 -34.789972 -44.101562 -6.0371094 C -39.141838 -2.7618522 -34.200163 1.3670215 -32.007812 4.5605469 C -29.319495 2.3889757 -29.354987 8.5410156 -17.410156 8.5410156 L -17.396484 -90.080078 z "
         style="fill:#ffcc00;fill-opacity:0.50867052;fill-rule:evenodd;stroke:none;stroke-width:0.99999994;stroke-linecap:butt;stroke-linejoin:miter;stroke-miterlimit:4;stroke-dasharray:none;stroke-opacity:1"
         id="path4212"
         d="m -20.089844,-87.351562 -4.214844,0.05273 c -3.972259,0.04993 -5.738315,0.306905 -5.708984,0.255859 -0.122803,0.315491 -0.326329,1.062698 -0.630859,2.199219 a 2.6939029,2.6939029 0 0 1 -0.0078,0.03125 l -4.320312,15.380859 c 0.610478,10.149376 -2.245998,19.799281 -5.97461,26.707032 0.504004,0.788618 0.849498,1.687839 0.97461,2.5625 0.249456,1.743955 0.09615,3.589676 -0.123047,6.222656 -0.421738,5.065913 -1.213367,13.289354 -1.275391,26.5859374 4.010075,2.7501683 7.798693,5.8095933 10.335938,8.8691406 0.721257,-0.00124 1.454848,0.093787 1.935547,0.3261719 1.180632,0.5707542 1.692482,1.1516126 2.457031,1.6835937 1.239287,0.8623093 3.015316,1.8159433 6.539062,2.1601563 l 0.01367,-93.0371089 z" />
    </g>
    <use
       x="0"
       y="0"
       xlink:href="#g4185"
       id="use4191"
       transform="matrix(-1,0,0,1,-35.285201,2.0532098e-6)"
       width="100%"
       height="100%" />
    <path
       inkscape:connector-curvature="0"
       style="fill:#003399;fill-opacity:0.50867052;fill-rule:evenodd;stroke:none;stroke-width:0.99999994;stroke-linecap:butt;stroke-linejoin:miter;stroke-miterlimit:4;stroke-dasharray:none;stroke-opacity:1"
       d="m -17.658041,-50.362842 0,5.6e-4 -1.92668,0.0243 c -1.36013,0.0171 -1.86914,10e-4 -2.13077,0.25591 -0.17906,0.17427 -0.2423,0.47516 -0.383,1.00028 l -1.2425,4.4235 c 0.22239,2.97845 -0.72598,5.93478 -1.845,7.79008 0.3847,0.21747 0.48429,0.56849 0.45845,1.35016 -0.009,0.26055 -0.0312,0.56891 -0.0618,0.93619 -0.0459,0.55091 -0.10966,1.23425 -0.17159,2.08722 -0.10323,1.42161 -0.20115,3.31434 -0.20115,5.85018 0,0 1.6e-4,0 1.6e-4,0 0.17493,0.11552 0.34974,0.23496 0.52301,0.35702 0,0 1.6e-4,0 1.6e-4,0 0.0866,0.061 0.17275,0.12268 0.25839,0.18497 0,0 1.6e-4,0 1.6e-4,0 0.0856,0.0623 0.17069,0.12524 0.25497,0.18855 0,0 1.6e-4,0 1.6e-4,0 0.0843,0.0633 0.16776,0.12711 0.25031,0.19119 0,0 1.6e-4,0 1.6e-4,0 0.16513,0.12818 0.3263,0.25787 0.48225,0.38766 0,0 1.6e-4,0 1.6e-4,0 0.078,0.0649 0.15452,0.12985 0.22961,0.19477 0,0 1.6e-4,0 1.6e-4,0 0.0751,0.0649 0.14858,0.12991 0.22044,0.19461 0,0 1.6e-4,0 1.6e-4,0 0.0719,0.0647 0.14192,0.12928 0.21017,0.19353 0,0 1.5e-4,0 1.5e-4,0 0.40959,0.3856 0.7507,0.7608 0.98271,1.09876 0.75678,-0.61131 0.74936,1.1144 4.09479,1.12318 l 0,5.6e-4 c 0.004,0 0.008,-1.6e-4 0.0124,-1.6e-4 0.004,10e-6 0.008,1.6e-4 0.0125,1.6e-4 l 0,-5.6e-4 c 1.8818,-0.005 2.70279,-0.55305 3.19562,-0.92297 0.38331,-0.28772 0.56807,-0.46766 0.89916,-0.20021 0.61873,-0.90129 2.013358,-2.06671 3.413102,-2.99106 0,0 1.59e-4,0 1.59e-4,0 0,-2.53584 -0.09792,-4.42857 -0.201146,-5.85018 -0.06194,-0.85297 -0.125746,-1.53631 -0.171588,-2.08722 -0.03056,-0.36728 -0.05315,-0.67564 -0.06176,-0.93619 -0.02581,-0.78167 0.07375,-1.13269 0.458451,-1.35016 -1.119023,-1.8553 -2.067396,-4.81163 -1.845002,-7.79008 l -1.242496,-4.4235 c -0.14071,-0.52512 -0.20395,-0.82601 -0.383,-1.00028 -0.0138,-0.0134 -0.0281,-0.0262 -0.0433,-0.0381 0,0 -1.6e-4,0 -1.6e-4,0 -0.0152,-0.0119 -0.0311,-0.0232 -0.0479,-0.0337 0,0 -1.5e-4,0 -1.5e-4,0 -0.0168,-0.0106 -0.0346,-0.0204 -0.0532,-0.0297 0,0 -1.6e-4,0 -1.6e-4,0 -0.0186,-0.009 -0.0382,-0.018 -0.0588,-0.0261 0,0 -1.6e-4,0 -1.6e-4,0 -0.0206,-0.008 -0.0422,-0.0157 -0.065,-0.0227 0,0 -1.5e-4,0 -1.5e-4,0 -0.0228,-0.007 -0.0466,-0.0135 -0.0717,-0.0194 0,0 -1.6e-4,0 -1.6e-4,0 -0.0251,-0.006 -0.0514,-0.0116 -0.079,-0.0167 0,0 -1.6e-4,0 -1.6e-4,0 -0.0553,-0.0102 -0.11591,-0.0185 -0.18232,-0.0255 0,0 -1.6e-4,0 -1.6e-4,0 -0.0664,-0.007 -0.1387,-0.0126 -0.21763,-0.0171 0,0 -1.6e-4,0 -1.6e-4,0 -0.079,-0.005 -0.16459,-0.008 -0.25746,-0.0109 0,0 -1.6e-4,0 -1.6e-4,0 -0.0929,-0.003 -0.19312,-0.005 -0.30133,-0.007 0,0 -1.6e-4,0 -1.6e-4,0 -0.21651,-0.003 -0.46508,-0.006 -0.75138,-0.009 l -1.6e-4,0 -1.92652,-0.0243 0,-5.6e-4 -0.0165,1.6e-4 -0.0165,-1.6e-4 z m -3.62452,0.44165 a 0.56678743,0.56678751 0 0 1 0.56673,0.56672 0.56678743,0.56678751 0 0 1 -0.56673,0.56688 0.56678743,0.56678751 0 0 1 -0.56688,-0.56688 0.56678743,0.56678751 0 0 1 0.56688,-0.56672 z m 7.28201,0 a 0.56678743,0.56678751 0 0 1 0.56672,0.56672 0.56678743,0.56678751 0 0 1 -0.56672,0.56688 0.56678743,0.56678751 0 0 1 -0.56688,-0.56688 0.56678743,0.56678751 0 0 1 0.56688,-0.56672 z m -4.38492,0.32824 1.48783,0 1.18945,0.0148 1.6e-4,0 c 0.004,4e-5 0.007,8e-5 0.0101,1.6e-4 0.1396,0.002 0.26899,0.005 0.38938,0.008 0.0654,0.002 0.12184,0.004 0.1817,0.006 0.0522,0.002 0.10772,0.004 0.15572,0.006 0.0123,5.7e-4 0.0186,10e-4 0.0306,0.002 -0.0615,0.51044 0.1459,1.22239 1.16565,1.18525 l 1.07744,3.83561 c -0.008,0.13125 -0.0131,0.26206 -0.017,0.39265 -8.2e-4,0.0276 -0.002,0.0552 -0.002,0.0828 -0.003,0.12755 -0.004,0.25466 -0.003,0.38145 8e-5,0.0189 3.9e-4,0.0377 6.5e-4,0.0566 10e-4,0.12527 0.004,0.25021 0.009,0.37461 4e-4,0.0105 6.5e-4,0.0211 10e-4,0.0316 0.005,0.12818 0.0126,0.25574 0.0213,0.38285 0.002,0.0249 0.003,0.0497 0.005,0.0745 0.009,0.12403 0.0198,0.24751 0.0322,0.3704 0.002,0.0208 0.004,0.0416 0.007,0.0624 0.0121,0.11463 0.0255,0.22872 0.0403,0.34224 0.002,0.0176 0.004,0.0353 0.007,0.0529 0.0162,0.12102 0.0342,0.24129 0.0534,0.36092 0.004,0.0265 0.009,0.0529 0.0129,0.0793 0.0195,0.11754 0.0401,0.23444 0.0622,0.35049 0.004,0.0229 0.009,0.0455 0.0135,0.0683 0.0201,0.10247 0.0411,0.20434 0.06316,0.30554 0.0053,0.0243 0.01046,0.0487 0.01587,0.073 0.02569,0.11506 0.05276,0.22909 0.08089,0.3424 0.0053,0.0213 0.01066,0.0424 0.01602,0.0636 0.02935,0.11601 0.05956,0.23135 0.09132,0.34536 0.0405,0.14536 0.08324,0.28887 0.127408,0.43076 0.01181,0.0379 0.02434,0.0751 0.0364,0.11278 0.03331,0.10409 0.06723,0.20738 0.102362,0.30942 0.01612,0.0468 0.03267,0.093 0.04916,0.13939 0.03213,0.0904 0.06485,0.17988 0.09832,0.2685 0.01839,0.0487 0.03677,0.0973 0.05554,0.14546 0.03648,0.0936 0.07369,0.18575 0.11154,0.27721 0.01538,0.0372 0.03045,0.0749 0.04605,0.1117 0.0049,0.0116 0.0095,0.0237 0.01447,0.0353 -0.522888,0.0119 -1.059619,1.46439 0.26026,1.83614 -0.0704,0.49218 -0.02717,1.01309 0.03469,1.75617 0.04463,0.53615 0.103996,1.19757 0.161632,2.01286 0.09606,1.35883 0.187405,3.145 0.198346,5.49037 -0.52703,0.36144 -1.023284,0.71492 -1.511004,1.13236 -1.407824,-0.94569 -2.182044,0.73893 -1.405994,1.37068 -0.0509,-8e-5 -0.102,0.001 -0.15215,0.005 -0.15048,0.0105 -0.29245,0.0379 -0.3942,0.0871 -0.3332,0.16108 -0.47758,0.32496 -0.69335,0.4751 -0.34976,0.24336 -0.85099,0.51252 -1.84547,0.60966 l -1.4956,0 c -0.99448,-0.0971 -1.49572,-0.3663 -1.84547,-0.60966 -0.10785,-0.075 -0.19786,-0.15366 -0.30258,-0.2335 0,0 -1.6e-4,0 -1.6e-4,0 -0.0262,-0.02 -0.0532,-0.04 -0.0817,-0.0601 0,0 -1.6e-4,0 -1.6e-4,0 -0.0285,-0.0201 -0.0584,-0.0404 -0.0902,-0.0605 0,0 -1.6e-4,0 -1.6e-4,0 -0.0319,-0.0202 -0.0655,-0.0403 -0.10174,-0.0605 0,0 -1.6e-4,0 -1.6e-4,0 -0.0362,-0.0202 -0.0749,-0.0404 -0.11652,-0.0605 0,0 -1.6e-4,0 -1.6e-4,0 -0.0169,-0.008 -0.035,-0.0159 -0.054,-0.0229 0,0 -1.6e-4,0 -1.6e-4,0 -0.038,-0.014 -0.0798,-0.0256 -0.12445,-0.0351 0,0 -1.6e-4,0 -1.6e-4,0 -0.0223,-0.005 -0.0453,-0.009 -0.0688,-0.0128 0,0 -1.6e-4,0 -1.6e-4,0 -0.0941,-0.0149 -0.19675,-0.0215 -0.29853,-0.0213 0.77604,-0.63175 0.002,-2.31637 -1.406,-1.37068 -0.48772,-0.41743 -0.98397,-0.77091 -1.511,-1.13236 0.0109,-2.34537 0.10228,-4.13154 0.19834,-5.49037 0.0576,-0.81529 0.117,-1.47671 0.16163,-2.01285 0.0619,-0.74309 0.1051,-1.264 0.0347,-1.75618 1.31987,-0.37175 0.78314,-1.82419 0.26026,-1.83614 0.005,-0.0116 0.01,-0.0237 0.0145,-0.0353 0.0156,-0.0368 0.0307,-0.0745 0.0461,-0.11169 0.0378,-0.0915 0.0751,-0.18363 0.11154,-0.27722 0.0188,-0.0482 0.0371,-0.0968 0.0555,-0.14545 0.0335,-0.0886 0.0662,-0.17813 0.0983,-0.26851 0.0165,-0.0464 0.0331,-0.0926 0.0492,-0.13939 0.0351,-0.10203 0.0691,-0.20533 0.10237,-0.30942 0.0121,-0.0377 0.0246,-0.0748 0.0364,-0.11278 0.0442,-0.14189 0.0869,-0.2854 0.12741,-0.43076 0.0318,-0.11401 0.062,-0.22935 0.0913,-0.34536 0.005,-0.0212 0.0108,-0.0424 0.016,-0.0636 0.0281,-0.1133 0.0552,-0.22734 0.0809,-0.3424 0.005,-0.0242 0.0106,-0.0486 0.0159,-0.073 0.0221,-0.1012 0.0431,-0.20307 0.0632,-0.30553 0.004,-0.0228 0.009,-0.0454 0.0135,-0.0683 0.0222,-0.11606 0.0427,-0.23296 0.0622,-0.35049 0.004,-0.0264 0.009,-0.0529 0.0129,-0.0793 0.0191,-0.11962 0.0371,-0.23989 0.0534,-0.36091 0.002,-0.0176 0.004,-0.0353 0.007,-0.0529 0.0148,-0.11353 0.0282,-0.22761 0.0403,-0.34225 0.002,-0.0208 0.005,-0.0415 0.007,-0.0624 0.0124,-0.12289 0.023,-0.24637 0.0322,-0.3704 0.002,-0.0248 0.004,-0.0497 0.005,-0.0745 0.009,-0.12711 0.0161,-0.25467 0.0213,-0.38284 2.8e-4,-0.0105 8.4e-4,-0.0211 0.001,-0.0316 0.005,-0.12202 0.007,-0.24459 0.009,-0.36745 2.4e-4,-0.0233 5.6e-4,-0.0466 8.4e-4,-0.07 5.7e-4,-0.12472 -2.8e-4,-0.24977 -0.003,-0.37523 -5.6e-4,-0.0276 -0.001,-0.0552 -0.002,-0.0828 -0.004,-0.13059 -0.009,-0.2614 -0.017,-0.39264 l 1.07745,-3.83562 c 1.01974,0.0371 1.22716,-0.67481 1.16565,-1.18525 0.0121,-5.6e-4 0.0183,-10e-4 0.0306,-0.002 0.048,-0.002 0.10354,-0.004 0.15572,-0.006 0.0599,-0.002 0.11627,-0.004 0.1817,-0.006 0.12039,-0.003 0.24978,-0.006 0.38938,-0.008 0.004,-5e-5 0.006,-8e-5 0.0101,-1.6e-4 l 1.18961,-0.0148 z m -5.74937,11.75809 a 0.56678743,0.56678751 0 0 1 0.56672,0.56672 0.56678743,0.56678751 0 0 1 -0.56672,0.56688 0.56678743,0.56678751 0 0 1 -0.56688,-0.56688 0.56678743,0.56678751 0 0 1 0.56688,-0.56672 z m 12.986574,0 a 0.56678743,0.56678751 0 0 1 0.566724,0.56672 0.56678743,0.56678751 0 0 1 -0.566724,0.56688 0.56678743,0.56678751 0 0 1 -0.566879,-0.56688 0.56678743,0.56678751 0 0 1 0.566879,-0.56672 z m -10.990834,12.07186 a 0.56678743,0.56678751 0 0 1 0.56688,0.56688 0.56678743,0.56678751 0 0 1 -0.56688,0.56672 0.56678743,0.56678751 0 0 1 -0.56672,-0.56672 0.56678743,0.56678751 0 0 1 0.56672,-0.56688 z m 8.99493,0 a 0.56678743,0.56678751 0 0 1 0.56688,0.56688 0.56678743,0.56678751 0 0 1 -0.56688,0.56672 0.56678743,0.56678751 0 0 1 -0.56672,-0.56672 0.56678743,0.56678751 0 0 1 0.56672,-0.56688 z"
       id="path4242-6" />
    <path
       style="fill:#cc0000;fill-opacity:1;fill-rule:evenodd;stroke:none;stroke-width:0.99999994;stroke-linecap:butt;stroke-linejoin:miter;stroke-miterlimit:4;stroke-dasharray:none;stroke-opacity:1"
       d="m -17.658091,-50.362753 0,5.5e-4 -1.926497,0.02425 c -1.36013,0.0171 -1.869368,8.56e-4 -2.130998,0.255764 -0.17906,0.17427 -0.242394,0.475336 -0.383094,1.000455 l -1.242439,4.423504 c 0.06994,0.936743 0.02361,1.871093 -0.106936,2.769855 l 0.730911,0.172531 c 0.01078,-0.07141 0.02229,-0.142539 0.03197,-0.214421 0.002,-0.0176 0.0042,-0.03532 0.0072,-0.05292 0.0148,-0.113533 0.02814,-0.227666 0.04024,-0.342305 0.002,-0.0208 0.0052,-0.04139 0.0072,-0.06229 0.0124,-0.122888 0.02277,-0.246386 0.03197,-0.370417 0.002,-0.0248 0.004,-0.04962 0.005,-0.07441 0.009,-0.127111 0.0163,-0.254373 0.0215,-0.382544 2.8e-4,-0.0105 9.42e-4,-0.02147 0.0011,-0.03197 0.005,-0.122019 0.0068,-0.24425 0.0088,-0.367109 2.4e-4,-0.0233 8.22e-4,-0.0466 0.0011,-0.07001 5.7e-4,-0.124719 -5.87e-4,-0.249916 -0.0033,-0.375378 -5.6e-4,-0.0276 -0.0012,-0.05508 -0.0022,-0.08268 -0.004,-0.130589 -0.0085,-0.261778 -0.01654,-0.393017 l 1.077074,-3.835357 c 1.01974,0.0371 1.22733,-0.674672 1.16582,-1.185113 0.0121,-5.56e-4 0.01857,-0.0012 0.03087,-0.0022 0.048,-0.002 0.103263,-0.0041 0.155443,-0.0061 0.0599,-0.002 0.116471,-0.0041 0.181901,-0.0061 0.12039,-0.003 0.249558,-0.0057 0.389158,-0.0077 0.004,-5e-5 0.0058,-4.71e-4 0.0099,-5.5e-4 l 1.187317,-0.01433 0.0028,0 1.485525,0 1.188971,0.01433 5.51e-4,0 c 0.004,4e-5 0.0068,4.71e-4 0.0099,5.5e-4 0.1396,0.002 0.268768,0.0047 0.389158,0.0077 0.0654,0.002 0.122041,0.0041 0.181901,0.0061 0.0522,0.002 0.107994,0.0041 0.155994,0.0061 0.0123,5.71e-4 0.01832,0.0012 0.03032,0.0022 -0.0615,0.510441 0.14607,1.222253 1.16582,1.185113 l 1.077074,3.835357 c -0.008,0.131251 -0.01264,0.262428 -0.01654,0.393017 -8.2e-4,0.0276 -0.0022,0.05508 -0.0022,0.08268 -0.003,0.127551 -0.0038,0.254652 -0.0028,0.381443 8e-5,0.0189 2.92e-4,0.03787 5.51e-4,0.05678 10e-4,0.12527 0.0038,0.249874 0.0088,0.374275 4e-4,0.0105 7.52e-4,0.02092 0.0011,0.03142 0.005,0.12818 0.0128,0.255984 0.0215,0.383095 0.002,0.0249 0.003,0.04961 0.005,0.07441 0.009,0.124031 0.01957,0.247529 0.03197,0.370417 0.002,0.0208 0.0042,0.04149 0.0072,0.06229 0.0121,0.114627 0.02544,0.228783 0.04024,0.342305 0.002,0.0176 0.0042,0.03531 0.0072,0.05292 0.0096,0.07169 0.02082,0.142647 0.03142,0.213871 l 0.729257,-0.171981 c -0.130543,-0.898762 -0.17688,-1.833112 -0.106935,-2.769855 l -1.24244,-4.423504 c -0.14071,-0.525119 -0.204044,-0.826185 -0.383094,-1.000455 -0.0138,-0.0134 -0.02835,-0.02613 -0.04355,-0.03804 -0.0152,-0.01189 -0.03116,-0.02312 -0.04796,-0.03362 -0.0168,-0.0106 -0.03487,-0.02046 -0.05347,-0.02976 -0.0186,-0.009 -0.03838,-0.01781 -0.05898,-0.02591 -0.0206,-0.008 -0.04224,-0.0156 -0.06504,-0.0226 -0.0228,-0.007 -0.04656,-0.01394 -0.07166,-0.01984 -0.0251,-0.006 -0.05178,-0.01144 -0.07938,-0.01654 -0.0553,-0.0102 -0.116043,-0.01835 -0.182453,-0.02535 -0.0664,-0.007 -0.1388,-0.01259 -0.217729,-0.01709 -0.079,-0.005 -0.164548,-0.0081 -0.257418,-0.01102 l -5.51e-4,0 c -0.0929,-0.003 -0.192754,-0.0052 -0.300964,-0.0072 l -5.51e-4,0 c -0.21651,-0.003 -0.465006,-0.0058 -0.751306,-0.0088 l -1.926497,-0.02425 0,-5.5e-4 -0.01654,0 -0.01654,0 z m -3.62424,0.441522 a 0.56678741,0.56678751 0 0 1 0.56665,0.566652 0.56678741,0.56678751 0 0 1 -0.56665,0.567199 0.56678741,0.56678751 0 0 1 -0.5672,-0.567199 0.56678741,0.56678751 0 0 1 0.5672,-0.566652 z m 7.281554,0 a 0.56678741,0.56678751 0 0 1 0.5672,0.566652 0.56678741,0.56678751 0 0 1 -0.5672,0.567199 0.56678741,0.56678751 0 0 1 -0.56665,-0.567199 0.56678741,0.56678751 0 0 1 0.56665,-0.566652 z m -10.327569,11.304874 c -0.259913,0.649484 -0.551859,1.240847 -0.857691,1.747904 0.3847,0.217472 0.484451,0.568808 0.458611,1.350479 -0.009,0.26055 -0.03114,0.568683 -0.06174,0.935964 -0.0459,0.550909 -0.110049,1.234482 -0.171979,2.087451 -0.10323,1.42161 -0.201194,3.314209 -0.201194,5.850049 l 5.52e-4,0 c 0.105473,0.06965 0.21022,0.143307 0.315295,0.215525 l 0.479557,-0.568856 c -0.0081,-0.0056 -0.01554,-0.01149 -0.0237,-0.01709 0.0109,-2.345371 0.102377,-4.131826 0.198437,-5.490655 0.0576,-0.815292 0.116876,-1.476903 0.161506,-2.013038 0.0619,-0.743091 0.105127,-1.263994 0.03473,-1.756173 1.31987,-0.371751 0.783054,-1.824149 0.260173,-1.836098 0.005,-0.0116 0.01038,-0.02368 0.01488,-0.03528 0.0156,-0.0368 0.03035,-0.07416 0.04575,-0.111345 0.02555,-0.06184 0.05043,-0.124734 0.07552,-0.187412 l -0.728707,-0.171431 z m 13.373584,0 -0.727053,0.170877 c 0.02516,0.06292 0.0504,0.125939 0.07607,0.187966 0.01538,0.0372 0.03015,0.07455 0.04575,0.111345 0.0049,0.0116 0.0094,0.02368 0.01433,0.03528 -0.522887,0.0119 -1.059705,1.464347 0.260174,1.836098 -0.0704,0.492179 -0.02713,1.01309 0.03473,1.756173 0.04463,0.536146 0.104422,1.197746 0.162058,2.013038 0.09606,1.358829 0.186945,3.145284 0.197886,5.490655 -0.0085,0.0058 -0.01632,0.01181 -0.0248,0.01764 l 0.479006,0.568303 c 0.105109,-0.07219 0.209799,-0.145858 0.315296,-0.215525 0,-2.53584 -0.09742,-4.428439 -0.200643,-5.850049 -0.06194,-0.852969 -0.126137,-1.536542 -0.171979,-2.087451 -0.03056,-0.367281 -0.05313,-0.675414 -0.06174,-0.935964 -0.02581,-0.781671 0.07391,-1.133007 0.458611,-1.350479 -0.305832,-0.507057 -0.597778,-1.09842 -0.857691,-1.747904 z m -13.180107,0.781626 a 0.56678741,0.56678751 0 0 1 0.566649,0.566649 0.56678741,0.56678751 0 0 1 -0.566649,0.566648 0.56678741,0.56678751 0 0 1 -0.56665,-0.566648 0.56678741,0.56678751 0 0 1 0.56665,-0.566649 z m 12.986631,0 a 0.56678741,0.56678751 0 0 1 0.566649,0.566649 0.56678741,0.56678751 0 0 1 -0.566649,0.566648 0.56678741,0.56678751 0 0 1 -0.56665,-0.566648 0.56678741,0.56678751 0 0 1 0.56665,-0.566649 z m -2.754423,13.326178 c -0.01892,7.73e-4 -0.03806,1.63e-4 -0.05678,0.0017 -0.15048,0.0105 -0.29292,0.03789 -0.39467,0.08709 -0.3332,0.161079 -0.477108,0.325007 -0.692878,0.475147 -0.34976,0.24336 -0.850989,0.512504 -1.845468,0.609645 l -1.495999,0 c -0.994479,-0.0971 -1.495718,-0.366285 -1.845468,-0.609645 -0.10785,-0.075 -0.197897,-0.153876 -0.302617,-0.233714 -0.0262,-0.02 -0.05308,-0.03998 -0.08158,-0.06008 -0.0285,-0.0201 -0.0586,-0.04054 -0.0904,-0.06064 -0.0319,-0.0202 -0.06574,-0.04043 -0.101975,-0.06063 -0.0362,-0.0202 -0.07524,-0.03998 -0.116858,-0.06008 -0.0169,-0.008 -0.03502,-0.01615 -0.05402,-0.02315 -0.038,-0.014 -0.07993,-0.02578 -0.124575,-0.03528 -0.0223,-0.005 -0.0454,-0.0089 -0.0689,-0.01268 -0.06562,-0.01039 -0.137617,-0.0115 -0.208359,-0.01433 l -0.531371,0.630042 c 0.05909,0.07529 0.116377,0.149425 0.165915,0.221586 0.75678,-0.61131 0.748997,1.114598 4.094427,1.123377 l 0,5.51e-4 0.01268,0 c 0.004,1.1e-5 0.0082,0 0.01268,0 l 0,-5.51e-4 c 1.8818,-0.005 2.702565,-0.552814 3.195395,-0.922734 0.38331,-0.287719 0.567942,-0.468093 0.899032,-0.200643 0.04861,-0.07081 0.109755,-0.145559 0.167569,-0.219382 l -0.535781,-0.635553 z"
       id="path5880"
       inkscape:connector-curvature="0" />
  </g>
  <g
     inkscape:groupmode="layer"
     id="layer3"
     inkscape:label="bumper">
    <g
       id="g11643">
      <path
         sodipodi:nodetypes="ccccccccccccccccccccccccccccccccccccccccccccccccccccccccccccccccccccccccccccccccccccccccccccccccccccccccccccccccccccccccccccccccccccccccccccccccccccccccccccccccccccccccccccc"
         style="display:inline;fill:#3366cc;stroke:#00cc00;stroke-width:0.08466666;stroke-miterlimit:4;stroke-dasharray:none"
         inkscape:connector-curvature="0"
         d="m 27.135571,-9.7149907 0.327623,-0.089386 0.319758,-0.0356 0.316089,0.0607 1.186462,0.4205 0.629917,0.22325 0.329636,0.066 0.334715,-0.0288 0.31327,-0.12164 0.704423,-0.39664 2.221654,-1.2509703 0.09031,-0.0679 0.174252,-0.13104 0.04391,-0.033 0.237631,-0.3048 0.149578,-0.35589 0.05165,-0.38297 -0.01033,-0.0793 -0.03961,-0.30367 -0.228357,-0.85231 -0.378702,-1.41345 -0.02879,-0.10744 -0.148167,-0.35673 -0.23622,-0.30565 -0.169415,-0.12869 -0.138207,-0.10499 -0.357858,-0.14506 -0.38354,-0.0466 -0.849771,0.009 -2.311961,0.0251 -0.196021,0.0037 -0.331894,0.0511 -0.304517,0.14252 -0.07567,0.0666 -0.176352,0.15522 -0.538627,0.63095 -0.229376,0.26869 -0.355224,0.41611 -0.104157,0.12201 -0.02399,0.0281 -0.243276,0.21053 -0.519381,0.186743 c -0.251614,0.13097 -0.391141,-0.295708 -0.160045,-0.363845 l 0.468489,-0.158318 0.153529,-0.13293 0.324555,-0.3802 0.25654,-0.30052 c 0,0 0.432712,-0.590021 0.854772,-1.080155 0.272297,-0.272297 0.687786,-0.332907 0.687786,-0.332905 l 2.71914,-0.01309 0.106112,0.008 0.04336,0.003 0.574712,0.0432 0.227471,-0.003 0.486551,0.0593 0.454378,0.18401 0.390598,0.29633 0.117489,0.15212 0.01741,0.0225 0.164818,0.21339 0.18796,0.45269 0.435271,1.62334 0.20114,0.75015 0.05279,0.40583 0.01044,0.0802 -0.06576,0.48599 -0.189935,0.45184 -0.107583,0.138 -0.193831,0.24864 -0.392003,0.29464 -0.103297,0.0581 -2.311961,1.3016003 -0.510822,0.28758 -0.312149,0.12136 -0.105258,0.0409 -0.446475,0.0387 -0.395645,-0.0796 -0.04349,-0.009 -0.03482,-0.0123 -0.463296,-0.16418 -1.318545,-0.46723 -0.199531,-0.0381 -0.201786,0.0223 -0.354289,0.090317 c -0.170813,0.035847 -0.319188,-0.3404265 -0.07625,-0.382951 z m -5.547941,26.1720457 0.01185,-0.20857 -0.06237,-0.68043 -0.01154,-0.0469 -0.03701,-0.15043 -0.104987,-0.17413 -0.353655,-0.422418 c -0.09916,-0.149132 0.174503,-0.395429 0.310886,-0.253011 l 0.346274,0.423427 0.166229,0.27544 0.0744,0.30171 0.0028,0.0107 0.104927,1.14526 0.0709,0.77385 0.07761,0.32709 0.0314,0.055 0.134262,0.2353 8.46e-4,10e-4 0.241583,0.23368 0.947809,0.68552 1.121726,0.81131 0.651369,0.47111 0.339795,0.18316 0.164818,0.0386 0.211385,0.0495 0.38608,-0.013 0.369143,-0.11317 0.189374,-0.11911 0.137725,-0.0866 1.469336,-1.22174 0.419856,-0.34911 0.261903,-0.28392 0.02314,-0.0443 0.155784,-0.29806 0.03985,-0.18062 0.0434,-0.19671 -0.01806,-0.3858 -0.118251,-0.36773 -0.09752,-0.20574 -0.0052,-0.011 -1.090667,-2.30098 -0.244805,-0.51646 -0.18542,-0.28025 -0.256825,-0.21703 -0.307055,-0.13603 -0.227189,-0.0641 -1.627576,-0.4589 -0.293228,-0.13292 -0.240454,-0.21365 -0.208469,-0.277532 c -0.111197,-0.147048 0.136245,-0.368539 0.299036,-0.240341 l 0.213616,0.265713 0.152118,0.1349 0.185137,0.0838 1.520331,0.42889 0.334434,0.0944 0.409501,0.18147 0.342339,0.28899 0.247223,0.37366 0.01569,0.0331 0.259119,0.54662 0.0503,0.10609 0.653361,1.37826 0.442626,0.93371 0.01738,0.0367 0.14986,0.46653 0.02286,0.48993 -0.03601,0.16285 -0.06983,0.31579 -0.226906,0.43463 -0.3,0.32496 -0.03246,0.0351 -0.05465,0.0454 -1.834549,1.52541 -0.390311,0.2457 -0.02484,0.0156 -0.468489,0.14394 -0.489938,0.0166 -0.02373,-0.006 -0.148979,-0.035 -0.3048,-0.0715 -0.431518,-0.23284 -0.419664,-0.30356 -1.416474,-1.02458 -0.455791,-0.27432 C 22.332918,18.65733 21.872335,18.304927 21.783009,17.942087 21.646861,17.574486 21.58763,16.457055 21.58763,16.457055 Z"
         id="path5058" />
      <use
         height="100%"
         width="100%"
         transform="matrix(-1,0,0,1,21.617608,0)"
         id="use11587"
         xlink:href="#path5058"
         y="0"
         x="0" />
    </g>
    <g
       id="g11639">
      <path
         id="path11631"
         transform="matrix(0.2822222,0,0,0.28222222,-86.649002,-73.435006)"
         d="m 418.13477,202.99805 c -3.07653,0.0361 -6.17002,0.0285 -9.23243,0.24609 -2.23502,0.80645 -3.48058,2.9782 -5.02929,4.63086 -0.83847,0.86975 -1.50706,1.96196 -2.51758,2.63867 -0.78981,0.39152 -1.63048,0.74293 -2.50586,0.78125 -1.00434,0.50979 -0.22515,1.69587 -0.12305,2.48633 1.06863,4.0721 1.97637,8.19175 3.14063,12.23633 0.22708,0.6606 1.03763,0.67929 1.52148,0.3125 1.12599,-0.38405 2.35795,-0.49063 3.47852,-0.0312 2.32076,0.70075 4.54824,1.72076 6.90625,2.2832 1.61422,0.23145 3.08574,-0.57804 4.41992,-1.37305 3.23954,-1.85139 6.5937,-3.52553 9.68164,-5.62695 1.97331,-1.41129 2.5986,-4.17068 1.85547,-6.41406 -0.77177,-2.99314 -1.51404,-6.00455 -2.52149,-8.92774 -1.01746,-2.06258 -3.33012,-3.37913 -5.625,-3.21484 -1.14965,-0.0267 -2.29929,-0.0298 -3.44921,-0.0273 z m 1.0957,5.27148 0.58594,0.16797 0.16015,0.16602 0.082,0.10546 0.10743,0.13672 0.0586,0.30274 0.0312,0.23047 -0.0859,0.30078 -0.63281,1.35937 -0.0879,0.12891 -0.19727,0.12305 -0.26757,0.23828 -0.0156,0.0137 -0.1543,0.0215 -0.30664,0.043 -0.27929,-0.13086 -0.32813,-0.1914 -0.15039,-0.26954 -0.10156,-0.20898 0.0762,-0.61523 0.63281,-1.35743 0.11719,-0.125 0.30469,-0.32812 0.20508,-0.0508 0.24609,-0.0606 z m -7.74219,2.91797 0.15625,0.0449 0.67383,0.31446 0.75391,0.33789 0.0371,0.0312 0.31835,0.26953 0.10157,0.20898 0.10547,0.29883 -0.0137,0.11133 -0.0234,0.19531 -0.0859,0.28125 -0.21094,0.22461 -0.16601,0.16211 -0.29493,0.10742 -0.46289,-0.0332 -1.50781,-0.67578 -0.0762,-0.0703 -0.13867,-0.12695 -0.0703,-0.0625 -0.15625,-0.14648 -0.0527,-0.14649 -0.0664,-0.16211 0,-0.0176 -0.004,-0.13867 0.0156,-0.23242 0.13086,-0.2793 0.10742,-0.20507 0.19727,-0.12305 0.0371,-0.0215 0.23242,-0.1289 0.30469,-0.0117 0.1582,-0.006 z m 9.28516,4.42188 0.25976,0.0312 0.0469,0.008 0.15039,0.043 1.35937,0.63281 0.25977,0.17578 0.12109,0.19531 0.0977,0.12305 0.0117,0.0508 0,0.004 0.008,0.0273 0.0371,0.15625 0.0312,0.23047 -0.041,0.21484 -0.0351,0.0527 -0.0527,0.0781 -0.25195,0.37305 -0.12305,0.0957 -0.45117,0.11328 -0.45703,-0.0801 -0.71094,-0.33204 -0.64843,-0.30273 -0.17774,-0.15039 -0.17187,-0.14063 -0.002,-0.004 -0.0996,-0.20313 -0.0508,-0.10156 -0.0566,-0.11523 0,-0.004 0.0156,-0.22656 0.0371,-0.30664 0.0879,-0.12891 0.10937,-0.20508 0.0606,-0.0488 0.0625,-0.0488 0.27148,-0.14844 0.30274,-0.0586 z m -5.82617,2.16796 0.43164,0.17383 0.375,0.48438 0.0664,0.45898 -0.7207,1.66016 -0.17578,0.25976 -0.0352,0.0215 -0.25781,0.16015 -0.0996,0.0625 -0.61133,0.0215 -0.16015,-0.0859 -0.25,-0.13281 -0.2461,-0.39258 0.0117,-0.38086 -0.0312,-0.23047 0.043,-0.14453 0.002,-0.01 0,-0.002 0.31641,-0.67969 0.0351,-0.0742 0.2793,-0.59961 0.14844,-0.17774 0.21094,-0.22461 0.14648,-0.0547 0.20899,-0.10156 0.0801,-0.002 0.17383,-0.008 0.0586,-0.002 z m -21.10743,84.2168 c -1.13352,0.335 -1.98648,1.2759 -2.9707,1.90234 -2.99702,2.24264 -5.98433,4.50419 -8.96094,6.76563 -0.51404,0.53463 -0.0624,1.2286 0.43555,1.55859 0.82722,0.9514 1.73611,1.96358 1.7793,3.29883 0.44759,2.66479 0.25199,5.44569 1.08398,8.03711 0.75432,1.76939 2.65018,2.60176 4.04688,3.77734 2.63147,1.87826 5.19784,3.86187 7.93164,5.5879 1.51228,0.86536 3.38155,0.84579 4.93945,0.10742 1.60879,-0.82784 2.88056,-2.18017 4.31641,-3.26368 1.52851,-1.33757 3.213,-2.52688 4.58203,-4.03124 1.29721,-1.78433 1.5838,-4.32102 0.45703,-6.26368 -1.69774,-3.68173 -3.37477,-7.37913 -5.25586,-10.9707 -0.79729,-1.28494 -2.21135,-1.96649 -3.64258,-2.2832 -2.13915,-0.70789 -4.40109,-1.09167 -6.45703,-2.02735 -0.79852,-0.49155 -1.23603,-1.35001 -1.78516,-2.06054 -0.16064,-0.0785 -0.31645,-0.14961 -0.5,-0.13477 z m 2.26954,11.49414 0.22851,0.0332 0.11914,-0.008 0.11328,-0.008 0.14063,0.0684 0.0684,0.0352 0.19726,0.12304 0.0859,0.13086 0.15039,0.17774 0.0664,0.14062 0.47461,1.01758 0.0918,0.20117 0.082,0.45703 -0.10546,0.28711 -0.0566,0.22461 -0.0351,0.0312 -0.14258,0.11914 -0.22461,0.21094 -0.0332,0.008 -0.42383,0.0742 -0.22461,-0.0566 -0.22461,-0.082 -0.0625,-0.0195 -0.21094,-0.22657 -0.15039,-0.17773 -0.48632,-1.04492 -0.14649,-0.31446 -0.041,-0.22851 -0.0371,-0.30664 0.0527,-0.14649 0.0566,-0.23437 0.041,-0.043 0.11914,-0.12305 0.0977,-0.12304 0.0449,-0.0254 0.16015,-0.0859 0.21485,-0.0859 z m 8.43359,2.92969 0.20898,0.10156 0.0156,0.0117 0.18164,0.10742 0.10937,0.20508 0.14844,0.17969 0.0274,0.15429 0.0137,0.0742 0.0156,0.23047 -0.0644,0.16211 -0.0566,0.22461 -0.0723,0.0937 -0.0254,0.0312 -0.21289,0.19727 -0.12891,0.0859 -1.36132,0.63282 -0.45703,0.082 -0.22461,-0.0566 -0.0606,-0.0234 -0.28711,-0.12695 -0.125,-0.0957 -0.2168,-0.41015 -0.0352,-0.41211 0.0547,-0.17188 0.10352,-0.23437 0.22656,-0.21094 0.17774,-0.14844 0.10156,-0.0488 1.25781,-0.58593 0.15039,-0.043 0.22852,0.0312 0.30664,-0.0371 z m -9.58789,4.40625 0.25586,0.0937 0.0371,0.0156 0.21093,0.22461 0.16602,0.16211 0.006,0.0274 0.0352,0.19922 0.0879,0.21679 -0.0215,0.15235 -0.0117,0.0781 -0.0566,0.22461 -0.0957,0.12305 -0.12305,0.19726 -0.0664,0.0449 -0.19336,0.12891 -0.67188,0.31445 -0.10547,0.0488 -0.57422,0.26758 -0.002,0 -0.23437,0.0449 -0.0293,0.006 -0.12109,0.0352 -0.0391,-0.006 -0.13867,-0.0293 -0.125,-0.0234 -0.22461,-0.0566 -0.16797,-0.16211 -0.21093,-0.22461 -0.084,-0.29492 -0.041,-0.22851 0.0566,-0.22461 0.10546,-0.28516 0.22461,-0.21094 0.17774,-0.15039 1.42773,-0.63867 0.084,-0.0391 0.46289,-0.0312 z m 5.83594,2.17383 0.0176,0.002 0.18164,0.0508 0.23829,0.0586 0.0117,0.0137 0.25586,0.27343 0.1543,0.16602 0.62695,1.34375 0.0469,0.1582 0.043,0.23438 -0.0274,0.14648 -0.0312,0.15821 -0.10547,0.2871 -0.2246,0.20899 -0.25391,0.17187 -0.30664,0.0371 -0.23047,0.0176 -0.18555,-0.082 -0.16211,-0.0664 -0.0137,-0.0137 -0.18359,-0.20117 -0.17188,-0.19531 -0.14258,-0.32227 -0.5332,-1.1875 0.01,-0.30469 -0.0156,-0.23242 0.0274,-0.0723 0.0254,-0.0742 0.11132,-0.17578 0.0117,-0.0215 0.22657,-0.21093 0.13086,-0.0879 0.2539,-0.0391 0.21485,-0.041 z"
         style="color:#000000;clip-rule:nonzero;display:inline;overflow:visible;visibility:visible;opacity:1;isolation:auto;mix-blend-mode:normal;color-interpolation:sRGB;color-interpolation-filters:linearRGB;solid-color:#000000;solid-opacity:1;fill:#ffcc00;fill-opacity:1;fill-rule:evenodd;stroke:none;stroke-width:0.30000001;stroke-linecap:butt;stroke-linejoin:round;stroke-miterlimit:4;stroke-dasharray:none;stroke-dashoffset:8.05119991;stroke-opacity:1;marker:none;color-rendering:auto;image-rendering:auto;shape-rendering:auto;text-rendering:auto;enable-background:accumulate"
         inkscape:connector-curvature="0" />
      <use
         height="100%"
         width="100%"
         transform="matrix(-1,0,0,1,21.63702,0)"
         id="use11637"
         xlink:href="#path11631"
         y="0"
         x="0" />
    </g>
    <path
       style="display:inline;fill:#00cc00;stroke:none;stroke-width:0.08466665;stroke-miterlimit:4;stroke-dasharray:none"
       d="m -9.8740903,-16.432733 -0.1063836,0.0083 -0.042997,0.0028 -0.574918,0.043 -0.227651,-0.0028 -0.48617,0.05953 -0.454753,0.183554 -0.39026,0.296554 -0.11741,0.152137 -0.01764,0.0226 -0.164812,0.21332 -0.187966,0.452549 -0.435461,1.623329 -0.201193,0.750203 -0.05237,0.405694 -0.01047,0.08048 0.0656,0.486173 0.190167,0.451445 0.107488,0.138354 0.193477,0.248598 0.392467,0.294349 0.103076,0.05843 2.3117978,1.3014196 0.5109745,0.287734 0.3119882,0.1212681 0.105283,0.04079 0.446484,0.038585 0.3957715,-0.079375 0.043547,-0.00937 0.034727,-0.012124 0.4635725,-0.1642646 1.3185055,-0.4668774 0.1995395,-0.038035 0.2017466,0.02205 0.3538784,0.090399 c 0.1708122,0.035848 0.3195574,-0.3405717 0.07662,-0.3830941 l -0.3279732,-0.089298 -0.319707,-0.035828 -0.3158462,0.061183 -1.1867641,0.4200285 -0.6294881,0.2232406 -0.3296271,0.066147 -0.3351388,-0.028665 -0.3130917,-0.1218184 -0.704452,-0.3963218 -2.2213963,-1.2512605 -0.0904,-0.0678 -0.174182,-0.131191 -0.0441,-0.03307 -0.237575,-0.304823 -0.14938,-0.355535 -0.05181,-0.383094 0.01047,-0.07938 0.03914,-0.303719 0.228755,-0.852179 0.378683,-1.413315 0.02866,-0.107487 0.148277,-0.356639 0.235918,-0.305923 0.169776,-0.128434 0.137804,-0.10528 0.358289,-0.144972 0.383094,-0.0463 0.8499747,0.0088 2.3117977,0.02481 0.196232,0.0039 0.3318312,0.05126 0.3048225,0.142214 0.075517,0.0667 0.1763889,0.155442 0.5385364,0.630589 0.2293056,0.268994 0.3555322,0.416168 0.1036292,0.121819 0.024254,0.02811 0.2430865,0.210563 0.519794,0.186862 c 0.2516152,0.130971 0.3909483,-0.295664 0.1598535,-0.363801 l -0.468534,-0.1582 -0.1537885,-0.133392 -0.3241125,-0.37979 -0.2568673,-0.300961 c 0,0 -0.4323249,-0.589698 -0.8543826,-1.079833 -0.2722993,-0.272297 -0.6879194,-0.332935 -0.6879166,-0.332932 l -2.719146,-0.01323 z m 41.3659483,0 -2.719146,0.01323 c 0,-3e-6 -0.41562,0.06064 -0.687916,0.332932 -0.422061,0.490135 -0.854936,1.079833 -0.854936,1.079833 l -0.256314,0.300961 -0.324666,0.37979 -0.153238,0.133392 -0.468534,0.1582 c -0.231095,0.06814 -0.09176,0.494772 0.159853,0.363801 l 0.519244,-0.186862 0.243637,-0.210563 0.0237,-0.02811 0.104179,-0.121819 0.355535,-0.416168 0.229306,-0.268994 0.538536,-0.630589 0.176389,-0.155442 0.07552,-0.0667 0.304823,-0.142214 0.331831,-0.05126 0.195681,-0.0039 2.312349,-0.02481 0.849421,-0.0088 0.383647,0.0463 0.357736,0.144972 0.138357,0.10528 0.169223,0.128434 0.236471,0.305923 0.148277,0.356639 0.02866,0.107487 0.378686,1.413315 0.228202,0.852179 0.03969,0.303719 0.01047,0.07938 -0.05182,0.383094 -0.149377,0.355535 -0.237575,0.304823 -0.0441,0.03307 -0.174185,0.131191 -0.0904,0.0678 -2.221396,1.25126 -0.704455,0.3963218 -0.313642,0.1218184 -0.334586,0.028665 -0.329627,-0.066147 -0.630039,-0.2232406 -1.186216,-0.4200285 -0.316397,-0.061183 -0.319707,0.035828 -0.32742,0.089298 c -0.242939,0.042522 -0.09474,0.4189419 0.07607,0.3830941 l 0.354431,-0.090399 0.201744,-0.02205 0.19954,0.038035 1.318508,0.4668774 0.463572,0.1642646 0.03473,0.012124 0.04355,0.00937 0.395221,0.079375 0.446484,-0.038585 0.105283,-0.04079 0.312538,-0.1212681 0.510428,-0.287734 2.312345,-1.3014191 0.103079,-0.05843 0.391913,-0.294349 0.194028,-0.248598 0.107487,-0.138354 0.19017,-0.451445 0.06559,-0.486173 -0.01047,-0.08048 -0.05292,-0.405694 -0.201193,-0.750203 -0.43491,-1.623329 -0.187963,-0.452549 -0.164815,-0.21332 -0.01764,-0.0226 -0.117407,-0.152137 -0.390813,-0.296554 -0.4542,-0.183554 -0.486723,-0.05953 -0.227102,0.0028 -0.574917,-0.043 -0.04354,-0.0028 -0.105834,-0.0083 z M -3.1542245,11.790593 c -0.044354,-0.005 -0.090492,0.0054 -0.131191,0.03748 l -0.2133205,0.265686 -0.1521347,0.135047 -0.1852083,0.08379 -1.5202519,0.428845 -0.3345857,0.09426 -0.4095552,0.181351 -0.3423045,0.289388 -0.2469445,0.373174 -0.015985,0.03307 -0.2590715,0.546806 -0.050159,0.106383 -0.6537423,1.378038 -0.442626,0.93376 -0.017086,0.03638 -0.1499305,0.46688 -0.0226,0.490031 0.035828,0.162608 0.070005,0.315846 0.2265482,0.434907 0.3004142,0.324666 0.03197,0.03528 0.055121,0.0452 1.8344443,1.525214 0.3902597,0.245841 0.024805,0.01544 0.468534,0.144418 0.4900309,0.01654 0.023701,-0.0061 0.148827,-0.03528 0.3048226,-0.07111 0.4316024,-0.233163 0.4194753,-0.303169 1.4166228,-1.024709 0.4558538,-0.274504 c 0.45688315,-0.331608 0.91719315,-0.683892 1.00651935,-1.046733 0.1361468,-0.3676 0.1956815,-1.484975 0.1956815,-1.484975 l -0.012127,-0.208909 0.062286,-0.680201 0.011577,-0.04685 0.036932,-0.150481 0.105283,-0.174185 0.3533281,-0.422233 c 0.099159,-0.149133 -0.1745039,-0.395425 -0.310885,-0.253007 l -0.3461652,0.423333 -0.1659157,0.275607 -0.074413,0.301515 -0.00275,0.01047 -0.105283,1.145427 -0.070556,0.773904 -0.077721,0.326873 -0.03142,0.05512 -0.1344958,0.235368 -5.531e-4,0.0011 -0.2414299,0.233714 -0.94809155,0.685162 -1.1217232,0.811389 -0.6515353,0.471288 -0.33955,0.183005 -0.1648121,0.03858 -0.2116667,0.04961 -0.3858513,-0.01323 -0.3693132,-0.112999 -0.1890663,-0.119062 -0.1378063,-0.08654 -1.4695394,-1.221495 -0.4194753,-0.34947 -0.2623764,-0.283876 -0.023151,-0.0441 -0.1554451,-0.298207 -0.039686,-0.1808 -0.043547,-0.196783 0.018192,-0.385301 0.1179576,-0.368209 0.097567,-0.205605 0.00496,-0.01102 1.0908538,-2.300772 0.2447402,-0.516489 0.1857587,-0.280569 0.2568673,-0.216628 0.3070267,-0.136149 0.2271014,-0.06394 1.6271859,-0.459162 0.2932458,-0.132842 0.2408823,-0.213871 0.208359,-0.277263 c 0.083394,-0.110276 -0.035066,-0.262699 -0.1681224,-0.277803 z m 27.9262165,0 c -0.133059,0.0151 -0.251519,0.167527 -0.168122,0.277811 l 0.208362,0.277263 0.240329,0.213871 0.293246,0.132842 1.627739,0.459162 0.227101,0.06394 0.307027,0.136149 0.256864,0.216628 0.185209,0.280569 0.24529,0.516489 1.090306,2.300772 0.0055,0.01102 0.09756,0.205605 0.117961,0.368209 0.01819,0.385301 -0.04354,0.196783 -0.03969,0.1808 -0.155993,0.298207 -0.02315,0.0441 -0.261826,0.283876 -0.420026,0.34947 -1.468989,1.221495 -0.137803,0.08654 -0.18962,0.119062 -0.368763,0.112999 -0.386401,0.01323 -0.211114,-0.04961 -0.164815,-0.03858 -0.3401,-0.183005 -0.650985,-0.471288 -1.121723,-0.811389 -0.948089,-0.685162 -0.241433,-0.233714 -0.0011,-0.0011 -0.133946,-0.235368 -0.03142,-0.05512 -0.07772,-0.326873 -0.07111,-0.773904 -0.10473,-1.145427 -0.0028,-0.01047 -0.07441,-0.301515 -0.166466,-0.275607 -0.346165,-0.423333 c -0.136381,-0.142418 -0.410044,0.103874 -0.310885,0.253006 l 0.353881,0.422233 0.10473,0.174185 0.03693,0.150481 0.01158,0.04685 0.06284,0.680201 -0.01213,0.208909 c 3e-6,0 0.05898,1.117375 0.195131,1.484975 0.08933,0.362841 0.550187,0.715125 1.007071,1.046759 l 0.455853,0.274504 1.416626,1.024709 0.419473,0.303169 0.431602,0.233163 0.304823,0.07111 0.148827,0.03528 0.0237,0.0061 0.490031,-0.01654 0.468532,-0.144418 0.0248,-0.01544 0.390263,-0.245841 1.834444,-1.525214 0.05457,-0.0452 0.03252,-0.03528 0.299861,-0.324666 0.227101,-0.434907 0.07,-0.315846 0.03583,-0.162608 -0.0226,-0.490031 -0.14993,-0.46688 -0.01764,-0.03638 -0.442626,-0.93376 -0.653189,-1.378038 -0.05016,-0.106383 -0.259071,-0.546806 -0.01599,-0.03307 -0.246945,-0.373174 -0.342304,-0.289388 -0.409552,-0.181351 -0.334589,-0.09426 -1.520252,-0.428845 -0.185208,-0.08379 -0.152135,-0.135047 -0.213871,-0.265686 c -0.0407,-0.03205 -0.08629,-0.04252 -0.130638,-0.03748 z"
       id="path11649"
       inkscape:connector-curvature="0" />
  </g>
</svg>
