<?xml version="1.0" encoding="UTF-8" standalone="no"?>
<svg
   xmlns:dc="http://purl.org/dc/elements/1.1/"
   xmlns:cc="http://creativecommons.org/ns#"
   xmlns:rdf="http://www.w3.org/1999/02/22-rdf-syntax-ns#"
   xmlns:svg="http://www.w3.org/2000/svg"
   xmlns="http://www.w3.org/2000/svg"
   xmlns:xlink="http://www.w3.org/1999/xlink"
   xmlns:sodipodi="http://sodipodi.sourceforge.net/DTD/sodipodi-0.dtd"
   xmlns:inkscape="http://www.inkscape.org/namespaces/inkscape"
   width="195.33376mm"
   height="168.90645mm"
   viewBox="-86.649002 -73.434998 195.33375 168.90643"
   version="1.1"
   id="svg2"
   inkscape:version="0.91 r13725"
   sodipodi:docname="diatone-et-160-bumpers-base.svg"
   enable-background="new">
  <metadata
     id="metadata14">
    <rdf:RDF>
      <cc:Work
         rdf:about="">
        <dc:format>image/svg+xml</dc:format>
        <dc:type
           rdf:resource="http://purl.org/dc/dcmitype/StillImage" />
        <dc:title>Daring Densor-Wolt</dc:title>
      </cc:Work>
    </rdf:RDF>
  </metadata>
  <defs
     id="defs12">
    <inkscape:perspective
       sodipodi:type="inkscape:persp3d"
       inkscape:vp_x="0 : 84.453215 : 1"
       inkscape:vp_y="0 : 1000 : 0"
       inkscape:vp_z="195.33375 : 84.453215 : 1"
       inkscape:persp3d-origin="97.666875 : 56.302143 : 1"
       id="perspective4193" />
  </defs>
  <sodipodi:namedview
     pagecolor="#ffffff"
     bordercolor="#666666"
     borderopacity="1"
     objecttolerance="10"
     gridtolerance="10"
     guidetolerance="10"
     inkscape:pageopacity="0"
     inkscape:pageshadow="2"
     inkscape:window-width="1366"
     inkscape:window-height="704"
     id="namedview10"
     showgrid="false"
     units="mm"
     fit-margin-top="12"
     fit-margin-left="12"
     fit-margin-right="12"
     fit-margin-bottom="12"
     inkscape:snap-bbox="true"
     inkscape:bbox-paths="true"
     inkscape:bbox-nodes="true"
     inkscape:snap-bbox-midpoints="true"
     inkscape:snap-bbox-edge-midpoints="true"
     inkscape:object-paths="true"
     inkscape:snap-intersection-paths="true"
     inkscape:object-nodes="true"
     inkscape:snap-smooth-nodes="true"
     inkscape:snap-midpoints="true"
     inkscape:snap-object-midpoints="true"
     inkscape:snap-center="true"
     inkscape:snap-global="false"
     inkscape:zoom="2.9347909"
     inkscape:cx="343.41526"
     inkscape:cy="322.25258"
     inkscape:window-x="0"
     inkscape:window-y="27"
     inkscape:window-maximized="1"
     inkscape:current-layer="layer3" />
  <title
     id="title4">Daring Densor-Wolt</title>
  <desc
     id="desc6"> made with tinkercad </desc>
  <g
     inkscape:groupmode="layer"
     id="layer1"
     inkscape:label="stl"
     transform="translate(28.46794,31.169428)"
     style="display:none"
     sodipodi:insensitive="true">
    <path
       inkscape:connector-curvature="0"
       id="path4195"
       d="m -33.631271,-10.852782 c -0.1859,-0.097 -0.81404,-0.5772 -1.39587,-1.06716 -1.54645,-1.30225 -1.5569,-1.36944 -0.55316,-3.55673 0.43372,-0.94514 0.93112,-1.86344 1.10533,-2.04067 0.21712,-0.22089 0.65031,-0.41036 1.37736,-0.60243 0.58334,-0.1541 1.17542,-0.37236 1.31574,-0.48502 0.40045,-0.32152 6.18938,-7.36165 6.41831,-7.80554 0.1816,-0.35212 0.20499,-1.03553 0.20499,-5.9904 l 0,-5.59294 -0.34154,-0.38195 c -0.34955,-0.39092 -1.04833,-0.60293 -7.96864,-2.41757 l -1.16904,-0.30654 -1.12855,0.38842 c -0.6207,0.21362 -1.27641,0.38458 -1.45712,0.3799 -0.50776,-0.0131 -3.6951,-1.87668 -3.9054,-2.28335 -0.25548,-0.49405 -0.20853,-0.99673 0.23538,-2.52022 0.55162,-1.89314 0.60827,-1.92876 3.06697,-1.92876 1.0043,0 1.99115,0.0576 2.193,0.12793 0.21057,0.0734 0.69637,0.51959 1.1398,1.04684 0.90916,1.08102 0.42253,0.8878 5.95508,2.36438 2.34063,0.62469 4.11247,1.03739 4.25694,0.99154 0.13612,-0.0432 0.32539,-0.20006 0.42061,-0.34857 0.0952,-0.14851 0.54387,-1.63925 0.99699,-3.31276 1.11101,-4.10322 1.00162,-3.81582 1.56116,-4.10128 0.44224,-0.22561 0.73872,-0.24551 3.65808,-0.24551 2.91936,0 3.21585,0.0199 3.65809,0.24551 0.55954,0.28546 0.45014,-0.002 1.561155,4.10128 0.453125,1.67351 0.901782,3.16425 0.996995,3.31276 0.09522,0.14851 0.284491,0.30536 0.420604,0.34857 0.144468,0.0459 1.9163155,-0.36685 4.2569465,-0.99154 5.532547,-1.47658 5.045913,-1.28336 5.95507095,-2.36438 0.443431,-0.52725 0.929237,-0.97343 1.139806,-1.04684 0.201847,-0.0704 1.18869405,-0.12793 2.19300105,-0.12793 2.458703,0 2.51535,0.0356 3.066961,1.92876 0.444308,1.52484 0.490903,2.0261 0.234416,2.52208 -0.212719,0.41136 -3.385519,2.26801 -3.898508,2.28133 -0.183966,0.005 -0.84234,-0.16612 -1.46303905,-0.37974 l -1.128552,-0.38842 -1.16903695,0.30597 c -6.668776,1.74543 -7.621637,2.03487 -7.968645,2.42053 l -0.3415375,0.37956 0,5.59294 c 0,4.95407 0.02341,5.63833 0.2049225,5.9904 0.227144,0.44057 6.017269,7.48051 6.419816,7.80554 0.139522,0.11266 0.730958,0.33092 1.314302,0.48502 0.727047,0.19207 1.160236,0.38154 1.37735995,0.60243 0.174209,0.17723 0.671611,1.09553 1.105326,2.04067 1.01930405,2.2212 1.01381605,2.24996 -0.700659,3.67582 -1.25299595,1.04206 -1.78254495,1.27447 -2.33273795,1.02378 -0.504428,-0.22983 -3.270896,-2.27852 -3.362947,-2.4904 -0.04823,-0.111 -0.156567,-0.77679 -0.240756,-1.47954 -0.08936,-0.74583 -0.229422,-1.36623 -0.33647,-1.49033 -0.10086,-0.11693 -1.426409,-1.72156 -2.945664,-3.56584 -1.5192555,-1.84427 -2.8996495,-3.47898 -3.0675395,-3.63267 -0.44505,-0.4074 -0.82451,-0.34712 -1.7337,0.27542 -0.44569,0.30517 -0.99078,0.5887 -1.21132,0.63008 -0.22054,0.0414 -1.27012,0.0572 -2.3324,0.0351 l -1.93141,-0.0402 -0.88658,-0.58992 c -0.98862,-0.65781 -1.35412,-0.72082 -1.80104,-0.31049 -0.16739,0.15369 -1.54761,1.7884 -3.06714,3.63267 -1.51954,1.84428 -2.84549,3.44891 -2.94658,3.56584 -0.10759,0.12446 -0.24724,0.7423 -0.33686,1.49033 -0.0842,0.70275 -0.19237,1.36813 -0.2404,1.47864 -0.0772,0.1776 -1.61108,1.34551 -2.97821,2.26763 -0.54159,0.3653 -0.97013,0.40845 -1.46946,0.14796 z"
       style="color:#000000;clip-rule:nonzero;display:inline;overflow:visible;visibility:visible;opacity:1;isolation:auto;mix-blend-mode:normal;color-interpolation:sRGB;color-interpolation-filters:linearRGB;solid-color:#000000;solid-opacity:1;fill:#bfbfbf;fill-opacity:1;fill-rule:evenodd;stroke:none;stroke-width:1;stroke-linecap:butt;stroke-linejoin:round;stroke-miterlimit:4;stroke-dasharray:none;stroke-dashoffset:8.05119991;stroke-opacity:1;marker:none;color-rendering:auto;image-rendering:auto;shape-rendering:auto;text-rendering:auto;enable-background:accumulate" />
  </g>
  <g
     inkscape:groupmode="layer"
     id="layer2"
     inkscape:label="design"
     transform="translate(28.46794,31.169428)"
     style="display:none;opacity:1"
     sodipodi:insensitive="true">
    <g
       id="g4226"
       transform="matrix(0.28222208,0,0,0.28222208,-12.716741,-24.964192)">
      <ellipse
         ry="50.535061"
         rx="50.535057"
         cy="-67.413826"
         cx="-88.919182"
         id="path4214"
         style="color:#000000;clip-rule:nonzero;display:inline;overflow:visible;visibility:visible;opacity:1;isolation:auto;mix-blend-mode:normal;color-interpolation:sRGB;color-interpolation-filters:linearRGB;solid-color:#000000;solid-opacity:1;fill:none;fill-opacity:1;fill-rule:evenodd;stroke:#6699ff;stroke-width:0.52987552;stroke-linecap:butt;stroke-linejoin:round;stroke-miterlimit:4;stroke-dasharray:none;stroke-dashoffset:8.05119991;stroke-opacity:1;marker:none;color-rendering:auto;image-rendering:auto;shape-rendering:auto;text-rendering:auto;enable-background:accumulate" />
      <ellipse
         ry="3.3554351"
         rx="3.3554349"
         cy="-67.413826"
         cx="-88.919182"
         id="path4216"
         style="color:#000000;clip-rule:nonzero;display:inline;overflow:visible;visibility:visible;opacity:1;isolation:auto;mix-blend-mode:normal;color-interpolation:sRGB;color-interpolation-filters:linearRGB;solid-color:#000000;solid-opacity:1;fill:none;fill-opacity:1;fill-rule:evenodd;stroke:#6699ff;stroke-width:0.28222221;stroke-linecap:butt;stroke-linejoin:round;stroke-miterlimit:4;stroke-dasharray:none;stroke-dashoffset:8.05119991;stroke-opacity:1;marker:none;color-rendering:auto;image-rendering:auto;shape-rendering:auto;text-rendering:auto;enable-background:accumulate" />
    </g>
    <g
       id="g4222"
       transform="matrix(0.28222208,0,0,0.28222208,-12.716741,-24.964192)">
      <ellipse
         style="color:#000000;clip-rule:nonzero;display:inline;overflow:visible;visibility:visible;opacity:1;isolation:auto;mix-blend-mode:normal;color-interpolation:sRGB;color-interpolation-filters:linearRGB;solid-color:#000000;solid-opacity:1;fill:none;fill-opacity:1;fill-rule:evenodd;stroke:#6699ff;stroke-width:0.52987552;stroke-linecap:butt;stroke-linejoin:round;stroke-miterlimit:4;stroke-dasharray:none;stroke-dashoffset:8.05119991;stroke-opacity:1;marker:none;color-rendering:auto;image-rendering:auto;shape-rendering:auto;text-rendering:auto;enable-background:accumulate"
         id="ellipse4218"
         cx="53.995277"
         cy="-67.413826"
         rx="50.535057"
         ry="50.535061" />
      <ellipse
         style="color:#000000;clip-rule:nonzero;display:inline;overflow:visible;visibility:visible;opacity:1;isolation:auto;mix-blend-mode:normal;color-interpolation:sRGB;color-interpolation-filters:linearRGB;solid-color:#000000;solid-opacity:1;fill:none;fill-opacity:1;fill-rule:evenodd;stroke:#6699ff;stroke-width:0.28222221;stroke-linecap:butt;stroke-linejoin:round;stroke-miterlimit:4;stroke-dasharray:none;stroke-dashoffset:8.05119991;stroke-opacity:1;marker:none;color-rendering:auto;image-rendering:auto;shape-rendering:auto;text-rendering:auto;enable-background:accumulate"
         id="ellipse4220"
         cx="53.995277"
         cy="-67.413826"
         rx="3.3554349"
         ry="3.3554351" />
    </g>
    <g
       id="g4230"
       transform="matrix(0.28222208,0,0,0.28222208,-7.6677835,4.7294879)">
      <ellipse
         style="color:#000000;clip-rule:nonzero;display:inline;overflow:visible;visibility:visible;opacity:1;isolation:auto;mix-blend-mode:normal;color-interpolation:sRGB;color-interpolation-filters:linearRGB;solid-color:#000000;solid-opacity:1;fill:none;fill-opacity:1;fill-rule:evenodd;stroke:#6699ff;stroke-width:0.52987552;stroke-linecap:butt;stroke-linejoin:round;stroke-miterlimit:4;stroke-dasharray:none;stroke-dashoffset:8.05119991;stroke-opacity:1;marker:none;color-rendering:auto;image-rendering:auto;shape-rendering:auto;text-rendering:auto;enable-background:accumulate"
         id="ellipse4232"
         cx="-88.919182"
         cy="-67.413826"
         rx="50.535057"
         ry="50.535061" />
      <ellipse
         style="color:#000000;clip-rule:nonzero;display:inline;overflow:visible;visibility:visible;opacity:1;isolation:auto;mix-blend-mode:normal;color-interpolation:sRGB;color-interpolation-filters:linearRGB;solid-color:#000000;solid-opacity:1;fill:none;fill-opacity:1;fill-rule:evenodd;stroke:#6699ff;stroke-width:0.28222221;stroke-linecap:butt;stroke-linejoin:round;stroke-miterlimit:4;stroke-dasharray:none;stroke-dashoffset:8.05119991;stroke-opacity:1;marker:none;color-rendering:auto;image-rendering:auto;shape-rendering:auto;text-rendering:auto;enable-background:accumulate"
         id="ellipse4234"
         cx="-88.919182"
         cy="-67.413826"
         rx="3.3554349"
         ry="3.3554351" />
    </g>
    <g
       id="g4236"
       transform="matrix(0.28222208,0,0,0.28222208,-17.756601,4.7294879)">
      <ellipse
         ry="50.535061"
         rx="50.535057"
         cy="-67.413826"
         cx="53.995277"
         id="ellipse4238"
         style="color:#000000;clip-rule:nonzero;display:inline;overflow:visible;visibility:visible;opacity:1;isolation:auto;mix-blend-mode:normal;color-interpolation:sRGB;color-interpolation-filters:linearRGB;solid-color:#000000;solid-opacity:1;fill:none;fill-opacity:1;fill-rule:evenodd;stroke:#6699ff;stroke-width:0.52987552;stroke-linecap:butt;stroke-linejoin:round;stroke-miterlimit:4;stroke-dasharray:none;stroke-dashoffset:8.05119991;stroke-opacity:1;marker:none;color-rendering:auto;image-rendering:auto;shape-rendering:auto;text-rendering:auto;enable-background:accumulate" />
      <ellipse
         ry="3.3554351"
         rx="3.3554349"
         cy="-67.413826"
         cx="53.995277"
         id="ellipse4240"
         style="color:#000000;clip-rule:nonzero;display:inline;overflow:visible;visibility:visible;opacity:1;isolation:auto;mix-blend-mode:normal;color-interpolation:sRGB;color-interpolation-filters:linearRGB;solid-color:#000000;solid-opacity:1;fill:none;fill-opacity:1;fill-rule:evenodd;stroke:#6699ff;stroke-width:0.28222221;stroke-linecap:butt;stroke-linejoin:round;stroke-miterlimit:4;stroke-dasharray:none;stroke-dashoffset:8.05119991;stroke-opacity:1;marker:none;color-rendering:auto;image-rendering:auto;shape-rendering:auto;text-rendering:auto;enable-background:accumulate" />
    </g>
    <g
       id="g4185"
       style="fill:#003399;stroke:none;stroke-width:0.99999994;stroke-miterlimit:4;stroke-dasharray:none"
       transform="matrix(0.28222208,0,0,0.28222208,-12.716741,23.621898)">
      <path
         sodipodi:nodetypes="cscccccc"
         inkscape:connector-curvature="0"
         id="path4242"
         d="m -17.395525,-90.079104 -6.943174,0.08728 c -8.117717,0.102045 -7.680198,-0.128106 -8.907245,4.451289 l -4.402656,15.673763 c 0.78801,10.553551 -2.572325,21.028825 -6.53737,27.602738 3.634963,2.054765 0.08503,7.473103 0.08503,36.2259656 4.959724,3.2752572 9.901422,7.4043406 12.093772,10.597866 2.688318,-2.1715712 2.652434,3.9817099 14.597265,3.9817099"
         style="fill:#003399;fill-opacity:0.50867052;fill-rule:evenodd;stroke:none;stroke-width:0.99999994;stroke-linecap:butt;stroke-linejoin:miter;stroke-miterlimit:4;stroke-dasharray:none;stroke-opacity:1" />
      <ellipse
         ry="2.0083032"
         rx="2.0083029"
         style="color:#000000;clip-rule:nonzero;display:inline;overflow:visible;visibility:visible;opacity:1;isolation:auto;mix-blend-mode:normal;color-interpolation:sRGB;color-interpolation-filters:linearRGB;solid-color:#000000;solid-opacity:1;fill:#003399;fill-opacity:1;fill-rule:evenodd;stroke:none;stroke-width:0.99999994;stroke-linecap:butt;stroke-linejoin:round;stroke-miterlimit:4;stroke-dasharray:none;stroke-dashoffset:8.05119991;stroke-opacity:1;marker:none;color-rendering:auto;image-rendering:auto;shape-rendering:auto;text-rendering:auto;enable-background:accumulate"
         id="ellipse4206"
         cx="-40.461609"
         cy="-43.680611" />
      <use
         height="100%"
         width="100%"
         transform="translate(10.106544,-42.825564)"
         id="use4181"
         xlink:href="#ellipse4206"
         y="0"
         x="0"
         style="fill:#003399;stroke:none;stroke-width:0.99999994;stroke-miterlimit:4;stroke-dasharray:none" />
      <use
         height="100%"
         width="100%"
         transform="translate(7.0719134,42.774504)"
         id="use4183"
         xlink:href="#ellipse4206"
         y="0"
         x="0"
         style="fill:#003399;stroke:none;stroke-width:0.99999994;stroke-miterlimit:4;stroke-dasharray:none" />
      <path
         sodipodi:type="inkscape:offset"
         inkscape:radius="-2.6936336"
         inkscape:original="M -17.396484 -90.080078 L -24.337891 -89.992188 C -32.455608 -89.890142 -32.019047 -90.120411 -33.246094 -85.541016 L -37.648438 -69.867188 C -36.860428 -59.313637 -40.220502 -48.837585 -44.185547 -42.263672 C -40.550584 -40.208907 -44.101562 -34.789972 -44.101562 -6.0371094 C -39.141838 -2.7618522 -34.200163 1.3670215 -32.007812 4.5605469 C -29.319495 2.3889757 -29.354987 8.5410156 -17.410156 8.5410156 L -17.396484 -90.080078 z "
         style="fill:#ffcc00;fill-opacity:0.50867052;fill-rule:evenodd;stroke:none;stroke-width:0.99999994;stroke-linecap:butt;stroke-linejoin:miter;stroke-miterlimit:4;stroke-dasharray:none;stroke-opacity:1"
         id="path4212"
         d="m -20.089844,-87.351562 -4.214844,0.05273 c -3.972259,0.04993 -5.738315,0.306905 -5.708984,0.255859 -0.122803,0.315491 -0.326329,1.062698 -0.630859,2.199219 a 2.6939029,2.6939029 0 0 1 -0.0078,0.03125 l -4.320312,15.380859 c 0.610478,10.149376 -2.245998,19.799281 -5.97461,26.707032 0.504004,0.788618 0.849498,1.687839 0.97461,2.5625 0.249456,1.743955 0.09615,3.589676 -0.123047,6.222656 -0.421738,5.065913 -1.213367,13.289354 -1.275391,26.5859374 4.010075,2.7501683 7.798693,5.8095933 10.335938,8.8691406 0.721257,-0.00124 1.454848,0.093787 1.935547,0.3261719 1.180632,0.5707542 1.692482,1.1516126 2.457031,1.6835937 1.239287,0.8623093 3.015316,1.8159433 6.539062,2.1601563 l 0.01367,-93.0371089 z" />
    </g>
    <use
       x="0"
       y="0"
       xlink:href="#g4185"
       id="use4191"
       transform="matrix(-1,0,0,1,-35.285201,2.0532098e-6)"
       width="100%"
       height="100%" />
    <path
       inkscape:connector-curvature="0"
       style="fill:#003399;fill-opacity:0.50867052;fill-rule:evenodd;stroke:none;stroke-width:0.99999994;stroke-linecap:butt;stroke-linejoin:miter;stroke-miterlimit:4;stroke-dasharray:none;stroke-opacity:1"
       d="m -17.658041,-50.362842 0,5.6e-4 -1.92668,0.0243 c -1.36013,0.0171 -1.86914,10e-4 -2.13077,0.25591 -0.17906,0.17427 -0.2423,0.47516 -0.383,1.00028 l -1.2425,4.4235 c 0.22239,2.97845 -0.72598,5.93478 -1.845,7.79008 0.3847,0.21747 0.48429,0.56849 0.45845,1.35016 -0.009,0.26055 -0.0312,0.56891 -0.0618,0.93619 -0.0459,0.55091 -0.10966,1.23425 -0.17159,2.08722 -0.10323,1.42161 -0.20115,3.31434 -0.20115,5.85018 0,0 1.6e-4,0 1.6e-4,0 0.17493,0.11552 0.34974,0.23496 0.52301,0.35702 0,0 1.6e-4,0 1.6e-4,0 0.0866,0.061 0.17275,0.12268 0.25839,0.18497 0,0 1.6e-4,0 1.6e-4,0 0.0856,0.0623 0.17069,0.12524 0.25497,0.18855 0,0 1.6e-4,0 1.6e-4,0 0.0843,0.0633 0.16776,0.12711 0.25031,0.19119 0,0 1.6e-4,0 1.6e-4,0 0.16513,0.12818 0.3263,0.25787 0.48225,0.38766 0,0 1.6e-4,0 1.6e-4,0 0.078,0.0649 0.15452,0.12985 0.22961,0.19477 0,0 1.6e-4,0 1.6e-4,0 0.0751,0.0649 0.14858,0.12991 0.22044,0.19461 0,0 1.6e-4,0 1.6e-4,0 0.0719,0.0647 0.14192,0.12928 0.21017,0.19353 0,0 1.5e-4,0 1.5e-4,0 0.40959,0.3856 0.7507,0.7608 0.98271,1.09876 0.75678,-0.61131 0.74936,1.1144 4.09479,1.12318 l 0,5.6e-4 c 0.004,0 0.008,-1.6e-4 0.0124,-1.6e-4 0.004,10e-6 0.008,1.6e-4 0.0125,1.6e-4 l 0,-5.6e-4 c 1.8818,-0.005 2.70279,-0.55305 3.19562,-0.92297 0.38331,-0.28772 0.56807,-0.46766 0.89916,-0.20021 0.61873,-0.90129 2.013358,-2.06671 3.413102,-2.99106 0,0 1.59e-4,0 1.59e-4,0 0,-2.53584 -0.09792,-4.42857 -0.201146,-5.85018 -0.06194,-0.85297 -0.125746,-1.53631 -0.171588,-2.08722 -0.03056,-0.36728 -0.05315,-0.67564 -0.06176,-0.93619 -0.02581,-0.78167 0.07375,-1.13269 0.458451,-1.35016 -1.119023,-1.8553 -2.067396,-4.81163 -1.845002,-7.79008 l -1.242496,-4.4235 c -0.14071,-0.52512 -0.20395,-0.82601 -0.383,-1.00028 -0.0138,-0.0134 -0.0281,-0.0262 -0.0433,-0.0381 0,0 -1.6e-4,0 -1.6e-4,0 -0.0152,-0.0119 -0.0311,-0.0232 -0.0479,-0.0337 0,0 -1.5e-4,0 -1.5e-4,0 -0.0168,-0.0106 -0.0346,-0.0204 -0.0532,-0.0297 0,0 -1.6e-4,0 -1.6e-4,0 -0.0186,-0.009 -0.0382,-0.018 -0.0588,-0.0261 0,0 -1.6e-4,0 -1.6e-4,0 -0.0206,-0.008 -0.0422,-0.0157 -0.065,-0.0227 0,0 -1.5e-4,0 -1.5e-4,0 -0.0228,-0.007 -0.0466,-0.0135 -0.0717,-0.0194 0,0 -1.6e-4,0 -1.6e-4,0 -0.0251,-0.006 -0.0514,-0.0116 -0.079,-0.0167 0,0 -1.6e-4,0 -1.6e-4,0 -0.0553,-0.0102 -0.11591,-0.0185 -0.18232,-0.0255 0,0 -1.6e-4,0 -1.6e-4,0 -0.0664,-0.007 -0.1387,-0.0126 -0.21763,-0.0171 0,0 -1.6e-4,0 -1.6e-4,0 -0.079,-0.005 -0.16459,-0.008 -0.25746,-0.0109 0,0 -1.6e-4,0 -1.6e-4,0 -0.0929,-0.003 -0.19312,-0.005 -0.30133,-0.007 0,0 -1.6e-4,0 -1.6e-4,0 -0.21651,-0.003 -0.46508,-0.006 -0.75138,-0.009 l -1.6e-4,0 -1.92652,-0.0243 0,-5.6e-4 -0.0165,1.6e-4 -0.0165,-1.6e-4 z m -3.62452,0.44165 a 0.56678743,0.56678751 0 0 1 0.56673,0.56672 0.56678743,0.56678751 0 0 1 -0.56673,0.56688 0.56678743,0.56678751 0 0 1 -0.56688,-0.56688 0.56678743,0.56678751 0 0 1 0.56688,-0.56672 z m 7.28201,0 a 0.56678743,0.56678751 0 0 1 0.56672,0.56672 0.56678743,0.56678751 0 0 1 -0.56672,0.56688 0.56678743,0.56678751 0 0 1 -0.56688,-0.56688 0.56678743,0.56678751 0 0 1 0.56688,-0.56672 z m -4.38492,0.32824 1.48783,0 1.18945,0.0148 1.6e-4,0 c 0.004,4e-5 0.007,8e-5 0.0101,1.6e-4 0.1396,0.002 0.26899,0.005 0.38938,0.008 0.0654,0.002 0.12184,0.004 0.1817,0.006 0.0522,0.002 0.10772,0.004 0.15572,0.006 0.0123,5.7e-4 0.0186,10e-4 0.0306,0.002 -0.0615,0.51044 0.1459,1.22239 1.16565,1.18525 l 1.07744,3.83561 c -0.008,0.13125 -0.0131,0.26206 -0.017,0.39265 -8.2e-4,0.0276 -0.002,0.0552 -0.002,0.0828 -0.003,0.12755 -0.004,0.25466 -0.003,0.38145 8e-5,0.0189 3.9e-4,0.0377 6.5e-4,0.0566 10e-4,0.12527 0.004,0.25021 0.009,0.37461 4e-4,0.0105 6.5e-4,0.0211 10e-4,0.0316 0.005,0.12818 0.0126,0.25574 0.0213,0.38285 0.002,0.0249 0.003,0.0497 0.005,0.0745 0.009,0.12403 0.0198,0.24751 0.0322,0.3704 0.002,0.0208 0.004,0.0416 0.007,0.0624 0.0121,0.11463 0.0255,0.22872 0.0403,0.34224 0.002,0.0176 0.004,0.0353 0.007,0.0529 0.0162,0.12102 0.0342,0.24129 0.0534,0.36092 0.004,0.0265 0.009,0.0529 0.0129,0.0793 0.0195,0.11754 0.0401,0.23444 0.0622,0.35049 0.004,0.0229 0.009,0.0455 0.0135,0.0683 0.0201,0.10247 0.0411,0.20434 0.06316,0.30554 0.0053,0.0243 0.01046,0.0487 0.01587,0.073 0.02569,0.11506 0.05276,0.22909 0.08089,0.3424 0.0053,0.0213 0.01066,0.0424 0.01602,0.0636 0.02935,0.11601 0.05956,0.23135 0.09132,0.34536 0.0405,0.14536 0.08324,0.28887 0.127408,0.43076 0.01181,0.0379 0.02434,0.0751 0.0364,0.11278 0.03331,0.10409 0.06723,0.20738 0.102362,0.30942 0.01612,0.0468 0.03267,0.093 0.04916,0.13939 0.03213,0.0904 0.06485,0.17988 0.09832,0.2685 0.01839,0.0487 0.03677,0.0973 0.05554,0.14546 0.03648,0.0936 0.07369,0.18575 0.11154,0.27721 0.01538,0.0372 0.03045,0.0749 0.04605,0.1117 0.0049,0.0116 0.0095,0.0237 0.01447,0.0353 -0.522888,0.0119 -1.059619,1.46439 0.26026,1.83614 -0.0704,0.49218 -0.02717,1.01309 0.03469,1.75617 0.04463,0.53615 0.103996,1.19757 0.161632,2.01286 0.09606,1.35883 0.187405,3.145 0.198346,5.49037 -0.52703,0.36144 -1.023284,0.71492 -1.511004,1.13236 -1.407824,-0.94569 -2.182044,0.73893 -1.405994,1.37068 -0.0509,-8e-5 -0.102,0.001 -0.15215,0.005 -0.15048,0.0105 -0.29245,0.0379 -0.3942,0.0871 -0.3332,0.16108 -0.47758,0.32496 -0.69335,0.4751 -0.34976,0.24336 -0.85099,0.51252 -1.84547,0.60966 l -1.4956,0 c -0.99448,-0.0971 -1.49572,-0.3663 -1.84547,-0.60966 -0.10785,-0.075 -0.19786,-0.15366 -0.30258,-0.2335 0,0 -1.6e-4,0 -1.6e-4,0 -0.0262,-0.02 -0.0532,-0.04 -0.0817,-0.0601 0,0 -1.6e-4,0 -1.6e-4,0 -0.0285,-0.0201 -0.0584,-0.0404 -0.0902,-0.0605 0,0 -1.6e-4,0 -1.6e-4,0 -0.0319,-0.0202 -0.0655,-0.0403 -0.10174,-0.0605 0,0 -1.6e-4,0 -1.6e-4,0 -0.0362,-0.0202 -0.0749,-0.0404 -0.11652,-0.0605 0,0 -1.6e-4,0 -1.6e-4,0 -0.0169,-0.008 -0.035,-0.0159 -0.054,-0.0229 0,0 -1.6e-4,0 -1.6e-4,0 -0.038,-0.014 -0.0798,-0.0256 -0.12445,-0.0351 0,0 -1.6e-4,0 -1.6e-4,0 -0.0223,-0.005 -0.0453,-0.009 -0.0688,-0.0128 0,0 -1.6e-4,0 -1.6e-4,0 -0.0941,-0.0149 -0.19675,-0.0215 -0.29853,-0.0213 0.77604,-0.63175 0.002,-2.31637 -1.406,-1.37068 -0.48772,-0.41743 -0.98397,-0.77091 -1.511,-1.13236 0.0109,-2.34537 0.10228,-4.13154 0.19834,-5.49037 0.0576,-0.81529 0.117,-1.47671 0.16163,-2.01285 0.0619,-0.74309 0.1051,-1.264 0.0347,-1.75618 1.31987,-0.37175 0.78314,-1.82419 0.26026,-1.83614 0.005,-0.0116 0.01,-0.0237 0.0145,-0.0353 0.0156,-0.0368 0.0307,-0.0745 0.0461,-0.11169 0.0378,-0.0915 0.0751,-0.18363 0.11154,-0.27722 0.0188,-0.0482 0.0371,-0.0968 0.0555,-0.14545 0.0335,-0.0886 0.0662,-0.17813 0.0983,-0.26851 0.0165,-0.0464 0.0331,-0.0926 0.0492,-0.13939 0.0351,-0.10203 0.0691,-0.20533 0.10237,-0.30942 0.0121,-0.0377 0.0246,-0.0748 0.0364,-0.11278 0.0442,-0.14189 0.0869,-0.2854 0.12741,-0.43076 0.0318,-0.11401 0.062,-0.22935 0.0913,-0.34536 0.005,-0.0212 0.0108,-0.0424 0.016,-0.0636 0.0281,-0.1133 0.0552,-0.22734 0.0809,-0.3424 0.005,-0.0242 0.0106,-0.0486 0.0159,-0.073 0.0221,-0.1012 0.0431,-0.20307 0.0632,-0.30553 0.004,-0.0228 0.009,-0.0454 0.0135,-0.0683 0.0222,-0.11606 0.0427,-0.23296 0.0622,-0.35049 0.004,-0.0264 0.009,-0.0529 0.0129,-0.0793 0.0191,-0.11962 0.0371,-0.23989 0.0534,-0.36091 0.002,-0.0176 0.004,-0.0353 0.007,-0.0529 0.0148,-0.11353 0.0282,-0.22761 0.0403,-0.34225 0.002,-0.0208 0.005,-0.0415 0.007,-0.0624 0.0124,-0.12289 0.023,-0.24637 0.0322,-0.3704 0.002,-0.0248 0.004,-0.0497 0.005,-0.0745 0.009,-0.12711 0.0161,-0.25467 0.0213,-0.38284 2.8e-4,-0.0105 8.4e-4,-0.0211 0.001,-0.0316 0.005,-0.12202 0.007,-0.24459 0.009,-0.36745 2.4e-4,-0.0233 5.6e-4,-0.0466 8.4e-4,-0.07 5.7e-4,-0.12472 -2.8e-4,-0.24977 -0.003,-0.37523 -5.6e-4,-0.0276 -0.001,-0.0552 -0.002,-0.0828 -0.004,-0.13059 -0.009,-0.2614 -0.017,-0.39264 l 1.07745,-3.83562 c 1.01974,0.0371 1.22716,-0.67481 1.16565,-1.18525 0.0121,-5.6e-4 0.0183,-10e-4 0.0306,-0.002 0.048,-0.002 0.10354,-0.004 0.15572,-0.006 0.0599,-0.002 0.11627,-0.004 0.1817,-0.006 0.12039,-0.003 0.24978,-0.006 0.38938,-0.008 0.004,-5e-5 0.006,-8e-5 0.0101,-1.6e-4 l 1.18961,-0.0148 z m -5.74937,11.75809 a 0.56678743,0.56678751 0 0 1 0.56672,0.56672 0.56678743,0.56678751 0 0 1 -0.56672,0.56688 0.56678743,0.56678751 0 0 1 -0.56688,-0.56688 0.56678743,0.56678751 0 0 1 0.56688,-0.56672 z m 12.986574,0 a 0.56678743,0.56678751 0 0 1 0.566724,0.56672 0.56678743,0.56678751 0 0 1 -0.566724,0.56688 0.56678743,0.56678751 0 0 1 -0.566879,-0.56688 0.56678743,0.56678751 0 0 1 0.566879,-0.56672 z m -10.990834,12.07186 a 0.56678743,0.56678751 0 0 1 0.56688,0.56688 0.56678743,0.56678751 0 0 1 -0.56688,0.56672 0.56678743,0.56678751 0 0 1 -0.56672,-0.56672 0.56678743,0.56678751 0 0 1 0.56672,-0.56688 z m 8.99493,0 a 0.56678743,0.56678751 0 0 1 0.56688,0.56688 0.56678743,0.56678751 0 0 1 -0.56688,0.56672 0.56678743,0.56678751 0 0 1 -0.56672,-0.56672 0.56678743,0.56678751 0 0 1 0.56672,-0.56688 z"
       id="path4242-6" />
    <path
       style="fill:#cc0000;fill-opacity:1;fill-rule:evenodd;stroke:none;stroke-width:0.99999994;stroke-linecap:butt;stroke-linejoin:miter;stroke-miterlimit:4;stroke-dasharray:none;stroke-opacity:1"
       d="m -17.658091,-50.362753 0,5.5e-4 -1.926497,0.02425 c -1.36013,0.0171 -1.869368,8.56e-4 -2.130998,0.255764 -0.17906,0.17427 -0.242394,0.475336 -0.383094,1.000455 l -1.242439,4.423504 c 0.06994,0.936743 0.02361,1.871093 -0.106936,2.769855 l 0.730911,0.172531 c 0.01078,-0.07141 0.02229,-0.142539 0.03197,-0.214421 0.002,-0.0176 0.0042,-0.03532 0.0072,-0.05292 0.0148,-0.113533 0.02814,-0.227666 0.04024,-0.342305 0.002,-0.0208 0.0052,-0.04139 0.0072,-0.06229 0.0124,-0.122888 0.02277,-0.246386 0.03197,-0.370417 0.002,-0.0248 0.004,-0.04962 0.005,-0.07441 0.009,-0.127111 0.0163,-0.254373 0.0215,-0.382544 2.8e-4,-0.0105 9.42e-4,-0.02147 0.0011,-0.03197 0.005,-0.122019 0.0068,-0.24425 0.0088,-0.367109 2.4e-4,-0.0233 8.22e-4,-0.0466 0.0011,-0.07001 5.7e-4,-0.124719 -5.87e-4,-0.249916 -0.0033,-0.375378 -5.6e-4,-0.0276 -0.0012,-0.05508 -0.0022,-0.08268 -0.004,-0.130589 -0.0085,-0.261778 -0.01654,-0.393017 l 1.077074,-3.835357 c 1.01974,0.0371 1.22733,-0.674672 1.16582,-1.185113 0.0121,-5.56e-4 0.01857,-0.0012 0.03087,-0.0022 0.048,-0.002 0.103263,-0.0041 0.155443,-0.0061 0.0599,-0.002 0.116471,-0.0041 0.181901,-0.0061 0.12039,-0.003 0.249558,-0.0057 0.389158,-0.0077 0.004,-5e-5 0.0058,-4.71e-4 0.0099,-5.5e-4 l 1.187317,-0.01433 0.0028,0 1.485525,0 1.188971,0.01433 5.51e-4,0 c 0.004,4e-5 0.0068,4.71e-4 0.0099,5.5e-4 0.1396,0.002 0.268768,0.0047 0.389158,0.0077 0.0654,0.002 0.122041,0.0041 0.181901,0.0061 0.0522,0.002 0.107994,0.0041 0.155994,0.0061 0.0123,5.71e-4 0.01832,0.0012 0.03032,0.0022 -0.0615,0.510441 0.14607,1.222253 1.16582,1.185113 l 1.077074,3.835357 c -0.008,0.131251 -0.01264,0.262428 -0.01654,0.393017 -8.2e-4,0.0276 -0.0022,0.05508 -0.0022,0.08268 -0.003,0.127551 -0.0038,0.254652 -0.0028,0.381443 8e-5,0.0189 2.92e-4,0.03787 5.51e-4,0.05678 10e-4,0.12527 0.0038,0.249874 0.0088,0.374275 4e-4,0.0105 7.52e-4,0.02092 0.0011,0.03142 0.005,0.12818 0.0128,0.255984 0.0215,0.383095 0.002,0.0249 0.003,0.04961 0.005,0.07441 0.009,0.124031 0.01957,0.247529 0.03197,0.370417 0.002,0.0208 0.0042,0.04149 0.0072,0.06229 0.0121,0.114627 0.02544,0.228783 0.04024,0.342305 0.002,0.0176 0.0042,0.03531 0.0072,0.05292 0.0096,0.07169 0.02082,0.142647 0.03142,0.213871 l 0.729257,-0.171981 c -0.130543,-0.898762 -0.17688,-1.833112 -0.106935,-2.769855 l -1.24244,-4.423504 c -0.14071,-0.525119 -0.204044,-0.826185 -0.383094,-1.000455 -0.0138,-0.0134 -0.02835,-0.02613 -0.04355,-0.03804 -0.0152,-0.01189 -0.03116,-0.02312 -0.04796,-0.03362 -0.0168,-0.0106 -0.03487,-0.02046 -0.05347,-0.02976 -0.0186,-0.009 -0.03838,-0.01781 -0.05898,-0.02591 -0.0206,-0.008 -0.04224,-0.0156 -0.06504,-0.0226 -0.0228,-0.007 -0.04656,-0.01394 -0.07166,-0.01984 -0.0251,-0.006 -0.05178,-0.01144 -0.07938,-0.01654 -0.0553,-0.0102 -0.116043,-0.01835 -0.182453,-0.02535 -0.0664,-0.007 -0.1388,-0.01259 -0.217729,-0.01709 -0.079,-0.005 -0.164548,-0.0081 -0.257418,-0.01102 l -5.51e-4,0 c -0.0929,-0.003 -0.192754,-0.0052 -0.300964,-0.0072 l -5.51e-4,0 c -0.21651,-0.003 -0.465006,-0.0058 -0.751306,-0.0088 l -1.926497,-0.02425 0,-5.5e-4 -0.01654,0 -0.01654,0 z m -3.62424,0.441522 a 0.56678741,0.56678751 0 0 1 0.56665,0.566652 0.56678741,0.56678751 0 0 1 -0.56665,0.567199 0.56678741,0.56678751 0 0 1 -0.5672,-0.567199 0.56678741,0.56678751 0 0 1 0.5672,-0.566652 z m 7.281554,0 a 0.56678741,0.56678751 0 0 1 0.5672,0.566652 0.56678741,0.56678751 0 0 1 -0.5672,0.567199 0.56678741,0.56678751 0 0 1 -0.56665,-0.567199 0.56678741,0.56678751 0 0 1 0.56665,-0.566652 z m -10.327569,11.304874 c -0.259913,0.649484 -0.551859,1.240847 -0.857691,1.747904 0.3847,0.217472 0.484451,0.568808 0.458611,1.350479 -0.009,0.26055 -0.03114,0.568683 -0.06174,0.935964 -0.0459,0.550909 -0.110049,1.234482 -0.171979,2.087451 -0.10323,1.42161 -0.201194,3.314209 -0.201194,5.850049 l 5.52e-4,0 c 0.105473,0.06965 0.21022,0.143307 0.315295,0.215525 l 0.479557,-0.568856 c -0.0081,-0.0056 -0.01554,-0.01149 -0.0237,-0.01709 0.0109,-2.345371 0.102377,-4.131826 0.198437,-5.490655 0.0576,-0.815292 0.116876,-1.476903 0.161506,-2.013038 0.0619,-0.743091 0.105127,-1.263994 0.03473,-1.756173 1.31987,-0.371751 0.783054,-1.824149 0.260173,-1.836098 0.005,-0.0116 0.01038,-0.02368 0.01488,-0.03528 0.0156,-0.0368 0.03035,-0.07416 0.04575,-0.111345 0.02555,-0.06184 0.05043,-0.124734 0.07552,-0.187412 l -0.728707,-0.171431 z m 13.373584,0 -0.727053,0.170877 c 0.02516,0.06292 0.0504,0.125939 0.07607,0.187966 0.01538,0.0372 0.03015,0.07455 0.04575,0.111345 0.0049,0.0116 0.0094,0.02368 0.01433,0.03528 -0.522887,0.0119 -1.059705,1.464347 0.260174,1.836098 -0.0704,0.492179 -0.02713,1.01309 0.03473,1.756173 0.04463,0.536146 0.104422,1.197746 0.162058,2.013038 0.09606,1.358829 0.186945,3.145284 0.197886,5.490655 -0.0085,0.0058 -0.01632,0.01181 -0.0248,0.01764 l 0.479006,0.568303 c 0.105109,-0.07219 0.209799,-0.145858 0.315296,-0.215525 0,-2.53584 -0.09742,-4.428439 -0.200643,-5.850049 -0.06194,-0.852969 -0.126137,-1.536542 -0.171979,-2.087451 -0.03056,-0.367281 -0.05313,-0.675414 -0.06174,-0.935964 -0.02581,-0.781671 0.07391,-1.133007 0.458611,-1.350479 -0.305832,-0.507057 -0.597778,-1.09842 -0.857691,-1.747904 z m -13.180107,0.781626 a 0.56678741,0.56678751 0 0 1 0.566649,0.566649 0.56678741,0.56678751 0 0 1 -0.566649,0.566648 0.56678741,0.56678751 0 0 1 -0.56665,-0.566648 0.56678741,0.56678751 0 0 1 0.56665,-0.566649 z m 12.986631,0 a 0.56678741,0.56678751 0 0 1 0.566649,0.566649 0.56678741,0.56678751 0 0 1 -0.566649,0.566648 0.56678741,0.56678751 0 0 1 -0.56665,-0.566648 0.56678741,0.56678751 0 0 1 0.56665,-0.566649 z m -2.754423,13.326178 c -0.01892,7.73e-4 -0.03806,1.63e-4 -0.05678,0.0017 -0.15048,0.0105 -0.29292,0.03789 -0.39467,0.08709 -0.3332,0.161079 -0.477108,0.325007 -0.692878,0.475147 -0.34976,0.24336 -0.850989,0.512504 -1.845468,0.609645 l -1.495999,0 c -0.994479,-0.0971 -1.495718,-0.366285 -1.845468,-0.609645 -0.10785,-0.075 -0.197897,-0.153876 -0.302617,-0.233714 -0.0262,-0.02 -0.05308,-0.03998 -0.08158,-0.06008 -0.0285,-0.0201 -0.0586,-0.04054 -0.0904,-0.06064 -0.0319,-0.0202 -0.06574,-0.04043 -0.101975,-0.06063 -0.0362,-0.0202 -0.07524,-0.03998 -0.116858,-0.06008 -0.0169,-0.008 -0.03502,-0.01615 -0.05402,-0.02315 -0.038,-0.014 -0.07993,-0.02578 -0.124575,-0.03528 -0.0223,-0.005 -0.0454,-0.0089 -0.0689,-0.01268 -0.06562,-0.01039 -0.137617,-0.0115 -0.208359,-0.01433 l -0.531371,0.630042 c 0.05909,0.07529 0.116377,0.149425 0.165915,0.221586 0.75678,-0.61131 0.748997,1.114598 4.094427,1.123377 l 0,5.51e-4 0.01268,0 c 0.004,1.1e-5 0.0082,0 0.01268,0 l 0,-5.51e-4 c 1.8818,-0.005 2.702565,-0.552814 3.195395,-0.922734 0.38331,-0.287719 0.567942,-0.468093 0.899032,-0.200643 0.04861,-0.07081 0.109755,-0.145559 0.167569,-0.219382 l -0.535781,-0.635553 z"
       id="path5880"
       inkscape:connector-curvature="0" />
  </g>
  <g
     inkscape:groupmode="layer"
     id="layer3"
     inkscape:label="bumper">
    <path
       style="display:inline;fill:#3366cc;stroke:none;stroke-width:0.29999998;stroke-miterlimit:4;stroke-dasharray:none"
       d="M 272.03711 201.97656 L 271.66016 202.00586 L 271.50781 202.01562 L 269.4707 202.16797 L 268.66406 202.1582 L 266.94141 202.36914 L 265.33008 203.01953 L 263.94727 204.07031 L 263.53125 204.60938 L 263.46875 204.68945 L 262.88477 205.44531 L 262.21875 207.04883 L 260.67578 212.80078 L 259.96289 215.45898 L 259.77734 216.89648 L 259.74023 217.18164 L 259.97266 218.9043 L 260.64648 220.50391 L 261.02734 220.99414 L 261.71289 221.875 L 263.10352 222.91797 L 263.46875 223.125 L 271.66016 227.73633 L 273.4707 228.75586 L 274.57617 229.18555 L 274.94922 229.33008 L 276.53125 229.4668 L 277.93359 229.18555 L 278.08789 229.15234 L 278.21094 229.10938 L 279.85352 228.52734 L 284.52539 226.87305 L 285.23242 226.73828 L 285.94727 226.81641 L 287.20117 227.13672 C 287.35248 227.16847 287.49807 227.10953 287.61914 227 C 287.61914 227 287.62109 227 287.62109 227 C 287.74204 226.89051 287.83697 226.73064 287.88672 226.5625 C 287.88903 226.55471 287.88851 226.54688 287.89062 226.53906 C 288.28931 226.59122 288.69692 226.45606 288.84766 226.01758 C 290.01192 221.973 290.91965 217.85335 291.98828 213.78125 C 292.09036 212.99079 292.86957 211.80471 291.86523 211.29492 C 291.83629 211.29365 291.80816 211.28514 291.7793 211.2832 C 291.8167 211.1354 291.82794 210.97896 291.7832 210.8418 C 291.75594 210.75812 291.7109 210.68049 291.64844 210.61719 C 291.58533 210.55365 291.50275 210.50479 291.40039 210.47461 L 289.74023 209.91406 L 289.19531 209.44141 L 288.04688 208.0957 L 287.13672 207.0293 C 287.13672 207.0293 285.60486 204.93982 284.10938 203.20312 C 283.98877 203.08252 283.85917 202.97321 283.72656 202.875 C 283.59442 202.77712 283.45865 202.68904 283.32227 202.61133 C 283.32227 202.61133 283.32031 202.61133 283.32031 202.61133 C 283.04717 202.45583 282.77325 202.33904 282.5293 202.25195 C 282.5293 202.25195 282.52734 202.25195 282.52734 202.25195 C 282.28373 202.16506 282.07097 202.1075 281.91797 202.07227 C 281.91797 202.07227 281.91602 202.07227 281.91602 202.07227 C 281.76292 202.03706 281.67188 202.02344 281.67188 202.02344 L 272.03711 201.97656 z M 418.60938 201.97656 L 408.97461 202.02344 C 408.97461 202.02343 408.60584 202.07766 408.11719 202.25195 C 407.62842 202.42627 407.01952 202.72072 406.53711 203.20312 C 406.16324 203.6373 405.78764 204.09298 405.43359 204.5332 C 404.3713 205.85354 403.50781 207.0293 403.50781 207.0293 L 402.59961 208.0957 L 401.44922 209.44141 L 400.90625 209.91406 L 399.24609 210.47461 C 399.14308 210.50498 399.06132 210.55502 398.99805 210.61914 C 398.87272 210.74616 398.82079 210.92749 398.83008 211.11133 C 398.83317 211.17301 398.85303 211.23244 398.86914 211.29297 C 398.8626 211.29329 398.85616 211.29464 398.84961 211.29492 C 397.84527 211.80471 398.62448 212.99079 398.72656 213.78125 C 399.79519 217.85335 400.70293 221.973 401.86719 226.01758 C 402.00925 226.43084 402.37995 226.56935 402.75586 226.54297 C 402.78069 226.63382 402.81659 226.72244 402.86523 226.80273 C 403.00091 227.02644 403.21639 227.18435 403.44336 227.13672 L 404.69922 226.81641 L 405.41406 226.73828 L 406.12109 226.87305 L 410.79297 228.52734 L 412.43555 229.10938 L 412.55859 229.15234 L 412.71289 229.18555 L 414.11328 229.4668 L 415.69531 229.33008 L 416.06836 229.18555 L 417.17578 228.75586 L 418.98438 227.73633 L 427.17773 223.125 L 427.54297 222.91797 L 428.93164 221.875 L 429.61914 220.99414 L 430 220.50391 L 430.67383 218.9043 L 430.90625 217.18164 L 430.86914 216.89648 L 430.68164 215.45898 L 429.96875 212.80078 L 428.42773 207.04883 L 427.76172 205.44531 L 427.17773 204.68945 L 427.11523 204.60938 L 426.69922 204.07031 L 425.31445 203.01953 L 423.70508 202.36914 L 421.98047 202.1582 L 421.17578 202.16797 L 419.13867 202.01562 L 418.98438 202.00586 L 418.60938 201.97656 z M 271.48438 208.26953 L 271.73047 208.33008 L 271.93555 208.38086 L 272.24023 208.70898 L 272.35742 208.83398 L 272.99023 210.19141 L 273.06641 210.80664 L 272.96484 211.01562 L 272.81445 211.28516 L 272.48633 211.47656 L 272.20703 211.60742 L 271.90039 211.56445 L 271.74609 211.54297 L 271.73047 211.5293 L 271.46289 211.29102 L 271.26562 211.16797 L 271.17773 211.03906 L 270.54492 209.67969 L 270.45898 209.37891 L 270.49023 209.14844 L 270.54883 208.8457 L 270.65625 208.70898 L 270.73828 208.60352 L 270.89844 208.4375 L 271.48438 208.26953 z M 419.23047 208.26953 L 419.81641 208.4375 L 419.97656 208.60352 L 420.05859 208.70898 L 420.16602 208.8457 L 420.22461 209.14844 L 420.25586 209.37891 L 420.16992 209.67969 L 419.53711 211.03906 L 419.44922 211.16797 L 419.25195 211.29102 L 418.98438 211.5293 L 418.96875 211.54297 L 418.81445 211.56445 L 418.50781 211.60742 L 418.22852 211.47656 L 417.90039 211.28516 L 417.75 211.01562 L 417.64844 210.80664 L 417.72461 210.19141 L 418.35742 208.83398 L 418.47461 208.70898 L 418.7793 208.38086 L 418.98438 208.33008 L 419.23047 208.26953 z M 279.22656 211.1875 L 279.38477 211.19336 L 279.68945 211.20508 L 279.92188 211.33398 L 279.95898 211.35547 L 280.15625 211.47852 L 280.26367 211.68359 L 280.39453 211.96289 L 280.41016 212.19531 L 280.40625 212.33398 L 280.40625 212.35156 L 280.33984 212.51367 L 280.28711 212.66016 L 280.13086 212.80664 L 280.06055 212.86914 L 279.92188 212.99609 L 279.8457 213.06641 L 278.33789 213.74219 L 277.875 213.77539 L 277.58008 213.66797 L 277.41406 213.50586 L 277.20312 213.28125 L 277.11719 213 L 277.09375 212.80469 L 277.08008 212.69336 L 277.18555 212.39453 L 277.28711 212.18555 L 277.60547 211.91602 L 277.64258 211.88477 L 278.39648 211.54688 L 279.07031 211.23242 L 279.22656 211.1875 z M 411.48828 211.1875 L 411.64453 211.23242 L 412.31836 211.54688 L 413.07227 211.88477 L 413.10938 211.91602 L 413.42773 212.18555 L 413.5293 212.39453 L 413.63477 212.69336 L 413.62109 212.80469 L 413.59766 213 L 413.51172 213.28125 L 413.30078 213.50586 L 413.13477 213.66797 L 412.83984 213.77539 L 412.37695 213.74219 L 410.86914 213.06641 L 410.79297 212.99609 L 410.6543 212.86914 L 410.58398 212.80664 L 410.42773 212.66016 L 410.375 212.51367 L 410.30859 212.35156 L 410.30859 212.33398 L 410.30469 212.19531 L 410.32031 211.96289 L 410.45117 211.68359 L 410.55859 211.47852 L 410.75586 211.35547 L 410.79297 211.33398 L 411.02539 211.20508 L 411.33008 211.19336 L 411.48828 211.1875 z M 269.94141 215.60938 L 270.24414 215.66797 L 270.51562 215.81641 L 270.57812 215.86523 L 270.63867 215.91406 L 270.74805 216.11914 L 270.83594 216.24805 L 270.87305 216.55469 L 270.88867 216.78125 L 270.88867 216.78516 L 270.83203 216.90039 L 270.78125 217.00195 L 270.68164 217.20508 L 270.67969 217.20898 L 270.50781 217.34961 L 270.33008 217.5 L 269.68164 217.80273 L 268.9707 218.13477 L 268.51367 218.21484 L 268.0625 218.10156 L 267.93945 218.00586 L 267.6875 217.63281 L 267.63477 217.55469 L 267.59961 217.50195 L 267.55859 217.28711 L 267.58984 217.05664 L 267.62695 216.90039 L 267.63477 216.87305 L 267.63477 216.86914 L 267.64648 216.81836 L 267.74414 216.69531 L 267.86523 216.5 L 268.125 216.32422 L 269.48438 215.69141 L 269.63477 215.64844 L 269.68164 215.64062 L 269.94141 215.60938 z M 420.77344 215.60938 L 421.0332 215.64062 L 421.08008 215.64844 L 421.23047 215.69141 L 422.58984 216.32422 L 422.84961 216.5 L 422.9707 216.69531 L 423.06836 216.81836 L 423.08008 216.86914 L 423.08008 216.87305 L 423.08789 216.90039 L 423.125 217.05664 L 423.15625 217.28711 L 423.11523 217.50195 L 423.08008 217.55469 L 423.02734 217.63281 L 422.77539 218.00586 L 422.65234 218.10156 L 422.20117 218.21484 L 421.74414 218.13477 L 421.0332 217.80273 L 420.38477 217.5 L 420.20703 217.34961 L 420.03516 217.20898 L 420.0332 217.20508 L 419.93359 217.00195 L 419.88281 216.90039 L 419.82617 216.78516 L 419.82617 216.78125 L 419.8418 216.55469 L 419.87891 216.24805 L 419.9668 216.11914 L 420.07617 215.91406 L 420.13672 215.86523 L 420.19922 215.81641 L 420.4707 215.66797 L 420.77344 215.60938 z M 275.76758 217.77734 L 275.82617 217.7793 L 276 217.78711 L 276.08008 217.78906 L 276.28906 217.89062 L 276.43555 217.94531 L 276.64648 218.16992 L 276.79492 218.34766 L 277.07422 218.94727 L 277.10938 219.02148 L 277.42578 219.70117 L 277.42578 219.70312 L 277.42773 219.71289 L 277.4707 219.85742 L 277.43945 220.08789 L 277.45117 220.46875 L 277.20508 220.86133 L 276.95508 220.99414 L 276.79492 221.08008 L 276.18359 221.05859 L 276.08398 220.99609 L 275.82617 220.83594 L 275.79102 220.81445 L 275.61523 220.55469 L 274.89453 218.89453 L 274.96094 218.43555 L 275.33594 217.95117 L 275.76758 217.77734 z M 414.94727 217.77734 L 415.37891 217.95117 L 415.75391 218.43555 L 415.82031 218.89453 L 415.09961 220.55469 L 414.92383 220.81445 L 414.88867 220.83594 L 414.63086 220.99609 L 414.53125 221.05859 L 413.91992 221.08008 L 413.75977 220.99414 L 413.50977 220.86133 L 413.26367 220.46875 L 413.27539 220.08789 L 413.24414 219.85742 L 413.28711 219.71289 L 413.28906 219.70312 L 413.28906 219.70117 L 413.60547 219.02148 L 413.64062 218.94727 L 413.91992 218.34766 L 414.06836 218.16992 L 414.2793 217.94531 L 414.42578 217.89062 L 414.63477 217.78906 L 414.71484 217.78711 L 414.88867 217.7793 L 414.94727 217.77734 z M 295.84766 301.98047 C 295.6905 301.96275 295.52702 301.99961 295.38281 302.11328 L 294.62695 303.05469 L 294.08789 303.5332 L 293.43164 303.83008 L 288.04492 305.34961 L 286.85938 305.68359 L 285.4082 306.32617 L 284.19531 307.35156 L 283.32031 308.67383 L 283.26367 308.79102 L 282.3457 310.72852 L 282.16797 311.10547 L 279.85156 315.98828 L 278.2832 319.29688 L 278.22266 319.42578 L 277.69141 321.08008 L 277.61133 322.81641 L 277.73828 323.39258 L 277.98633 324.51172 L 278.78906 326.05273 L 279.85352 327.20312 L 279.9668 327.32812 L 280.16211 327.48828 L 286.66211 332.89258 L 288.04492 333.76367 L 288.13281 333.81836 L 289.79297 334.33008 L 291.5293 334.38867 L 291.61328 334.36719 L 292.14062 334.24219 L 293.2207 333.99023 L 294.75 333.16406 L 296.23633 332.08984 L 301.25586 328.45898 L 302.87109 327.48633 C 303.27581 327.19256 303.68081 326.89419 304.06641 326.5918 C 305.22293 325.68476 306.20012 324.74159 306.4375 323.77734 C 306.91991 322.47482 307.13086 318.51562 307.13086 318.51562 L 307.08789 317.77539 L 307.30859 315.36523 L 307.34961 315.19922 L 307.48047 314.66602 L 307.85352 314.04883 L 309.10547 312.55273 C 309.23723 312.35458 309.18353 312.10654 309.03906 311.90234 C 308.99091 311.83428 308.93191 311.77208 308.86719 311.7168 C 308.86286 311.7131 308.8579 311.71065 308.85352 311.70703 C 308.85352 311.70703 308.85156 311.70508 308.85156 311.70508 C 309.05468 311.37642 309.12442 310.99262 308.80664 310.66211 C 305.83003 308.40067 302.84272 306.13912 299.8457 303.89648 C 298.86149 303.27005 298.00852 302.32912 296.875 301.99414 C 296.69145 301.97929 296.53565 302.05042 296.375 302.12891 C 296.35402 302.15605 296.33318 302.18535 296.3125 302.21289 C 296.28206 302.18378 296.24954 302.15945 296.21484 302.13477 C 296.19051 302.11735 296.16863 302.10275 296.14258 302.08789 C 296.05036 302.03514 295.95225 301.99234 295.84766 301.98047 z M 394.79883 301.98047 C 394.69424 301.99234 394.59613 302.03514 394.50391 302.08789 C 394.47744 302.10299 394.45438 302.11703 394.42969 302.13477 C 394.41088 302.1482 394.38871 302.15708 394.37109 302.17188 C 394.36053 302.15799 394.35049 302.14268 394.33984 302.12891 C 394.17919 302.05042 394.02339 301.97929 393.83984 301.99414 C 392.70633 302.32912 391.85336 303.27005 390.86914 303.89648 C 387.87212 306.13912 384.88482 308.40067 381.9082 310.66211 C 381.60055 310.98208 381.65669 311.35189 381.84375 311.67383 C 381.73044 311.75641 381.63601 311.85923 381.56836 311.97656 C 381.4591 312.16532 381.42205 312.37675 381.53906 312.55273 L 382.79297 314.04883 L 383.16406 314.66602 L 383.29492 315.19922 L 383.33594 315.36523 L 383.55859 317.77539 L 383.51562 318.51562 C 383.51563 318.51562 383.67588 321.54733 384.03906 323.17773 C 384.09097 323.41065 384.14673 323.61453 384.20703 323.77734 C 384.24659 323.93805 384.30669 324.09833 384.38477 324.25781 C 384.54078 324.57635 384.77012 324.89232 385.04883 325.20508 C 385.04918 325.20547 385.04848 325.20664 385.04883 325.20703 C 385.18871 325.36393 385.34098 325.51859 385.50391 325.67383 C 385.82873 325.98332 386.19479 326.28976 386.58008 326.5918 C 386.96568 326.89419 387.37067 327.19256 387.77539 327.48633 L 389.39062 328.45898 L 394.41016 332.08984 L 395.89648 333.16406 L 397.42578 333.99023 L 398.50586 334.24219 L 399.0332 334.36719 L 399.11719 334.38867 L 400.85352 334.33008 L 402.51367 333.81836 L 402.60156 333.76367 L 403.98438 332.89258 L 410.48438 327.48828 L 410.67773 327.32812 L 410.79297 327.20312 L 411.85547 326.05273 L 412.66016 324.51172 L 412.9082 323.39258 L 413.03516 322.81641 L 412.95508 321.08008 L 412.42383 319.42578 L 412.36133 319.29688 L 410.79297 315.98828 L 408.47852 311.10547 L 408.30078 310.72852 L 407.38281 308.79102 L 407.32617 308.67383 L 406.45117 307.35156 L 405.23828 306.32617 L 403.78711 305.68359 L 402.60156 305.34961 L 397.21484 303.83008 L 396.55859 303.5332 L 396.01953 303.05469 L 395.26172 302.11328 C 395.11751 301.99972 394.95597 301.96261 394.79883 301.98047 z M 294.60547 313.48828 L 294.82031 313.57422 L 294.98047 313.66016 L 295.02539 313.68555 L 295.12305 313.80859 L 295.24219 313.93164 L 295.2832 313.97461 L 295.33984 314.20898 L 295.39258 314.35547 L 295.35547 314.66211 L 295.31445 314.89062 L 295.16797 315.20508 L 294.68164 316.25 L 294.53125 316.42773 L 294.32031 316.6543 L 294.25781 316.67383 L 294.0332 316.75586 L 293.80859 316.8125 L 293.38477 316.73828 L 293.35156 316.73047 L 293.12695 316.51953 L 292.98438 316.40039 L 292.94922 316.36914 L 292.89258 316.14453 L 292.78711 315.85742 L 292.86914 315.40039 L 292.96094 315.19922 L 293.43555 314.18164 L 293.50195 314.04102 L 293.65234 313.86328 L 293.73828 313.73242 L 293.93555 313.60938 L 294.00391 313.57422 L 294.14453 313.50586 L 294.25781 313.51367 L 294.37695 313.52148 L 294.60547 313.48828 z M 396.10938 313.48828 L 396.33789 313.52148 L 396.45703 313.51367 L 396.57031 313.50586 L 396.71094 313.57422 L 396.7793 313.60938 L 396.97656 313.73242 L 397.0625 313.86328 L 397.21289 314.04102 L 397.2793 314.18164 L 397.75391 315.19922 L 397.8457 315.40039 L 397.92773 315.85742 L 397.82227 316.14453 L 397.76562 316.36914 L 397.73047 316.40039 L 397.58789 316.51953 L 397.36328 316.73047 L 397.33008 316.73828 L 396.90625 316.8125 L 396.68164 316.75586 L 396.45703 316.67383 L 396.39453 316.6543 L 396.18359 316.42773 L 396.0332 316.25 L 395.54688 315.20508 L 395.40039 314.89062 L 395.35938 314.66211 L 395.32227 314.35547 L 395.375 314.20898 L 395.43164 313.97461 L 395.47266 313.93164 L 395.5918 313.80859 L 395.68945 313.68555 L 395.73438 313.66016 L 395.89453 313.57422 L 396.10938 313.48828 z M 286.17188 316.41797 L 286.47852 316.45508 L 286.70703 316.42383 L 286.85742 316.4668 L 288.11523 317.05273 L 288.2168 317.10156 L 288.39453 317.25 L 288.62109 317.46094 L 288.72461 317.69531 L 288.7793 317.86719 L 288.74414 318.2793 L 288.52734 318.68945 L 288.40234 318.78516 L 288.11523 318.91211 L 288.05469 318.93555 L 287.83008 318.99219 L 287.37305 318.91016 L 286.01172 318.27734 L 285.88281 318.19141 L 285.66992 317.99414 L 285.64453 317.96289 L 285.57227 317.86914 L 285.51562 317.64453 L 285.45117 317.48242 L 285.4668 317.25195 L 285.48047 317.17773 L 285.50781 317.02344 L 285.65625 316.84375 L 285.76562 316.63867 L 285.94727 316.53125 L 285.96289 316.51953 L 286.17188 316.41797 z M 404.54297 316.41797 L 404.75195 316.51953 L 404.76758 316.53125 L 404.94922 316.63867 L 405.05859 316.84375 L 405.20703 317.02344 L 405.23438 317.17773 L 405.24805 317.25195 L 405.26367 317.48242 L 405.19922 317.64453 L 405.14258 317.86914 L 405.07031 317.96289 L 405.04492 317.99414 L 404.83203 318.19141 L 404.70312 318.27734 L 403.3418 318.91016 L 402.88477 318.99219 L 402.66016 318.93555 L 402.59961 318.91211 L 402.3125 318.78516 L 402.1875 318.68945 L 401.9707 318.2793 L 401.93555 317.86719 L 401.99023 317.69531 L 402.09375 317.46094 L 402.32031 317.25 L 402.49805 317.10156 L 402.59961 317.05273 L 403.85742 316.4668 L 404.00781 316.42383 L 404.23633 316.45508 L 404.54297 316.41797 z M 295.75977 320.82422 L 296.22266 320.85547 L 296.30664 320.89453 L 297.73438 321.5332 L 297.91211 321.68359 L 298.13672 321.89453 L 298.24219 322.17969 L 298.29883 322.4043 L 298.25781 322.63281 L 298.17383 322.92773 L 297.96289 323.15234 L 297.79492 323.31445 L 297.57031 323.37109 L 297.44531 323.39453 L 297.30664 323.42383 L 297.26758 323.42969 L 297.14648 323.39453 L 297.11719 323.38867 L 296.88281 323.34375 L 296.88086 323.34375 L 296.30664 323.07617 L 296.20117 323.02734 L 295.5293 322.71289 L 295.33594 322.58398 L 295.26953 322.53906 L 295.14648 322.3418 L 295.05078 322.21875 L 294.99414 321.99414 L 294.98242 321.91602 L 294.96094 321.76367 L 295.04883 321.54688 L 295.08398 321.34766 L 295.08984 321.32031 L 295.25586 321.1582 L 295.4668 320.93359 L 295.50391 320.91797 L 295.75977 320.82422 z M 394.95508 320.82422 L 395.21094 320.91797 L 395.24805 320.93359 L 395.45898 321.1582 L 395.625 321.32031 L 395.63086 321.34766 L 395.66602 321.54688 L 395.75391 321.76367 L 395.73242 321.91602 L 395.7207 321.99414 L 395.66406 322.21875 L 395.56836 322.3418 L 395.44531 322.53906 L 395.37891 322.58398 L 395.18555 322.71289 L 394.51367 323.02734 L 394.4082 323.07617 L 393.83398 323.34375 L 393.83203 323.34375 L 393.59766 323.38867 L 393.56836 323.39453 L 393.44727 323.42969 L 393.4082 323.42383 L 393.26953 323.39453 L 393.14453 323.37109 L 392.91992 323.31445 L 392.75195 323.15234 L 392.54102 322.92773 L 392.45703 322.63281 L 392.41602 322.4043 L 392.47266 322.17969 L 392.57812 321.89453 L 392.80273 321.68359 L 392.98047 321.5332 L 394.4082 320.89453 L 394.49219 320.85547 L 394.95508 320.82422 z M 289.92383 322.99805 L 290.13867 323.03906 L 290.39258 323.07812 L 290.52344 323.16602 L 290.75 323.37695 L 290.76172 323.39844 L 290.87305 323.57422 L 290.89844 323.64844 L 290.92578 323.7207 L 290.91016 323.95312 L 290.91992 324.25781 L 290.38672 325.44531 L 290.24414 325.76758 L 290.07227 325.96289 L 289.88867 326.16406 L 289.875 326.17773 L 289.71289 326.24414 L 289.52734 326.32617 L 289.29688 326.30859 L 288.99023 326.27148 L 288.73633 326.09961 L 288.51172 325.89062 L 288.40625 325.60352 L 288.375 325.44531 L 288.34766 325.29883 L 288.39062 325.06445 L 288.4375 324.90625 L 289.06445 323.5625 L 289.21875 323.39648 L 289.47461 323.12305 L 289.48633 323.10938 L 289.72461 323.05078 L 289.90625 323 L 289.92383 322.99805 z M 400.79102 322.99805 L 400.80859 323 L 400.99023 323.05078 L 401.22852 323.10938 L 401.24023 323.12305 L 401.49609 323.39648 L 401.65039 323.5625 L 402.27734 324.90625 L 402.32422 325.06445 L 402.36719 325.29883 L 402.33984 325.44531 L 402.30859 325.60352 L 402.20312 325.89062 L 401.97852 326.09961 L 401.72461 326.27148 L 401.41797 326.30859 L 401.1875 326.32617 L 401.00195 326.24414 L 400.83984 326.17773 L 400.82617 326.16406 L 400.64258 325.96289 L 400.4707 325.76758 L 400.32812 325.44531 L 399.79492 324.25781 L 399.80469 323.95312 L 399.78906 323.7207 L 399.81641 323.64844 L 399.8418 323.57422 L 399.95312 323.39844 L 399.96484 323.37695 L 400.19141 323.16602 L 400.32227 323.07812 L 400.57617 323.03906 L 400.79102 322.99805 z "
       transform="matrix(0.2822222,0,0,0.28222222,-86.649002,-73.435006)"
       id="path5058" />
  </g>
</svg>
