<?xml version="1.0" encoding="UTF-8" standalone="no"?>
<svg
   xmlns:dc="http://purl.org/dc/elements/1.1/"
   xmlns:cc="http://creativecommons.org/ns#"
   xmlns:rdf="http://www.w3.org/1999/02/22-rdf-syntax-ns#"
   xmlns:svg="http://www.w3.org/2000/svg"
   xmlns="http://www.w3.org/2000/svg"
   xmlns:xlink="http://www.w3.org/1999/xlink"
   xmlns:sodipodi="http://sodipodi.sourceforge.net/DTD/sodipodi-0.dtd"
   xmlns:inkscape="http://www.inkscape.org/namespaces/inkscape"
   width="195.33376mm"
   height="168.90645mm"
   viewBox="-86.649002 -73.434998 195.33375 168.90643"
   version="1.1"
   id="svg2"
   inkscape:version="0.91 r13725"
   sodipodi:docname="diatone-et-160-skirt-workfile.svg"
   enable-background="new">
  <metadata
     id="metadata14">
    <rdf:RDF>
      <cc:Work
         rdf:about="">
        <dc:format>image/svg+xml</dc:format>
        <dc:type
           rdf:resource="http://purl.org/dc/dcmitype/StillImage" />
        <dc:title>Daring Densor-Wolt</dc:title>
      </cc:Work>
    </rdf:RDF>
  </metadata>
  <defs
     id="defs12">
    <inkscape:perspective
       sodipodi:type="inkscape:persp3d"
       inkscape:vp_x="0 : 84.453215 : 1"
       inkscape:vp_y="0 : 1000 : 0"
       inkscape:vp_z="195.33375 : 84.453215 : 1"
       inkscape:persp3d-origin="97.666875 : 56.302143 : 1"
       id="perspective4193" />
  </defs>
  <sodipodi:namedview
     pagecolor="#ffffff"
     bordercolor="#666666"
     borderopacity="1"
     objecttolerance="10"
     gridtolerance="10"
     guidetolerance="10"
     inkscape:pageopacity="0"
     inkscape:pageshadow="2"
     inkscape:window-width="1366"
     inkscape:window-height="704"
     id="namedview10"
     showgrid="false"
     units="mm"
     fit-margin-top="12"
     fit-margin-left="12"
     fit-margin-right="12"
     fit-margin-bottom="12"
     inkscape:snap-bbox="true"
     inkscape:bbox-paths="true"
     inkscape:bbox-nodes="true"
     inkscape:snap-bbox-midpoints="true"
     inkscape:snap-bbox-edge-midpoints="true"
     inkscape:object-paths="true"
     inkscape:snap-intersection-paths="true"
     inkscape:object-nodes="true"
     inkscape:snap-smooth-nodes="true"
     inkscape:snap-midpoints="true"
     inkscape:snap-object-midpoints="true"
     inkscape:snap-center="true"
     inkscape:snap-global="false"
     inkscape:zoom="1.8322043"
     inkscape:cx="340.89396"
     inkscape:cy="323.53042"
     inkscape:window-x="0"
     inkscape:window-y="27"
     inkscape:window-maximized="1"
     inkscape:current-layer="layer1" />
  <title
     id="title4">Daring Densor-Wolt</title>
  <desc
     id="desc6"> made with tinkercad </desc>
  <g
     inkscape:groupmode="layer"
     id="layer1"
     inkscape:label="stl"
     transform="translate(28.46794,31.169428)"
     style="display:inline">
    <path
       inkscape:connector-curvature="0"
       id="path4195"
       d="m -33.631271,-10.852782 c -0.1859,-0.097 -0.81404,-0.5772 -1.39587,-1.06716 -1.54645,-1.30225 -1.5569,-1.36944 -0.55316,-3.55673 0.43372,-0.94514 0.93112,-1.86344 1.10533,-2.04067 0.21712,-0.22089 0.65031,-0.41036 1.37736,-0.60243 0.58334,-0.1541 1.17542,-0.37236 1.31574,-0.48502 0.40045,-0.32152 6.18938,-7.36165 6.41831,-7.80554 0.1816,-0.35212 0.20499,-1.03553 0.20499,-5.9904 l 0,-5.59294 -0.34154,-0.38195 c -0.34955,-0.39092 -1.04833,-0.60293 -7.96864,-2.41757 l -1.16904,-0.30654 -1.12855,0.38842 c -0.6207,0.21362 -1.27641,0.38458 -1.45712,0.3799 -0.50776,-0.0131 -3.6951,-1.87668 -3.9054,-2.28335 -0.25548,-0.49405 -0.20853,-0.99673 0.23538,-2.52022 0.55162,-1.89314 0.60827,-1.92876 3.06697,-1.92876 1.0043,0 1.99115,0.0576 2.193,0.12793 0.21057,0.0734 0.69637,0.51959 1.1398,1.04684 0.90916,1.08102 0.42253,0.8878 5.95508,2.36438 2.34063,0.62469 4.11247,1.03739 4.25694,0.99154 0.13612,-0.0432 0.32539,-0.20006 0.42061,-0.34857 0.0952,-0.14851 0.54387,-1.63925 0.99699,-3.31276 1.11101,-4.10322 1.00162,-3.81582 1.56116,-4.10128 0.44224,-0.22561 0.73872,-0.24551 3.65808,-0.24551 2.91936,0 3.21585,0.0199 3.65809,0.24551 0.55954,0.28546 0.45014,-0.002 1.561155,4.10128 0.453125,1.67351 0.901782,3.16425 0.996995,3.31276 0.09522,0.14851 0.284491,0.30536 0.420604,0.34857 0.144468,0.0459 1.9163155,-0.36685 4.2569465,-0.99154 5.532547,-1.47658 5.045913,-1.28336 5.955071,-2.36438 0.443431,-0.52725 0.929237,-0.97343 1.139806,-1.04684 0.201847,-0.0704 1.188694,-0.12793 2.193001,-0.12793 2.458703,0 2.51535,0.0356 3.066961,1.92876 0.444308,1.52484 0.490903,2.0261 0.234416,2.52208 -0.212719,0.41136 -3.385519,2.26801 -3.898508,2.28133 -0.183966,0.005 -0.84234,-0.16612 -1.463039,-0.37974 l -1.128552,-0.38842 -1.169037,0.30597 c -6.668776,1.74543 -7.621637,2.03487 -7.968645,2.42053 l -0.3415375,0.37956 0,5.59294 c 0,4.95407 0.02341,5.63833 0.2049225,5.9904 0.227144,0.44057 6.017269,7.48051 6.419816,7.80554 0.139522,0.11266 0.730958,0.33092 1.314302,0.48502 0.727047,0.19207 1.160236,0.38154 1.37736,0.60243 0.174209,0.17723 0.671611,1.09553 1.105326,2.04067 1.019304,2.2212 1.013816,2.24996 -0.700659,3.67582 -1.252996,1.04206 -1.782545,1.27447 -2.332738,1.02378 -0.504428,-0.22983 -3.270896,-2.27852 -3.362947,-2.4904 -0.04823,-0.111 -0.156567,-0.77679 -0.240756,-1.47954 -0.08936,-0.74583 -0.229422,-1.36623 -0.33647,-1.49033 -0.10086,-0.11693 -1.426409,-1.72156 -2.945664,-3.56584 -1.5192555,-1.84427 -2.8996495,-3.47898 -3.0675395,-3.63267 -0.44505,-0.4074 -0.82451,-0.34712 -1.7337,0.27542 -0.44569,0.30517 -0.99078,0.5887 -1.21132,0.63008 -0.22054,0.0414 -1.27012,0.0572 -2.3324,0.0351 l -1.93141,-0.0402 -0.88658,-0.58992 c -0.98862,-0.65781 -1.35412,-0.72082 -1.80104,-0.31049 -0.16739,0.15369 -1.54761,1.7884 -3.06714,3.63267 -1.51954,1.84428 -2.84549,3.44891 -2.94658,3.56584 -0.10759,0.12446 -0.24724,0.7423 -0.33686,1.49033 -0.0842,0.70275 -0.19237,1.36813 -0.2404,1.47864 -0.0772,0.1776 -1.61108,1.34551 -2.97821,2.26763 -0.54159,0.3653 -0.97013,0.40845 -1.46946,0.14796 z"
       style="color:#000000;clip-rule:nonzero;display:inline;overflow:visible;visibility:visible;opacity:1;isolation:auto;mix-blend-mode:normal;color-interpolation:sRGB;color-interpolation-filters:linearRGB;solid-color:#000000;solid-opacity:1;fill:#bfbfbf;fill-opacity:1;fill-rule:evenodd;stroke:none;stroke-width:1;stroke-linecap:butt;stroke-linejoin:round;stroke-miterlimit:4;stroke-dasharray:none;stroke-dashoffset:8.05119991;stroke-opacity:1;marker:none;color-rendering:auto;image-rendering:auto;shape-rendering:auto;text-rendering:auto;enable-background:accumulate" />
  </g>
  <g
     inkscape:groupmode="layer"
     id="layer2"
     inkscape:label="design"
     transform="translate(28.46794,31.169428)"
     style="display:inline;opacity:1">
    <g
       id="g4226"
       transform="matrix(0.28222208,0,0,0.28222208,-12.716741,-24.964192)">
      <ellipse
         ry="50.535061"
         rx="50.535057"
         cy="-67.413826"
         cx="-88.919182"
         id="path4214"
         style="color:#000000;clip-rule:nonzero;display:inline;overflow:visible;visibility:visible;opacity:1;isolation:auto;mix-blend-mode:normal;color-interpolation:sRGB;color-interpolation-filters:linearRGB;solid-color:#000000;solid-opacity:1;fill:none;fill-opacity:1;fill-rule:evenodd;stroke:#6699ff;stroke-width:0.52987552;stroke-linecap:butt;stroke-linejoin:round;stroke-miterlimit:4;stroke-dasharray:none;stroke-dashoffset:8.05119991;stroke-opacity:1;marker:none;color-rendering:auto;image-rendering:auto;shape-rendering:auto;text-rendering:auto;enable-background:accumulate" />
      <ellipse
         ry="3.3554351"
         rx="3.3554349"
         cy="-67.413826"
         cx="-88.919182"
         id="path4216"
         style="color:#000000;clip-rule:nonzero;display:inline;overflow:visible;visibility:visible;opacity:1;isolation:auto;mix-blend-mode:normal;color-interpolation:sRGB;color-interpolation-filters:linearRGB;solid-color:#000000;solid-opacity:1;fill:none;fill-opacity:1;fill-rule:evenodd;stroke:#6699ff;stroke-width:0.28222221;stroke-linecap:butt;stroke-linejoin:round;stroke-miterlimit:4;stroke-dasharray:none;stroke-dashoffset:8.05119991;stroke-opacity:1;marker:none;color-rendering:auto;image-rendering:auto;shape-rendering:auto;text-rendering:auto;enable-background:accumulate" />
    </g>
    <g
       id="g4222"
       transform="matrix(0.28222208,0,0,0.28222208,-12.716741,-24.964192)">
      <ellipse
         style="color:#000000;clip-rule:nonzero;display:inline;overflow:visible;visibility:visible;opacity:1;isolation:auto;mix-blend-mode:normal;color-interpolation:sRGB;color-interpolation-filters:linearRGB;solid-color:#000000;solid-opacity:1;fill:none;fill-opacity:1;fill-rule:evenodd;stroke:#6699ff;stroke-width:0.52987552;stroke-linecap:butt;stroke-linejoin:round;stroke-miterlimit:4;stroke-dasharray:none;stroke-dashoffset:8.05119991;stroke-opacity:1;marker:none;color-rendering:auto;image-rendering:auto;shape-rendering:auto;text-rendering:auto;enable-background:accumulate"
         id="ellipse4218"
         cx="53.995277"
         cy="-67.413826"
         rx="50.535057"
         ry="50.535061" />
      <ellipse
         style="color:#000000;clip-rule:nonzero;display:inline;overflow:visible;visibility:visible;opacity:1;isolation:auto;mix-blend-mode:normal;color-interpolation:sRGB;color-interpolation-filters:linearRGB;solid-color:#000000;solid-opacity:1;fill:none;fill-opacity:1;fill-rule:evenodd;stroke:#6699ff;stroke-width:0.28222221;stroke-linecap:butt;stroke-linejoin:round;stroke-miterlimit:4;stroke-dasharray:none;stroke-dashoffset:8.05119991;stroke-opacity:1;marker:none;color-rendering:auto;image-rendering:auto;shape-rendering:auto;text-rendering:auto;enable-background:accumulate"
         id="ellipse4220"
         cx="53.995277"
         cy="-67.413826"
         rx="3.3554349"
         ry="3.3554351" />
    </g>
    <g
       id="g4230"
       transform="matrix(0.28222208,0,0,0.28222208,-7.6677835,4.7294879)">
      <ellipse
         style="color:#000000;clip-rule:nonzero;display:inline;overflow:visible;visibility:visible;opacity:1;isolation:auto;mix-blend-mode:normal;color-interpolation:sRGB;color-interpolation-filters:linearRGB;solid-color:#000000;solid-opacity:1;fill:none;fill-opacity:1;fill-rule:evenodd;stroke:#6699ff;stroke-width:0.52987552;stroke-linecap:butt;stroke-linejoin:round;stroke-miterlimit:4;stroke-dasharray:none;stroke-dashoffset:8.05119991;stroke-opacity:1;marker:none;color-rendering:auto;image-rendering:auto;shape-rendering:auto;text-rendering:auto;enable-background:accumulate"
         id="ellipse4232"
         cx="-88.919182"
         cy="-67.413826"
         rx="50.535057"
         ry="50.535061" />
      <ellipse
         style="color:#000000;clip-rule:nonzero;display:inline;overflow:visible;visibility:visible;opacity:1;isolation:auto;mix-blend-mode:normal;color-interpolation:sRGB;color-interpolation-filters:linearRGB;solid-color:#000000;solid-opacity:1;fill:none;fill-opacity:1;fill-rule:evenodd;stroke:#6699ff;stroke-width:0.28222221;stroke-linecap:butt;stroke-linejoin:round;stroke-miterlimit:4;stroke-dasharray:none;stroke-dashoffset:8.05119991;stroke-opacity:1;marker:none;color-rendering:auto;image-rendering:auto;shape-rendering:auto;text-rendering:auto;enable-background:accumulate"
         id="ellipse4234"
         cx="-88.919182"
         cy="-67.413826"
         rx="3.3554349"
         ry="3.3554351" />
    </g>
    <g
       id="g4236"
       transform="matrix(0.28222208,0,0,0.28222208,-17.756601,4.7294879)">
      <ellipse
         ry="50.535061"
         rx="50.535057"
         cy="-67.413826"
         cx="53.995277"
         id="ellipse4238"
         style="color:#000000;clip-rule:nonzero;display:inline;overflow:visible;visibility:visible;opacity:1;isolation:auto;mix-blend-mode:normal;color-interpolation:sRGB;color-interpolation-filters:linearRGB;solid-color:#000000;solid-opacity:1;fill:none;fill-opacity:1;fill-rule:evenodd;stroke:#6699ff;stroke-width:0.52987552;stroke-linecap:butt;stroke-linejoin:round;stroke-miterlimit:4;stroke-dasharray:none;stroke-dashoffset:8.05119991;stroke-opacity:1;marker:none;color-rendering:auto;image-rendering:auto;shape-rendering:auto;text-rendering:auto;enable-background:accumulate" />
      <ellipse
         ry="3.3554351"
         rx="3.3554349"
         cy="-67.413826"
         cx="53.995277"
         id="ellipse4240"
         style="color:#000000;clip-rule:nonzero;display:inline;overflow:visible;visibility:visible;opacity:1;isolation:auto;mix-blend-mode:normal;color-interpolation:sRGB;color-interpolation-filters:linearRGB;solid-color:#000000;solid-opacity:1;fill:none;fill-opacity:1;fill-rule:evenodd;stroke:#6699ff;stroke-width:0.28222221;stroke-linecap:butt;stroke-linejoin:round;stroke-miterlimit:4;stroke-dasharray:none;stroke-dashoffset:8.05119991;stroke-opacity:1;marker:none;color-rendering:auto;image-rendering:auto;shape-rendering:auto;text-rendering:auto;enable-background:accumulate" />
    </g>
    <g
       id="g4185"
       style="fill:#003399;stroke:none;stroke-width:0.99999994;stroke-miterlimit:4;stroke-dasharray:none"
       transform="matrix(0.28222208,0,0,0.28222208,-12.716741,23.621898)">
      <path
         sodipodi:nodetypes="cscccccc"
         inkscape:connector-curvature="0"
         id="path4242"
         d="m -17.395525,-90.079104 -6.943174,0.08728 c -8.117717,0.102045 -7.680198,-0.128106 -8.907245,4.451289 l -4.402656,15.673763 c 0.78801,10.553551 -2.572325,21.028825 -6.53737,27.602738 3.634963,2.054765 0.08503,7.473103 0.08503,36.2259656 4.959724,3.2752572 9.901422,7.4043406 12.093772,10.597866 2.688318,-2.1715712 2.652434,3.9817099 14.597265,3.9817099"
         style="fill:#003399;fill-opacity:0.50867052;fill-rule:evenodd;stroke:none;stroke-width:0.99999994;stroke-linecap:butt;stroke-linejoin:miter;stroke-miterlimit:4;stroke-dasharray:none;stroke-opacity:1" />
      <ellipse
         ry="2.0083032"
         rx="2.0083029"
         style="color:#000000;clip-rule:nonzero;display:inline;overflow:visible;visibility:visible;opacity:1;isolation:auto;mix-blend-mode:normal;color-interpolation:sRGB;color-interpolation-filters:linearRGB;solid-color:#000000;solid-opacity:1;fill:#003399;fill-opacity:1;fill-rule:evenodd;stroke:none;stroke-width:0.99999994;stroke-linecap:butt;stroke-linejoin:round;stroke-miterlimit:4;stroke-dasharray:none;stroke-dashoffset:8.05119991;stroke-opacity:1;marker:none;color-rendering:auto;image-rendering:auto;shape-rendering:auto;text-rendering:auto;enable-background:accumulate"
         id="ellipse4206"
         cx="-40.461609"
         cy="-43.680611" />
      <use
         height="100%"
         width="100%"
         transform="translate(10.106544,-42.825564)"
         id="use4181"
         xlink:href="#ellipse4206"
         y="0"
         x="0"
         style="fill:#003399;stroke:none;stroke-width:0.99999994;stroke-miterlimit:4;stroke-dasharray:none" />
      <use
         height="100%"
         width="100%"
         transform="translate(7.0719134,42.774504)"
         id="use4183"
         xlink:href="#ellipse4206"
         y="0"
         x="0"
         style="fill:#003399;stroke:none;stroke-width:0.99999994;stroke-miterlimit:4;stroke-dasharray:none" />
      <path
         sodipodi:type="inkscape:offset"
         inkscape:radius="-2.6936336"
         inkscape:original="M -17.396484 -90.080078 L -24.337891 -89.992188 C -32.455608 -89.890142 -32.019047 -90.120411 -33.246094 -85.541016 L -37.648438 -69.867188 C -36.860428 -59.313637 -40.220502 -48.837585 -44.185547 -42.263672 C -40.550584 -40.208907 -44.101562 -34.789972 -44.101562 -6.0371094 C -39.141838 -2.7618522 -34.200163 1.3670215 -32.007812 4.5605469 C -29.319495 2.3889757 -29.354987 8.5410156 -17.410156 8.5410156 L -17.396484 -90.080078 z "
         style="fill:#ffcc00;fill-opacity:0.50867052;fill-rule:evenodd;stroke:none;stroke-width:0.99999994;stroke-linecap:butt;stroke-linejoin:miter;stroke-miterlimit:4;stroke-dasharray:none;stroke-opacity:1"
         id="path4212"
         d="m -20.089844,-87.351562 -4.214844,0.05273 c -3.972259,0.04993 -5.738315,0.306905 -5.708984,0.255859 -0.122803,0.315491 -0.326329,1.062698 -0.630859,2.199219 a 2.6939029,2.6939029 0 0 1 -0.0078,0.03125 l -4.320312,15.380859 c 0.610478,10.149376 -2.245998,19.799281 -5.97461,26.707032 0.504004,0.788618 0.849498,1.687839 0.97461,2.5625 0.249456,1.743955 0.09615,3.589676 -0.123047,6.222656 -0.421738,5.065913 -1.213367,13.289354 -1.275391,26.5859374 4.010075,2.7501683 7.798693,5.8095933 10.335938,8.8691406 0.721257,-0.00124 1.454848,0.093787 1.935547,0.3261719 1.180632,0.5707542 1.692482,1.1516126 2.457031,1.6835937 1.239287,0.8623093 3.015316,1.8159433 6.539062,2.1601563 l 0.01367,-93.0371089 z" />
    </g>
    <use
       x="0"
       y="0"
       xlink:href="#g4185"
       id="use4191"
       transform="matrix(-1,0,0,1,-35.285201,2.0532098e-6)"
       width="100%"
       height="100%" />
    <path
       inkscape:connector-curvature="0"
       style="fill:#003399;fill-opacity:0.50867052;fill-rule:evenodd;stroke:none;stroke-width:0.99999994;stroke-linecap:butt;stroke-linejoin:miter;stroke-miterlimit:4;stroke-dasharray:none;stroke-opacity:1"
       d="m -17.658041,-50.362842 0,5.6e-4 -1.92668,0.0243 c -1.36013,0.0171 -1.86914,10e-4 -2.13077,0.25591 -0.17906,0.17427 -0.2423,0.47516 -0.383,1.00028 l -1.2425,4.4235 c 0.22239,2.97845 -0.72598,5.93478 -1.845,7.79008 0.3847,0.21747 0.48429,0.56849 0.45845,1.35016 -0.009,0.26055 -0.0312,0.56891 -0.0618,0.93619 -0.0459,0.55091 -0.10966,1.23425 -0.17159,2.08722 -0.10323,1.42161 -0.20115,3.31434 -0.20115,5.85018 0,0 1.6e-4,0 1.6e-4,0 0.17493,0.11552 0.34974,0.23496 0.52301,0.35702 0,0 1.6e-4,0 1.6e-4,0 0.0866,0.061 0.17275,0.12268 0.25839,0.18497 0,0 1.6e-4,0 1.6e-4,0 0.0856,0.0623 0.17069,0.12524 0.25497,0.18855 0,0 1.6e-4,0 1.6e-4,0 0.0843,0.0633 0.16776,0.12711 0.25031,0.19119 0,0 1.6e-4,0 1.6e-4,0 0.16513,0.12818 0.3263,0.25787 0.48225,0.38766 0,0 1.6e-4,0 1.6e-4,0 0.078,0.0649 0.15452,0.12985 0.22961,0.19477 0,0 1.6e-4,0 1.6e-4,0 0.0751,0.0649 0.14858,0.12991 0.22044,0.19461 0,0 1.6e-4,0 1.6e-4,0 0.0719,0.0647 0.14192,0.12928 0.21017,0.19353 0,0 1.5e-4,0 1.5e-4,0 0.40959,0.3856 0.7507,0.7608 0.98271,1.09876 0.75678,-0.61131 0.74936,1.1144 4.09479,1.12318 l 0,5.6e-4 c 0.004,0 0.008,-1.6e-4 0.0124,-1.6e-4 0.004,10e-6 0.008,1.6e-4 0.0125,1.6e-4 l 0,-5.6e-4 c 1.8818,-0.005 2.70279,-0.55305 3.19562,-0.92297 0.38331,-0.28772 0.56807,-0.46766 0.89916,-0.20021 0.61873,-0.90129 2.013358,-2.06671 3.413102,-2.99106 0,0 1.59e-4,0 1.59e-4,0 0,-2.53584 -0.09792,-4.42857 -0.201146,-5.85018 -0.06194,-0.85297 -0.125746,-1.53631 -0.171588,-2.08722 -0.03056,-0.36728 -0.05315,-0.67564 -0.06176,-0.93619 -0.02581,-0.78167 0.07375,-1.13269 0.458451,-1.35016 -1.119023,-1.8553 -2.067396,-4.81163 -1.845002,-7.79008 l -1.242496,-4.4235 c -0.14071,-0.52512 -0.20395,-0.82601 -0.383,-1.00028 -0.0138,-0.0134 -0.0281,-0.0262 -0.0433,-0.0381 0,0 -1.6e-4,0 -1.6e-4,0 -0.0152,-0.0119 -0.0311,-0.0232 -0.0479,-0.0337 0,0 -1.5e-4,0 -1.5e-4,0 -0.0168,-0.0106 -0.0346,-0.0204 -0.0532,-0.0297 0,0 -1.6e-4,0 -1.6e-4,0 -0.0186,-0.009 -0.0382,-0.018 -0.0588,-0.0261 0,0 -1.6e-4,0 -1.6e-4,0 -0.0206,-0.008 -0.0422,-0.0157 -0.065,-0.0227 0,0 -1.5e-4,0 -1.5e-4,0 -0.0228,-0.007 -0.0466,-0.0135 -0.0717,-0.0194 0,0 -1.6e-4,0 -1.6e-4,0 -0.0251,-0.006 -0.0514,-0.0116 -0.079,-0.0167 0,0 -1.6e-4,0 -1.6e-4,0 -0.0553,-0.0102 -0.11591,-0.0185 -0.18232,-0.0255 0,0 -1.6e-4,0 -1.6e-4,0 -0.0664,-0.007 -0.1387,-0.0126 -0.21763,-0.0171 0,0 -1.6e-4,0 -1.6e-4,0 -0.079,-0.005 -0.16459,-0.008 -0.25746,-0.0109 0,0 -1.6e-4,0 -1.6e-4,0 -0.0929,-0.003 -0.19312,-0.005 -0.30133,-0.007 0,0 -1.6e-4,0 -1.6e-4,0 -0.21651,-0.003 -0.46508,-0.006 -0.75138,-0.009 l -1.6e-4,0 -1.92652,-0.0243 0,-5.6e-4 -0.0165,1.6e-4 -0.0165,-1.6e-4 z m -3.62452,0.44165 a 0.56678743,0.56678751 0 0 1 0.56673,0.56672 0.56678743,0.56678751 0 0 1 -0.56673,0.56688 0.56678743,0.56678751 0 0 1 -0.56688,-0.56688 0.56678743,0.56678751 0 0 1 0.56688,-0.56672 z m 7.28201,0 a 0.56678743,0.56678751 0 0 1 0.56672,0.56672 0.56678743,0.56678751 0 0 1 -0.56672,0.56688 0.56678743,0.56678751 0 0 1 -0.56688,-0.56688 0.56678743,0.56678751 0 0 1 0.56688,-0.56672 z m -4.38492,0.32824 1.48783,0 1.18945,0.0148 1.6e-4,0 c 0.004,4e-5 0.007,8e-5 0.0101,1.6e-4 0.1396,0.002 0.26899,0.005 0.38938,0.008 0.0654,0.002 0.12184,0.004 0.1817,0.006 0.0522,0.002 0.10772,0.004 0.15572,0.006 0.0123,5.7e-4 0.0186,10e-4 0.0306,0.002 -0.0615,0.51044 0.1459,1.22239 1.16565,1.18525 l 1.07744,3.83561 c -0.008,0.13125 -0.0131,0.26206 -0.017,0.39265 -8.2e-4,0.0276 -0.002,0.0552 -0.002,0.0828 -0.003,0.12755 -0.004,0.25466 -0.003,0.38145 8e-5,0.0189 3.9e-4,0.0377 6.5e-4,0.0566 10e-4,0.12527 0.004,0.25021 0.009,0.37461 4e-4,0.0105 6.5e-4,0.0211 10e-4,0.0316 0.005,0.12818 0.0126,0.25574 0.0213,0.38285 0.002,0.0249 0.003,0.0497 0.005,0.0745 0.009,0.12403 0.0198,0.24751 0.0322,0.3704 0.002,0.0208 0.004,0.0416 0.007,0.0624 0.0121,0.11463 0.0255,0.22872 0.0403,0.34224 0.002,0.0176 0.004,0.0353 0.007,0.0529 0.0162,0.12102 0.0342,0.24129 0.0534,0.36092 0.004,0.0265 0.009,0.0529 0.0129,0.0793 0.0195,0.11754 0.0401,0.23444 0.0622,0.35049 0.004,0.0229 0.009,0.0455 0.0135,0.0683 0.0201,0.10247 0.0411,0.20434 0.06316,0.30554 0.0053,0.0243 0.01046,0.0487 0.01587,0.073 0.02569,0.11506 0.05276,0.22909 0.08089,0.3424 0.0053,0.0213 0.01066,0.0424 0.01602,0.0636 0.02935,0.11601 0.05956,0.23135 0.09132,0.34536 0.0405,0.14536 0.08324,0.28887 0.127408,0.43076 0.01181,0.0379 0.02434,0.0751 0.0364,0.11278 0.03331,0.10409 0.06723,0.20738 0.102362,0.30942 0.01612,0.0468 0.03267,0.093 0.04916,0.13939 0.03213,0.0904 0.06485,0.17988 0.09832,0.2685 0.01839,0.0487 0.03677,0.0973 0.05554,0.14546 0.03648,0.0936 0.07369,0.18575 0.11154,0.27721 0.01538,0.0372 0.03045,0.0749 0.04605,0.1117 0.0049,0.0116 0.0095,0.0237 0.01447,0.0353 -0.522888,0.0119 -1.059619,1.46439 0.26026,1.83614 -0.0704,0.49218 -0.02717,1.01309 0.03469,1.75617 0.04463,0.53615 0.103996,1.19757 0.161632,2.01286 0.09606,1.35883 0.187405,3.145 0.198346,5.49037 -0.52703,0.36144 -1.023284,0.71492 -1.511004,1.13236 -1.407824,-0.94569 -2.182044,0.73893 -1.405994,1.37068 -0.0509,-8e-5 -0.102,0.001 -0.15215,0.005 -0.15048,0.0105 -0.29245,0.0379 -0.3942,0.0871 -0.3332,0.16108 -0.47758,0.32496 -0.69335,0.4751 -0.34976,0.24336 -0.85099,0.51252 -1.84547,0.60966 l -1.4956,0 c -0.99448,-0.0971 -1.49572,-0.3663 -1.84547,-0.60966 -0.10785,-0.075 -0.19786,-0.15366 -0.30258,-0.2335 0,0 -1.6e-4,0 -1.6e-4,0 -0.0262,-0.02 -0.0532,-0.04 -0.0817,-0.0601 0,0 -1.6e-4,0 -1.6e-4,0 -0.0285,-0.0201 -0.0584,-0.0404 -0.0902,-0.0605 0,0 -1.6e-4,0 -1.6e-4,0 -0.0319,-0.0202 -0.0655,-0.0403 -0.10174,-0.0605 0,0 -1.6e-4,0 -1.6e-4,0 -0.0362,-0.0202 -0.0749,-0.0404 -0.11652,-0.0605 0,0 -1.6e-4,0 -1.6e-4,0 -0.0169,-0.008 -0.035,-0.0159 -0.054,-0.0229 0,0 -1.6e-4,0 -1.6e-4,0 -0.038,-0.014 -0.0798,-0.0256 -0.12445,-0.0351 0,0 -1.6e-4,0 -1.6e-4,0 -0.0223,-0.005 -0.0453,-0.009 -0.0688,-0.0128 0,0 -1.6e-4,0 -1.6e-4,0 -0.0941,-0.0149 -0.19675,-0.0215 -0.29853,-0.0213 0.77604,-0.63175 0.002,-2.31637 -1.406,-1.37068 -0.48772,-0.41743 -0.98397,-0.77091 -1.511,-1.13236 0.0109,-2.34537 0.10228,-4.13154 0.19834,-5.49037 0.0576,-0.81529 0.117,-1.47671 0.16163,-2.01285 0.0619,-0.74309 0.1051,-1.264 0.0347,-1.75618 1.31987,-0.37175 0.78314,-1.82419 0.26026,-1.83614 0.005,-0.0116 0.01,-0.0237 0.0145,-0.0353 0.0156,-0.0368 0.0307,-0.0745 0.0461,-0.11169 0.0378,-0.0915 0.0751,-0.18363 0.11154,-0.27722 0.0188,-0.0482 0.0371,-0.0968 0.0555,-0.14545 0.0335,-0.0886 0.0662,-0.17813 0.0983,-0.26851 0.0165,-0.0464 0.0331,-0.0926 0.0492,-0.13939 0.0351,-0.10203 0.0691,-0.20533 0.10237,-0.30942 0.0121,-0.0377 0.0246,-0.0748 0.0364,-0.11278 0.0442,-0.14189 0.0869,-0.2854 0.12741,-0.43076 0.0318,-0.11401 0.062,-0.22935 0.0913,-0.34536 0.005,-0.0212 0.0108,-0.0424 0.016,-0.0636 0.0281,-0.1133 0.0552,-0.22734 0.0809,-0.3424 0.005,-0.0242 0.0106,-0.0486 0.0159,-0.073 0.0221,-0.1012 0.0431,-0.20307 0.0632,-0.30553 0.004,-0.0228 0.009,-0.0454 0.0135,-0.0683 0.0222,-0.11606 0.0427,-0.23296 0.0622,-0.35049 0.004,-0.0264 0.009,-0.0529 0.0129,-0.0793 0.0191,-0.11962 0.0371,-0.23989 0.0534,-0.36091 0.002,-0.0176 0.004,-0.0353 0.007,-0.0529 0.0148,-0.11353 0.0282,-0.22761 0.0403,-0.34225 0.002,-0.0208 0.005,-0.0415 0.007,-0.0624 0.0124,-0.12289 0.023,-0.24637 0.0322,-0.3704 0.002,-0.0248 0.004,-0.0497 0.005,-0.0745 0.009,-0.12711 0.0161,-0.25467 0.0213,-0.38284 2.8e-4,-0.0105 8.4e-4,-0.0211 0.001,-0.0316 0.005,-0.12202 0.007,-0.24459 0.009,-0.36745 2.4e-4,-0.0233 5.6e-4,-0.0466 8.4e-4,-0.07 5.7e-4,-0.12472 -2.8e-4,-0.24977 -0.003,-0.37523 -5.6e-4,-0.0276 -0.001,-0.0552 -0.002,-0.0828 -0.004,-0.13059 -0.009,-0.2614 -0.017,-0.39264 l 1.07745,-3.83562 c 1.01974,0.0371 1.22716,-0.67481 1.16565,-1.18525 0.0121,-5.6e-4 0.0183,-10e-4 0.0306,-0.002 0.048,-0.002 0.10354,-0.004 0.15572,-0.006 0.0599,-0.002 0.11627,-0.004 0.1817,-0.006 0.12039,-0.003 0.24978,-0.006 0.38938,-0.008 0.004,-5e-5 0.006,-8e-5 0.0101,-1.6e-4 l 1.18961,-0.0148 z m -5.74937,11.75809 a 0.56678743,0.56678751 0 0 1 0.56672,0.56672 0.56678743,0.56678751 0 0 1 -0.56672,0.56688 0.56678743,0.56678751 0 0 1 -0.56688,-0.56688 0.56678743,0.56678751 0 0 1 0.56688,-0.56672 z m 12.986574,0 a 0.56678743,0.56678751 0 0 1 0.566724,0.56672 0.56678743,0.56678751 0 0 1 -0.566724,0.56688 0.56678743,0.56678751 0 0 1 -0.566879,-0.56688 0.56678743,0.56678751 0 0 1 0.566879,-0.56672 z m -10.990834,12.07186 a 0.56678743,0.56678751 0 0 1 0.56688,0.56688 0.56678743,0.56678751 0 0 1 -0.56688,0.56672 0.56678743,0.56678751 0 0 1 -0.56672,-0.56672 0.56678743,0.56678751 0 0 1 0.56672,-0.56688 z m 8.99493,0 a 0.56678743,0.56678751 0 0 1 0.56688,0.56688 0.56678743,0.56678751 0 0 1 -0.56688,0.56672 0.56678743,0.56678751 0 0 1 -0.56672,-0.56672 0.56678743,0.56678751 0 0 1 0.56672,-0.56688 z"
       id="path4242-6" />
    <path
       style="fill:#cc0000;fill-opacity:1;fill-rule:evenodd;stroke:none;stroke-width:0.99999994;stroke-linecap:butt;stroke-linejoin:miter;stroke-miterlimit:4;stroke-dasharray:none;stroke-opacity:1"
       d="m -17.658091,-50.362753 0,5.5e-4 -1.926497,0.02425 c -1.36013,0.0171 -1.869368,8.56e-4 -2.130998,0.255764 -0.17906,0.17427 -0.242394,0.475336 -0.383094,1.000455 l -1.242439,4.423504 c 0.06994,0.936743 0.02361,1.871093 -0.106936,2.769855 l 0.730911,0.172531 c 0.01078,-0.07141 0.02229,-0.142539 0.03197,-0.214421 0.002,-0.0176 0.0042,-0.03532 0.0072,-0.05292 0.0148,-0.113533 0.02814,-0.227666 0.04024,-0.342305 0.002,-0.0208 0.0052,-0.04139 0.0072,-0.06229 0.0124,-0.122888 0.02277,-0.246386 0.03197,-0.370417 0.002,-0.0248 0.004,-0.04962 0.005,-0.07441 0.009,-0.127111 0.0163,-0.254373 0.0215,-0.382544 2.8e-4,-0.0105 9.42e-4,-0.02147 0.0011,-0.03197 0.005,-0.122019 0.0068,-0.24425 0.0088,-0.367109 2.4e-4,-0.0233 8.22e-4,-0.0466 0.0011,-0.07001 5.7e-4,-0.124719 -5.87e-4,-0.249916 -0.0033,-0.375378 -5.6e-4,-0.0276 -0.0012,-0.05508 -0.0022,-0.08268 -0.004,-0.130589 -0.0085,-0.261778 -0.01654,-0.393017 l 1.077074,-3.835357 c 1.01974,0.0371 1.22733,-0.674672 1.16582,-1.185113 0.0121,-5.56e-4 0.01857,-0.0012 0.03087,-0.0022 0.048,-0.002 0.103263,-0.0041 0.155443,-0.0061 0.0599,-0.002 0.116471,-0.0041 0.181901,-0.0061 0.12039,-0.003 0.249558,-0.0057 0.389158,-0.0077 0.004,-5e-5 0.0058,-4.71e-4 0.0099,-5.5e-4 l 1.187317,-0.01433 0.0028,0 1.485525,0 1.188971,0.01433 5.51e-4,0 c 0.004,4e-5 0.0068,4.71e-4 0.0099,5.5e-4 0.1396,0.002 0.268768,0.0047 0.389158,0.0077 0.0654,0.002 0.122041,0.0041 0.181901,0.0061 0.0522,0.002 0.107994,0.0041 0.155994,0.0061 0.0123,5.71e-4 0.01832,0.0012 0.03032,0.0022 -0.0615,0.510441 0.14607,1.222253 1.16582,1.185113 l 1.077074,3.835357 c -0.008,0.131251 -0.01264,0.262428 -0.01654,0.393017 -8.2e-4,0.0276 -0.0022,0.05508 -0.0022,0.08268 -0.003,0.127551 -0.0038,0.254652 -0.0028,0.381443 8e-5,0.0189 2.92e-4,0.03787 5.51e-4,0.05678 10e-4,0.12527 0.0038,0.249874 0.0088,0.374275 4e-4,0.0105 7.52e-4,0.02092 0.0011,0.03142 0.005,0.12818 0.0128,0.255984 0.0215,0.383095 0.002,0.0249 0.003,0.04961 0.005,0.07441 0.009,0.124031 0.01957,0.247529 0.03197,0.370417 0.002,0.0208 0.0042,0.04149 0.0072,0.06229 0.0121,0.114627 0.02544,0.228783 0.04024,0.342305 0.002,0.0176 0.0042,0.03531 0.0072,0.05292 0.0096,0.07169 0.02082,0.142647 0.03142,0.213871 l 0.729257,-0.171981 c -0.130543,-0.898762 -0.17688,-1.833112 -0.106935,-2.769855 l -1.24244,-4.423504 c -0.14071,-0.525119 -0.204044,-0.826185 -0.383094,-1.000455 -0.0138,-0.0134 -0.02835,-0.02613 -0.04355,-0.03804 -0.0152,-0.01189 -0.03116,-0.02312 -0.04796,-0.03362 -0.0168,-0.0106 -0.03487,-0.02046 -0.05347,-0.02976 -0.0186,-0.009 -0.03838,-0.01781 -0.05898,-0.02591 -0.0206,-0.008 -0.04224,-0.0156 -0.06504,-0.0226 -0.0228,-0.007 -0.04656,-0.01394 -0.07166,-0.01984 -0.0251,-0.006 -0.05178,-0.01144 -0.07938,-0.01654 -0.0553,-0.0102 -0.116043,-0.01835 -0.182453,-0.02535 -0.0664,-0.007 -0.1388,-0.01259 -0.217729,-0.01709 -0.079,-0.005 -0.164548,-0.0081 -0.257418,-0.01102 l -5.51e-4,0 c -0.0929,-0.003 -0.192754,-0.0052 -0.300964,-0.0072 l -5.51e-4,0 c -0.21651,-0.003 -0.465006,-0.0058 -0.751306,-0.0088 l -1.926497,-0.02425 0,-5.5e-4 -0.01654,0 -0.01654,0 z m -3.62424,0.441522 a 0.56678741,0.56678751 0 0 1 0.56665,0.566652 0.56678741,0.56678751 0 0 1 -0.56665,0.567199 0.56678741,0.56678751 0 0 1 -0.5672,-0.567199 0.56678741,0.56678751 0 0 1 0.5672,-0.566652 z m 7.281554,0 a 0.56678741,0.56678751 0 0 1 0.5672,0.566652 0.56678741,0.56678751 0 0 1 -0.5672,0.567199 0.56678741,0.56678751 0 0 1 -0.56665,-0.567199 0.56678741,0.56678751 0 0 1 0.56665,-0.566652 z m -10.327569,11.304874 c -0.259913,0.649484 -0.551859,1.240847 -0.857691,1.747904 0.3847,0.217472 0.484451,0.568808 0.458611,1.350479 -0.009,0.26055 -0.03114,0.568683 -0.06174,0.935964 -0.0459,0.550909 -0.110049,1.234482 -0.171979,2.087451 -0.10323,1.42161 -0.201194,3.314209 -0.201194,5.850049 l 5.52e-4,0 c 0.105473,0.06965 0.21022,0.143307 0.315295,0.215525 l 0.479557,-0.568856 c -0.0081,-0.0056 -0.01554,-0.01149 -0.0237,-0.01709 0.0109,-2.345371 0.102377,-4.131826 0.198437,-5.490655 0.0576,-0.815292 0.116876,-1.476903 0.161506,-2.013038 0.0619,-0.743091 0.105127,-1.263994 0.03473,-1.756173 1.31987,-0.371751 0.783054,-1.824149 0.260173,-1.836098 0.005,-0.0116 0.01038,-0.02368 0.01488,-0.03528 0.0156,-0.0368 0.03035,-0.07416 0.04575,-0.111345 0.02555,-0.06184 0.05043,-0.124734 0.07552,-0.187412 l -0.728707,-0.171431 z m 13.373584,0 -0.727053,0.170877 c 0.02516,0.06292 0.0504,0.125939 0.07607,0.187966 0.01538,0.0372 0.03015,0.07455 0.04575,0.111345 0.0049,0.0116 0.0094,0.02368 0.01433,0.03528 -0.522887,0.0119 -1.059705,1.464347 0.260174,1.836098 -0.0704,0.492179 -0.02713,1.01309 0.03473,1.756173 0.04463,0.536146 0.104422,1.197746 0.162058,2.013038 0.09606,1.358829 0.186945,3.145284 0.197886,5.490655 -0.0085,0.0058 -0.01632,0.01181 -0.0248,0.01764 l 0.479006,0.568303 c 0.105109,-0.07219 0.209799,-0.145858 0.315296,-0.215525 0,-2.53584 -0.09742,-4.428439 -0.200643,-5.850049 -0.06194,-0.852969 -0.126137,-1.536542 -0.171979,-2.087451 -0.03056,-0.367281 -0.05313,-0.675414 -0.06174,-0.935964 -0.02581,-0.781671 0.07391,-1.133007 0.458611,-1.350479 -0.305832,-0.507057 -0.597778,-1.09842 -0.857691,-1.747904 z m -13.180107,0.781626 a 0.56678741,0.56678751 0 0 1 0.566649,0.566649 0.56678741,0.56678751 0 0 1 -0.566649,0.566648 0.56678741,0.56678751 0 0 1 -0.56665,-0.566648 0.56678741,0.56678751 0 0 1 0.56665,-0.566649 z m 12.986631,0 a 0.56678741,0.56678751 0 0 1 0.566649,0.566649 0.56678741,0.56678751 0 0 1 -0.566649,0.566648 0.56678741,0.56678751 0 0 1 -0.56665,-0.566648 0.56678741,0.56678751 0 0 1 0.56665,-0.566649 z m -2.754423,13.326178 c -0.01892,7.73e-4 -0.03806,1.63e-4 -0.05678,0.0017 -0.15048,0.0105 -0.29292,0.03789 -0.39467,0.08709 -0.3332,0.161079 -0.477108,0.325007 -0.692878,0.475147 -0.34976,0.24336 -0.850989,0.512504 -1.845468,0.609645 l -1.495999,0 c -0.994479,-0.0971 -1.495718,-0.366285 -1.845468,-0.609645 -0.10785,-0.075 -0.197897,-0.153876 -0.302617,-0.233714 -0.0262,-0.02 -0.05308,-0.03998 -0.08158,-0.06008 -0.0285,-0.0201 -0.0586,-0.04054 -0.0904,-0.06064 -0.0319,-0.0202 -0.06574,-0.04043 -0.101975,-0.06063 -0.0362,-0.0202 -0.07524,-0.03998 -0.116858,-0.06008 -0.0169,-0.008 -0.03502,-0.01615 -0.05402,-0.02315 -0.038,-0.014 -0.07993,-0.02578 -0.124575,-0.03528 -0.0223,-0.005 -0.0454,-0.0089 -0.0689,-0.01268 -0.06562,-0.01039 -0.137617,-0.0115 -0.208359,-0.01433 l -0.531371,0.630042 c 0.05909,0.07529 0.116377,0.149425 0.165915,0.221586 0.75678,-0.61131 0.748997,1.114598 4.094427,1.123377 l 0,5.51e-4 0.01268,0 c 0.004,1.1e-5 0.0082,0 0.01268,0 l 0,-5.51e-4 c 1.8818,-0.005 2.702565,-0.552814 3.195395,-0.922734 0.38331,-0.287719 0.567942,-0.468093 0.899032,-0.200643 0.04861,-0.07081 0.109755,-0.145559 0.167569,-0.219382 l -0.535781,-0.635553 z"
       id="path5880"
       inkscape:connector-curvature="0" />
  </g>
</svg>
