<?xml version="1.0" encoding="UTF-8" standalone="no"?>
<!-- Created with Inkscape (http://www.inkscape.org/) -->

<svg
   xmlns:dc="http://purl.org/dc/elements/1.1/"
   xmlns:cc="http://creativecommons.org/ns#"
   xmlns:rdf="http://www.w3.org/1999/02/22-rdf-syntax-ns#"
   xmlns:svg="http://www.w3.org/2000/svg"
   xmlns="http://www.w3.org/2000/svg"
   xmlns:sodipodi="http://sodipodi.sourceforge.net/DTD/sodipodi-0.dtd"
   xmlns:inkscape="http://www.inkscape.org/namespaces/inkscape"
   width="53.465"
   height="98.622528"
   viewBox="0 0 53.465 98.622529"
   id="svg4229"
   version="1.1"
   inkscape:version="0.91 r13725"
   sodipodi:docname="et160-skirt.svg">
  <defs
     id="defs4231" />
  <sodipodi:namedview
     id="base"
     pagecolor="#ffffff"
     bordercolor="#666666"
     borderopacity="1.0"
     inkscape:pageopacity="0.0"
     inkscape:pageshadow="2"
     inkscape:zoom="3.3053957"
     inkscape:cx="17.97913"
     inkscape:cy="56.428465"
     inkscape:document-units="px"
     inkscape:current-layer="layer1"
     showgrid="false"
     inkscape:window-width="1366"
     inkscape:window-height="704"
     inkscape:window-x="0"
     inkscape:window-y="27"
     inkscape:window-maximized="1"
     fit-margin-top="0"
     fit-margin-left="0"
     fit-margin-right="0"
     fit-margin-bottom="0"
     units="px" />
  <metadata
     id="metadata4234">
    <rdf:RDF>
      <cc:Work
         rdf:about="">
        <dc:format>image/svg+xml</dc:format>
        <dc:type
           rdf:resource="http://purl.org/dc/dcmitype/StillImage" />
        <dc:title></dc:title>
      </cc:Work>
    </rdf:RDF>
  </metadata>
  <g
     inkscape:label="Layer 1"
     inkscape:groupmode="layer"
     id="layer1"
     transform="translate(-251.33008,-756.16334)">
    <path
       style="fill:#003399;fill-opacity:0.50867052;fill-rule:evenodd;stroke:none;stroke-width:0.99999994;stroke-linecap:butt;stroke-linejoin:miter;stroke-miterlimit:4;stroke-dasharray:none;stroke-opacity:1"
       d="m 278.00415,756.16369 0,0.002 -6.82685,0.086 c -4.81942,0.0606 -6.62302,0.004 -7.55006,0.90676 -0.63446,0.61751 -0.85853,1.68366 -1.3571,3.54434 l -4.4026,15.67393 c 0.78802,10.55364 -2.57238,21.02892 -6.53746,27.60288 1.36312,0.77055 1.71602,2.01433 1.62444,4.78404 -0.0305,0.92323 -0.11054,2.01585 -0.21883,3.31724 -0.16243,1.95208 -0.38854,4.37337 -0.608,7.39571 -0.36576,5.03724 -0.71272,11.74383 -0.71272,20.72917 0,0 5.5e-4,0 5.5e-4,0 0.61984,0.40933 1.23924,0.83253 1.8532,1.26505 0,0 5.5e-4,0 5.5e-4,0 0.30692,0.21622 0.61213,0.43469 0.91558,0.6554 0,0 5.5e-4,0 5.5e-4,0 0.30345,0.2207 0.6048,0.44376 0.90345,0.66808 0,0 5.5e-4,0 5.5e-4,0 0.29864,0.22431 0.5944,0.45039 0.88691,0.67745 0,0 5.5e-4,0 5.5e-4,0 0.58513,0.4542 1.15622,0.91372 1.70878,1.37363 0,0 5.5e-4,0 5.5e-4,0 0.27623,0.22992 0.54751,0.4601 0.81361,0.69013 0,0 5.5e-4,0 5.5e-4,0 0.26608,0.23003 0.52646,0.46031 0.78107,0.68958 0,0 5.5e-4,0 5.5e-4,0 0.25462,0.22927 0.50289,0.45807 0.7447,0.68571 0,0 5.5e-4,0 5.5e-4,0 1.45131,1.36631 2.65997,2.69577 3.48206,3.89327 2.68151,-2.16607 2.65521,3.94872 14.5092,3.97981 l 0,0.002 c 0.0152,0 0.029,-5.5e-4 0.0441,-5.5e-4 0.0151,2e-5 0.0289,5.5e-4 0.0441,5.5e-4 l 0,-0.002 c 6.66787,-0.0175 9.57691,-1.95964 11.32315,-3.27039 1.3582,-1.01947 2.01289,-1.65708 3.18605,-0.70942 2.19237,-3.19355 7.134,-7.32302 12.09376,-10.5983 0,0 5.5e-4,0 5.5e-4,0 0,-8.98534 -0.34696,-15.69193 -0.71272,-20.72917 -0.21946,-3.02234 -0.44557,-5.44363 -0.608,-7.39571 -0.10829,-1.30139 -0.18831,-2.39401 -0.21883,-3.31724 -0.0915,-2.76971 0.26132,-4.01349 1.62444,-4.78404 -3.96508,-6.57433 -7.32548,-17.0496 -6.53746,-27.60324 l -4.4026,-15.67393 c -0.49857,-1.86068 -0.72264,-2.92683 -1.3571,-3.54434 -0.0487,-0.0474 -0.0994,-0.0928 -0.15324,-0.13505 0,0 -5.5e-4,0 -5.5e-4,0 -0.0538,-0.0423 -0.11017,-0.0822 -0.16978,-0.11961 0,0 -5.5e-4,0 -5.5e-4,0 -0.0596,-0.0374 -0.12251,-0.0724 -0.18851,-0.10529 0,0 -5.5e-4,0 -5.5e-4,0 -0.066,-0.0329 -0.13533,-0.0639 -0.20836,-0.0926 0,0 -5.6e-4,0 -5.6e-4,0 -0.0731,-0.0287 -0.14972,-0.0557 -0.23041,-0.0805 0,0 -5.5e-4,0 -5.5e-4,0 -0.0807,-0.0248 -0.16515,-0.0477 -0.25411,-0.0689 0,0 -5.5e-4,0 -5.5e-4,0 -0.089,-0.0212 -0.18215,-0.041 -0.28002,-0.059 0,0 -5.5e-4,0 -5.5e-4,0 -0.19599,-0.036 -0.41072,-0.0656 -0.64603,-0.0904 0,0 -5.5e-4,0 -5.5e-4,0 -0.23538,-0.0248 -0.49146,-0.0446 -0.77116,-0.0606 0,0 -5.5e-4,0 -5.5e-4,0 -0.27976,-0.0161 -0.5832,-0.0287 -0.91227,-0.0386 0,0 -5.5e-4,0 -5.5e-4,0 -0.32913,-0.01 -0.68428,-0.0175 -1.06771,-0.0237 0,0 -5.5e-4,0 -5.5e-4,0 -0.76717,-0.0124 -1.64794,-0.0198 -2.66239,-0.0325 l -5.6e-4,0 -6.8263,-0.086 0,-0.002 -0.0584,5.5e-4 -0.0584,-5.5e-4 z m -12.84287,1.56491 a 2.0083191,2.0083193 0 0 1 2.0081,2.00809 2.0083191,2.0083193 0 0 1 -2.0081,2.00865 2.0083191,2.0083193 0 0 1 -2.00864,-2.00865 2.0083191,2.0083193 0 0 1 2.00864,-2.00809 z m 25.8026,0 a 2.0083191,2.0083193 0 0 1 2.00809,2.00809 2.0083191,2.0083193 0 0 1 -2.00809,2.00865 2.0083191,2.0083193 0 0 1 -2.00865,-2.00865 2.0083191,2.0083193 0 0 1 2.00865,-2.00809 z m -15.53723,1.16308 5.27186,0 4.21463,0.0524 5.5e-4,0 c 0.0128,1.6e-4 0.0231,3.9e-4 0.0358,5.5e-4 0.49465,0.006 0.95312,0.0163 1.3797,0.0281 0.23183,0.006 0.43172,0.0145 0.64383,0.022 0.18491,0.007 0.38169,0.0126 0.55177,0.0199 0.0437,0.002 0.0658,0.004 0.10859,0.006 -0.21797,1.80866 0.51698,4.33135 4.13029,4.19974 l 3.81774,13.59088 c -0.028,0.46505 -0.0464,0.92854 -0.0601,1.39127 -0.003,0.0978 -0.006,0.19559 -0.008,0.29325 -0.0105,0.45195 -0.0148,0.90235 -0.0121,1.3516 3.9e-4,0.067 0.002,0.13372 0.002,0.20064 0.005,0.44385 0.0146,0.88658 0.0314,1.32734 0.001,0.0373 0.002,0.0747 0.004,0.11189 0.0184,0.45416 0.0446,0.90614 0.0755,1.35655 0.006,0.0881 0.0122,0.1761 0.0187,0.26404 0.0326,0.4395 0.0701,0.87702 0.1141,1.31245 0.007,0.0739 0.0159,0.14729 0.0237,0.22104 0.0429,0.40619 0.0904,0.81045 0.14277,1.21269 0.008,0.0624 0.0154,0.12512 0.0237,0.18741 0.0575,0.42881 0.12125,0.85496 0.18907,1.27883 0.015,0.0939 0.0302,0.18751 0.0457,0.28112 0.069,0.41648 0.14198,0.83069 0.22049,1.2419 0.0155,0.081 0.0321,0.16118 0.048,0.24199 0.0711,0.36304 0.14564,0.72401 0.2238,1.08259 0.0188,0.0861 0.0371,0.17264 0.0562,0.25852 0.091,0.40772 0.18695,0.81177 0.28663,1.21324 0.0187,0.0753 0.0378,0.15035 0.0568,0.22545 0.10399,0.41105 0.21104,0.81974 0.32357,1.2237 0.14349,0.51508 0.29496,1.02357 0.45145,1.52633 0.0419,0.13446 0.0862,0.26609 0.12898,0.39963 0.11803,0.36882 0.23821,0.73484 0.36271,1.09638 0.0571,0.16586 0.11577,0.32961 0.17418,0.49389 0.11386,0.32025 0.2298,0.63737 0.34837,0.95141 0.0651,0.17254 0.13029,0.34478 0.19679,0.51539 0.12926,0.33163 0.26112,0.65818 0.39522,0.98227 0.0545,0.13173 0.1079,0.26533 0.16316,0.39578 0.0175,0.0412 0.0337,0.0841 0.0513,0.12513 -1.85277,0.0423 -3.75459,5.1888 0.92219,6.50604 -0.24946,1.74397 -0.0963,3.58972 0.12292,6.22272 0.15815,1.89973 0.36849,4.24337 0.57272,7.13223 0.34037,4.81477 0.66403,11.14377 0.7028,19.4542 -1.86744,1.28072 -3.62584,2.53322 -5.35399,4.01233 -4.98841,-3.35089 -7.73172,2.61827 -4.98193,4.85679 -0.18031,-2.8e-4 -0.3614,0.005 -0.53909,0.0176 -0.53323,0.0372 -1.03626,0.13439 -1.39679,0.30869 -1.18064,0.57075 -1.69224,1.15143 -2.45679,1.68342 -1.2393,0.86231 -3.01534,1.81602 -6.53912,2.16023 l -5.29942,0 c -3.52378,-0.34421 -5.29982,-1.29792 -6.53912,-2.16023 -0.38216,-0.26591 -0.70109,-0.54446 -1.07212,-0.82738 0,0 -5.5e-4,0 -5.5e-4,0 -0.0927,-0.0707 -0.18844,-0.14161 -0.28939,-0.21277 0,0 -5.6e-4,0 -5.6e-4,0 -0.10097,-0.0712 -0.20686,-0.14301 -0.3197,-0.21443 0,0 -5.5e-4,0 -5.5e-4,0 -0.11287,-0.0714 -0.23218,-0.14296 -0.3605,-0.21442 0,0 -5.5e-4,0 -5.5e-4,0 -0.12836,-0.0715 -0.26546,-0.14315 -0.41287,-0.21442 0,0 -5.5e-4,0 -5.5e-4,0 -0.0599,-0.029 -0.12399,-0.0562 -0.19127,-0.081 0,0 -5.5e-4,0 -5.5e-4,0 -0.13479,-0.0496 -0.28294,-0.0908 -0.44098,-0.12458 0,0 -5.5e-4,0 -5.5e-4,0 -0.0789,-0.0169 -0.16043,-0.0321 -0.24364,-0.0452 0,0 -5.5e-4,0 -5.5e-4,0 -0.33359,-0.0527 -0.69716,-0.0761 -1.05779,-0.0755 2.74979,-2.23852 0.006,-8.20768 -4.98193,-4.85679 -1.72815,-1.47911 -3.48655,-2.73161 -5.35399,-4.01233 0.0388,-8.31043 0.36243,-14.63943 0.7028,-19.4542 0.20423,-2.88886 0.41457,-5.2325 0.57272,-7.13223 0.2192,-2.633 0.37238,-4.47875 0.12292,-6.22272 4.67678,-1.31724 2.77496,-6.46371 0.92219,-6.50604 0.0175,-0.0411 0.0338,-0.0839 0.0513,-0.12513 0.0553,-0.13045 0.10865,-0.26405 0.16316,-0.39578 0.1341,-0.32409 0.26596,-0.65064 0.39522,-0.98227 0.0665,-0.17061 0.13164,-0.34285 0.19679,-0.51539 0.11857,-0.31404 0.23451,-0.63116 0.34837,-0.95141 0.0584,-0.16428 0.11707,-0.32803 0.17418,-0.49389 0.1245,-0.36154 0.24468,-0.72756 0.36271,-1.09638 0.0427,-0.13354 0.0871,-0.26517 0.12898,-0.39963 0.15649,-0.50276 0.30796,-1.01125 0.45145,-1.52633 0.11253,-0.40396 0.21959,-0.81265 0.32357,-1.2237 0.019,-0.0751 0.0381,-0.15013 0.0568,-0.22545 0.0997,-0.40147 0.19561,-0.80552 0.28664,-1.21324 0.0192,-0.0859 0.0374,-0.17237 0.0562,-0.25852 0.0782,-0.35858 0.15269,-0.71955 0.2238,-1.08259 0.0158,-0.0808 0.0325,-0.16097 0.048,-0.24199 0.0785,-0.41121 0.15148,-0.82542 0.22049,-1.2419 0.0155,-0.0936 0.0307,-0.18726 0.0457,-0.28112 0.0678,-0.42387 0.13159,-0.85002 0.18907,-1.27883 0.008,-0.0623 0.0156,-0.12503 0.0237,-0.18741 0.0524,-0.40224 0.0999,-0.8065 0.14277,-1.21269 0.008,-0.0738 0.0162,-0.14716 0.0237,-0.22104 0.044,-0.43543 0.0815,-0.87295 0.1141,-1.31245 0.007,-0.0879 0.0127,-0.17594 0.0187,-0.26404 0.0309,-0.45041 0.0571,-0.90239 0.0755,-1.35655 0.002,-0.0372 0.002,-0.0746 0.004,-0.11189 0.0165,-0.43236 0.0257,-0.86664 0.0303,-1.30198 8.8e-4,-0.0827 0.002,-0.16524 0.003,-0.24805 0.002,-0.44193 -0.001,-0.885 -0.0116,-1.32955 -0.002,-0.0977 -0.005,-0.19546 -0.008,-0.29325 -0.0137,-0.46273 -0.0321,-0.92622 -0.0601,-1.39127 l 3.81775,-13.59088 c 3.6133,0.13161 4.34825,-2.39108 4.13028,-4.19974 0.0427,-0.002 0.0649,-0.004 0.10859,-0.006 0.17009,-0.007 0.36686,-0.0132 0.55178,-0.0199 0.2121,-0.008 0.41199,-0.0156 0.64382,-0.022 0.42658,-0.0118 0.88505,-0.0217 1.3797,-0.0281 0.0129,-1.6e-4 0.0229,-3.9e-4 0.0358,-5.5e-4 l 4.21518,-0.0524 z m -20.37198,41.66283 a 2.0083191,2.0083193 0 0 1 2.00809,2.0081 2.0083191,2.0083193 0 0 1 -2.00809,2.00864 2.0083191,2.0083193 0 0 1 -2.00864,-2.00864 2.0083191,2.0083193 0 0 1 2.00864,-2.0081 z m 46.01582,0 a 2.0083191,2.0083193 0 0 1 2.00809,2.0081 2.0083191,2.0083193 0 0 1 -2.00809,2.00864 2.0083191,2.0083193 0 0 1 -2.00865,-2.00864 2.0083191,2.0083193 0 0 1 2.00865,-2.0081 z m -38.94422,42.77465 a 2.0083191,2.0083193 0 0 1 2.00864,2.00865 2.0083191,2.0083193 0 0 1 -2.00864,2.00809 2.0083191,2.0083193 0 0 1 -2.0081,-2.00809 2.0083191,2.0083193 0 0 1 2.0081,-2.00865 z m 31.87207,0 a 2.0083191,2.0083193 0 0 1 2.00865,2.00865 2.0083191,2.0083193 0 0 1 -2.00865,2.00809 2.0083191,2.0083193 0 0 1 -2.00809,-2.00809 2.0083191,2.0083193 0 0 1 2.00809,-2.00865 z"
       id="path4242"
       inkscape:connector-curvature="0" />
  </g>
</svg>
