<?xml version="1.0" encoding="UTF-8" standalone="no"?>
<!-- Created with Inkscape (http://www.inkscape.org/) -->

<svg
   xmlns:dc="http://purl.org/dc/elements/1.1/"
   xmlns:cc="http://creativecommons.org/ns#"
   xmlns:rdf="http://www.w3.org/1999/02/22-rdf-syntax-ns#"
   xmlns:svg="http://www.w3.org/2000/svg"
   xmlns="http://www.w3.org/2000/svg"
   xmlns:sodipodi="http://sodipodi.sourceforge.net/DTD/sodipodi-0.dtd"
   xmlns:inkscape="http://www.inkscape.org/namespaces/inkscape"
   width="210mm"
   height="297mm"
   viewBox="0 0 744.09448819 1052.3622047"
   id="svg5282"
   version="1.1"
   inkscape:version="0.91 r13725"
   sodipodi:docname="et160-skirt.svg">
  <defs
     id="defs5284" />
  <sodipodi:namedview
     id="base"
     pagecolor="#ffffff"
     bordercolor="#666666"
     borderopacity="1.0"
     inkscape:pageopacity="0.0"
     inkscape:pageshadow="2"
     inkscape:zoom="0.98994949"
     inkscape:cx="260.1087"
     inkscape:cy="817.40508"
     inkscape:document-units="px"
     inkscape:current-layer="layer1"
     showgrid="false"
     inkscape:window-width="1366"
     inkscape:window-height="704"
     inkscape:window-x="0"
     inkscape:window-y="27"
     inkscape:window-maximized="1" />
  <metadata
     id="metadata5287">
    <rdf:RDF>
      <cc:Work
         rdf:about="">
        <dc:format>image/svg+xml</dc:format>
        <dc:type
           rdf:resource="http://purl.org/dc/dcmitype/StillImage" />
        <dc:title></dc:title>
      </cc:Work>
    </rdf:RDF>
  </metadata>
  <g
     inkscape:label="Layer 1"
     inkscape:groupmode="layer"
     id="layer1">
    <path
       inkscape:connector-curvature="0"
       style="display:inline;opacity:1;fill:#003399;fill-opacity:0.50867052;fill-rule:evenodd;stroke:none;stroke-width:0.99999994;stroke-linecap:butt;stroke-linejoin:miter;stroke-miterlimit:4;stroke-dasharray:none;stroke-opacity:1"
       d="m 291.37013,114.48002 0,0.002 -6.82682,0.0861 c -4.81936,0.0606 -6.62294,0.004 -7.54997,0.90677 -0.63447,0.61749 -0.85855,1.68364 -1.35709,3.5443 l -4.40256,15.67382 c 0.788,10.55356 -2.57237,21.02875 -6.5374,27.60264 1.36311,0.77057 1.71599,2.01434 1.62443,4.78404 -0.0319,0.9232 -0.11055,2.01582 -0.21898,3.3172 -0.16264,1.95205 -0.38856,4.37333 -0.608,7.39567 -0.36577,5.0372 -0.71273,11.74372 -0.71273,20.72898 0,0 5.6e-4,0 5.6e-4,0 0.61984,0.40932 1.23924,0.83254 1.85319,1.26503 0,0 5.7e-4,0 5.7e-4,0 0.30685,0.21614 0.6121,0.4347 0.91555,0.65541 0,0 5.7e-4,0 5.7e-4,0 0.30331,0.22075 0.60481,0.44376 0.90344,0.66809 0,0 5.6e-4,0 5.6e-4,0 0.2987,0.22429 0.59443,0.45039 0.88693,0.67744 0,0 5.7e-4,0 5.7e-4,0 0.5851,0.45418 1.15618,0.91372 1.70876,1.3736 0,0 5.6e-4,0 5.6e-4,0 0.27638,0.22996 0.54751,0.4601 0.81358,0.69013 0,0 5.7e-4,0 5.7e-4,0 0.2661,0.22996 0.52646,0.46031 0.78108,0.68956 0,0 5.7e-4,0 5.7e-4,0 0.25477,0.22926 0.50287,0.45808 0.7447,0.68574 0,0 5.3e-4,0 5.3e-4,0 1.4513,1.3663 2.65996,2.69575 3.48204,3.89324 2.68151,-2.16605 2.65522,3.94867 14.5091,3.97978 l 0,0.002 c 0.0142,0 0.0283,-5.7e-4 0.0439,-5.7e-4 0.0142,4e-5 0.0283,5.7e-4 0.0443,5.7e-4 l 0,-0.002 c 6.6678,-0.0177 9.57682,-1.95963 11.32307,-3.27037 1.35818,-1.01948 2.01284,-1.65706 3.186,-0.70941 2.19235,-3.19354 7.13394,-7.32298 12.09367,-10.59824 0,0 5.6e-4,0 5.6e-4,0 0,-8.98526 -0.34696,-15.69178 -0.71272,-20.72898 -0.21948,-3.02234 -0.44556,-5.44362 -0.60799,-7.39567 -0.10829,-1.30138 -0.18833,-2.394 -0.21884,-3.3172 -0.0915,-2.7697 0.26132,-4.01347 1.62444,-4.78404 -3.96505,-6.57389 -7.32542,-17.04908 -6.53741,-27.60264 l -4.40255,-15.67382 c -0.49858,-1.86066 -0.72266,-2.92681 -1.35709,-3.5443 -0.0489,-0.0475 -0.0996,-0.0928 -0.15342,-0.135 0,0 -5.7e-4,0 -5.7e-4,0 -0.0539,-0.0422 -0.1102,-0.0822 -0.16972,-0.11941 0,0 -5.3e-4,0 -5.3e-4,0 -0.0595,-0.0376 -0.1226,-0.0723 -0.18851,-0.10524 0,0 -5.7e-4,0 -5.7e-4,0 -0.0659,-0.0319 -0.13535,-0.0638 -0.20834,-0.0925 0,0 -5.7e-4,0 -5.7e-4,0 -0.073,-0.0283 -0.14953,-0.0556 -0.23031,-0.0804 0,0 -5.4e-4,0 -5.4e-4,0 -0.0808,-0.0248 -0.16511,-0.0478 -0.25405,-0.0687 0,0 -5.7e-4,0 -5.7e-4,0 -0.0889,-0.0213 -0.18212,-0.0411 -0.27992,-0.0592 0,0 -5.7e-4,0 -5.7e-4,0 -0.19594,-0.0361 -0.4107,-0.0656 -0.64601,-0.0904 0,0 -5.7e-4,0 -5.7e-4,0 -0.23527,-0.0248 -0.49145,-0.0446 -0.77113,-0.0606 0,0 -5.7e-4,0 -5.7e-4,0 -0.27992,-0.0177 -0.58319,-0.0283 -0.91225,-0.0386 0,0 -5.7e-4,0 -5.7e-4,0 -0.32918,-0.0106 -0.68429,-0.0177 -1.06771,-0.0248 0,0 -5.6e-4,0 -5.6e-4,0 -0.76717,-0.0106 -1.64792,-0.0213 -2.66237,-0.0319 l -5.7e-4,0 -6.82625,-0.0861 0,-0.002 -0.0585,5.7e-4 -0.0585,-5.7e-4 z m -12.84279,1.5649 a 2.008302,2.0083022 0 0 1 2.0081,2.00806 2.008302,2.0083022 0 0 1 -2.0081,2.00863 2.008302,2.0083022 0 0 1 -2.00863,-2.00863 2.008302,2.0083022 0 0 1 2.00863,-2.00806 z m 25.8024,0 a 2.008302,2.0083022 0 0 1 2.00806,2.00806 2.008302,2.0083022 0 0 1 -2.00806,2.00863 2.008302,2.0083022 0 0 1 -2.00863,-2.00863 2.008302,2.0083022 0 0 1 2.00863,-2.00806 z m -15.53712,1.16305 5.27184,0 4.21459,0.0524 5.6e-4,0 c 0.0142,1.5e-4 0.0248,2.9e-4 0.0358,5.7e-4 0.49465,0.007 0.95312,0.0177 1.3797,0.0284 0.23173,0.007 0.43171,0.0142 0.64381,0.0213 0.18497,0.007 0.38169,0.0142 0.55177,0.0213 0.0436,0.002 0.0659,0.004 0.10842,0.007 -0.21791,1.80864 0.51697,4.3313 4.13026,4.1997 l 3.8177,13.59074 c -0.0284,0.46506 -0.0464,0.92856 -0.0602,1.39128 -0.003,0.0978 -0.007,0.19559 -0.007,0.29339 -0.0106,0.45195 -0.0142,0.90234 -0.0106,1.35159 2.8e-4,0.067 0.001,0.13359 0.002,0.20055 0.003,0.44387 0.0142,0.88657 0.0319,1.32736 0.001,0.0372 0.002,0.0748 0.004,0.11197 0.0177,0.45418 0.0446,0.90617 0.0755,1.35656 0.007,0.0882 0.0106,0.1761 0.0177,0.26397 0.0319,0.43948 0.0702,0.87701 0.11409,1.31244 0.007,0.0737 0.0142,0.1474 0.0248,0.22111 0.0429,0.40616 0.0904,0.81042 0.1428,1.21266 0.007,0.0624 0.0142,0.12508 0.0248,0.18744 0.0574,0.42881 0.12118,0.85496 0.18921,1.27885 0.0142,0.0939 0.0319,0.18744 0.0457,0.28098 0.0691,0.41648 0.14209,0.8307 0.22039,1.2419 0.0142,0.0811 0.0319,0.16122 0.0478,0.242 0.0712,0.36309 0.14563,0.72404 0.2238,1.08263 0.0188,0.0861 0.0371,0.17256 0.0562,0.25866 0.091,0.40769 0.18694,0.81173 0.28662,1.21323 0.0188,0.0755 0.0378,0.15023 0.0568,0.22535 0.10399,0.41106 0.21104,0.81974 0.32357,1.22372 0.14351,0.51505 0.29495,1.02355 0.45145,1.52631 0.0419,0.13429 0.0862,0.2661 0.12897,0.39962 0.11803,0.36882 0.23822,0.73481 0.3627,1.09637 0.0571,0.16582 0.11576,0.32952 0.17419,0.4939 0.11385,0.32031 0.22979,0.63737 0.34838,0.95138 0.0652,0.17255 0.13029,0.34476 0.1968,0.5154 0.12926,0.33166 0.2611,0.65817 0.39522,0.98225 0.0545,0.13181 0.10789,0.26539 0.16317,0.39578 0.0174,0.0411 0.0337,0.084 0.0513,0.12508 -1.85276,0.0422 -3.75456,5.18878 0.92218,6.50601 -0.24945,1.74394 -0.0963,3.58969 0.12291,6.22265 0.15814,1.89974 0.36849,4.24336 0.57272,7.13218 0.34037,4.81475 0.66403,11.1437 0.7028,19.45407 -1.86743,1.28069 -3.62581,2.53318 -5.35395,4.0123 -4.98836,-3.35087 -7.73166,2.61825 -4.98187,4.85674 -0.18036,-2.9e-4 -0.36142,0.004 -0.53912,0.0177 -0.53319,0.0372 -1.03624,0.13429 -1.39677,0.30862 -1.18063,0.57075 -1.69221,1.15143 -2.45675,1.68342 -1.23931,0.8623 -3.01532,1.81602 -6.53907,2.16022 l -5.29937,0 c -3.52375,-0.34406 -5.29979,-1.29792 -6.53907,-2.16022 -0.38214,-0.26574 -0.70107,-0.54446 -1.07213,-0.82736 0,0 -5.7e-4,0 -5.7e-4,0 -0.0928,-0.0709 -0.1885,-0.14173 -0.28949,-0.21295 0,0 -5.6e-4,0 -5.6e-4,0 -0.10099,-0.0712 -0.20693,-0.14315 -0.31961,-0.21437 0,0 -5.7e-4,0 -5.7e-4,0 -0.11303,-0.0716 -0.23208,-0.1428 -0.36049,-0.21437 0,0 -5.7e-4,0 -5.7e-4,0 -0.12827,-0.0716 -0.26539,-0.14315 -0.41286,-0.21437 0,0 -5.7e-4,0 -5.7e-4,0 -0.0599,-0.0284 -0.12402,-0.0563 -0.19134,-0.0811 0,0 -5.7e-4,0 -5.7e-4,0 -0.13464,-0.0496 -0.28275,-0.0907 -0.44096,-0.12437 0,0 -5.7e-4,0 -5.7e-4,0 -0.079,-0.0177 -0.16051,-0.0319 -0.24378,-0.0454 0,0 -5.6e-4,0 -5.6e-4,0 -0.33343,-0.0528 -0.69715,-0.0762 -1.05779,-0.0755 2.74975,-2.23849 0.007,-8.20761 -4.98189,-4.85674 -1.72806,-1.4791 -3.48643,-2.73158 -5.35386,-4.01231 0.0386,-8.31037 0.36241,-14.63932 0.70278,-19.45407 0.2041,-2.88882 0.41457,-5.23244 0.57271,-7.13215 0.21933,-2.63299 0.3724,-4.47874 0.12295,-6.22268 4.67671,-1.31723 2.77491,-6.46367 0.92218,-6.50601 0.0177,-0.0411 0.0354,-0.084 0.0514,-0.12508 0.0553,-0.13039 0.10878,-0.26397 0.16335,-0.39575 0.13393,-0.32421 0.2661,-0.65066 0.39522,-0.98228 0.0666,-0.17078 0.13145,-0.34299 0.19665,-0.51537 0.1187,-0.31394 0.23457,-0.63117 0.34831,-0.95141 0.0585,-0.16441 0.11728,-0.32811 0.17433,-0.4939 0.12437,-0.36153 0.24484,-0.72755 0.36273,-1.09637 0.0429,-0.13359 0.0872,-0.26504 0.12897,-0.39962 0.15662,-0.50276 0.30792,-1.01126 0.45146,-1.52631 0.11267,-0.40398 0.21968,-0.81266 0.3235,-1.22372 0.0177,-0.0751 0.0383,-0.15024 0.0567,-0.22535 0.0996,-0.40146 0.19559,-0.80554 0.28666,-1.21323 0.0177,-0.0857 0.0376,-0.17221 0.0563,-0.25866 0.0783,-0.35859 0.15271,-0.71954 0.22393,-1.08259 0.0142,-0.0808 0.0319,-0.16087 0.0478,-0.24201 0.0787,-0.41123 0.1513,-0.82545 0.22039,-1.24189 0.0142,-0.0935 0.0319,-0.18744 0.0457,-0.28099 0.0677,-0.42385 0.13146,-0.85 0.18921,-1.27881 0.007,-0.0624 0.0142,-0.12508 0.0248,-0.18744 0.0524,-0.40227 0.0999,-0.80649 0.14279,-1.2127 0.007,-0.0737 0.0177,-0.14705 0.0248,-0.2211 0.0439,-0.43544 0.0815,-0.87297 0.1141,-1.31244 0.007,-0.0879 0.0142,-0.1761 0.0177,-0.26398 0.0319,-0.45039 0.057,-0.90237 0.0755,-1.35652 9.9e-4,-0.0372 0.003,-0.0748 0.004,-0.11197 0.0177,-0.43235 0.0248,-0.86665 0.0319,-1.30199 8.5e-4,-0.0826 0.002,-0.16511 0.003,-0.24803 0.002,-0.44192 -9.9e-4,-0.88501 -0.0106,-1.32955 -0.002,-0.0978 -0.004,-0.19559 -0.007,-0.29339 -0.0142,-0.46272 -0.0319,-0.92622 -0.0602,-1.39124 l 3.81774,-13.59078 c 3.61325,0.13145 4.34821,-2.39106 4.13026,-4.19971 0.0429,-0.002 0.0648,-0.004 0.10842,-0.007 0.17008,-0.007 0.36688,-0.0142 0.55177,-0.0213 0.21224,-0.007 0.41198,-0.0142 0.64381,-0.0213 0.42658,-0.0106 0.88505,-0.0213 1.3797,-0.0283 0.0142,-1.8e-4 0.0213,-2.9e-4 0.0358,-5.7e-4 l 4.21515,-0.0524 z m -20.37179,41.66253 a 2.008302,2.0083022 0 0 1 2.00807,2.00806 2.008302,2.0083022 0 0 1 -2.00807,2.00863 2.008302,2.0083022 0 0 1 -2.00863,-2.00863 2.008302,2.0083022 0 0 1 2.00863,-2.00806 z m 46.01543,0 a 2.008302,2.0083022 0 0 1 2.00807,2.00806 2.008302,2.0083022 0 0 1 -2.00807,2.00863 2.008302,2.0083022 0 0 1 -2.00863,-2.00863 2.008302,2.0083022 0 0 1 2.00863,-2.00806 z m -38.9439,42.7743 a 2.008302,2.0083022 0 0 1 2.00863,2.00863 2.008302,2.0083022 0 0 1 -2.00863,2.00807 2.008302,2.0083022 0 0 1 -2.00807,-2.00807 2.008302,2.0083022 0 0 1 2.00807,-2.00863 z m 31.8718,0 a 2.008302,2.0083022 0 0 1 2.00863,2.00863 2.008302,2.0083022 0 0 1 -2.00863,2.00807 2.008302,2.0083022 0 0 1 -2.00807,-2.00807 2.008302,2.0083022 0 0 1 2.00807,-2.00863 z"
       id="path4242-6" />
  </g>
</svg>
