<?xml version="1.0" encoding="UTF-8" standalone="no"?>
<!-- Created with Inkscape (http://www.inkscape.org/) -->

<svg
   xmlns:dc="http://purl.org/dc/elements/1.1/"
   xmlns:cc="http://creativecommons.org/ns#"
   xmlns:rdf="http://www.w3.org/1999/02/22-rdf-syntax-ns#"
   xmlns:svg="http://www.w3.org/2000/svg"
   xmlns="http://www.w3.org/2000/svg"
   xmlns:sodipodi="http://sodipodi.sourceforge.net/DTD/sodipodi-0.dtd"
   xmlns:inkscape="http://www.inkscape.org/namespaces/inkscape"
   width="53.464851"
   height="98.623199"
   viewBox="0 0 53.464852 98.623198"
   id="svg5282"
   version="1.1"
   inkscape:version="0.91 r13725"
   sodipodi:docname="et160-skirt-wire-cutout.svg">
  <defs
     id="defs5284" />
  <sodipodi:namedview
     id="base"
     pagecolor="#ffffff"
     bordercolor="#666666"
     borderopacity="1.0"
     inkscape:pageopacity="0.0"
     inkscape:pageshadow="2"
     inkscape:zoom="5.6"
     inkscape:cx="10.683761"
     inkscape:cy="53.0431"
     inkscape:document-units="px"
     inkscape:current-layer="layer1"
     showgrid="false"
     inkscape:window-width="1366"
     inkscape:window-height="704"
     inkscape:window-x="0"
     inkscape:window-y="27"
     inkscape:window-maximized="1"
     fit-margin-top="0"
     fit-margin-left="0"
     fit-margin-right="0"
     fit-margin-bottom="0"
     units="px" />
  <metadata
     id="metadata5287">
    <rdf:RDF>
      <cc:Work
         rdf:about="">
        <dc:format>image/svg+xml</dc:format>
        <dc:type
           rdf:resource="http://purl.org/dc/dcmitype/StillImage" />
        <dc:title></dc:title>
      </cc:Work>
    </rdf:RDF>
  </metadata>
  <g
     inkscape:label="Layer 1"
     inkscape:groupmode="layer"
     id="layer1"
     transform="translate(-264.69614,-114.47919)">
    <path
       inkscape:connector-curvature="0"
       style="display:inline;opacity:1;fill:#cc0000;fill-opacity:1;fill-rule:evenodd;stroke:none;stroke-width:0.99999994;stroke-linecap:butt;stroke-linejoin:miter;stroke-miterlimit:4;stroke-dasharray:none;stroke-opacity:1"
       d="m 291.36997,114.47939 0,0 -6.82618,0.086 c -4.81935,0.061 -6.62374,0 -7.55078,0.9062 -0.63446,0.6175 -0.85888,1.6843 -1.35742,3.5449 l -4.40234,15.6739 c 0.24783,3.3191 0.0836,6.6298 -0.37891,9.8144 l 2.58984,0.6113 c 0.0382,-0.253 0.079,-0.505 0.11329,-0.7597 0.007,-0.062 0.0148,-0.1252 0.0254,-0.1875 0.0524,-0.4023 0.0997,-0.8067 0.14257,-1.2129 0.007,-0.074 0.0183,-0.1467 0.0254,-0.2207 0.0439,-0.4354 0.0807,-0.873 0.11328,-1.3125 0.007,-0.088 0.014,-0.1758 0.0176,-0.2637 0.0319,-0.4504 0.0577,-0.9013 0.0762,-1.3555 10e-4,-0.037 0.003,-0.076 0.004,-0.1132 0.0177,-0.4324 0.0242,-0.8655 0.0312,-1.3008 8.6e-4,-0.083 0.003,-0.1651 0.004,-0.2481 0.002,-0.4419 -0.002,-0.8855 -0.0117,-1.33 -0.002,-0.098 -0.004,-0.1952 -0.008,-0.293 -0.0142,-0.4627 -0.0302,-0.9276 -0.0586,-1.3926 l 3.81641,-13.5898 c 3.61325,0.1314 4.34881,-2.3906 4.13086,-4.1993 0.0429,0 0.0658,0 0.10937,-0.01 0.17008,-0.01 0.3659,-0.014 0.55079,-0.022 0.21224,-0.01 0.41269,-0.014 0.64453,-0.021 0.42658,-0.011 0.88426,-0.02 1.3789,-0.027 0.0142,-10e-5 0.0206,0 0.0352,0 l 4.20703,-0.051 0.01,0 5.26368,0 4.21289,0.051 0.002,0 c 0.0142,2e-4 0.0242,0 0.0352,0 0.49464,0.01 0.95232,0.017 1.3789,0.027 0.23173,0.01 0.43243,0.014 0.64453,0.021 0.18496,0.01 0.38266,0.014 0.55274,0.022 0.0436,0 0.0649,0 0.10742,0.01 -0.21791,1.8087 0.51757,4.3309 4.13086,4.1993 l 3.81641,13.5898 c -0.0283,0.4651 -0.0448,0.9299 -0.0586,1.3926 -0.003,0.098 -0.008,0.1952 -0.008,0.293 -0.0106,0.4519 -0.0133,0.9023 -0.01,1.3515 2.8e-4,0.067 0.001,0.1342 0.002,0.2012 0.003,0.4439 0.0135,0.8854 0.0312,1.3262 10e-4,0.037 0.003,0.074 0.004,0.1113 0.0177,0.4542 0.0453,0.907 0.0762,1.3574 0.007,0.088 0.0105,0.1758 0.0176,0.2637 0.0319,0.4395 0.0693,0.8771 0.11328,1.3125 0.007,0.074 0.0148,0.147 0.0254,0.2207 0.0429,0.4062 0.0901,0.8106 0.14257,1.2129 0.007,0.062 0.0148,0.1251 0.0254,0.1875 0.034,0.254 0.0738,0.5054 0.11133,0.7578 l 2.58399,-0.6094 c -0.46256,-3.1846 -0.62674,-6.4953 -0.37891,-9.8144 l -4.40234,-15.6739 c -0.49858,-1.8606 -0.723,-2.9274 -1.35742,-3.5449 -0.0489,-0.048 -0.10044,-0.093 -0.1543,-0.1348 -0.0539,-0.042 -0.1104,-0.082 -0.16992,-0.1191 -0.0595,-0.038 -0.12355,-0.073 -0.18946,-0.1055 -0.0659,-0.032 -0.13599,-0.063 -0.20898,-0.092 -0.073,-0.028 -0.14968,-0.055 -0.23047,-0.08 -0.0808,-0.025 -0.16497,-0.049 -0.25391,-0.07 -0.0889,-0.021 -0.18345,-0.041 -0.28125,-0.059 -0.19594,-0.036 -0.41117,-0.065 -0.64648,-0.09 -0.23528,-0.025 -0.49181,-0.045 -0.77148,-0.061 -0.27993,-0.018 -0.58305,-0.029 -0.91211,-0.039 l -0.002,0 c -0.32918,-0.011 -0.68299,-0.018 -1.06641,-0.025 l -0.002,0 c -0.76716,-0.011 -1.64766,-0.021 -2.66211,-0.031 l -6.82617,-0.086 0,0 -0.0586,0 -0.0586,0 z m -12.8418,1.5644 a 2.008302,2.0083022 0 0 1 2.00781,2.0078 2.008302,2.0083022 0 0 1 -2.00781,2.0098 2.008302,2.0083022 0 0 1 -2.00977,-2.0098 2.008302,2.0083022 0 0 1 2.00977,-2.0078 z m 25.80078,0 a 2.008302,2.0083022 0 0 1 2.00977,2.0078 2.008302,2.0083022 0 0 1 -2.00977,2.0098 2.008302,2.0083022 0 0 1 -2.00781,-2.0098 2.008302,2.0083022 0 0 1 2.00781,-2.0078 z m -36.59375,40.0567 c -0.92095,2.3013 -1.95541,4.3967 -3.03906,6.1933 1.36311,0.7706 1.71656,2.0155 1.625,4.7852 -0.0319,0.9232 -0.11033,2.015 -0.21875,3.3164 -0.16264,1.952 -0.38994,4.3741 -0.60938,7.3965 -0.36577,5.0372 -0.71289,11.7432 -0.71289,20.7285 l 0.002,0 c 0.37373,0.2468 0.74488,0.5078 1.11719,0.7637 l 1.69922,-2.0157 c -0.0289,-0.02 -0.0551,-0.041 -0.084,-0.06 0.0386,-8.3103 0.36275,-14.6403 0.70312,-19.4551 0.2041,-2.8888 0.41413,-5.2331 0.57227,-7.1328 0.21933,-2.633 0.37249,-4.4787 0.12305,-6.2226 4.6767,-1.3173 2.7746,-6.4635 0.92187,-6.5059 0.0177,-0.041 0.0368,-0.084 0.0527,-0.125 0.0553,-0.1304 0.10754,-0.2627 0.16211,-0.3945 0.0905,-0.2191 0.1787,-0.442 0.26758,-0.6641 l -2.58203,-0.6074 z m 47.38672,0 -2.57617,0.6054 c 0.0891,0.223 0.17857,0.4463 0.26953,0.666 0.0545,0.1319 0.10683,0.2642 0.16211,0.3946 0.0174,0.041 0.0332,0.084 0.0508,0.125 -1.85275,0.042 -3.75486,5.1886 0.92187,6.5058 -0.24945,1.744 -0.0961,3.5897 0.12305,6.2227 0.15814,1.8997 0.37,4.244 0.57422,7.1328 0.34037,4.8148 0.6624,11.1447 0.70117,19.4551 -0.0301,0.021 -0.0578,0.042 -0.0879,0.062 l 1.69727,2.0137 c 0.37243,-0.2558 0.74338,-0.5169 1.11718,-0.7637 0,-8.9853 -0.34517,-15.6913 -0.71093,-20.7285 -0.21948,-3.0224 -0.44695,-5.4445 -0.60938,-7.3965 -0.10828,-1.3014 -0.18824,-2.3932 -0.21875,-3.3164 -0.0915,-2.7697 0.26189,-4.0146 1.625,-4.7852 -1.08366,-1.7966 -2.11811,-3.892 -3.03906,-6.1933 z m -46.70117,2.7695 a 2.008302,2.0083022 0 0 1 2.00781,2.0078 2.008302,2.0083022 0 0 1 -2.00781,2.0078 2.008302,2.0083022 0 0 1 -2.00782,-2.0078 2.008302,2.0083022 0 0 1 2.00782,-2.0078 z m 46.01562,0 a 2.008302,2.0083022 0 0 1 2.00781,2.0078 2.008302,2.0083022 0 0 1 -2.00781,2.0078 2.008302,2.0083022 0 0 1 -2.00781,-2.0078 2.008302,2.0083022 0 0 1 2.00781,-2.0078 z m -9.75976,47.2187 c -0.067,0 -0.13487,6e-4 -0.20118,0.01 -0.53319,0.037 -1.0379,0.1343 -1.39843,0.3086 -1.18063,0.5708 -1.69054,1.1516 -2.45508,1.6836 -1.23931,0.8623 -3.01532,1.816 -6.53906,2.1602 l -5.30078,0 c -3.52375,-0.3441 -5.2998,-1.2979 -6.53907,-2.1602 -0.38214,-0.2657 -0.70121,-0.5452 -1.07226,-0.8281 -0.0928,-0.071 -0.18808,-0.1417 -0.28907,-0.2129 -0.10098,-0.071 -0.20763,-0.1436 -0.32031,-0.2148 -0.11303,-0.072 -0.23292,-0.1433 -0.36133,-0.2149 -0.12826,-0.072 -0.26659,-0.1416 -0.41406,-0.2129 -0.0599,-0.028 -0.12408,-0.057 -0.1914,-0.082 -0.13465,-0.05 -0.2832,-0.091 -0.44141,-0.125 -0.079,-0.018 -0.16087,-0.032 -0.24414,-0.045 -0.23252,-0.037 -0.48762,-0.041 -0.73828,-0.051 l -1.88282,2.2325 c 0.20938,0.2668 0.41236,0.5294 0.5879,0.7851 2.6815,-2.166 2.65392,3.9494 14.50781,3.9805 l 0,0 0.0449,0 c 0.0142,0 0.029,0 0.0449,0 l 0,0 c 6.66779,-0.018 9.57601,-1.9588 11.32226,-3.2695 1.35819,-1.0195 2.0124,-1.6586 3.18555,-0.711 0.17224,-0.2509 0.3889,-0.5157 0.59375,-0.7773 l -1.89844,-2.252 z"
       id="path5880" />
  </g>
</svg>
