<?xml version="1.0" encoding="UTF-8" standalone="no"?>
<svg
   xmlns:dc="http://purl.org/dc/elements/1.1/"
   xmlns:cc="http://creativecommons.org/ns#"
   xmlns:rdf="http://www.w3.org/1999/02/22-rdf-syntax-ns#"
   xmlns:svg="http://www.w3.org/2000/svg"
   xmlns="http://www.w3.org/2000/svg"
   xmlns:xlink="http://www.w3.org/1999/xlink"
   xmlns:sodipodi="http://sodipodi.sourceforge.net/DTD/sodipodi-0.dtd"
   xmlns:inkscape="http://www.inkscape.org/namespaces/inkscape"
   width="195.33376mm"
   height="168.90645mm"
   viewBox="-86.649002 -73.434998 195.33375 168.90643"
   version="1.1"
   id="svg2"
   inkscape:version="0.91 r13725"
   sodipodi:docname="diatone-et-160-skirt.svg">
  <metadata
     id="metadata14">
    <rdf:RDF>
      <cc:Work
         rdf:about="">
        <dc:format>image/svg+xml</dc:format>
        <dc:type
           rdf:resource="http://purl.org/dc/dcmitype/StillImage" />
        <dc:title>Daring Densor-Wolt</dc:title>
      </cc:Work>
    </rdf:RDF>
  </metadata>
  <defs
     id="defs12">
    <inkscape:perspective
       sodipodi:type="inkscape:persp3d"
       inkscape:vp_x="0 : 84.453215 : 1"
       inkscape:vp_y="0 : 1000 : 0"
       inkscape:vp_z="195.33375 : 84.453215 : 1"
       inkscape:persp3d-origin="97.666875 : 56.302143 : 1"
       id="perspective4193" />
  </defs>
  <sodipodi:namedview
     pagecolor="#ffffff"
     bordercolor="#666666"
     borderopacity="1"
     objecttolerance="10"
     gridtolerance="10"
     guidetolerance="10"
     inkscape:pageopacity="0"
     inkscape:pageshadow="2"
     inkscape:window-width="1366"
     inkscape:window-height="704"
     id="namedview10"
     showgrid="false"
     units="mm"
     fit-margin-top="12"
     fit-margin-left="12"
     fit-margin-right="12"
     fit-margin-bottom="12"
     inkscape:snap-bbox="true"
     inkscape:bbox-paths="true"
     inkscape:bbox-nodes="true"
     inkscape:snap-bbox-midpoints="true"
     inkscape:snap-bbox-edge-midpoints="true"
     inkscape:object-paths="true"
     inkscape:snap-intersection-paths="true"
     inkscape:object-nodes="true"
     inkscape:snap-smooth-nodes="true"
     inkscape:snap-midpoints="true"
     inkscape:snap-object-midpoints="true"
     inkscape:snap-center="true"
     inkscape:snap-global="false"
     inkscape:zoom="1"
     inkscape:cx="330.74394"
     inkscape:cy="313.09882"
     inkscape:window-x="0"
     inkscape:window-y="27"
     inkscape:window-maximized="1"
     inkscape:current-layer="layer2" />
  <title
     id="title4">Daring Densor-Wolt</title>
  <desc
     id="desc6"> made with tinkercad </desc>
  <g
     inkscape:groupmode="layer"
     id="layer1"
     inkscape:label="stl"
     transform="translate(28.46794,31.169428)"
     style="display:inline">
    <path
       d="m 56.829936,-71.069763 0.634004,-1.360001 0.086,-0.299999 -0.03203,-0.230232 -0.05895,-0.303196 -0.106759,-0.136575 -0.08143,-0.104164 -0.160841,-0.166835 -0.586991,-0.167999 -0.245003,0.06098 -0.204995,0.05102 -0.305296,0.327001 -0.116708,0.124999 -0.632996,1.359002 -0.076,0.613998 0.102105,0.208709 0.149849,0.26973 0.328329,0.192692 0.279719,0.130871 0.305655,-0.04319 0.154342,-0.02181 0.016,-0.01423 0.268286,-0.238525 0.196305,-0.122876 z m -58.7298455,20.198001 -0.300152,-0.048 -0.300152,0.048 -0.19385,0.031 -0.419997,0.213766 -0.02599,0.01324 -0.354,0.353999 -0.228001,0.445999 -0.078,0.494002 0.078,0.494998 5.64e-4,0.0011 0.227488,0.445002 0.354,0.354 0.445999,0.227 0.494001,0.078 0.493999,-0.078 0.446002,-0.227 0.193999,-0.194 0.16000098,-0.16 0.227488,-0.445002 5.64e-4,-0.0011 0.078,-0.494998 -0.078,-0.494002 -0.227999,-0.445999 -0.15999998,-0.16 -0.194,-0.193999 -0.446001,-0.226997 z m -15.5501535,-33.786 7.4510022,0 0.7409998,0.09765 0.033,0.0043 0.7219978,0.297997 0.6199999,0.473004 0.4770007,0.618 0.3020004,0.720001 0.2331832,0.854999 1.1170895,4.095997 0.582157,2.134575 1.651909,6.057427 0.300637,1.102413 0.03447,0.302696 0.05856,0.391891 -0.0088,0.04503 -0.0403,0.205971 -0.06789,0.347 -0.292001,0.535999 -0.440001,0.422001 -0.546998,0.271 -0.602002,0.093 -0.038,0 -4.0960013,0 -8.1919992,0 -8.192,0 -4.096001,0 -0.038,0 -0.602,-0.093 -0.547,-0.271 -0.440001,-0.422001 -0.291999,-0.535999 -0.06789,-0.347 -0.04911,-0.251 0.069,-0.605999 0.324795,-1.191001 2.234026,-8.192002 1.117013,-4.095997 0.233167,-0.854999 0.302,-0.720002 0.476998,-0.617999 0.62,-0.473004 0.722001,-0.297996 0.033,-0.0043 0.741,-0.09765 z m 61.44,0.911335 1.314174,0.416825 2.78183,0.882267 5.320998,1.687569 2.494997,0.629002 0.375999,0.02828 2.190002,0.164719 0.806002,-0.009 1.099997,0.133987 0.623999,0.07601 1.610002,0.652 1.384004,1.049999 0.416306,0.538997 0.06169,0.07988 0.583999,0.756123 0.666002,1.603999 1.542305,5.752 0.712699,2.658001 0.187057,1.437999 0.03694,0.284001 -0.233,1.721999 -0.673004,1.600999 -0.381203,0.489 -0.686791,0.881002 -1.388999,1.044 -0.366005,0.20605 -8.192003,4.611949 -1.809998,1.018997 -1.106032,0.430002 -0.372962,0.145 -1.582002,0.137002 -1.401894,-0.282002 -0.154105,-0.031 -1.765001,-0.625441 -4.096004,-1.451447 -0.576001,-0.204114 -0.706995,-0.134998 -0.715001,0.079 -2.097998,0.562212 -6.738688,1.80579 -17.837314,4.779936 -2.090002,0.560067 -0.82,0.338997 -0.704999,0.541 -0.481,0.627081 -0.059,0.07692 -0.340002,0.820002 -0.05855,0.447999 -0.05645,0.432001 0,7.759999 0,8.191999 0,8.192 0,8.191999 0,3.4090012 0.07961,0.687 0.09039,0.7800004 0.502003,1.388 0.805999,1.237 0.574525,0.691001 2.557478,3.07596794 11.064796,13.30803446 5.319203,6.397594 1.491934,1.794403 0.118065,0.142003 0.538999,0.478 0.656003,0.296996 1.290998,0.364199 4.096001,1.155509 1.184997,0.334292 1.451001,0.643004 0.807878,0.681998 0.405124,0.342 0.246998,0.373321 0.629,0.950679 1.151944,2.429998 1.941717,4.096002 0.373343,0.787552 1.568368,3.308449 0.06163,0.129997 0.530999,1.653001 0.081,1.736 -0.127578,0.577 -0.247422,1.118997 -0.804,1.540002 -1.062996,1.151436 -0.115005,0.124564 -0.193627,0.161005 -6.500371,5.404999 -1.382999,0.870605 -0.088,0.05539 -1.66,0.510003 -1.736,0.059 -0.612001,-0.143592 -1.08,-0.253402 -1.529001,-0.825003 -1.486998,-1.075591 -5.019003,-3.630402 -1.615011,-0.972002 -0.544988,-0.328001 -1.013,-0.397516 -1.334,-0.523483 -2.467999,-0.515005 -0.294002,-0.03585 -4.095996,-0.499423 -31.557002,-3.84773 -1.211001,0 -1.210999,0 -31.557003,3.84773 -4.095996,0.499423 -0.294002,0.03585 -2.467999,0.515005 -1.334,0.523483 -1.013,0.397512 -0.544988,0.328005 -1.615011,0.971998 -5.019003,3.630403 -1.486998,1.075591 -1.529001,0.825006 -1.080002,0.253402 -0.611999,0.143592 -1.736,-0.059 -1.66,-0.510001 -0.07319,-0.04607 -0.01482,-0.0093 -1.383,-0.870605 -6.50037,-5.404999 -0.193627,-0.161002 -0.115005,-0.124567 -1.062996,-1.151436 -0.804001,-1.539999 -0.247421,-1.119 -0.127579,-0.577 0.081,-1.736 0.530999,-1.653001 0.06163,-0.129997 1.568367,-3.308449 0.373344,-0.787549 1.941716,-4.096002 1.151943,-2.430001 0.629001,-0.950679 0.246998,-0.373321 0.405125,-0.342 0.807876,-0.681998 1.451001,-0.643004 1.184999,-0.334292 4.095998,-1.155506 1.291,-0.364202 0.656003,-0.296996 0.538999,-0.478 0.118065,-0.142003 1.491934,-1.794403 5.319203,-6.397594 11.064796,-13.30803446 2.557478,-3.07596794 0.574526,-0.691001 0.805998,-1.237 0.502,-1.388 0.09039,-0.7800004 0.07961,-0.686999 0,-3.4089992 0,-8.191999 0,-8.192003 0,-8.191999 0,-7.759999 -0.05645,-0.432 -0.05855,-0.448 -0.340001,-0.82 -0.059,-0.07692 -0.480999,-0.627084 -0.705,-0.541 -0.82,-0.338997 -2.090002,-0.560067 -17.837314,-4.779936 -6.738687,-1.80579 -2.097999,-0.56221 -0.715,-0.079 -0.706997,0.134995 -0.576001,0.204115 -4.096004,1.451446 -1.765,0.625444 -0.154106,0.031 -1.401893,0.282002 -1.582001,-0.137002 -0.372963,-0.145 -1.106033,-0.429999 -1.809998,-1.018998 -8.192001,-4.611951 -0.366005,-0.20605 -1.388994,-1.043988 -0.68679,-0.880999 -0.3812,-0.489004 -0.67301,-1.600999 -0.233,-1.721998 0.0369,-0.284001 0.18706,-1.437999 0.7127,-2.658001 1.5423,-5.752 0.666004,-1.603999 0.584,-0.756123 0.06169,-0.07988 0.416306,-0.538997 1.384002,-1.05 1.610001,-0.651999 0.624001,-0.07601 1.099998,-0.133986 0.806,0.009 2.190002,-0.164719 0.160172,-0.01205 0.215828,-0.01623 2.727501,-0.725792 0.35704,-0.09001 1.514595,-0.480392 3.216858,-1.020386 4.096004,-1.299248 0.767399,-0.243419 0.399601,-0.126751 0.664952,-0.173947 0.377933,-0.106758 1.886113,-0.493538 3.044868,-0.79676 0.0628,-0.01643 0.0722,-0.01889 0.729572,-0.183045 3.903565,-1.021629 10.871996,-2.256996 5.891,-0.912132 5.082001,-0.786873 3.110001,-0.319306 7.935,-0.814689 0.256997,-0.01319 4.096001,-0.210174 4.096002,-0.210175 2.64,-0.13546 5.551999,0 5.552,0 2.64,0.13546 4.0960015,0.210175 4.096001,0.210174 0.25699998,0.01319 7.00412302,0.719116 0.930877,0.09557 3.1100005,0.319306 5.082001,0.786873 5.890997,0.912132 10.871998,2.256996 3.903565,1.021629 0.729573,0.183045 0.134905,0.03532 2.03476,0.532799 1.010201,0.27626 3.517648,0.96196 0.377933,0.106754 z m 4.790928,12.825143 -0.156655,0.0055 -0.304696,0.01099 -0.233573,0.129765 -0.0367,0.02038 -0.196305,0.122879 -0.109107,0.205204 -0.130373,0.279721 -0.016,0.231731 0.0048,0.137955 5.64e-4,0.01839 0.06506,0.162159 0.05344,0.146854 0.156738,0.145985 0.06904,0.0643 0.138717,0.126427 0.076,0.06927 1.509003,0.676998 0.462999,0.032 0.293997,-0.107002 0.167169,-0.161159 0.210791,-0.225773 0.08508,-0.280781 0.02376,-0.194286 0.01369,-0.111908 -0.105103,-0.299801 -0.101402,-0.20829 -0.320023,-0.268784 -0.03597,-0.03022 -0.75425,-0.338162 -0.673174,-0.313816 z m -6.537988,105.452473 0.10889,0.204797 0.149648,0.178175 0.02695,0.153964 0.01309,0.07477 9e-5,0.0014 0.01589,0.229921 -0.06544,0.161838 -0.05605,0.22523 -0.07255,0.09284 -0.02405,0.03078 -0.213786,0.195803 -0.129631,0.08759 -1.36,0.632999 -0.456997,0.081 -0.224779,-0.05595 -0.06022,-0.02636 -0.288623,-0.126295 -0.123379,-0.09641 -0.217997,-0.410001 -0.034,-0.411 0.05444,-0.172827 0.103104,-0.234733 0.225778,-0.210289 0.177676,-0.149152 0.103,-0.04802 1.257,-0.585984 0.149849,-0.04296 0.229771,0.03197 0.306804,-0.03754 0.208712,0.1016 0.01578,0.0099 z m -21.78394,-1.967953 0.131154,0.533002 0.04085,0.166001 0.220997,2.410999 -0.042,0.738999 -0.257999,0.693998 -0.06556,0.086 -0.383441,0.502996 -0.601001,0.431001 -0.088,0.02958 -0.613997,0.206423 -0.740004,0.02001 -2.741995,-0.334388 -30.952002,-3.774615 -1.816001,-0.109999 -1.815999,0.109999 -30.952003,3.774615 -2.741995,0.334388 -0.740004,-0.02001 -0.613997,-0.206417 -0.088,-0.02958 -0.601001,-0.431001 -0.383444,-0.502997 -0.06556,-0.086 -0.257997,-0.693999 -0.042,-0.738999 0.220997,-2.410999 0.04085,-0.166 0.131154,-0.533002 0.372,-0.617 2.449458,-2.945999 2.319539,-2.789753 11.302961,-13.594246 5.061043,-6.0870004 0.02001,-0.01787 0.04384,-0.03914 0.244159,-0.218002 0.375999,-0.173999 0.410001,-0.055 0.408999,0.066 0.371001,0.183001 0.193999,0.134532 0.09152,0.06347 1.956481,1.356753 0.996797,0.691246 0.940201,0.651999 1.791002,0.8760004 0.367998,0.05623 1.602001,0.244775 6.589999,0 6.590002,0 1.6020005,-0.244775 0.367998,-0.05623 1.791002,-0.8760004 0.940201,-0.651999 0.996797,-0.691246 1.956478,-1.356753 0.09152,-0.06347 0.193999,-0.134532 0.371001,-0.183001 0.408999,-0.066 0.410001,0.055 0.375999,0.173999 0.244159,0.218002 0.04384,0.03914 0.02001,0.01787 5.061043,6.0870004 11.3029605,13.594246 2.319539,2.789753 2.449458,2.945999 z m -19.1666365,-77.402673 -0.137363,-0.171326 -0.05909,-0.02416 -0.39090902,-0.159837 -0.232232,0.01202 -0.277224,0.03497 -0.25025,0.181681 -0.204295,0.158335 -0.02599,0.08 -0.165013,0.508 0,3.588002 0,4.095998 0,8.192002 0,4.095998 0,0.328002 0.02447,0.154344 0.0956,0.294293 0.07093,0.139361 0.23077,0.158344 0.217179,0.157672 0.03307,0.02402 0.154655,0.02452 0.154655,-0.02452 0.327672,0.02297 0.122998,-0.07968 0.0717,-0.04644 0.24975,-0.181319 0.126627,-0.195194 0.0954,-0.293708 0.02453,-0.154652 0,-0.328002 0,-4.095998 0,-8.192002 0,-4.095999 0,-3.588001 -0.05994,-0.223777 -0.09232,-0.284223 -0.0033,-0.01007 z m 39.5106365,-30.233328 -0.908998,1.064842 -0.519156,0.608157 -0.630846,0.739002 -0.543998,0.471002 -0.659999,0.287998 -1.742002,0.466785 -4.095999,1.097557 -3.857526,1.033658 -12.526473,3.356577 -8.0140015,2.147423 -0.178,0.01885 -0.256001,0.02712 -0.427999,-0.09 -0.379002,-0.217991 -0.293,-0.323001 -0.178999,-0.398998 -0.115644,-0.424 -1.117174,-4.096 -3.68318002,-13.503998 -0.106003,-0.821003 0.123001,-0.818998 0.34200002,-0.754004 0.411409,-0.486 0.123591,-0.145996 0.686999,-0.460999 0.787002,-0.256005 0.827998,-0.032 3.255002,0.399522 4.0368075,0.495476 1.670194,0.205002 2.485,0.41291 6.421998,1.067089 8.836002,1.858001 1.125999,0.287388 7.623,1.945615 0.569,0.250068 0.216001,0.09493 0.654,0.553 0.471999,0.715001 0.245796,0.802997 0.0052,0.017 0.008,0.856998 -0.234002,0.824001 z m -70.870998,-12.442998 0.292997,0.149002 0.037,0.037 0.194999,0.195 0.148999,0.292999 0.052,0.324006 -0.052,0.324996 -0.148999,0.291999 -0.194999,0.19584 -0.0171,0.01716 -0.01992,0.02 -0.292998,0.149002 -0.324002,0.051 -0.324999,-0.051 -0.292001,-0.149002 -0.02001,-0.02 -0.213001,-0.212998 -0.149,-0.292 -0.051,-0.324996 0.03054,-0.194001 0.02046,-0.130004 0.149,-0.293 0.233,-0.231994 0.292001,-0.149002 0.324998,-0.052 z m 62.610001,126.340001 0.210289,0.225774 0.167166,0.161158 0.0052,0.02906 0.03531,0.19921 0.08709,0.215716 -0.02168,0.153363 -0.01087,0.07687 -0.05594,0.225279 -0.0964,0.122874 -0.123123,0.196697 -0.06639,0.04486 -0.192673,0.130142 -0.672329,0.313184 -0.10567,0.04927 -0.575008,0.268055 -8.47e-4,1.61e-4 -0.234408,0.0438 -0.02989,0.0085 -0.120757,0.0345 -0.03904,-0.0076 -0.138153,-0.02689 -0.126111,-0.02455 -0.224776,-0.05644 -0.166833,-0.160839 -0.211207,-0.226226 -0.08442,-0.293207 -0.04054,-0.228727 0.05644,-0.224778 0.104605,-0.286786 0.225775,-0.210786 0.178176,-0.149651 1.427,-0.639787 0.083,-0.03721 0.463,-0.032 0.255609,0.09303 z m -65.325002,-38.89200146 -0.02701,0.01374 -0.266,0.135269 -0.323999,0.052 -0.325002,-0.052 -0.109,-0.05562 -0.182998,-0.09338 -0.233,-0.232 -0.148999,-0.292998 -0.051,-0.323999 0.051,-0.32500194 0.148999,-0.291998 0.233,-0.233003 0.182998,-0.09338 0.109,-0.05562 0.325002,-0.051 0.323999,0.051 0.293001,0.148999 0.0468,0.047 0.185202,0.186002 0.149,0.291998 0.052,0.32500194 -0.03547,0.220999 -0.01654,0.103 -0.148999,0.293 z m 93.10437,-64.40871854 0.05263,-0.0779 0.03496,-0.05174 1.21e-4,-6.49e-4 0.04093,-0.214577 -0.03198,-0.229771 -0.03703,-0.156666 -0.007,-0.02959 -5.64e-4,-0.0029 -0.01185,-0.05013 -0.0966,-0.123123 -0.122871,-0.196304 -0.259004,-0.174999 -1.36,-0.633999 -0.150351,-0.04296 -0.04665,-0.0057 -0.260155,-0.03183 -0.302695,0.05894 -0.270775,0.14965 -0.06253,0.04861 -0.06085,0.04729 -0.10911,0.205204 -0.08741,0.129871 -0.03747,0.306194 -0.01572,0.227478 -2.82e-4,0.0043 0.05674,0.113998 0.05137,0.103218 0.09889,0.203141 0.0025,0.0051 0.171676,0.14114 0.17782,0.149353 0.648002,0.302303 0.710999,0.331696 0.457,0.08 0.450997,-0.111997 0.123122,-0.0966 z m -21.787522,105.490408 0.256105,0.274309 0.154048,0.165001 0.626999,1.345001 0.04646,0.157342 0.04354,0.235737 -0.02817,0.144918 -0.03077,0.158279 -0.104601,0.287288 -0.225777,0.210287 -0.25325,0.170671 -0.306693,0.03746 -0.231733,0.016 -0.185316,-0.08341 -0.162162,-0.06506 -0.01225,-0.01346 -0.183439,-0.201264 -0.171828,-0.195808 -0.144012,-0.321 -0.532991,-1.188 0.0105,-0.304693 -0.016,-0.231732 0.0265,-0.07281 0.02704,-0.07433 0.110157,-0.176428 0.01273,-0.02038 0.226227,-0.211209 0.129867,-0.08741 0.254246,-0.03946 0.215719,-0.04104 0.01741,0.0049 0.181382,0.05059 0.238235,0.05701 z m 14.514153,-104.687689 0.065,0.459999 -0.720003,1.660001 -0.175003,0.258998 -0.03599,0.02249 -0.257104,0.160522 -0.100897,0.063 -0.610004,0.02201 -0.159865,-0.085 -0.250136,-0.133 -0.245996,-0.393999 0.01098,-0.37962 -0.03204,-0.230231 0.04289,-0.144808 0.0032,-0.01095 2.82e-4,-0.0014 0.316687,-0.679323 0.03478,-0.07467 0.279028,-0.598997 0.149146,-0.177679 0.210292,-0.225775 0.146848,-0.05345 0.208709,-0.102102 0.07951,-0.0028 0.173493,-0.0061 0.06,-0.002 0.431001,0.173999 z m -62.306,36.237 2.3579977,0 0.6180018,-0.098 0.557998,-0.284 0.442003,-0.442999 0.04181,-0.082 0.242192,-0.475002 0.098,-0.617999 0,-7.099001 0,-2.165999 -0.098,-0.619001 -0.284,-0.557 -0.442,-0.443001 -0.558001,-0.283997 -0.6179989,-0.097 -10.5500006,0 -10.55,0 -0.618002,0.097 -0.557998,0.283997 -0.442,0.443001 -0.284,0.557 -0.098,0.619001 0,2.165999 0,7.099001 0.098,0.617999 0.242192,0.475002 0.04181,0.082 0.442,0.442999 0.558001,0.284 0.617999,0.098 2.358001,0 8.191999,0 z m -25.192003,-13.195001 0,-3.588001 -0.06006,-0.224222 -0.09218,-0.283778 -0.0032,-0.0099 -0.137637,-0.17167 -0.204295,-0.158341 -0.14815,-0.08008 -0.154655,-0.02453 -0.277221,-0.03496 -0.05108,0.0081 -0.103582,0.01642 -0.148147,0.08008 -0.05178,0.01984 -0.163624,0.06273 -8.46e-4,2.82e-4 -0.110392,0.110389 -0.102102,0.1016 -0.02599,0.08 -0.165012,0.507998 0,3.588001 0,4.096001 0,8.191999 0,4.096001 0,0.212525 0,0.115474 0.02453,0.154655 0.126627,0.195193 0.0954,0.293709 0.110391,0.110388 0.211054,0.107665 0.06072,0.03097 0.139365,0.07093 0.231766,0.0125 0.232232,-0.0125 0.191807,-0.07093 0.250249,-0.18168 0.134849,-0.122905 0.07107,-0.139638 0.0954,-0.293709 0.02453,-0.154652 0,-0.328001 0,-4.095999 0,-8.192002 z m -56.217704,-32.768002 -0.305298,-0.326999 -0.204994,-0.05102 -0.245003,-0.06098 -0.457,0.08 -0.260002,0.174998 -0.114884,0.183999 -0.0082,0.0132 -0.149345,0.270229 0.01101,0.380379 0.03746,0.306194 0.608017,1.304253 0.02598,0.05575 0.210709,0.226227 0.07141,0.08506 0.07744,0.09226 0.192444,0.04779 0.03329,0.0083 0.188339,0.09214 0.01995,0.0098 0.228729,-0.04054 0.253968,-0.03144 0.05273,-0.0065 0.177673,-0.149147 0.129373,-0.08741 0.149849,-0.26973 0.102104,-0.20871 -0.076,-0.613998 -0.632996,-1.359001 z m 89.78470548,71.6330026 0.232999,0.233 0.149,0.291998 0.051,0.32500094 -0.051,0.324 -0.149,0.293 -0.232999,0.232001 -0.18299898,0.09338 -0.109,0.05562 -0.325001,0.052 -0.324,-0.052 -0.293,-0.148999 -0.231998,-0.232001 -0.149002,-0.293 -0.01654,-0.103 -0.03547,-0.221 0.052,-0.32500094 0.149002,-0.291998 0.1852,-0.186002 0.0468,-0.047 0.293001,-0.148999 0.323999,-0.051 0.324999,0.051 0.109002,0.05562 z M 32.668881,32.09996 l -0.05344,0.146854 0.03746,0.306697 0.04004,0.228724 0.146485,0.314003 0.487513,1.044999 0.149651,0.178175 0.210789,0.225778 0.06256,0.02283 0.224223,0.08178 0.224773,0.05645 0.423901,-0.07513 0.0331,-0.0059 0.226226,-0.211209 0.141213,-0.118206 0.03661,-0.03064 0.05656,-0.225227 0.104394,-0.286713 -0.081,-0.456997 -0.0933,-0.200002 -0.474697,-1.017532 -0.066,-0.141467 -0.149152,-0.178178 -0.08741,-0.129871 -0.196303,-0.122879 -0.06924,-0.03387 -0.139475,-0.06823 -0.114424,0.0081 -0.117805,0.0084 -0.229771,-0.03197 -0.215288,0.08641 -0.159235,0.08488 -0.04547,0.02424 -0.0966,0.123117 -0.118914,0.123353 -0.04192,0.04348 z m -34.3749435,-49.397723 -0.493999,0.078 -0.494002,-0.078 -0.445998,-0.227 -0.354,-0.354003 -0.115023,-0.224998 -0.112979,-0.221 -0.078,-0.495001 0.078,-0.493999 0.228002,-0.446001 0.354,-0.354 0.07466,-0.038 0.371336,-0.189001 0.494002,-0.079 0.493999,0.079 0.37134,0.189001 0.07466,0.038 0.193999,0.193999 0.16000098,0.160001 0.227998,0.446001 0.078,0.493999 -0.078,0.495001 -0.227998,0.445998 -0.16000098,0.160001 -0.193999,0.194002 z m -73.6581735,51.973187 -0.679318,-0.316684 -1.5e-5,0 -0.236221,-0.04404 -0.149853,-0.04296 -0.300697,0.05794 -0.162632,0.04084 -0.06259,0.01572 -0.167167,0.161161 -0.125874,0.0969 -0.08741,0.12987 -0.08408,0.29379 -0.0093,0.07627 -0.02813,0.229921 0.110111,0.294795 0.107392,0.216284 0.344002,0.282998 1.36,0.632999 0.456997,0.081 0.285,-0.07093 0.165002,-0.04106 0.123379,-0.09641 0.21071,-0.226226 0.08691,-0.129368 0.03904,-0.281282 0.03347,-0.270462 0.0045,-0.03623 -0.103104,-0.234733 -0.05344,-0.146854 -0.225778,-0.21029 -0.177678,-0.149151 -0.103,-0.04802 z m 71.1811745,-122.191187 0.292001,0.149002 0.233,0.231994 0.148999,0.293 0.02046,0.130004 0.03054,0.194001 -0.051,0.324997 -0.148999,0.291999 -0.213002,0.212999 -0.02001,0.02 -0.292002,0.149002 -0.324998,0.051 -0.324003,-0.051 -0.293,-0.149002 -0.0199,-0.02 -0.0171,-0.01716 -0.194999,-0.195838 -0.149002,-0.291999 -0.052,-0.324998 0.052,-0.324005 0.149002,-0.293 0.194999,-0.194998 0.037,-0.037 0.293,-0.149002 0.324003,-0.052 z m -82.9590025,23.187002 0.03006,0.0058 0.02994,0.0058 0.547005,0.106339 0.420525,0.451487 4.8e-4,5.65e-4 0.279029,0.598997 0.03478,0.07467 0.316688,0.679323 0.04046,0.22827 0.04655,0.157155 -0.0082,0.05908 -0.02381,0.171148 -0.05644,0.224776 -0.0959,0.123379 -0.123123,0.197194 -0.05141,0.02735 -0.153382,0.08155 -0.03582,0.0241 -0.09431,0.06348 -0.05157,0.009 -0.177147,0.03101 -0.23127,0.01597 -0.146858,-0.05345 -0.23362,-0.06606 -0.0071,-0.002 -0.123375,-0.0964 -0.07211,-0.07893 -0.123581,-0.135283 -0.08742,-0.129371 -0.338158,-0.754245 -0.360359,-0.830831 0.03746,-0.378118 0.03253,-0.230234 0.160843,-0.16683 0.123123,-0.196701 0.108879,-0.04396 0.1064,-0.04295 z m 93.0740015,19.612999 0.293001,0.148997 0.232,0.232 0.149,0.293001 0.052,0.323999 -0.0023,0.014 -0.04976,0.311001 -0.148999,0.293 -0.232001,0.231998 -0.293,0.149002 -0.247763,0.039 -0.07623,0.01199 -0.07647,-0.01199 -0.248528,-0.039 -0.205001,-0.10425 -0.088,-0.04475 -0.232001,-0.232001 -0.148999,-0.293 -0.051,-0.324999 0.051,-0.323999 0.148999,-0.293003 0.232001,-0.232001 0.088,-0.04475 0.205001,-0.104248 0.075,-0.01199 0.249998,-0.04 0.24923,0.04 z m -48.1360005,-19.084002 -8.014002,-2.147423 -12.526473,-3.356577 -3.857526,-1.033658 -4.096001,-1.097557 -1.742,-0.466785 -0.659999,-0.287998 -0.543998,-0.471002 -0.630846,-0.739002 -0.519156,-0.608157 -0.908997,-1.064842 -0.458001,-0.725 -0.234001,-0.824 0.008,-0.857 0.0052,-0.017 0.245796,-0.802997 0.472,-0.715001 0.654,-0.553001 0.215998,-0.09493 0.569003,-0.250068 7.623,-1.945614 1.125999,-0.287388 8.836002,-1.858002 6.421998,-1.067089 2.485001,-0.41291 1.670193,-0.205002 4.036808,-0.495476 3.255002,-0.399521 0.827998,0.032 0.787002,0.256004 0.686999,0.460999 0.123591,0.145996 0.411409,0.486 0.342,0.754005 0.123001,0.818997 -0.106003,0.821003 -3.68318,13.503998 -1.117174,4.096 -0.115644,0.424 -0.178999,0.398999 -0.293003,0.323002 -0.378999,0.217999 -0.427999,0.09 -0.256001,-0.02712 z m 2.020999,19.084002 0.205001,0.104247 0.088,0.04475 0.232001,0.232 0.149002,0.293001 0.051,0.323999 -0.051,0.325002 -0.149002,0.293 -0.232001,0.231998 -0.088,0.04475 -0.205001,0.10425 -0.248528,0.039 -0.07647,0.012 -0.07623,-0.012 -0.247766,-0.039 -0.293,-0.149002 -0.232001,-0.232001 -0.148999,-0.292997 -0.04976,-0.311004 -0.0023,-0.014 0.052,-0.323999 0.149002,-0.293003 0.232001,-0.231998 0.292997,-0.149 0.07477,-0.01199 0.24923,-0.04 0.250001,0.04 z m 7.483001,-6.204004 0.300152,0.048 0.19385,0.031 0.419997,0.213764 0.02599,0.01324 0.354,0.354 0.228001,0.445998 0.078,0.494005 -0.078,0.494998 -5.64e-4,0.0011 -0.227488,0.445002 -0.354,0.354 -0.445999,0.227 -0.494001,0.078 -0.493999,-0.078 -0.446002,-0.227 -0.193999,-0.194 -0.160001,-0.16 -0.227488,-0.445002 -5.64e-4,-0.0011 -0.078,-0.494998 0.078,-0.494005 0.227999,-0.445998 0.16,-0.160001 0.194,-0.193999 0.446001,-0.226997 0.193847,-0.031 z m -35.680348,82.311021 0.228272,0.04046 0.129371,0.08741 0.253255,0.170668 2.82e-4,8.47e-4 0.149454,0.269011 0.104103,0.287289 -0.03746,0.306693 -0.04004,0.228727 -0.146482,0.314003 -0.487516,1.044999 -0.210789,0.225775 -0.146854,0.05344 -0.06536,0.05103 -0.292998,0.228752 -0.307134,-0.03758 -0.305867,-0.03742 -0.451998,-0.421999 -0.113002,-0.45 0.081,-0.457 0.0933,-0.199999 0.540693,-1.159 0.148855,-0.177822 0.210708,-0.226227 0.286712,-0.104396 0.147148,-0.05405 0.0011,7.9e-5 z m -14.397899,-100.695019 0.156738,-0.145985 0.06506,-0.162163 0.05894,-0.303196 -0.08641,-0.215286 -0.116379,-0.406403 -0.0087,-0.03053 -0.123123,-0.0966 -0.153839,-0.148304 -0.013,-0.01253 -0.45104,-0.112003 -0.457001,0.08 -1.359001,0.634003 -0.178177,0.149647 -0.225776,0.210792 -0.107102,0.365364 -0.03756,0.193196 -0.01112,0.05722 -0.01026,0.05278 0.08709,0.215214 0.04295,0.149853 0.148858,0.177822 0.12973,0.125072 0.03743,0.03609 0.147148,0.05356 0.208793,0.101398 0.612999,-0.075 1.359001,-0.633999 0.076,-0.06927 0.138718,-0.126427 z m 51.372247,49.543999 0.228002,0.446001 0.02937,0.185999 0.04863,0.308 -0.078,0.495001 -0.112979,0.221 -0.115023,0.224998 -0.354,0.354003 -0.02599,0.01324 -0.419998,0.213769 -0.494002,0.078 -0.493999,-0.078 -0.446001,-0.227 -0.194,-0.194002 -0.16,-0.16 -0.227999,-0.445999 -0.078,-0.495001 0.078,-0.493999 0.227999,-0.446001 0.16,-0.16 0.194,-0.194 0.07466,-0.038 0.37134,-0.189002 0.493999,-0.079 0.494001,0.079 0.37134,0.189002 0.04866,0.02475 0.02599,0.01324 z m -34.614,60.999001 -0.582001,-0.271315 -0.777999,-0.362683 -0.177323,-0.14885 -0.226227,-0.210713 -0.104394,-0.286712 -0.05606,-0.225727 0.167999,-0.587 0.333998,-0.321998 0.303197,-0.05895 0.147148,-0.05355 0.07882,0.0096 0.228493,0.02791 0.08235,0.02354 0.068,0.01942 0.960306,0.447999 0.398696,0.185999 0.178175,0.149651 0.225775,0.210789 0.05345,0.146854 0.104603,0.286786 -5.7e-5,5.64e-4 -0.0053,0.04345 -0.03209,0.262271 -0.04054,0.22873 -0.175001,0.26 -0.394002,0.245996 -0.379619,-0.01098 -0.229729,0.03203 z m -28.296081,-105.128005 -0.303192,-0.05894 -0.225724,-0.05606 -0.166839,-0.160839 -0.210709,-0.226222 -0.05145,-0.179795 -0.03246,-0.113414 -0.04154,-0.201702 0.03053,-0.179177 0.03548,-0.142849 0.008,-0.0322 0.01247,-0.05023 0.225769,-0.210289 0.123124,-0.196697 0.12963,-0.08758 0.101158,-0.04535 1.408844,-0.631649 0.047,-0.0032 0.415999,-0.02875 0.270234,0.149349 0.325326,0.252251 0.130363,0.27972 -0.0055,0.156346 0.07057,0.334335 -0.04149,0.113998 -0.01196,0.03285 -0.108109,0.217217 -0.225776,0.210789 -0.171669,0.141143 -0.648003,0.302079 -0.544571,0.253864 -0.152428,0.07106 -0.235733,0.04355 z m 19.845081,106.687006 -0.04104,0.314314 -0.02201,0.119176 -0.0193,0.104507 -0.002,0.01157 0.102105,0.208709 0.04851,0.195355 0.0074,0.02992 0.253252,0.170668 0.301199,0.231767 0.462999,0.032 0.294,-0.106996 0.421002,-0.452005 0.144012,-0.320996 0.532988,-1.188001 0.032,-0.462997 -0.05345,-0.146857 -0.170879,-0.250147 -0.04383,-0.06417 -0.0959,-0.123377 -0.204794,-0.108889 -0.166539,-0.06739 -0.04868,-0.0197 -0.156662,0.0055 -0.231267,-0.01597 -0.417,0.203 -0.160418,0.190996 -0.138582,0.165002 -0.598817,1.284543 z"
       id="path8"
       inkscape:connector-curvature="0"
       style="fill:none;stroke:#0000ff;stroke-width:0.01mm" />
    <path
       id="path5058"
       d="m 48.088501,-78.424089 8.191996,-0.08882 3.011001,-0.03265 1.359001,0.165 1.267997,0.514001 0.489714,0.371997 0.60029,0.456002 0.836998,1.083001 0.525001,1.264 0.101997,0.380699 1.341857,5.008301 0.809145,3.019999 0.140349,1.076001 0.03665,0.280998 -0.182999,1.357002 -0.529999,1.261 -0.842002,1.079999 -0.155572,0.117001 -0.617431,0.46434 -0.320001,0.24066 -7.871998,4.432554 -2.495996,1.405447 -1.11,0.430998 -1.186005,0.102001 -1.167999,-0.233999 -2.231994,-0.791052 -4.204001,-1.489947 -1.119999,-0.215 -1.133004,0.125998 -1.246144,0.333889 -0.488854,0.130985 -8.191999,2.194958 -3.956752,1.060165 -12.427246,3.329748 -2.453002,0.657256 -0.262734,0.108997 -0.894264,0.371001 -0.486001,0.373058 -0.507999,0.389944 -0.7630023,0.993998 -0.4800008,1.158 -0.1063046,0.81 -0.056698,0.432001 0,7.759999 0,8.192002 0,8.192 0,8.191999 0,3.4089992 0.2069987,1.7870002 0.612002,1.693001 0.581002,0.8907097 0.26893,0.412293 0.133067,0.203996 4.208004,5.061113 9.244656,11.1188899 7.139339,8.586738 0.534001,0.642262 0.851998,0.757001 1.039001,0.470996 5.767002,1.626028 0.804996,0.226972 1.088001,0.482002 0.91,0.768999 0.657002,0.992999 0.867424,1.830002 3.864576,8.153073 0.01846,0.03893 0.34555,0.729 0.418998,1.302998 0.064,1.366999 -0.153794,0.697002 -0.141213,0.640001 -0.551993,1.056112 -0.082,0.156885 -0.928001,1.006006 -1.487689,1.237 -5.206311,4.328992 -0.487999,0.306948 -0.671003,0.422058 -1.307998,0.401001 -1.367999,0.046 -0.749001,-0.175308 -0.583999,-0.136694 -1.204003,-0.648995 -2.307999,-1.669297 -3.97462,-2.874701 -3.358379,-2.429005 -0.856,-0.828001 -0.003,-0.0053 -0.475731,-0.833744 -0.111266,-0.194999 -0.275,-1.159002 -0.251217,-2.741995 -0.371786,-4.058005 -0.0094,-0.038 -0.26362,-1.069008 -0.589001,-0.976001 -1.705229,-2.050999 -4.139767,-4.97921 L 5.8384008,12.617395 0.03348513,5.6353922 -0.58451687,5.0843956 -1.0635159,4.8630713 l -0.272,-0.1256764 -0.819999,-0.1110008 -0.817002,0.133 -0.139,0.06847 -0.603998,0.2975271 -1.444001,1.0013668 -2.735002,1.8966349 -1.018373,0.4980009 -0.342626,0.1675469 -0.05,0.02444 -1.5519991,0.236999 -6.589999,0 -6.590001,0 -1.551999,-0.236999 -0.05,-0.02444 -0.342627,-0.1675469 -1.018373,-0.4980009 -2.734999,-1.8966349 -1.444001,-1.0013668 -0.603998,-0.2975271 -0.139,-0.06847 -0.817002,-0.133 -0.819999,0.1110008 -0.272,0.1256764 -0.478999,0.2213243 -0.618002,0.5509966 -5.804918,6.9820028 -9.482082,11.404789 -4.139768,4.97921 -1.705229,2.050999 -0.589001,0.976001 -0.272999,1.107 -0.218917,2.389468 -0.152866,1.668534 -0.251217,2.741998 -0.275,1.158999 -0.111269,0.194999 -0.475731,0.833744 -0.003,0.0053 -0.855997,0.828 -3.358382,2.429005 -3.97462,2.874701 0,0.425202 0,0.692788 5.019003,-3.020692 1.615011,-0.971999 0.544988,-0.328004 1.013,-0.397513 1.333999,-0.523483 2.467997,-0.515005 0.294005,-0.03585 2.035211,-0.248153 0.01279,-0.0017 2.047999,-0.249713 31.557,-3.84773 1.210999,0 1.211001,0 31.557001,3.84773 2.047999,0.249713 0.0103,0.0014 0.0025,2.82e-4 2.035214,0.248155 0.294002,0.03585 2.467997,0.515002 1.334002,0.523483 1.013,0.397515 0.544985,0.328002 1.615014,0.972001 5.019,3.630403 1.487001,1.075591 1.528998,0.825003 1.080002,0.253405 0.527877,0.123856 0.08412,0.01973 1.736,-0.059 1.659999,-0.510004 0.088,-0.05539 1.382999,-0.870605 6.500368,-5.404999 0.193627,-0.161005 0.115005,-0.124564 1.062996,-1.151436 0.804003,-1.540002 0.247421,-1.118997 0.127579,-0.577 -0.081,-1.736 -0.530998,-1.653001 -0.06163,-0.129997 -1.568365,-3.308449 -2.31506,-4.883553 -0.178221,-0.375957 -0.918145,-1.936801 -0.05558,-0.117241 -0.875998,-1.324003 -1.213002,-1.023998 -1.451,-0.643001 -1.184998,-0.334292 -5.387001,-1.519708 -0.656,-0.296996 -0.538997,-0.477978 -0.118065,-0.142 -1.491936,-1.794403 -5.3192,-6.397594 -11.064796,-13.30803386 -2.557477,-3.07596804 -0.574526,-0.6910007 -0.805998,-1.237 -0.502003,-1.388 -0.169997,-1.4669992 0,-3.4090022 0,-8.192 0,-8.191999 0,-8.192003 0,-7.759996 0.05645,-0.432 0.05855,-0.448003 0.339999,-0.819999 0.059,-0.07692 0.480999,-0.627081 0.705,-0.541 0.819999,-0.339 2.090003,-0.560064 17.837312,-4.779939 6.738684,-1.805787 2.098001,-0.562212 0.714998,-0.079 0.706998,0.134998 4.672005,1.655561 1.641602,0.581714 0.123396,0.04373 0.154108,0.031 1.401893,0.282002 1.582,-0.137002 0.372962,-0.145 1.106034,-0.429999 1.809999,-1.018998 8.191999,-4.611951 0.366005,-0.20605 1.388999,-1.044 0.686791,-0.880999 0.381203,-0.489 0.673004,-1.600999 0.233002,-1.722001 -0.03694,-0.284001 -0.187059,-1.437999 -0.712699,-2.658001 -1.542305,-5.751999 -0.665999,-1.604 -0.584002,-0.756123 -0.06169,-0.07988 -0.416305,-0.538997 -1.384004,-1.05 -1.609999,-0.652 -1.723999,-0.209999 -0.806001,0.009 -2.036383,-0.153168 -0.153619,-0.01155 -0.375999,-0.02828 -2.494994,-0.629002 -5.321001,-1.687694 -4.096001,-1.29916 -1.167,-0.370144 -2.173046,-0.613819 -0.366717,-0.103585 -0.101238,-0.02859 -0.287997,-0.07226 -3.000219,-0.752746 -1.810041,-0.454132 -3.002745,-0.785866 -10.871995,-2.256994 -5.891067,-0.91212 -5.082004,-0.78688 -3.1100009,-0.3193 -0.9308761,-0.0956 -7.00411987,-0.71912 -0.25700003,-0.0132 -8.192002,-0.42035 -2.6400001,-0.13546 -5.551999,0 -5.552,0 -2.639999,0.13546 -5.9341,0.30449 -2.257899,0.11586 -0.257,0.0132 -7.934999,0.81469 -3.110002,0.31931 -5.082,0.78687 -5.890999,0.91213 -10.871995,2.256999 -3.002746,0.785866 -1.793632,0.45002 -0.0164,0.0041 -3.000217,0.752746 -0.287999,0.07226 -0.131802,0.03723 -0.122589,0.03462 -0.04495,0.0127 -2.34166,0.661442 -1.167,0.370144 -4.096004,1.29916 -5.320998,1.687694 -2.495,0.629002 -0.376,0.02828 -2.19,0.164719 -0.806,-0.009 -1.4942,0.182007 -0.2298,0.02799 -1.61,0.652 -0.65239,0.494942 -0.73162,0.555058 -0.41631,0.538997 -0.0617,0.07988 -0.58399,0.756123 -0.665997,1.604 -1.5423,5.751999 -0.7127,2.658001 -0.18706,1.437999 -0.0369,0.284001 0.233,1.722003 0.67301,1.600996 0.0524,0.06723 0.3288,0.421775 0.68679,0.881002 1.388987,1.043996 0.36601,0.206054 8.19201,4.611948 1.69395,0.953671 0.11605,0.06533 1.10603,0.43 0.372959,0.145003 1.582002,0.136999 1.40189,-0.282002 0.15411,-0.031 1.765001,-0.625441 4.672005,-1.655561 0.706997,-0.134998 0.715,0.079 2.097999,0.562209 6.738685,1.805791 17.837312,4.779935 2.090002,0.560067 0.82,0.339 0.705002,0.541 0.480997,0.627081 0.059,0.07692 0.339999,0.819999 0.05855,0.448003 0.05645,0.432 0,7.759997 0,8.192002 0,8.192 0,8.191999 0,3.4090022 -0.169996,1.4669992 -0.502003,1.388 -0.805999,1.237 -0.574525,0.6910017 -2.557478,3.07596804 -11.064795,13.30803386 -5.3192,6.397594 -1.491937,1.794402 -0.118065,0.142 -0.538999,0.478003 -0.656,0.296997 -5.387001,1.519707 -1.184997,0.334292 -1.451001,0.643001 -1.213001,1.023998 -0.437805,0.66171 -0.438194,0.662294 -1.151943,2.429998 -2.31506,4.883553 0,3.26952 3.864578,-8.153073 0.867424,-1.83 0.657002,-0.993001 0.909999,-0.768997 1.088002,-0.482001 0.804996,-0.226972 3.45208,-0.973328 2.314922,-0.652704 1.039001,-0.470995 0.851998,-0.756999 0.534001,-0.642264 7.139338,-8.586735 9.244657,-11.1188899 4.208004,-5.061114 0.133065,-0.203998 0.849934,-1.3030007 0.611999,-1.693 0.12214,-1.0544102 0.08486,-0.73259 0,-3.4090022 0,-8.191999 0,-8.192 0,-8.192002 0,-7.759997 -0.0567,-0.432 -0.106305,-0.810001 -0.480001,-1.158002 -0.763002,-0.993998 -0.508,-0.389944 -0.486,-0.373058 -0.894264,-0.370998 -0.262734,-0.109 -2.453002,-0.657256 -12.427246,-3.329746 -3.956753,-1.060165 -8.191999,-2.194957 -1.734997,-0.464874 -1.133003,-0.126001 -1.119999,0.215 -1.21553,0.430798 -2.988472,1.059152 -2.231995,0.791049 -1.168,0.234001 -1.186002,-0.102 -1.110007,-0.431002 -2.496,-1.405444 -7.87201,-4.432557 -0.32,-0.240656 -0.61742,-0.46434 -0.155567,-0.117001 -0.84201,-1.080003 -0.52999,-1.260997 -0.183,-1.357005 0.0366,-0.280998 0.14035,-1.076 0.80914,-3.02 1.341847,-5.008301 0.102,-0.380699 0.525,-1.264 0.837,-1.083 0.60029,-0.456002 0.48972,-0.371998 1.268,-0.514 1.359,-0.165 3.011,0.03265 8.192002,0.08882 0.695,0.0075 1.176002,0.181 1.079002,0.504997 0.268128,0.236 0.62487,0.550003 4.348998,5.094429 0.085,0.09957 0.862003,0.745998 1.044996,0.457001 4.646811,1.244999 1.55319,0.416137 16.383998,4.389694 7.652001,2.050167 0.539998,0.05723 0.328001,0.03477 0.855001,-0.180001 0.757998,-0.435 0.170917,-0.188999 0.415084,-0.459001 0.358998,-0.796 0.216292,-0.793 1.117182,-4.096 0.926674,-3.397522 2.484357,-9.108574 0.324784,-1.190785 0.236711,-0.86787 0.4962,-1.819252 0.911801,-3.342997 3.709001,-1.827 3.075,0 8.191999,0 8.1919991,0 3.075,0 3.708998,1.827 0.911801,3.342997 0.4962,1.819252 0.23671103,0.86787 3.73581487,13.696881 1.1171822,4.096 0.2162923,0.793 0.053789,0.119274 0.3052092,0.676726 0.4150812,0.459001 0.1709166,0.188999 0.7580008,0.435 0.8549978,0.180001 0.3280015,-0.03477 0.5400011,-0.05723 7.6520033,-2.050167 16.383995,-4.389694 1.553187,-0.416137 2.33367,-0.625248 1.067294,-0.285958 1.24585,-0.333793 1.044999,-0.457001 0.861999,-0.745998 0.085,-0.09957 0.369056,-0.432319 1.258675,-1.474411 0.812743,-0.95205 1.908525,-2.235649 0.624868,-0.550003 0.268128,-0.236 1.079004,-0.504997 1.176,-0.181 z M -83.830496,40.59245 l -0.0326,0.696998 -0.007,0 -1.07345,0 1.19873,-2.528962 -0.0218,0.464961 z m 103.246997,-2.435417 0.088,-0.02958 0.601,-0.430998 0.383441,-0.502999 0.06556,-0.086 0.257999,-0.694001 0.042,-0.738996 -0.220997,-2.411002 -0.04085,-0.166 -0.131151,-0.533 -0.372003,-0.617 -2.449454,-2.946004 -2.319542,-2.789752 -11.3029566,-13.594244 -5.0610453,-6.0870027 -0.02001,-0.017865 -0.04384,-0.039141 -0.244159,-0.2179997 -0.376002,-0.1740013 -0.409998,-0.055 -0.409002,0.066001 -0.370998,0.1830014 -0.194003,0.1345325 -0.09152,0.063469 -1.956477,1.3567523 -0.996798,0.6912497 -0.940203,0.6519954 -1.790999,0.8760034 -0.368001,0.05623 -1.6019981,0.244772 -6.590001,0 -6.589998,0 -1.602001,-0.244772 -0.368001,-0.05623 -1.790999,-0.8760034 -0.940201,-0.6519954 -0.996797,-0.6912497 -1.95648,-1.3567523 -0.09152,-0.063469 -0.194,-0.1345325 -0.371001,-0.1830014 -0.408999,-0.066001 -0.410001,0.055 -0.375999,0.1740013 -0.244159,0.2179997 -0.04384,0.039141 -0.02001,0.017865 -5.061045,6.0870027 -11.302957,13.594244 -2.319539,2.789752 -2.449458,2.946002 -0.372,0.617 -0.172,0.699 -0.220997,2.411002 0.042,0.738996 0.257999,0.694001 0.06556,0.086 0.383444,0.502999 0.601,0.430998 0.088,0.02958 0.613997,0.206414 0.740004,0.02001 2.741994,-0.334388 30.952001,-3.774612 1.815998,-0.110002 1.816002,0.110002 30.952,3.774612 2.741995,0.334388 0.740001,-0.02001 z m -82.158469,-107.459585 -3.857526,-1.033658 -5.838,-1.564342 -0.659999,-0.287998 -0.543998,-0.471002 -1.150002,-1.347159 -0.908996,-1.064842 -0.458001,-0.724999 -0.234002,-0.824001 0.008,-0.857 0.0052,-0.017 0.245796,-0.802997 0.03426,-0.0519 0.43774,-0.663105 0.654,-0.553001 0.216,-0.09493 0.569,-0.250068 7.623,-1.945614 1.125998,-0.287388 8.836002,-1.858002 6.421998,-1.067089 2.485,-0.41291 1.670194,-0.205002 4.036807,-0.495476 3.255002,-0.399521 0.827997,0.032 0.787002,0.256004 0.687,0.460999 0.123591,0.145996 0.411409,0.486 0.342,0.754005 0.123001,0.818997 -0.106003,0.821003 -3.68318,13.503998 -1.117174,4.096 -0.115646,0.424 -0.179,0.398999 -0.293,0.323001 -0.378999,0.218 -0.428001,0.09 -0.255999,-0.02712 -0.178,-0.01885 -8.014001,-2.147424 z m 69.8704685,5.522865 0.1780004,-0.01885 8.0140041,-2.147423 12.526472,-3.356578 3.857523,-1.033658 5.838004,-1.564342 0.659999,-0.287998 0.543997,-0.471001 1.150002,-1.34716 0.908996,-1.064842 0.458001,-0.724999 0.234002,-0.824001 -0.008,-0.856999 -0.0052,-0.017 -0.245796,-0.802997 -0.472003,-0.715001 -0.653999,-0.553001 -0.215998,-0.09493 -0.569,-0.250068 -7.623002,-1.945614 -1.125999,-0.287388 -8.836002,-1.858002 -6.421994,-1.067089 -2.485001,-0.41291 -1.670194,-0.205002 -4.0368073,-0.495476 -3.2550013,-0.399521 -0.8280005,0.032 -0.7869992,0.256004 -0.6869996,0.460999 -0.123591,0.145996 -0.411409,0.486 -0.34199997,0.754005 -0.123001,0.818997 0.106,0.821003 3.68318347,13.503998 1.1171738,4.096 0.1156434,0.424 0.1789994,0.398998 0.2930003,0.323002 0.378999,0.218 0.4280013,0.09 z m -81.9199935,115.440743 -1.382999,-0.870605 -6.500371,-5.404999 1.84246,0 0.3466,0 5.206311,4.328996 0.487999,0.405768 0,0.117523 0,0.540162 z m 1.978999,-0.816604 1.367999,0.046 -3.332187,0.77993 -0.01482,-0.0093 0,-0.883155 z m 1.367999,0.046 0.749,-0.175308 0,0.178108 0,1.248604 -0.611998,0.143595 -1.736,-0.059 -1.66,-0.510001 -0.07319,-0.04607 z m -12.322002,-11.665001 0.419004,-1.302997 -0.397234,0.838036 z m 3.280694,6.160005 -1.487689,-1.236999 1.141089,1.236999 z m -4.457654,-4.096004 1.19873,-2.528962 0.397234,-0.838036 0.34555,-0.729 -1.549924,0 -0.0616,0.129997 -0.530989,1.653001 -0.081,1.736 0.127569,0.577 z m 10.151964,8.948291 0.671001,0.205711 -0.671001,-0.422057 0,0.09882 z m -8.11,-7.09529 -0.082,-0.08889 0,-0.068 z m 14.815002,7.920996 -1.529001,0.825006 -1.080003,0.253401 0,-1.248604 0.584003,-0.314802 1.203999,-0.648996 2.307999,-1.244095 0,0.692788 0,0.60971 z m -15.448997,-9.133996 0.551993,1.056113 0,0.068 0,2.046326 -1.062991,-1.151436 -0.804011,-1.539999 -0.24742,-1.119 0.15446,0 1.07346,0 z m -0.327638,-0.640001 0.0326,-0.696998 0.153795,0.696998 z m 9.071633,9.488453 1.978999,0.06655 -1.307998,-0.401001 -0.671001,-0.205711 z m -8.192002,-13.623378 -0.01845,0.03893 -1.549922,0 1.56837,-3.308449 z m -0.551993,4.774926 -0.141213,-0.640001 -0.186425,0 -0.007,0 z m 12.839993,8.963799 0.584003,-0.314802 -0.584003,0.136694 z m -11.979368,-5.507796 -0.193627,-0.161005 -0.115005,-0.124564 0,-2.046326 0.082,0.08889 0.928001,1.006004 1.141091,1.236999 z m 13.76737,4.543998 2.307999,-1.669296 0,0.425201 z m -5.884,0.09194 -0.487999,-0.306945 0.487999,0.405768 z m 8.191999,-0.64325 5.019003,-3.020689 -5.019003,3.6304 z"
       inkscape:connector-curvature="0"
       style="fill:none;stroke:#00cc00;stroke-width:0.01mm" />
    <path
       style="fill:none;stroke:#00cc00;stroke-width:0.01mm"
       inkscape:connector-curvature="0"
       d="m 276.68836,-323.95725 8.19199,-0.0888 3.011,-0.0327 1.359,0.165 1.26799,0.51401 0.48972,0.37199 0.60029,0.456 0.83699,1.083 0.52501,1.264 0.10199,0.3807 1.34186,5.0083 0.80914,3.02 0.14035,1.076 0.0366,0.28099 -0.183,1.35701 -0.52999,1.26099 -0.84201,1.08 -0.15557,0.117 -0.61743,0.46434 -0.32,0.24066 -7.87199,4.43255 -2.496,1.40545 -1.11,0.431 -1.186,0.102 -1.168,-0.234 -2.23199,-0.79105 -4.204,-1.48995 -1.12,-0.215 -1.133,0.126 -1.24614,0.33389 -0.48886,0.13098 -8.19199,2.19496 -3.95675,1.06016 -12.42724,3.32975 -2.453,0.65725 -0.26273,0.109 -0.89426,0.371 -0.486,0.37306 -0.508,0.38994 -0.76301,0.994 -0.47999,1.158 -0.10631,0.81 -0.0567,0.432 0,7.75999 0,8.192 0,8.19199 0,8.192 0,3.40899 0.207,1.787 0.612,1.693 0.581,0.89071 0.26893,0.41229 0.13307,0.204 4.208,5.06111 9.24465,11.11888 7.13933,8.58673 0.534,0.64226 0.852,0.757 1.039,0.471 5.767,1.62603 0.805,0.22697 1.08799,0.482 0.91,0.769 0.65701,0.993 0.86742,1.83 3.86457,8.15307 0.0185,0.0389 0.34555,0.729 0.419,1.30299 0.064,1.367 -0.15379,0.697 -0.14122,0.64 -0.55199,1.05611 -0.082,0.15689 -0.928,1.006 -1.48769,1.237 -5.2063,4.32899 -0.488,0.30695 -0.67101,0.42206 -1.30799,0.401 -1.368,0.046 -0.749,-0.17531 -0.584,-0.13669 -1.204,-0.649 -2.308,-1.66929 -3.97462,-2.8747 -3.35837,-2.42901 -0.856,-0.828 -0.003,-0.005 -0.47573,-0.83374 -0.11127,-0.195 -0.275,-1.159 -0.25122,-2.74199 -0.37178,-4.05801 -0.009,-0.038 -0.26362,-1.06897 -0.589,-0.976 -1.70523,-2.051 -4.13976,-4.97921 -9.48208,-11.40478 -5.80491,-6.982 -0.61801,-0.55099 -0.479,-0.22133 -0.272,-0.12567 -0.81999,-0.111 -0.817,0.133 -0.139,0.0685 -0.604,0.29752 -1.444,1.00137 -2.735,1.89663 -1.01837,0.498 -0.34263,0.16755 -0.05,0.0244 -1.552,0.237 -6.58999,0 -6.59,0 -1.552,-0.237 -0.05,-0.0244 -0.34262,-0.16755 -1.01837,-0.498 -2.735,-1.89663 -1.444,-1.00137 -0.604,-0.29752 -0.139,-0.0685 -0.817,-0.133 -0.82,0.111 -0.272,0.12567 -0.479,0.22133 -0.618,0.55099 -5.80491,6.982 -9.48208,11.40478 -4.13976,4.97921 -1.70523,2.051 -0.589,0.976 -0.273,1.107 -0.21892,2.38946 -0.15286,1.66854 -0.25122,2.74199 -0.275,1.159 -0.11127,0.195 -0.47573,0.83374 -0.003,0.005 -0.856,0.828 -3.35838,2.429 -3.97461,2.8747 0,0.42521 0,0.69278 5.019,-3.02069 1.61501,-0.972 0.54498,-0.328 1.013,-0.39751 1.334,-0.52349 2.468,-0.515 0.294,-0.0358 2.03521,-0.24815 0.0128,-0.002 2.048,-0.24971 31.55698,-3.84773 1.21099,0 1.211,0 31.55698,3.84773 2.048,0.24971 0.0103,0.001 0.002,2.8e-4 2.03521,0.24816 0.294,0.0358 2.468,0.515 1.334,0.52348 1.013,0.39751 0.54498,0.32801 1.61502,0.972 5.01899,3.6304 1.487,1.07559 1.529,0.825 1.08,0.2534 0.52788,0.12386 0.0841,0.0197 1.736,-0.059 1.66,-0.51 0.088,-0.0554 1.38299,-0.87061 6.50037,-5.40499 0.19362,-0.16101 0.11501,-0.12456 1.06299,-1.15144 0.80401,-1.54 0.24742,-1.119 0.12758,-0.57699 -0.081,-1.736 -0.531,-1.653 -0.0616,-0.13 -1.56837,-3.30845 -2.31505,-4.88355 -0.17822,-0.37595 -0.91815,-1.9368 -0.0556,-0.11724 -0.876,-1.32401 -1.213,-1.02399 -1.451,-0.643 -1.18499,-0.33429 -5.387,-1.51971 -0.656,-0.297 -0.539,-0.47797 -0.11806,-0.142 -1.49194,-1.79441 -5.31919,-6.39759 -11.06479,-13.30802 -2.55748,-3.07597 -0.57452,-0.69099 -0.806,-1.237 -0.502,-1.388 -0.17,-1.467 0,-3.409 0,-8.192 0,-8.19199 0,-8.192 0,-7.75999 0.0564,-0.432 0.0585,-0.448 0.34,-0.82 0.059,-0.0769 0.481,-0.62708 0.705,-0.541 0.82,-0.339 2.09,-0.56006 17.8373,-4.77994 6.73868,-1.80578 2.098,-0.56221 0.71499,-0.079 0.707,0.135 4.672,1.65555 1.6416,0.58172 0.1234,0.0437 0.15411,0.031 1.40189,0.282 1.582,-0.137 0.37296,-0.145 1.10603,-0.43 1.81,-1.019 8.19199,-4.61195 0.36601,-0.20605 1.389,-1.044 0.68679,-0.88099 0.3812,-0.489 0.673,-1.601 0.23301,-1.722 -0.0369,-0.284 -0.18706,-1.438 -0.7127,-2.658 -1.54231,-5.75199 -0.66599,-1.604 -0.58401,-0.75613 -0.0617,-0.0799 -0.4163,-0.539 -1.384,-1.05 -1.61,-0.652 -1.724,-0.21 -0.806,0.009 -2.03638,-0.15317 -0.15362,-0.0116 -0.376,-0.0283 -2.49499,-0.629 -5.321,-1.68769 -4.096,-1.29916 -1.167,-0.37014 -2.17304,-0.61382 -0.36672,-0.10359 -0.10123,-0.0286 -0.288,-0.0723 -3.00022,-0.75274 -1.81004,-0.45413 -3.00274,-0.78587 -10.87199,-2.25699 -5.89106,-0.91212 -5.082,-0.78688 -3.11,-0.3193 -0.93088,-0.0956 -7.00411,-0.71912 -0.257,-0.0132 -8.192,-0.42035 -2.64,-0.13546 -5.55199,0 -5.552,0 -2.63999,0.13546 -5.9341,0.30449 -2.2579,0.11586 -0.257,0.0132 -7.93499,0.81469 -3.11,0.31931 -5.082,0.78687 -5.89099,0.91213 -10.87199,2.257 -3.00274,0.78586 -1.79363,0.45002 -0.0164,0.004 -3.00022,0.75275 -0.288,0.0723 -0.1318,0.0372 -0.12259,0.0346 -0.045,0.0127 -2.34166,0.66144 -1.16699,0.37014 -4.09601,1.29916 -5.32099,1.68769 -2.495,0.629 -0.376,0.0283 -2.19,0.16472 -0.806,-0.009 -1.49419,0.18201 -0.2298,0.028 -1.61,0.652 -0.65239,0.49494 -0.73162,0.55506 -0.41631,0.539 -0.0617,0.0799 -0.58399,0.75613 -0.666,1.604 -1.5423,5.75199 -0.7127,2.658 -0.18706,1.438 -0.0369,0.284 0.233,1.722 0.67301,1.601 0.0524,0.0672 0.3288,0.42177 0.68679,0.881 1.38899,1.044 0.36601,0.20605 8.192,4.61195 1.69395,0.95367 0.11605,0.0653 1.10603,0.43 0.37296,0.145 1.582,0.137 1.40189,-0.282 0.15411,-0.031 1.765,-0.62544 4.672,-1.65556 0.707,-0.135 0.715,0.079 2.09799,0.56221 6.73868,1.80579 17.8373,4.77993 2.09,0.56006 0.82,0.339 0.705,0.541 0.481,0.62708 0.059,0.0769 0.34,0.82 0.0585,0.44801 0.0564,0.432 0,7.75999 0,8.19199 0,8.192 0,8.19199 0,3.409 -0.17,1.467 -0.502,1.388 -0.806,1.237 -0.57452,0.691 -2.55748,3.07596 -11.06478,13.30803 -5.3192,6.39758 -1.49194,1.79441 -0.11806,0.142 -0.539,0.478 -0.656,0.29699 -5.387,1.51971 -1.18499,0.33429 -1.451,0.643 -1.213,1.024 -0.43781,0.66171 -0.43819,0.66229 -1.15194,2.43 -2.31506,4.88355 0,3.26952 3.86457,-8.15307 0.86743,-1.83 0.657,-0.993 0.91,-0.769 1.088,-0.482 0.80499,-0.22697 3.45208,-0.97332 2.31492,-0.65271 1.039,-0.47099 0.852,-0.757 0.534,-0.64226 7.13933,-8.58673 9.24465,-11.11888 4.208,-5.06112 0.13307,-0.20399 0.84993,-1.303 0.612,-1.693 0.12214,-1.05441 0.0849,-0.73259 0,-3.409 0,-8.19199 0,-8.192 0,-8.19199 0,-7.75999 -0.0567,-0.432 -0.1063,-0.81001 -0.48001,-1.158 -0.763,-0.99399 -0.508,-0.38995 -0.486,-0.37306 -0.89426,-0.37099 -0.26273,-0.109 -2.453,-0.65726 -12.42724,-3.32974 -3.95675,-1.06017 -8.192,-2.19495 -1.73499,-0.46488 -1.133,-0.126 -1.12,0.215 -1.21553,0.4308 -2.98847,1.05915 -2.23199,0.79105 -1.168,0.234 -1.186,-0.102 -1.11001,-0.431 -2.496,-1.40544 -7.872,-4.43256 -0.32,-0.24065 -0.61742,-0.46434 -0.15557,-0.117 -0.84201,-1.08001 -0.52999,-1.26099 -0.183,-1.35701 0.0366,-0.28099 0.14035,-1.076 0.80914,-3.02 1.34185,-5.0083 0.102,-0.3807 0.525,-1.264 0.837,-1.083 0.60029,-0.456 0.48972,-0.37199 1.268,-0.514 1.35899,-0.165 3.011,0.0327 8.192,0.0888 0.695,0.007 1.176,0.181 1.079,0.50499 0.26813,0.236 0.62487,0.55 4.34899,5.09443 0.085,0.0996 0.862,0.746 1.045,0.457 4.64681,1.245 1.55319,0.41613 16.38398,4.38969 7.652,2.05017 0.54,0.0572 0.328,0.0348 0.855,-0.18 0.75799,-0.435 0.17092,-0.189 0.41509,-0.459 0.35899,-0.796 0.2163,-0.793 1.11718,-4.096 0.92667,-3.39752 2.48435,-9.10856 0.32479,-1.19079 0.23671,-0.86787 0.4962,-1.81925 0.9118,-3.34299 3.709,-1.827 3.075,0 8.19199,0 8.19199,0 3.075,0 3.709,1.827 0.91179,3.34299 0.4962,1.81925 0.23672,0.86787 3.73581,13.69687 1.11718,4.096 0.21629,0.793 0.0538,0.11927 0.30521,0.67673 0.41508,0.459 0.17092,0.189 0.758,0.435 0.855,0.18 0.328,-0.0348 0.54,-0.0572 7.652,-2.05017 16.38398,-4.38969 1.55318,-0.41613 2.33367,-0.62525 1.0673,-0.28596 1.24585,-0.33379 1.04499,-0.457 0.862,-0.746 0.085,-0.0996 0.36906,-0.43232 1.25867,-1.47441 0.81274,-0.95205 1.90853,-2.23565 0.62487,-0.55 0.26812,-0.236 1.07901,-0.50499 1.176,-0.181 z m -131.9189,119.01646 -0.0326,0.69699 -0.007,0 -1.07345,0 1.19873,-2.52896 -0.0218,0.46496 z m 103.24692,-2.43542 0.088,-0.0296 0.601,-0.431 0.38344,-0.50299 0.0656,-0.086 0.258,-0.69401 0.042,-0.73899 -0.221,-2.411 -0.0409,-0.166 -0.13115,-0.533 -0.372,-0.617 -2.44945,-2.946 -2.31954,-2.78975 -11.30295,-13.59424 -5.06105,-6.08699 -0.02,-0.0179 -0.0438,-0.0391 -0.24415,-0.218 -0.376,-0.174 -0.41,-0.055 -0.409,0.066 -0.371,0.183 -0.19401,0.13453 -0.0915,0.0635 -1.95647,1.35675 -0.9968,0.69125 -0.9402,0.65199 -1.791,0.87601 -0.368,0.0562 -1.602,0.24477 -6.58999,0 -6.59,0 -1.602,-0.24477 -0.368,-0.0562 -1.79099,-0.87601 -0.9402,-0.65199 -0.9968,-0.69125 -1.95648,-1.35675 -0.0915,-0.0635 -0.194,-0.13453 -0.371,-0.183 -0.409,-0.066 -0.41,0.055 -0.376,0.174 -0.24416,0.218 -0.0438,0.0391 -0.02,0.0179 -5.06104,6.08699 -11.30295,13.59424 -2.31953,2.78975 -2.44946,2.946 -0.372,0.617 -0.172,0.699 -0.221,2.411 0.042,0.73899 0.258,0.694 0.0656,0.086 0.38344,0.503 0.601,0.431 0.088,0.0296 0.614,0.20641 0.74001,0.02 2.74199,-0.33438 30.95198,-3.77461 1.81599,-0.11001 1.816,0.11001 30.95198,3.77461 2.742,0.33438 0.73999,-0.02 z m -82.15841,-107.4595 -3.85752,-1.03366 -5.838,-1.56434 -0.66,-0.288 -0.544,-0.471 -1.15,-1.34716 -0.90899,-1.06484 -0.458,-0.725 -0.23401,-0.824 0.008,-0.857 0.005,-0.017 0.2458,-0.803 0.0343,-0.0519 0.43774,-0.6631 0.654,-0.553 0.216,-0.0949 0.569,-0.25007 7.62299,-1.94561 1.126,-0.28739 8.836,-1.858 6.42199,-1.06709 2.485,-0.41291 1.67019,-0.205 4.03681,-0.49548 3.255,-0.39952 0.82799,0.032 0.787,0.25601 0.687,0.46099 0.12359,0.146 0.41141,0.486 0.342,0.75401 0.123,0.81899 -0.106,0.821 -3.68318,13.50399 -1.11717,4.096 -0.11565,0.424 -0.179,0.399 -0.293,0.323 -0.37899,0.218 -0.42801,0.09 -0.25599,-0.0271 -0.178,-0.0189 -8.014,-2.14742 z m 69.87042,5.52286 0.178,-0.0189 8.014,-2.14743 12.52646,-3.35657 3.85752,-1.03366 5.838,-1.56434 0.66,-0.288 0.54399,-0.471 1.15001,-1.34716 0.90899,-1.06484 0.458,-0.725 0.234,-0.824 -0.008,-0.85699 -0.005,-0.017 -0.24579,-0.803 -0.47201,-0.715 -0.65399,-0.553 -0.216,-0.0949 -0.569,-0.25007 -7.623,-1.94561 -1.126,-0.28739 -8.83599,-1.858 -6.42199,-1.06709 -2.485,-0.41291 -1.67019,-0.205 -4.03681,-0.49548 -3.255,-0.39952 -0.828,0.032 -0.78699,0.25601 -0.687,0.46099 -0.1236,0.146 -0.4114,0.486 -0.342,0.754 -0.123,0.819 0.106,0.821 3.68318,13.50399 1.11717,4.096 0.11564,0.424 0.179,0.399 0.293,0.323 0.379,0.218 0.428,0.09 z m -81.91994,115.44066 -1.383,-0.87061 -6.50036,-5.40499 1.84246,0 0.3466,0 5.2063,4.32899 0.488,0.40577 0,0.11752 0,0.54016 z m 1.979,-0.81661 1.368,0.046 -3.33219,0.77993 -0.0148,-0.009 0,-0.88315 z m 1.368,0.046 0.749,-0.17531 0,0.17811 0,1.24861 -0.612,0.14359 -1.736,-0.059 -1.66,-0.51 -0.0732,-0.0461 z m -12.32199,-11.66499 0.419,-1.303 -0.39723,0.83804 z m 3.28069,6.16 -1.48769,-1.237 1.14109,1.237 z m -4.45765,-4.096 1.19873,-2.52896 0.39723,-0.83804 0.34555,-0.729 -1.54992,0 -0.0616,0.13 -0.53099,1.653 -0.081,1.736 0.12757,0.577 z m 10.15195,8.94828 0.671,0.20571 -0.671,-0.42205 0,0.0988 z m -8.10999,-7.09528 -0.082,-0.0889 0,-0.068 z m 14.81499,7.92099 -1.529,0.825 -1.08,0.25341 0,-1.24861 0.584,-0.3148 1.204,-0.649 2.308,-1.24409 0,0.69279 0,0.60971 z m -15.44899,-9.13399 0.552,1.05611 0,0.068 0,2.04633 -1.06299,-1.15144 -0.80401,-1.54 -0.24742,-1.119 0.15446,0 1.07346,0 z m -0.32763,-0.64 0.0326,-0.697 0.15379,0.697 z m 9.07162,9.48844 1.979,0.0666 -1.308,-0.401 -0.671,-0.20571 z m -8.19199,-13.62336 -0.0184,0.0389 -1.54992,0 1.56836,-3.30845 z m -0.552,4.77492 -0.14121,-0.64 -0.18642,0 -0.007,0 z m 12.83999,8.96379 0.584,-0.3148 -0.584,0.13669 z m -11.97936,-5.50779 -0.19363,-0.16101 -0.115,-0.12456 0,-2.04632 0.082,0.0889 0.928,1.006 1.14109,1.237 z m 13.76736,4.54399 2.308,-1.66929 0,0.4252 z m -5.884,0.0919 -0.488,-0.30694 0.488,0.40577 z m 8.192,-0.64324 5.019,-3.02069 -5.019,3.63039 z"
       id="path6441" />
    <path
       style="color:#000000;clip-rule:nonzero;display:inline;overflow:visible;visibility:visible;opacity:1;isolation:auto;mix-blend-mode:normal;color-interpolation:sRGB;color-interpolation-filters:linearRGB;solid-color:#000000;solid-opacity:1;fill:#808080;fill-opacity:1;fill-rule:evenodd;stroke:none;stroke-width:1;stroke-linecap:butt;stroke-linejoin:round;stroke-miterlimit:4;stroke-dasharray:none;stroke-dashoffset:8.05119991;stroke-opacity:1;marker:none;color-rendering:auto;image-rendering:auto;shape-rendering:auto;text-rendering:auto;enable-background:accumulate"
       d="m -74.106644,-195.53219 c -0.658704,-0.34363 -2.884407,-2.04519 -4.946003,-3.78125 -5.479533,-4.61427 -5.516564,-4.85237 -1.960014,-12.6026 1.536805,-3.34892 3.29924,-6.60274 3.916522,-7.23072 0.769349,-0.78269 2.304274,-1.45403 4.880426,-2.13458 2.066953,-0.54603 4.164883,-1.31939 4.662068,-1.71858 1.41892,-1.13925 21.930875,-26.08459 22.742066,-27.65744 0.643467,-1.24767 0.726327,-3.66918 0.726327,-21.22581 l 0,-19.81749 -1.210168,-1.35337 c -1.238589,-1.38517 -3.714581,-2.13635 -28.235372,-8.56619 l -4.142251,-1.08618 -3.998804,1.37629 c -2.199343,0.75695 -4.522704,1.36271 -5.163021,1.34612 -1.799144,-0.0466 -13.092892,-6.64966 -13.838032,-8.09061 -0.90525,-1.75056 -0.7389,-3.53174 0.834015,-8.92992 1.954555,-6.70797 2.155263,-6.83419 10.867214,-6.83419 3.558562,0 7.05527,0.20399 7.770461,0.4533 0.746113,0.2601 2.467485,1.84107 4.038695,3.70928 3.221428,3.83037 1.497133,3.14576 21.100656,8.37772 8.293579,2.21346 14.571782,3.67579 15.083676,3.51332 0.48229,-0.15308 1.152934,-0.70885 1.490331,-1.23507 0.337368,-0.52621 1.927098,-5.80838 3.53266,-11.73815 3.936661,-14.53896 3.549029,-13.5206 5.531668,-14.53206 1.566982,-0.79943 2.617526,-0.86994 12.961704,-0.86994 10.3442052,0 11.3947491,0.0705 12.9617315,0.86994 1.9826391,1.01146 1.595007,-0.007 5.531668,14.53206 1.6055621,5.92977 3.1952915,11.21194 3.5326599,11.73815 0.3373967,0.52622 1.0080413,1.08199 1.4903308,1.23507 0.5118946,0.16247 6.7900968,-1.29986 15.0836758,-3.51332 19.603521,-5.23196 17.879228,-4.54735 21.100653,-8.37772 1.571216,-1.86821 3.292574,-3.44918 4.038685,-3.70928 0.715207,-0.24931 4.211912,-0.4533 7.77048,-0.4533 8.711945,0 8.912662,0.12622 10.867192,6.83419 1.57432,5.40298 1.73942,7.17911 0.830608,8.93651 -0.753731,1.45756 -11.99594,8.03626 -13.81362,8.08343 -0.651848,0.0169 -2.984669,-0.58858 -5.183998,-1.34553 l -3.998807,-1.37629 -4.14226,1.08416 c -23.629533,6.1846 -27.005814,7.21016 -28.235371,8.57666 l -1.2101689,1.34492 0,19.81749 c 0,17.55379 0.082945,19.97834 0.7261012,21.22581 0.8048417,1.56109 21.3210407,26.50575 22.7473917,27.65744 0.494369,0.39919 2.590009,1.17255 4.656977,1.71858 2.576152,0.68055 4.111074,1.35189 4.880412,2.13458 0.617276,0.62798 2.379725,3.8818 3.91651,7.23072 3.61171,7.87038 3.592265,7.97229 -2.482652,13.02456 -4.439751,3.69235 -6.316105,4.51583 -8.265611,3.62756 -1.787342,-0.81436 -11.589793,-8.07348 -11.915958,-8.82426 -0.170885,-0.3933 -0.554764,-2.7524 -0.853073,-5.24246 -0.316625,-2.64269 -0.812912,-4.84097 -1.192219,-5.28068 -0.357378,-0.41433 -5.054205,-6.10001 -10.437396,-12.63486 -5.3831904,-6.53484 -10.27435516,-12.3271 -10.86925134,-12.87167 -1.57694476,-1.44354 -2.92147956,-1.22995 -6.14301776,0.97589 -1.5792025,1.08131 -3.5106466,2.08596 -4.2920919,2.23256 -0.781445,0.1466 -4.500428,0.20252 -8.264397,0.12426 l -6.843578,-0.14229 -3.141444,-2.09027 c -3.50297,-2.33081 -4.798059,-2.55408 -6.381636,-1.10015 -0.593118,0.54457 -5.483662,6.33683 -10.867841,12.87167 -5.384179,6.53485 -10.082444,12.22053 -10.440613,12.63486 -0.381225,0.44101 -0.876045,2.6302 -1.193602,5.28068 -0.298309,2.49006 -0.681651,4.84773 -0.851831,5.23928 -0.273558,0.62929 -5.708557,4.76755 -10.552697,8.0349 -1.91903,1.29438 -3.437487,1.44727 -5.206766,0.52427 z"
       id="path6447"
       inkscape:connector-curvature="0" />
  </g>
  <g
     inkscape:groupmode="layer"
     id="layer2"
     inkscape:label="design"
     transform="translate(28.46794,31.169428)"
     style="display:inline;opacity:0.5">
    <path
       style="opacity:1;fill:#ff6600;fill-opacity:1;fill-rule:evenodd;stroke:none;stroke-width:0.28222221px;stroke-linecap:butt;stroke-linejoin:miter;stroke-opacity:1"
       d="m -17.509081,-335.61405 0,0 c -6.349093,0.009 -9.852263,0.63932 -12.352734,0.79212 -2.56532,0.15674 -2.973186,1.83187 -3.050976,3.11051 0,6.21218 0.288218,9.83981 -4.473112,17.5788 0.70902,9.60571 -2.00464,17.01025 -4.56792,22.33193 -1.21872,2.09509 -1.464696,1.88642 -0.546806,5.50774 2.18665,12.3236 1.636627,24.29345 -0.323563,34.57223 -0.20892,0.71585 -0.158067,0.90451 0.391363,1.2733 4.160479,2.81983 7.391528,5.50763 9.841948,8.56259 4.201547,0 3.62184,4.29863 15.128926,4.29863 11.5848775,0 10.9273749,-4.29863 15.1289268,-4.29863 2.45041687,-3.05496 5.6814688,-5.74276 9.8419489,-8.56259 0.549433,-0.36879 0.6002866,-0.55745 0.3913604,-1.2733 -1.9601828,-10.27878 -2.5102113,-22.24863 -0.3235621,-34.57223 0.917891,-3.62132 0.6719146,-3.41265 -0.5468056,-5.50774 -2.5632774,-5.32168 -5.2769455,-12.72622 -4.5679215,-22.33193 -4.761334,-7.73899 -4.4731118,-11.36662 -4.4731118,-17.5788 -0.077789,-1.27864 -0.4856536,-2.95377 -3.0509744,-3.11051 -2.5004717,-0.1528 -6.0036427,-0.78289 -12.3527337,-0.79212 l 0,0 -0.04741,0 c -0.01603,-3e-5 -0.03079,0 -0.04685,0 z m -0.590903,0.67635 5.64e-4,0 0.564445,0 0.219935,0 0.564444,0 c 0.04456,0 0.08912,0 0.133394,0.003 4.480936,0.0629 7.510261,0.27697 9.8121838,0.56718 0.6624856,0.0835 -0.064053,0.90218 -0.1697764,2.24567 -0.1395871,1.77388 1.4718903,2.89281 2.7252081,2.74727 1.02638,-0.0166 1.713148,-0.86095 1.7225488,0.0904 0.033,4.86242 0.4318621,8.67963 4.4775201,15.31551 -0.6317035,9.20019 1.8155834,16.42771 4.2719185,21.7019 0.5461225,1.08663 -1.7393467,-0.19145 -2.7709592,1.84106 -1.0709712,1.96184 0.6165483,3.47678 1.2264558,3.74881 1.2071914,0.53841 2.4722439,-0.34602 2.4016432,0.22986 -0.00381,0.0149 -0.00722,0.0301 -0.00993,0.0452 -2.2022588,12.41163 -1.649013,24.456 0.3241153,34.80263 0.00432,0.0197 0.00988,0.0391 0.015974,0.0584 0.090241,0.30911 0.080044,0.41312 0.087644,0.39632 -0.011233,0.0101 -0.057638,0.0595 -0.2226903,0.17033 l -0.00226,0.002 c -1.504947,1.02001 -3.0728946,2.19903 -4.5800486,3.45061 -2.00078041,1.83331 -1.1278869,-0.94354 -3.40320179,-1.33008 -1.84078021,-0.31273 -3.30366481,0.63822 -3.25382441,2.53283 0.067471,2.5647 2.6742021,2.07808 1.4160725,3.61046 -0.4802124,0.4433 -0.7551646,0.23978 -0.7551646,0.23978 -4.2203677,0 -6.4768104,-1.18244 -14.1215838,-1.18246 -7.644711,-0.001 -9.901158,1.18125 -14.121521,1.18125 0,0 -0.274403,0.20352 -0.754613,-0.23978 -1.25813,-1.53238 1.34802,-1.04576 1.41552,-3.61046 0.04984,-1.89461 -1.412492,-2.84556 -3.253272,-2.53283 -2.27532,0.38654 -1.402974,3.16339 -3.403754,1.33008 -1.50715,-1.25158 -3.075108,-2.4306 -4.580047,-3.45061 l -0.0017,-0.002 c -0.16509,-0.11083 -0.211491,-0.16022 -0.222691,-0.17032 0.0076,0.0168 -0.002,-0.0872 0.08819,-0.39632 0.0064,-0.0192 0.01143,-0.0386 0.01543,-0.0584 1.97313,-10.34662 2.526385,-22.391 0.324115,-34.80262 -0.002,-0.0151 -0.0054,-0.0303 -0.0094,-0.0452 -0.0706,-0.57588 1.193894,0.30855 2.401094,-0.22986 0.6099,-0.27203 2.297424,-1.78697 1.226453,-3.74881 -1.031609,-2.03251 -3.316527,-0.75444 -2.770407,-1.84106 2.45634,-5.2742 4.903067,-12.50171 4.271366,-21.7019 4.04566,-6.63588 4.444522,-10.4531 4.477522,-15.31551 0.0094,-0.95134 0.696168,-0.10702 1.722547,-0.0904 1.25332,0.14554 2.864796,-0.97339 2.725209,-2.74727 -0.105724,-1.34349 -0.832263,-2.16216 -0.169775,-2.24567 2.30192,-0.29021 5.331796,-0.50427 9.812734,-0.56718 0.04409,0 0.08793,0 0.132292,-0.003 z m -12.306432,1.15866 c 1.031674,6e-5 1.867996,0.8364 1.868069,1.86806 -5.7e-5,1.03169 -0.836384,1.86803 -1.868069,1.86808 -1.031684,-5e-5 -1.868011,-0.83639 -1.868068,-1.86808 7.3e-5,-1.03166 0.836395,-1.868 1.868068,-1.86806 z m 25.896644,0 c 1.0316746,6e-5 1.8679949,0.8364 1.8680683,1.86806 -5.64e-5,1.03169 -0.8363824,1.86803 -1.8680683,1.86808 -1.0319003,2.3e-4 -1.8685649,-0.83619 -1.8686214,-1.86808 7.34e-5,-1.03189 0.8367324,-1.86828 1.8686214,-1.86806 z m -36.022467,42.80297 c 1.031678,6e-5 1.868002,0.83639 1.868068,1.86807 2.39e-4,1.03189 -0.836174,1.86855 -1.868068,1.86862 -1.031894,-7e-5 -1.868308,-0.83673 -1.868069,-1.86862 6.7e-5,-1.03168 0.836391,-1.86801 1.868069,-1.86807 z m 46.1190763,0 c 1.0316774,6e-5 1.8680005,0.83639 1.8680683,1.86807 2.399e-4,1.03189 -0.8361736,1.86855 -1.8680683,1.86862 -1.0318947,-7e-5 -1.8683081,-0.83673 -1.8680682,-1.86862 6.77e-5,-1.03168 0.8363909,-1.86801 1.8680682,-1.86807 z m -38.9946193,42.80186 c 1.031678,7e-5 1.868002,0.83639 1.868068,1.86807 -6.6e-5,1.03168 -0.83639,1.868 -1.868068,1.86807 -1.031679,-7e-5 -1.868002,-0.83639 -1.868069,-1.86807 6.7e-5,-1.03168 0.83639,-1.868 1.868069,-1.86807 z m 31.8911091,0 c 1.03167739,7e-5 1.86800054,0.83639 1.86806828,1.86807 -6.774e-5,1.03168 -0.83639089,1.868 -1.86806828,1.86807 -1.0316773,-7e-5 -1.8680005,-0.83639 -1.8680682,-1.86807 6.77e-5,-1.03168 0.8363909,-1.868 1.8680682,-1.86807 z"
       id="path6384"
       inkscape:connector-curvature="0"
       sodipodi:nodetypes="ccscccccccccccccccscccccccccccsccccccccccccccssccccccsccccccccccccccsccccccccccccccccccccccccccccccccccc" />
    <g
       id="g4226"
       style="">
      <ellipse
         ry="50.535061"
         rx="50.535057"
         cy="-67.413826"
         cx="-88.919182"
         id="path4214"
         style="color:#000000;clip-rule:nonzero;display:inline;overflow:visible;visibility:visible;opacity:1;isolation:auto;mix-blend-mode:normal;color-interpolation:sRGB;color-interpolation-filters:linearRGB;solid-color:#000000;solid-opacity:1;fill:none;fill-opacity:1;fill-rule:evenodd;stroke:#6699ff;stroke-width:0.52987552;stroke-linecap:butt;stroke-linejoin:round;stroke-miterlimit:4;stroke-dasharray:none;stroke-dashoffset:8.05119991;stroke-opacity:1;marker:none;color-rendering:auto;image-rendering:auto;shape-rendering:auto;text-rendering:auto;enable-background:accumulate" />
      <ellipse
         ry="3.3554351"
         rx="3.3554349"
         cy="-67.413826"
         cx="-88.919182"
         id="path4216"
         style="color:#000000;clip-rule:nonzero;display:inline;overflow:visible;visibility:visible;opacity:1;isolation:auto;mix-blend-mode:normal;color-interpolation:sRGB;color-interpolation-filters:linearRGB;solid-color:#000000;solid-opacity:1;fill:none;fill-opacity:1;fill-rule:evenodd;stroke:#6699ff;stroke-width:0.28222221;stroke-linecap:butt;stroke-linejoin:round;stroke-miterlimit:4;stroke-dasharray:none;stroke-dashoffset:8.05119991;stroke-opacity:1;marker:none;color-rendering:auto;image-rendering:auto;shape-rendering:auto;text-rendering:auto;enable-background:accumulate" />
    </g>
    <g
       id="g4222"
       style="">
      <ellipse
         style="color:#000000;clip-rule:nonzero;display:inline;overflow:visible;visibility:visible;opacity:1;isolation:auto;mix-blend-mode:normal;color-interpolation:sRGB;color-interpolation-filters:linearRGB;solid-color:#000000;solid-opacity:1;fill:none;fill-opacity:1;fill-rule:evenodd;stroke:#6699ff;stroke-width:0.52987552;stroke-linecap:butt;stroke-linejoin:round;stroke-miterlimit:4;stroke-dasharray:none;stroke-dashoffset:8.05119991;stroke-opacity:1;marker:none;color-rendering:auto;image-rendering:auto;shape-rendering:auto;text-rendering:auto;enable-background:accumulate"
         id="ellipse4218"
         cx="53.995277"
         cy="-67.413826"
         rx="50.535057"
         ry="50.535061" />
      <ellipse
         style="color:#000000;clip-rule:nonzero;display:inline;overflow:visible;visibility:visible;opacity:1;isolation:auto;mix-blend-mode:normal;color-interpolation:sRGB;color-interpolation-filters:linearRGB;solid-color:#000000;solid-opacity:1;fill:none;fill-opacity:1;fill-rule:evenodd;stroke:#6699ff;stroke-width:0.28222221;stroke-linecap:butt;stroke-linejoin:round;stroke-miterlimit:4;stroke-dasharray:none;stroke-dashoffset:8.05119991;stroke-opacity:1;marker:none;color-rendering:auto;image-rendering:auto;shape-rendering:auto;text-rendering:auto;enable-background:accumulate"
         id="ellipse4220"
         cx="53.995277"
         cy="-67.413826"
         rx="3.3554349"
         ry="3.3554351" />
    </g>
    <g
       id="g4230"
       transform="translate(17.890012,105.21386)"
       style="">
      <ellipse
         style="color:#000000;clip-rule:nonzero;display:inline;overflow:visible;visibility:visible;opacity:1;isolation:auto;mix-blend-mode:normal;color-interpolation:sRGB;color-interpolation-filters:linearRGB;solid-color:#000000;solid-opacity:1;fill:none;fill-opacity:1;fill-rule:evenodd;stroke:#6699ff;stroke-width:0.52987552;stroke-linecap:butt;stroke-linejoin:round;stroke-miterlimit:4;stroke-dasharray:none;stroke-dashoffset:8.05119991;stroke-opacity:1;marker:none;color-rendering:auto;image-rendering:auto;shape-rendering:auto;text-rendering:auto;enable-background:accumulate"
         id="ellipse4232"
         cx="-88.919182"
         cy="-67.413826"
         rx="50.535057"
         ry="50.535061" />
      <ellipse
         style="color:#000000;clip-rule:nonzero;display:inline;overflow:visible;visibility:visible;opacity:1;isolation:auto;mix-blend-mode:normal;color-interpolation:sRGB;color-interpolation-filters:linearRGB;solid-color:#000000;solid-opacity:1;fill:none;fill-opacity:1;fill-rule:evenodd;stroke:#6699ff;stroke-width:0.28222221;stroke-linecap:butt;stroke-linejoin:round;stroke-miterlimit:4;stroke-dasharray:none;stroke-dashoffset:8.05119991;stroke-opacity:1;marker:none;color-rendering:auto;image-rendering:auto;shape-rendering:auto;text-rendering:auto;enable-background:accumulate"
         id="ellipse4234"
         cx="-88.919182"
         cy="-67.413826"
         rx="3.3554349"
         ry="3.3554351" />
    </g>
    <g
       id="g4236"
       transform="translate(-17.857792,105.21386)"
       style="">
      <ellipse
         ry="50.535061"
         rx="50.535057"
         cy="-67.413826"
         cx="53.995277"
         id="ellipse4238"
         style="color:#000000;clip-rule:nonzero;display:inline;overflow:visible;visibility:visible;opacity:1;isolation:auto;mix-blend-mode:normal;color-interpolation:sRGB;color-interpolation-filters:linearRGB;solid-color:#000000;solid-opacity:1;fill:none;fill-opacity:1;fill-rule:evenodd;stroke:#6699ff;stroke-width:0.52987552;stroke-linecap:butt;stroke-linejoin:round;stroke-miterlimit:4;stroke-dasharray:none;stroke-dashoffset:8.05119991;stroke-opacity:1;marker:none;color-rendering:auto;image-rendering:auto;shape-rendering:auto;text-rendering:auto;enable-background:accumulate" />
      <ellipse
         ry="3.3554351"
         rx="3.3554349"
         cy="-67.413826"
         cx="53.995277"
         id="ellipse4240"
         style="color:#000000;clip-rule:nonzero;display:inline;overflow:visible;visibility:visible;opacity:1;isolation:auto;mix-blend-mode:normal;color-interpolation:sRGB;color-interpolation-filters:linearRGB;solid-color:#000000;solid-opacity:1;fill:none;fill-opacity:1;fill-rule:evenodd;stroke:#6699ff;stroke-width:0.28222221;stroke-linecap:butt;stroke-linejoin:round;stroke-miterlimit:4;stroke-dasharray:none;stroke-dashoffset:8.05119991;stroke-opacity:1;marker:none;color-rendering:auto;image-rendering:auto;shape-rendering:auto;text-rendering:auto;enable-background:accumulate" />
    </g>
    <path
       style="fill:#000000;fill-opacity:0.50867052;fill-rule:evenodd;stroke:none;stroke-width:0.28222221px;stroke-linecap:butt;stroke-linejoin:miter;stroke-opacity:1"
       d="m -0.36049068,-526.99021 c -0.0445488,5.4e-4 -0.0885754,0.001 -0.13284199,0.002 -4.48093783,0.0629 -7.51081323,0.55921 -9.81273333,0.84942 -0.662488,0.0835 0.06405,0.90217 0.169774,2.24565 0.1395868,1.77389 -1.471891,2.89282 -2.725208,2.74726 -1.026381,-0.0166 -1.713194,-0.86093 -1.722549,0.0904 -0.033,4.86243 -0.431862,8.67963 -4.47752,15.31551 0.631703,9.20019 -1.815031,16.42771 -4.271368,21.7019 -0.54612,1.08663 1.738796,-0.19144 2.770408,1.84106 1.070971,1.96185 -0.616551,3.47679 -1.226453,3.74882 -1.207197,0.53841 -2.471696,-0.34603 -2.401095,0.22985 0.0038,0.0149 0.0067,0.0301 0.0094,0.0452 2.202265,12.41163 1.649013,24.456 -0.324115,34.80263 -0.0043,0.0198 -0.0093,0.0392 -0.01544,0.0584 -0.09022,0.30912 -0.08061,0.41313 -0.08819,0.39632 0.01123,0.0101 0.05764,0.0595 0.22269,0.17033 l 0.0022,0.002 c 1.504944,1.02001 3.072892,2.19903 4.580046,3.45061 2.00078,1.83331 1.128437,-0.94354 3.403755,-1.33008 1.840777,-0.31273 3.303111,0.63822 3.253271,2.53283 -0.06747,2.5647 -2.673649,2.07808 -1.415519,3.61046 0.480209,0.4433 0.754614,0.522 0.754614,0.522 4.2203676,0 6.4768075,5.30863 14.06645953,5.36057 l 0,0.002 c 0.0187791,0 0.0364095,-10e-4 0.0551236,-10e-4 0.0187113,7e-5 0.0363418,10e-4 0.0551208,10e-4 l 0,-0.002 c 7.58965197,-0.0519 9.84609507,-5.36057 14.06646207,-5.36057 0,0 0.274953,-0.0787 0.755165,-0.522 1.25813,-1.53238 -1.348602,-1.04576 -1.416073,-3.61046 -0.04984,-1.89461 1.413045,-2.84556 3.253825,-2.53283 2.275315,0.38654 1.402421,3.16339 3.403202,1.33008 1.507154,-1.25158 3.075101,-2.4306 4.580048,-3.45061 l 0.0022,-0.002 c 0.165052,-0.11079 0.211461,-0.16027 0.222691,-0.17033 -0.0076,0.0168 0.0026,-0.0872 -0.08764,-0.39632 -0.0061,-0.0193 -0.01168,-0.0387 -0.01599,-0.0584 -1.973129,-10.34663 -2.52638,-22.391 -0.324116,-34.80263 0.0027,-0.0151 0.0061,-0.0303 0.0099,-0.0452 0.0706,-0.57588 -1.194449,0.30856 -2.401643,-0.22985 -0.609905,-0.27203 -2.297427,-1.78697 -1.226456,-3.74882 1.031613,-2.0325 3.317082,-0.75443 2.770959,-1.84106 -2.456335,-5.27419 -4.903622,-12.50171 -4.271918,-21.7019 -4.045658,-6.63588 -4.44452,-10.45308 -4.47752,-15.31551 -0.0094,-0.95133 -0.696169,-0.10701 -1.722549,-0.0904 -1.253318,0.14556 -2.864795,-0.97337 -2.725208,-2.74726 0.105723,-1.34348 0.832262,-2.16213 0.169776,-2.24565 -2.3019226,-0.29021 -5.3312477,-0.78652 -9.8121827,-0.84942 -0.044269,-6e-4 -0.088844,-10e-4 -0.13339515,-0.002 l -0.5644444,0 -0.21993576,0 -0.56499473,0 z M 25.236843,-442.9161 c 5.19e-4,-0.001 9.31e-4,0.0107 0.0017,0.008 0.0035,-0.0117 0.0035,-0.0129 -0.0017,-0.008 z m -49.845292,0 c -0.0051,-0.005 -0.0052,-0.003 -0.0017,0.008 7.22e-4,0.002 0.0011,-0.009 0.0017,-0.008 z"
       id="path6356"
       inkscape:connector-curvature="0" />
    <path
       style="fill:#000000;fill-opacity:0.50867052;fill-rule:evenodd;stroke:none;stroke-width:0.28222221px;stroke-linecap:butt;stroke-linejoin:miter;stroke-opacity:1"
       d="m 0.22986138,-527.66655 0,10e-4 c -6.34909298,0.009 -9.85226098,0.92153 -12.35273338,1.07432 -2.56532,0.15676 -2.973185,1.83188 -3.050977,3.11051 0,6.2122 0.288222,9.83982 -4.473112,17.57881 0.709024,9.60572 -2.004644,17.01025 -4.567921,22.33193 -1.21872,2.09509 -1.464697,1.88643 -0.546806,5.50775 2.186649,12.3236 1.636624,24.29344 -0.323562,34.57222 -0.208923,0.71585 -0.15807,0.90452 0.391363,1.27331 4.16048,2.81983 7.955974,6.07206 10.406394,9.12702 4.201549,0 5.7801084,5.1453 14.53168638,5.1715 l 0,0.001 c 0.01112,0 0.02143,-5.4e-4 0.03252,-5.5e-4 0.01128,1e-5 0.02177,5.5e-4 0.03307,5.5e-4 l 0,-0.001 c 8.75157702,-0.0262 10.33013662,-5.1715 14.53168762,-5.1715 2.450417,-3.05496 6.245911,-6.30719 10.406391,-9.12702 0.549433,-0.36879 0.600287,-0.55746 0.391363,-1.27331 -1.960185,-10.27878 -2.510211,-22.24862 -0.323562,-34.57222 0.917891,-3.62132 0.671915,-3.41266 -0.546806,-5.50775 -2.563277,-5.32168 -5.276945,-12.72621 -4.567921,-22.33193 -4.761334,-7.73899 -4.473112,-11.36661 -4.473112,-17.57881 -0.07779,-1.27863 -0.485656,-2.95375 -3.050977,-3.11051 -2.500472,-0.15279 -6.0036396,-1.06511 -12.35273262,-1.07432 l 0,-10e-4 c -0.01625,0 -0.03119,5.4e-4 -0.0474,5.6e-4 -0.01603,-2e-5 -0.03079,-5.6e-4 -0.04685,-5.6e-4 z"
       id="path6360"
       inkscape:connector-curvature="0" />
    <ellipse
       ry="1.8681889"
       rx="1.8681887"
       cy="-438.07715"
       cx="-15.669154"
       id="ellipse6370"
       style="color:#000000;clip-rule:nonzero;display:inline;overflow:visible;visibility:visible;opacity:1;isolation:auto;mix-blend-mode:normal;color-interpolation:sRGB;color-interpolation-filters:linearRGB;solid-color:#000000;solid-opacity:1;fill:none;fill-opacity:1;fill-rule:evenodd;stroke:#6699ff;stroke-width:0.26362219;stroke-linecap:butt;stroke-linejoin:round;stroke-miterlimit:4;stroke-dasharray:none;stroke-dashoffset:8.05119991;stroke-opacity:1;marker:none;color-rendering:auto;image-rendering:auto;shape-rendering:auto;text-rendering:auto;enable-background:accumulate" />
    <ellipse
       style="color:#000000;clip-rule:nonzero;display:inline;overflow:visible;visibility:visible;opacity:1;isolation:auto;mix-blend-mode:normal;color-interpolation:sRGB;color-interpolation-filters:linearRGB;solid-color:#000000;solid-opacity:1;fill:none;fill-opacity:1;fill-rule:evenodd;stroke:#6699ff;stroke-width:0.26362219;stroke-linecap:butt;stroke-linejoin:round;stroke-miterlimit:4;stroke-dasharray:none;stroke-dashoffset:8.05119991;stroke-opacity:1;marker:none;color-rendering:auto;image-rendering:auto;shape-rendering:auto;text-rendering:auto;enable-background:accumulate"
       id="ellipse6372"
       cx="16.221968"
       cy="-438.07715"
       rx="1.8681887"
       ry="1.8681889" />
    <ellipse
       style="color:#000000;clip-rule:nonzero;display:inline;overflow:visible;visibility:visible;opacity:1;isolation:auto;mix-blend-mode:normal;color-interpolation:sRGB;color-interpolation-filters:linearRGB;solid-color:#000000;solid-opacity:1;fill:none;fill-opacity:1;fill-rule:evenodd;stroke:#6699ff;stroke-width:0.26362219;stroke-linecap:butt;stroke-linejoin:round;stroke-miterlimit:4;stroke-dasharray:none;stroke-dashoffset:8.05119991;stroke-opacity:1;marker:none;color-rendering:auto;image-rendering:auto;shape-rendering:auto;text-rendering:auto;enable-background:accumulate"
       id="ellipse6374"
       cx="-22.79347"
       cy="-480.87869"
       rx="1.8681887"
       ry="1.8681889" />
    <ellipse
       ry="1.8681889"
       rx="1.8681887"
       cy="-480.87869"
       cx="23.325457"
       id="ellipse6376"
       style="color:#000000;clip-rule:nonzero;display:inline;overflow:visible;visibility:visible;opacity:1;isolation:auto;mix-blend-mode:normal;color-interpolation:sRGB;color-interpolation-filters:linearRGB;solid-color:#000000;solid-opacity:1;fill:none;fill-opacity:1;fill-rule:evenodd;stroke:#6699ff;stroke-width:0.26362219;stroke-linecap:butt;stroke-linejoin:round;stroke-miterlimit:4;stroke-dasharray:none;stroke-dashoffset:8.05119991;stroke-opacity:1;marker:none;color-rendering:auto;image-rendering:auto;shape-rendering:auto;text-rendering:auto;enable-background:accumulate" />
    <ellipse
       style="color:#000000;clip-rule:nonzero;display:inline;overflow:visible;visibility:visible;opacity:1;isolation:auto;mix-blend-mode:normal;color-interpolation:sRGB;color-interpolation-filters:linearRGB;solid-color:#000000;solid-opacity:1;fill:none;fill-opacity:1;fill-rule:evenodd;stroke:#6699ff;stroke-width:0.26362219;stroke-linecap:butt;stroke-linejoin:round;stroke-miterlimit:4;stroke-dasharray:none;stroke-dashoffset:8.05119991;stroke-opacity:1;marker:none;color-rendering:auto;image-rendering:auto;shape-rendering:auto;text-rendering:auto;enable-background:accumulate"
       id="ellipse6378"
       cx="-12.667642"
       cy="-523.68188"
       rx="1.8681887"
       ry="1.8681889" />
    <ellipse
       ry="1.8681889"
       rx="1.8681887"
       cy="-523.68188"
       cx="13.22874"
       id="ellipse6380"
       style="color:#000000;clip-rule:nonzero;display:inline;overflow:visible;visibility:visible;opacity:1;isolation:auto;mix-blend-mode:normal;color-interpolation:sRGB;color-interpolation-filters:linearRGB;solid-color:#000000;solid-opacity:1;fill:none;fill-opacity:1;fill-rule:evenodd;stroke:#6699ff;stroke-width:0.26362219;stroke-linecap:butt;stroke-linejoin:round;stroke-miterlimit:4;stroke-dasharray:none;stroke-dashoffset:8.05119991;stroke-opacity:1;marker:none;color-rendering:auto;image-rendering:auto;shape-rendering:auto;text-rendering:auto;enable-background:accumulate" />
    <g
       id="g6425"
       transform="translate(0,-245.53321)"
       style="">
      <g
         id="g6401"
         style="">
        <ellipse
           ry="50.535061"
           rx="50.535057"
           cy="-67.413826"
           cx="-88.919182"
           id="ellipse6403"
           style="color:#000000;clip-rule:nonzero;display:inline;overflow:visible;visibility:visible;opacity:1;isolation:auto;mix-blend-mode:normal;color-interpolation:sRGB;color-interpolation-filters:linearRGB;solid-color:#000000;solid-opacity:1;fill:none;fill-opacity:1;fill-rule:evenodd;stroke:#6699ff;stroke-width:0.52987552;stroke-linecap:butt;stroke-linejoin:round;stroke-miterlimit:4;stroke-dasharray:none;stroke-dashoffset:8.05119991;stroke-opacity:1;marker:none;color-rendering:auto;image-rendering:auto;shape-rendering:auto;text-rendering:auto;enable-background:accumulate" />
        <ellipse
           ry="3.3554351"
           rx="3.3554349"
           cy="-67.413826"
           cx="-88.919182"
           id="ellipse6405"
           style="color:#000000;clip-rule:nonzero;display:inline;overflow:visible;visibility:visible;opacity:1;isolation:auto;mix-blend-mode:normal;color-interpolation:sRGB;color-interpolation-filters:linearRGB;solid-color:#000000;solid-opacity:1;fill:none;fill-opacity:1;fill-rule:evenodd;stroke:#6699ff;stroke-width:0.28222221;stroke-linecap:butt;stroke-linejoin:round;stroke-miterlimit:4;stroke-dasharray:none;stroke-dashoffset:8.05119991;stroke-opacity:1;marker:none;color-rendering:auto;image-rendering:auto;shape-rendering:auto;text-rendering:auto;enable-background:accumulate" />
      </g>
      <g
         id="g6407"
         style="">
        <ellipse
           style="color:#000000;clip-rule:nonzero;display:inline;overflow:visible;visibility:visible;opacity:1;isolation:auto;mix-blend-mode:normal;color-interpolation:sRGB;color-interpolation-filters:linearRGB;solid-color:#000000;solid-opacity:1;fill:none;fill-opacity:1;fill-rule:evenodd;stroke:#6699ff;stroke-width:0.52987552;stroke-linecap:butt;stroke-linejoin:round;stroke-miterlimit:4;stroke-dasharray:none;stroke-dashoffset:8.05119991;stroke-opacity:1;marker:none;color-rendering:auto;image-rendering:auto;shape-rendering:auto;text-rendering:auto;enable-background:accumulate"
           id="ellipse6409"
           cx="53.995277"
           cy="-67.413826"
           rx="50.535057"
           ry="50.535061" />
        <ellipse
           style="color:#000000;clip-rule:nonzero;display:inline;overflow:visible;visibility:visible;opacity:1;isolation:auto;mix-blend-mode:normal;color-interpolation:sRGB;color-interpolation-filters:linearRGB;solid-color:#000000;solid-opacity:1;fill:none;fill-opacity:1;fill-rule:evenodd;stroke:#6699ff;stroke-width:0.28222221;stroke-linecap:butt;stroke-linejoin:round;stroke-miterlimit:4;stroke-dasharray:none;stroke-dashoffset:8.05119991;stroke-opacity:1;marker:none;color-rendering:auto;image-rendering:auto;shape-rendering:auto;text-rendering:auto;enable-background:accumulate"
           id="ellipse6411"
           cx="53.995277"
           cy="-67.413826"
           rx="3.3554349"
           ry="3.3554351" />
      </g>
      <g
         id="g6413"
         transform="translate(17.890012,105.21386)"
         style="">
        <ellipse
           style="color:#000000;clip-rule:nonzero;display:inline;overflow:visible;visibility:visible;opacity:1;isolation:auto;mix-blend-mode:normal;color-interpolation:sRGB;color-interpolation-filters:linearRGB;solid-color:#000000;solid-opacity:1;fill:none;fill-opacity:1;fill-rule:evenodd;stroke:#6699ff;stroke-width:0.52987552;stroke-linecap:butt;stroke-linejoin:round;stroke-miterlimit:4;stroke-dasharray:none;stroke-dashoffset:8.05119991;stroke-opacity:1;marker:none;color-rendering:auto;image-rendering:auto;shape-rendering:auto;text-rendering:auto;enable-background:accumulate"
           id="ellipse6415"
           cx="-88.919182"
           cy="-67.413826"
           rx="50.535057"
           ry="50.535061" />
        <ellipse
           style="color:#000000;clip-rule:nonzero;display:inline;overflow:visible;visibility:visible;opacity:1;isolation:auto;mix-blend-mode:normal;color-interpolation:sRGB;color-interpolation-filters:linearRGB;solid-color:#000000;solid-opacity:1;fill:none;fill-opacity:1;fill-rule:evenodd;stroke:#6699ff;stroke-width:0.28222221;stroke-linecap:butt;stroke-linejoin:round;stroke-miterlimit:4;stroke-dasharray:none;stroke-dashoffset:8.05119991;stroke-opacity:1;marker:none;color-rendering:auto;image-rendering:auto;shape-rendering:auto;text-rendering:auto;enable-background:accumulate"
           id="ellipse6417"
           cx="-88.919182"
           cy="-67.413826"
           rx="3.3554349"
           ry="3.3554351" />
      </g>
      <g
         id="g6419"
         transform="translate(-17.857792,105.21386)"
         style="">
        <ellipse
           ry="50.535061"
           rx="50.535057"
           cy="-67.413826"
           cx="53.995277"
           id="ellipse6421"
           style="color:#000000;clip-rule:nonzero;display:inline;overflow:visible;visibility:visible;opacity:1;isolation:auto;mix-blend-mode:normal;color-interpolation:sRGB;color-interpolation-filters:linearRGB;solid-color:#000000;solid-opacity:1;fill:none;fill-opacity:1;fill-rule:evenodd;stroke:#6699ff;stroke-width:0.52987552;stroke-linecap:butt;stroke-linejoin:round;stroke-miterlimit:4;stroke-dasharray:none;stroke-dashoffset:8.05119991;stroke-opacity:1;marker:none;color-rendering:auto;image-rendering:auto;shape-rendering:auto;text-rendering:auto;enable-background:accumulate" />
        <ellipse
           ry="3.3554351"
           rx="3.3554349"
           cy="-67.413826"
           cx="53.995277"
           id="ellipse6423"
           style="color:#000000;clip-rule:nonzero;display:inline;overflow:visible;visibility:visible;opacity:1;isolation:auto;mix-blend-mode:normal;color-interpolation:sRGB;color-interpolation-filters:linearRGB;solid-color:#000000;solid-opacity:1;fill:none;fill-opacity:1;fill-rule:evenodd;stroke:#6699ff;stroke-width:0.28222221;stroke-linecap:butt;stroke-linejoin:round;stroke-miterlimit:4;stroke-dasharray:none;stroke-dashoffset:8.05119991;stroke-opacity:1;marker:none;color-rendering:auto;image-rendering:auto;shape-rendering:auto;text-rendering:auto;enable-background:accumulate" />
      </g>
    </g>
    <g
       id="g4185">
      <path
         sodipodi:nodetypes="cscccccc"
         inkscape:connector-curvature="0"
         id="path4242"
         d="m -17.395525,-90.502438 c -6.410328,0 -9.933364,0.921491 -12.446507,1.075058 -2.56532,0.156755 -2.973342,1.832101 -3.051134,3.110734 l -4.473212,15.88543 c 0.78801,10.553551 1.449341,21.028824 -3.009592,28.167182 2.010647,7.412013 -7.807631,27.437479 -1.167846,37.7988532 3.140708,2.2243688 7.203191,6.0431197 9.536652,9.0249784 7.150072,-0.6708277 12.900047,1.9137215 14.597265,4.6872655"
         style="fill:#000000;fill-opacity:0.50867052;fill-rule:evenodd;stroke:none;stroke-width:0.28222221px;stroke-linecap:butt;stroke-linejoin:miter;stroke-opacity:1" />
      <ellipse
         ry="2.0083032"
         rx="2.0083029"
         style="color:#000000;clip-rule:nonzero;display:inline;overflow:visible;visibility:visible;opacity:1;isolation:auto;mix-blend-mode:normal;color-interpolation:sRGB;color-interpolation-filters:linearRGB;solid-color:#000000;solid-opacity:1;fill:#000000;fill-opacity:1;fill-rule:evenodd;stroke:none;stroke-width:0.28339386;stroke-linecap:butt;stroke-linejoin:round;stroke-miterlimit:4;stroke-dasharray:none;stroke-dashoffset:8.05119991;stroke-opacity:1;marker:none;color-rendering:auto;image-rendering:auto;shape-rendering:auto;text-rendering:auto;enable-background:accumulate"
         id="ellipse4206"
         cx="-40.461609"
         cy="-43.680611" />
      <use
         height="100%"
         width="100%"
         transform="translate(10.106544,-42.825564)"
         id="use4181"
         xlink:href="#ellipse4206"
         y="0"
         x="0" />
      <use
         height="100%"
         width="100%"
         transform="translate(7.0719134,42.774504)"
         id="use4183"
         xlink:href="#ellipse4206"
         y="0"
         x="0" />
    </g>
    <use
       x="0"
       y="0"
       xlink:href="#g4185"
       id="use4191"
       transform="matrix(-1,0,0,1,-34.907675,0)"
       width="100%"
       height="100%" />
  </g>
</svg>
