<?xml version="1.0" encoding="UTF-8" standalone="no"?>
<svg
   xmlns:dc="http://purl.org/dc/elements/1.1/"
   xmlns:cc="http://creativecommons.org/ns#"
   xmlns:rdf="http://www.w3.org/1999/02/22-rdf-syntax-ns#"
   xmlns:svg="http://www.w3.org/2000/svg"
   xmlns="http://www.w3.org/2000/svg"
   xmlns:sodipodi="http://sodipodi.sourceforge.net/DTD/sodipodi-0.dtd"
   xmlns:inkscape="http://www.inkscape.org/namespaces/inkscape"
   width="195.33376mm"
   height="168.90645mm"
   viewBox="-86.649002 -73.434998 195.33375 168.90643"
   version="1.1"
   id="svg2"
   inkscape:version="0.91 r13725"
   sodipodi:docname="diatone-et-160-skirt.svg">
  <metadata
     id="metadata14">
    <rdf:RDF>
      <cc:Work
         rdf:about="">
        <dc:format>image/svg+xml</dc:format>
        <dc:type
           rdf:resource="http://purl.org/dc/dcmitype/StillImage" />
        <dc:title>Daring Densor-Wolt</dc:title>
      </cc:Work>
    </rdf:RDF>
  </metadata>
  <defs
     id="defs12" />
  <sodipodi:namedview
     pagecolor="#ffffff"
     bordercolor="#666666"
     borderopacity="1"
     objecttolerance="10"
     gridtolerance="10"
     guidetolerance="10"
     inkscape:pageopacity="0"
     inkscape:pageshadow="2"
     inkscape:window-width="1366"
     inkscape:window-height="704"
     id="namedview10"
     showgrid="false"
     units="mm"
     fit-margin-top="12"
     fit-margin-left="12"
     fit-margin-right="12"
     fit-margin-bottom="12"
     inkscape:snap-bbox="true"
     inkscape:bbox-paths="true"
     inkscape:bbox-nodes="true"
     inkscape:snap-bbox-midpoints="true"
     inkscape:snap-bbox-edge-midpoints="true"
     inkscape:object-paths="true"
     inkscape:snap-intersection-paths="true"
     inkscape:object-nodes="true"
     inkscape:snap-smooth-nodes="true"
     inkscape:snap-midpoints="true"
     inkscape:snap-object-midpoints="true"
     inkscape:snap-center="true"
     inkscape:snap-global="false"
     inkscape:zoom="2.5653236"
     inkscape:cx="274.83211"
     inkscape:cy="312.99292"
     inkscape:window-x="0"
     inkscape:window-y="27"
     inkscape:window-maximized="1"
     inkscape:current-layer="layer2" />
  <title
     id="title4">Daring Densor-Wolt</title>
  <desc
     id="desc6"> made with tinkercad </desc>
  <g
     inkscape:groupmode="layer"
     id="layer1"
     inkscape:label="stl"
     transform="translate(28.46794,31.169428)">
    <path
       d="m 56.829936,-71.069763 0.634004,-1.360001 0.086,-0.299999 -0.03203,-0.230232 -0.05895,-0.303196 -0.106759,-0.136575 -0.08143,-0.104164 -0.160841,-0.166835 -0.586991,-0.167999 -0.245003,0.06098 -0.204995,0.05102 -0.305296,0.327001 -0.116708,0.124999 -0.632996,1.359002 -0.076,0.613998 0.102105,0.208709 0.149849,0.26973 0.328329,0.192692 0.279719,0.130871 0.305655,-0.04319 0.154342,-0.02181 0.016,-0.01423 0.268286,-0.238525 0.196305,-0.122876 z m -58.7298455,20.198001 -0.300152,-0.048 -0.300152,0.048 -0.19385,0.031 -0.419997,0.213766 -0.02599,0.01324 -0.354,0.353999 -0.228001,0.445999 -0.078,0.494002 0.078,0.494998 5.64e-4,0.0011 0.227488,0.445002 0.354,0.354 0.445999,0.227 0.494001,0.078 0.493999,-0.078 0.446002,-0.227 0.193999,-0.194 0.16000098,-0.16 0.227488,-0.445002 5.64e-4,-0.0011 0.078,-0.494998 -0.078,-0.494002 -0.227999,-0.445999 -0.15999998,-0.16 -0.194,-0.193999 -0.446001,-0.226997 z m -15.5501535,-33.786 7.4510022,0 0.7409998,0.09765 0.033,0.0043 0.7219978,0.297997 0.6199999,0.473004 0.4770007,0.618 0.3020004,0.720001 0.2331832,0.854999 1.1170895,4.095997 0.582157,2.134575 1.651909,6.057427 0.300637,1.102413 0.03447,0.302696 0.05856,0.391891 -0.0088,0.04503 -0.0403,0.205971 -0.06789,0.347 -0.292001,0.535999 -0.440001,0.422001 -0.546998,0.271 -0.602002,0.093 -0.038,0 -4.0960013,0 -8.1919992,0 -8.192,0 -4.096001,0 -0.038,0 -0.602,-0.093 -0.547,-0.271 -0.440001,-0.422001 -0.291999,-0.535999 -0.06789,-0.347 -0.04911,-0.251 0.069,-0.605999 0.324795,-1.191001 2.234026,-8.192002 1.117013,-4.095997 0.233167,-0.854999 0.302,-0.720002 0.476998,-0.617999 0.62,-0.473004 0.722001,-0.297996 0.033,-0.0043 0.741,-0.09765 z m 61.44,0.911335 1.314174,0.416825 2.78183,0.882267 5.320998,1.687569 2.494997,0.629002 0.375999,0.02828 2.190002,0.164719 0.806002,-0.009 1.099997,0.133987 0.623999,0.07601 1.610002,0.652 1.384004,1.049999 0.416306,0.538997 0.06169,0.07988 0.583999,0.756123 0.666002,1.603999 1.542305,5.752 0.712699,2.658001 0.187057,1.437999 0.03694,0.284001 -0.233,1.721999 -0.673004,1.600999 -0.381203,0.489 -0.686791,0.881002 -1.388999,1.044 -0.366005,0.20605 -8.192003,4.611949 -1.809998,1.018997 -1.106032,0.430002 -0.372962,0.145 -1.582002,0.137002 -1.401894,-0.282002 -0.154105,-0.031 -1.765001,-0.625441 -4.096004,-1.451447 -0.576001,-0.204114 -0.706995,-0.134998 -0.715001,0.079 -2.097998,0.562212 -6.738688,1.80579 -17.837314,4.779936 -2.090002,0.560067 -0.82,0.338997 -0.704999,0.541 -0.481,0.627081 -0.059,0.07692 -0.340002,0.820002 -0.05855,0.447999 -0.05645,0.432001 0,7.759999 0,8.191999 0,8.192 0,8.191999 0,3.4090016 0.07961,0.687 0.09039,0.78 0.502003,1.388 0.805999,1.237 0.574525,0.691001 2.557478,3.07596797 11.064796,13.30803443 5.319203,6.397594 1.491934,1.794403 0.118065,0.142003 0.538999,0.478 0.656003,0.296996 1.290998,0.364199 4.096001,1.155509 1.184997,0.334292 1.451001,0.643004 0.807878,0.681998 0.405124,0.342 0.246998,0.373321 0.629,0.950679 1.151944,2.429998 1.941717,4.096002 0.373343,0.787552 1.568368,3.308449 0.06163,0.129997 0.530999,1.653001 0.081,1.736 -0.127578,0.577 -0.247422,1.118997 -0.804,1.540002 -1.062996,1.151436 -0.115005,0.124564 -0.193627,0.161005 -6.500371,5.404999 -1.382999,0.870605 -0.088,0.05539 -1.66,0.510003 -1.736,0.059 -0.612001,-0.143592 -1.08,-0.253402 -1.529001,-0.825003 -1.486998,-1.075591 -5.019003,-3.630402 -1.615011,-0.972002 -0.544988,-0.328001 -1.013,-0.397516 -1.334,-0.523483 -2.467999,-0.515005 -0.294002,-0.03585 -4.095996,-0.499423 -31.557002,-3.84773 -1.211001,0 -1.210999,0 -31.557003,3.84773 -4.095996,0.499423 -0.294002,0.03585 -2.467999,0.515005 -1.334,0.523483 -1.013,0.397512 -0.544988,0.328005 -1.615011,0.971998 -5.019003,3.630403 -1.486998,1.075591 -1.529001,0.825006 -1.080002,0.253402 -0.611999,0.143592 -1.736,-0.059 -1.66,-0.510001 -0.07319,-0.04607 -0.01482,-0.0093 -1.383,-0.870605 -6.50037,-5.404999 -0.193627,-0.161002 -0.115005,-0.124567 -1.062996,-1.151436 -0.804001,-1.539999 -0.247421,-1.119 -0.127579,-0.577 0.081,-1.736 0.530999,-1.653001 0.06163,-0.129997 1.568367,-3.308449 0.373344,-0.787549 1.941716,-4.096002 1.151943,-2.430001 0.629001,-0.950679 0.246998,-0.373321 0.405125,-0.342 0.807876,-0.681998 1.451001,-0.643004 1.184999,-0.334292 4.095998,-1.155506 1.291,-0.364202 0.656003,-0.296996 0.538999,-0.478 0.118065,-0.142003 1.491934,-1.794403 5.319203,-6.397594 11.064796,-13.30803443 2.557478,-3.07596797 0.574526,-0.691001 0.805998,-1.237 0.502,-1.388 0.09039,-0.78 0.07961,-0.686999 0,-3.4089996 0,-8.191999 0,-8.192003 0,-8.191999 0,-7.759999 -0.05645,-0.432 -0.05855,-0.448 -0.340001,-0.82 -0.059,-0.07692 -0.480999,-0.627084 -0.705,-0.541 -0.82,-0.338997 -2.090002,-0.560067 -17.837314,-4.779936 -6.738687,-1.80579 -2.097999,-0.56221 -0.715,-0.079 -0.706997,0.134995 -0.576001,0.204115 -4.096004,1.451446 -1.765,0.625444 -0.154106,0.031 -1.401893,0.282002 -1.582001,-0.137002 -0.372963,-0.145 -1.106033,-0.429999 -1.809998,-1.018998 -8.192001,-4.611951 -0.366005,-0.20605 -1.388994,-1.043988 -0.68679,-0.880999 -0.3812,-0.489004 -0.67301,-1.600999 -0.233,-1.721998 0.0369,-0.284001 0.18706,-1.437999 0.7127,-2.658001 1.5423,-5.752 0.666004,-1.603999 0.584,-0.756123 0.06169,-0.07988 0.416306,-0.538997 1.384002,-1.05 1.610001,-0.651999 0.624001,-0.07601 1.099998,-0.133986 0.806,0.009 2.190002,-0.164719 0.160172,-0.01205 0.215828,-0.01623 2.727501,-0.725792 0.35704,-0.09001 1.514595,-0.480392 3.216858,-1.020386 4.096004,-1.299248 0.767399,-0.243419 0.399601,-0.126751 0.664952,-0.173947 0.377933,-0.106758 1.886113,-0.493538 3.044868,-0.79676 0.0628,-0.01643 0.0722,-0.01889 0.729572,-0.183045 3.903565,-1.021629 10.871996,-2.256996 5.891,-0.912132 5.082001,-0.786873 3.110001,-0.319306 7.935,-0.814689 0.256997,-0.01319 4.096001,-0.210174 4.096002,-0.210175 2.64,-0.13546 5.551999,0 5.552,0 2.64,0.13546 4.0960015,0.210175 4.096001,0.210174 0.25699998,0.01319 7.00412302,0.719116 0.930877,0.09557 3.1100005,0.319306 5.082001,0.786873 5.890997,0.912132 10.871998,2.256996 3.903565,1.021629 0.729573,0.183045 0.134905,0.03532 2.03476,0.532799 1.010201,0.27626 3.517648,0.96196 0.377933,0.106754 z m 4.790928,12.825143 -0.156655,0.0055 -0.304696,0.01099 -0.233573,0.129765 -0.0367,0.02038 -0.196305,0.122879 -0.109107,0.205204 -0.130373,0.279721 -0.016,0.231731 0.0048,0.137955 5.64e-4,0.01839 0.06506,0.162159 0.05344,0.146854 0.156738,0.145985 0.06904,0.0643 0.138717,0.126427 0.076,0.06927 1.509003,0.676998 0.462999,0.032 0.293997,-0.107002 0.167169,-0.161159 0.210791,-0.225773 0.08508,-0.280781 0.02376,-0.194286 0.01369,-0.111908 -0.105103,-0.299801 -0.101402,-0.20829 -0.320023,-0.268784 -0.03597,-0.03022 -0.75425,-0.338162 -0.673174,-0.313816 z m -6.537988,105.452473 0.10889,0.204797 0.149648,0.178175 0.02695,0.153964 0.01309,0.07477 9e-5,0.0014 0.01589,0.229921 -0.06544,0.161838 -0.05605,0.22523 -0.07255,0.09284 -0.02405,0.03078 -0.213786,0.195803 -0.129631,0.08759 -1.36,0.632999 -0.456997,0.081 -0.224779,-0.05595 -0.06022,-0.02636 -0.288623,-0.126295 -0.123379,-0.09641 -0.217997,-0.410001 -0.034,-0.411 0.05444,-0.172827 0.103104,-0.234733 0.225778,-0.210289 0.177676,-0.149152 0.103,-0.04802 1.257,-0.585984 0.149849,-0.04296 0.229771,0.03197 0.306804,-0.03754 0.208712,0.1016 0.01578,0.0099 z m -21.78394,-1.967953 0.131154,0.533002 0.04085,0.166001 0.220997,2.410999 -0.042,0.738999 -0.257999,0.693998 -0.06556,0.086 -0.383441,0.502996 -0.601001,0.431001 -0.088,0.02958 -0.613997,0.206423 -0.740004,0.02001 -2.741995,-0.334388 -30.952002,-3.774615 -1.816001,-0.109999 -1.815999,0.109999 -30.952003,3.774615 -2.741995,0.334388 -0.740004,-0.02001 -0.613997,-0.206417 -0.088,-0.02958 -0.601001,-0.431001 -0.383444,-0.502997 -0.06556,-0.086 -0.257997,-0.693999 -0.042,-0.738999 0.220997,-2.410999 0.04085,-0.166 0.131154,-0.533002 0.372,-0.617 2.449458,-2.945999 2.319539,-2.789753 11.302961,-13.594246 5.061043,-6.0870004 0.02001,-0.01787 0.04384,-0.03914 0.244159,-0.218002 0.375999,-0.173999 0.410001,-0.055 0.408999,0.066 0.371001,0.183001 0.193999,0.134532 0.09152,0.06347 1.956481,1.356753 0.996797,0.691246 0.940201,0.651999 1.791002,0.8760004 0.367998,0.05623 1.602001,0.244775 6.589999,0 6.590002,0 1.6020005,-0.244775 0.367998,-0.05623 1.791002,-0.8760004 0.940201,-0.651999 0.996797,-0.691246 1.956478,-1.356753 0.09152,-0.06347 0.193999,-0.134532 0.371001,-0.183001 0.408999,-0.066 0.410001,0.055 0.375999,0.173999 0.244159,0.218002 0.04384,0.03914 0.02001,0.01787 5.061043,6.0870004 11.3029605,13.594246 2.319539,2.789753 2.449458,2.945999 z m -19.1666365,-77.402673 -0.137363,-0.171326 -0.05909,-0.02416 -0.39090902,-0.159837 -0.232232,0.01202 -0.277224,0.03497 -0.25025,0.181681 -0.204295,0.158335 -0.02599,0.08 -0.165013,0.508 0,3.588002 0,4.095998 0,8.192002 0,4.095998 0,0.328002 0.02447,0.154344 0.0956,0.294293 0.07093,0.139361 0.23077,0.158344 0.217179,0.157672 0.03307,0.02402 0.154655,0.02452 0.154655,-0.02452 0.327672,0.02297 0.122998,-0.07968 0.0717,-0.04644 0.24975,-0.181319 0.126627,-0.195194 0.0954,-0.293708 0.02453,-0.154652 0,-0.328002 0,-4.095998 0,-8.192002 0,-4.095999 0,-3.588001 -0.05994,-0.223777 -0.09232,-0.284223 -0.0033,-0.01007 z m 39.5106365,-30.233328 -0.908998,1.064842 -0.519156,0.608157 -0.630846,0.739002 -0.543998,0.471002 -0.659999,0.287998 -1.742002,0.466785 -4.095999,1.097557 -3.857526,1.033658 -12.526473,3.356577 -8.0140015,2.147423 -0.178,0.01885 -0.256001,0.02712 -0.427999,-0.09 -0.379002,-0.217991 -0.293,-0.323001 -0.178999,-0.398998 -0.115644,-0.424 -1.117174,-4.096 -3.68318002,-13.503998 -0.106003,-0.821003 0.123001,-0.818998 0.34200002,-0.754004 0.411409,-0.486 0.123591,-0.145996 0.686999,-0.460999 0.787002,-0.256005 0.827998,-0.032 3.255002,0.399522 4.0368075,0.495476 1.670194,0.205002 2.485,0.41291 6.421998,1.067089 8.836002,1.858001 1.125999,0.287388 7.623,1.945615 0.569,0.250068 0.216001,0.09493 0.654,0.553 0.471999,0.715001 0.245796,0.802997 0.0052,0.017 0.008,0.856998 -0.234002,0.824001 z m -70.870998,-12.442998 0.292997,0.149002 0.037,0.037 0.194999,0.195 0.148999,0.292999 0.052,0.324006 -0.052,0.324996 -0.148999,0.291999 -0.194999,0.19584 -0.0171,0.01716 -0.01992,0.02 -0.292998,0.149002 -0.324002,0.051 -0.324999,-0.051 -0.292001,-0.149002 -0.02001,-0.02 -0.213001,-0.212998 -0.149,-0.292 -0.051,-0.324996 0.03054,-0.194001 0.02046,-0.130004 0.149,-0.293 0.233,-0.231994 0.292001,-0.149002 0.324998,-0.052 z m 62.610001,126.340001 0.210289,0.225774 0.167166,0.161158 0.0052,0.02906 0.03531,0.19921 0.08709,0.215716 -0.02168,0.153363 -0.01087,0.07687 -0.05594,0.225279 -0.0964,0.122874 -0.123123,0.196697 -0.06639,0.04486 -0.192673,0.130142 -0.672329,0.313184 -0.10567,0.04927 -0.575008,0.268055 -8.47e-4,1.61e-4 -0.234408,0.0438 -0.02989,0.0085 -0.120757,0.0345 -0.03904,-0.0076 -0.138153,-0.02689 -0.126111,-0.02455 -0.224776,-0.05644 -0.166833,-0.160839 -0.211207,-0.226226 -0.08442,-0.293207 -0.04054,-0.228727 0.05644,-0.224778 0.104605,-0.286786 0.225775,-0.210786 0.178176,-0.149651 1.427,-0.639787 0.083,-0.03721 0.463,-0.032 0.255609,0.09303 z m -65.325002,-38.89200143 -0.02701,0.01374 -0.266,0.135269 -0.323999,0.052 -0.325002,-0.052 -0.109,-0.05562 -0.182998,-0.09338 -0.233,-0.232 -0.148999,-0.292998 -0.051,-0.323999 0.051,-0.32500197 0.148999,-0.291998 0.233,-0.233003 0.182998,-0.09338 0.109,-0.05562 0.325002,-0.051 0.323999,0.051 0.293001,0.148999 0.0468,0.047 0.185202,0.186002 0.149,0.291998 0.052,0.32500197 -0.03547,0.220999 -0.01654,0.103 -0.148999,0.293 z m 93.10437,-64.40871857 0.05263,-0.0779 0.03496,-0.05174 1.21e-4,-6.49e-4 0.04093,-0.214577 -0.03198,-0.229771 -0.03703,-0.156666 -0.007,-0.02959 -5.64e-4,-0.0029 -0.01185,-0.05013 -0.0966,-0.123123 -0.122871,-0.196304 -0.259004,-0.174999 -1.36,-0.633999 -0.150351,-0.04296 -0.04665,-0.0057 -0.260155,-0.03183 -0.302695,0.05894 -0.270775,0.14965 -0.06253,0.04861 -0.06085,0.04729 -0.10911,0.205204 -0.08741,0.129871 -0.03747,0.306194 -0.01572,0.227478 -2.82e-4,0.0043 0.05674,0.113998 0.05137,0.103218 0.09889,0.203141 0.0025,0.0051 0.171676,0.14114 0.17782,0.149353 0.648002,0.302303 0.710999,0.331696 0.457,0.08 0.450997,-0.111997 0.123122,-0.0966 z m -21.787522,105.490408 0.256105,0.274309 0.154048,0.165001 0.626999,1.345001 0.04646,0.157342 0.04354,0.235737 -0.02817,0.144918 -0.03077,0.158279 -0.104601,0.287288 -0.225777,0.210287 -0.25325,0.170671 -0.306693,0.03746 -0.231733,0.016 -0.185316,-0.08341 -0.162162,-0.06506 -0.01225,-0.01346 -0.183439,-0.201264 -0.171828,-0.195808 -0.144012,-0.321 -0.532991,-1.188 0.0105,-0.304693 -0.016,-0.231732 0.0265,-0.07281 0.02704,-0.07433 0.110157,-0.176428 0.01273,-0.02038 0.226227,-0.211209 0.129867,-0.08741 0.254246,-0.03946 0.215719,-0.04104 0.01741,0.0049 0.181382,0.05059 0.238235,0.05701 z m 14.514153,-104.687689 0.065,0.459999 -0.720003,1.660001 -0.175003,0.258998 -0.03599,0.02249 -0.257104,0.160522 -0.100897,0.063 -0.610004,0.02201 -0.159865,-0.085 -0.250136,-0.133 -0.245996,-0.393999 0.01098,-0.37962 -0.03204,-0.230231 0.04289,-0.144808 0.0032,-0.01095 2.82e-4,-0.0014 0.316687,-0.679323 0.03478,-0.07467 0.279028,-0.598997 0.149146,-0.177679 0.210292,-0.225775 0.146848,-0.05345 0.208709,-0.102102 0.07951,-0.0028 0.173493,-0.0061 0.06,-0.002 0.431001,0.173999 z m -62.306,36.237 2.3579977,0 0.6180018,-0.098 0.557998,-0.284 0.442003,-0.442999 0.04181,-0.082 0.242192,-0.475002 0.098,-0.617999 0,-7.099001 0,-2.165999 -0.098,-0.619001 -0.284,-0.557 -0.442,-0.443001 -0.558001,-0.283997 -0.6179989,-0.097 -10.5500006,0 -10.55,0 -0.618002,0.097 -0.557998,0.283997 -0.442,0.443001 -0.284,0.557 -0.098,0.619001 0,2.165999 0,7.099001 0.098,0.617999 0.242192,0.475002 0.04181,0.082 0.442,0.442999 0.558001,0.284 0.617999,0.098 2.358001,0 8.191999,0 z m -25.192003,-13.195001 0,-3.588001 -0.06006,-0.224222 -0.09218,-0.283778 -0.0032,-0.0099 -0.137637,-0.17167 -0.204295,-0.158341 -0.14815,-0.08008 -0.154655,-0.02453 -0.277221,-0.03496 -0.05108,0.0081 -0.103582,0.01642 -0.148147,0.08008 -0.05178,0.01984 -0.163624,0.06273 -8.46e-4,2.82e-4 -0.110392,0.110389 -0.102102,0.1016 -0.02599,0.08 -0.165012,0.507998 0,3.588001 0,4.096001 0,8.191999 0,4.096001 0,0.212525 0,0.115474 0.02453,0.154655 0.126627,0.195193 0.0954,0.293709 0.110391,0.110388 0.211054,0.107665 0.06072,0.03097 0.139365,0.07093 0.231766,0.0125 0.232232,-0.0125 0.191807,-0.07093 0.250249,-0.18168 0.134849,-0.122905 0.07107,-0.139638 0.0954,-0.293709 0.02453,-0.154652 0,-0.328001 0,-4.095999 0,-8.192002 z m -56.217704,-32.768002 -0.305298,-0.326999 -0.204994,-0.05102 -0.245003,-0.06098 -0.457,0.08 -0.260002,0.174998 -0.114884,0.183999 -0.0082,0.0132 -0.149345,0.270229 0.01101,0.380379 0.03746,0.306194 0.608017,1.304253 0.02598,0.05575 0.210709,0.226227 0.07141,0.08506 0.07744,0.09226 0.192444,0.04779 0.03329,0.0083 0.188339,0.09214 0.01995,0.0098 0.228729,-0.04054 0.253968,-0.03144 0.05273,-0.0065 0.177673,-0.149147 0.129373,-0.08741 0.149849,-0.26973 0.102104,-0.20871 -0.076,-0.613998 -0.632996,-1.359001 z m 89.78470548,71.6330026 0.232999,0.233 0.149,0.291998 0.051,0.32500097 -0.051,0.324 -0.149,0.293 -0.232999,0.232001 -0.18299898,0.09338 -0.109,0.05562 -0.325001,0.052 -0.324,-0.052 -0.293,-0.148999 -0.231998,-0.232001 -0.149002,-0.293 -0.01654,-0.103 -0.03547,-0.221 0.052,-0.32500097 0.149002,-0.291998 0.1852,-0.186002 0.0468,-0.047 0.293001,-0.148999 0.323999,-0.051 0.324999,0.051 0.109002,0.05562 z M 32.668881,32.09996 l -0.05344,0.146854 0.03746,0.306697 0.04004,0.228724 0.146485,0.314003 0.487513,1.044999 0.149651,0.178175 0.210789,0.225778 0.06256,0.02283 0.224223,0.08178 0.224773,0.05645 0.423901,-0.07513 0.0331,-0.0059 0.226226,-0.211209 0.141213,-0.118206 0.03661,-0.03064 0.05656,-0.225227 0.104394,-0.286713 -0.081,-0.456997 -0.0933,-0.200002 -0.474697,-1.017532 -0.066,-0.141467 -0.149152,-0.178178 -0.08741,-0.129871 -0.196303,-0.122879 -0.06924,-0.03387 -0.139475,-0.06823 -0.114424,0.0081 -0.117805,0.0084 -0.229771,-0.03197 -0.215288,0.08641 -0.159235,0.08488 -0.04547,0.02424 -0.0966,0.123117 -0.118914,0.123353 -0.04192,0.04348 z m -34.3749435,-49.397723 -0.493999,0.078 -0.494002,-0.078 -0.445998,-0.227 -0.354,-0.354003 -0.115023,-0.224998 -0.112979,-0.221 -0.078,-0.495001 0.078,-0.493999 0.228002,-0.446001 0.354,-0.354 0.07466,-0.038 0.371336,-0.189001 0.494002,-0.079 0.493999,0.079 0.37134,0.189001 0.07466,0.038 0.193999,0.193999 0.16000098,0.160001 0.227998,0.446001 0.078,0.493999 -0.078,0.495001 -0.227998,0.445998 -0.16000098,0.160001 -0.193999,0.194002 z m -73.6581735,51.973187 -0.679318,-0.316684 -1.5e-5,0 -0.236221,-0.04404 -0.149853,-0.04296 -0.300697,0.05794 -0.162632,0.04084 -0.06259,0.01572 -0.167167,0.161161 -0.125874,0.0969 -0.08741,0.12987 -0.08408,0.29379 -0.0093,0.07627 -0.02813,0.229921 0.110111,0.294795 0.107392,0.216284 0.344002,0.282998 1.36,0.632999 0.456997,0.081 0.285,-0.07093 0.165002,-0.04106 0.123379,-0.09641 0.21071,-0.226226 0.08691,-0.129368 0.03904,-0.281282 0.03347,-0.270462 0.0045,-0.03623 -0.103104,-0.234733 -0.05344,-0.146854 -0.225778,-0.21029 -0.177678,-0.149151 -0.103,-0.04802 z m 71.1811745,-122.191187 0.292001,0.149002 0.233,0.231994 0.148999,0.293 0.02046,0.130004 0.03054,0.194001 -0.051,0.324997 -0.148999,0.291999 -0.213002,0.212999 -0.02001,0.02 -0.292002,0.149002 -0.324998,0.051 -0.324003,-0.051 -0.293,-0.149002 -0.0199,-0.02 -0.0171,-0.01716 -0.194999,-0.195838 -0.149002,-0.291999 -0.052,-0.324998 0.052,-0.324005 0.149002,-0.293 0.194999,-0.194998 0.037,-0.037 0.293,-0.149002 0.324003,-0.052 z m -82.9590025,23.187002 0.03006,0.0058 0.02994,0.0058 0.547005,0.106339 0.420525,0.451487 4.8e-4,5.65e-4 0.279029,0.598997 0.03478,0.07467 0.316688,0.679323 0.04046,0.22827 0.04655,0.157155 -0.0082,0.05908 -0.02381,0.171148 -0.05644,0.224776 -0.0959,0.123379 -0.123123,0.197194 -0.05141,0.02735 -0.153382,0.08155 -0.03582,0.0241 -0.09431,0.06348 -0.05157,0.009 -0.177147,0.03101 -0.23127,0.01597 -0.146858,-0.05345 -0.23362,-0.06606 -0.0071,-0.002 -0.123375,-0.0964 -0.07211,-0.07893 -0.123581,-0.135283 -0.08742,-0.129371 -0.338158,-0.754245 -0.360359,-0.830831 0.03746,-0.378118 0.03253,-0.230234 0.160843,-0.16683 0.123123,-0.196701 0.108879,-0.04396 0.1064,-0.04295 z m 93.0740015,19.612999 0.293001,0.148997 0.232,0.232 0.149,0.293001 0.052,0.323999 -0.0023,0.014 -0.04976,0.311001 -0.148999,0.293 -0.232001,0.231998 -0.293,0.149002 -0.247763,0.039 -0.07623,0.01199 -0.07647,-0.01199 -0.248528,-0.039 -0.205001,-0.10425 -0.088,-0.04475 -0.232001,-0.232001 -0.148999,-0.293 -0.051,-0.324999 0.051,-0.323999 0.148999,-0.293003 0.232001,-0.232001 0.088,-0.04475 0.205001,-0.104248 0.075,-0.01199 0.249998,-0.04 0.24923,0.04 z m -48.1360005,-19.084002 -8.014002,-2.147423 -12.526473,-3.356577 -3.857526,-1.033658 -4.096001,-1.097557 -1.742,-0.466785 -0.659999,-0.287998 -0.543998,-0.471002 -0.630846,-0.739002 -0.519156,-0.608157 -0.908997,-1.064842 -0.458001,-0.725 -0.234001,-0.824 0.008,-0.857 0.0052,-0.017 0.245796,-0.802997 0.472,-0.715001 0.654,-0.553001 0.215998,-0.09493 0.569003,-0.250068 7.623,-1.945614 1.125999,-0.287388 8.836002,-1.858002 6.421998,-1.067089 2.485001,-0.41291 1.670193,-0.205002 4.036808,-0.495476 3.255002,-0.399521 0.827998,0.032 0.787002,0.256004 0.686999,0.460999 0.123591,0.145996 0.411409,0.486 0.342,0.754005 0.123001,0.818997 -0.106003,0.821003 -3.68318,13.503998 -1.117174,4.096 -0.115644,0.424 -0.178999,0.398999 -0.293003,0.323002 -0.378999,0.217999 -0.427999,0.09 -0.256001,-0.02712 z m 2.020999,19.084002 0.205001,0.104247 0.088,0.04475 0.232001,0.232 0.149002,0.293001 0.051,0.323999 -0.051,0.325002 -0.149002,0.293 -0.232001,0.231998 -0.088,0.04475 -0.205001,0.10425 -0.248528,0.039 -0.07647,0.012 -0.07623,-0.012 -0.247766,-0.039 -0.293,-0.149002 -0.232001,-0.232001 -0.148999,-0.292997 -0.04976,-0.311004 -0.0023,-0.014 0.052,-0.323999 0.149002,-0.293003 0.232001,-0.231998 0.292997,-0.149 0.07477,-0.01199 0.24923,-0.04 0.250001,0.04 z m 7.483001,-6.204004 0.300152,0.048 0.19385,0.031 0.419997,0.213764 0.02599,0.01324 0.354,0.354 0.228001,0.445998 0.078,0.494005 -0.078,0.494998 -5.64e-4,0.0011 -0.227488,0.445002 -0.354,0.354 -0.445999,0.227 -0.494001,0.078 -0.493999,-0.078 -0.446002,-0.227 -0.193999,-0.194 -0.160001,-0.16 -0.227488,-0.445002 -5.64e-4,-0.0011 -0.078,-0.494998 0.078,-0.494005 0.227999,-0.445998 0.16,-0.160001 0.194,-0.193999 0.446001,-0.226997 0.193847,-0.031 z m -35.680348,82.311021 0.228272,0.04046 0.129371,0.08741 0.253255,0.170668 2.82e-4,8.47e-4 0.149454,0.269011 0.104103,0.287289 -0.03746,0.306693 -0.04004,0.228727 -0.146482,0.314003 -0.487516,1.044999 -0.210789,0.225775 -0.146854,0.05344 -0.06536,0.05103 -0.292998,0.228752 -0.307134,-0.03758 -0.305867,-0.03742 -0.451998,-0.421999 -0.113002,-0.45 0.081,-0.457 0.0933,-0.199999 0.540693,-1.159 0.148855,-0.177822 0.210708,-0.226227 0.286712,-0.104396 0.147148,-0.05405 0.0011,7.9e-5 z m -14.397899,-100.695019 0.156738,-0.145985 0.06506,-0.162163 0.05894,-0.303196 -0.08641,-0.215286 -0.116379,-0.406403 -0.0087,-0.03053 -0.123123,-0.0966 -0.153839,-0.148304 -0.013,-0.01253 -0.45104,-0.112003 -0.457001,0.08 -1.359001,0.634003 -0.178177,0.149647 -0.225776,0.210792 -0.107102,0.365364 -0.03756,0.193196 -0.01112,0.05722 -0.01026,0.05278 0.08709,0.215214 0.04295,0.149853 0.148858,0.177822 0.12973,0.125072 0.03743,0.03609 0.147148,0.05356 0.208793,0.101398 0.612999,-0.075 1.359001,-0.633999 0.076,-0.06927 0.138718,-0.126427 z m 51.372247,49.543999 0.228002,0.446001 0.02937,0.185999 0.04863,0.308 -0.078,0.495001 -0.112979,0.221 -0.115023,0.224998 -0.354,0.354003 -0.02599,0.01324 -0.419998,0.213769 -0.494002,0.078 -0.493999,-0.078 -0.446001,-0.227 -0.194,-0.194002 -0.16,-0.16 -0.227999,-0.445999 -0.078,-0.495001 0.078,-0.493999 0.227999,-0.446001 0.16,-0.16 0.194,-0.194 0.07466,-0.038 0.37134,-0.189002 0.493999,-0.079 0.494001,0.079 0.37134,0.189002 0.04866,0.02475 0.02599,0.01324 z m -34.614,60.999001 -0.582001,-0.271315 -0.777999,-0.362683 -0.177323,-0.14885 -0.226227,-0.210713 -0.104394,-0.286712 -0.05606,-0.225727 0.167999,-0.587 0.333998,-0.321998 0.303197,-0.05895 0.147148,-0.05355 0.07882,0.0096 0.228493,0.02791 0.08235,0.02354 0.068,0.01942 0.960306,0.447999 0.398696,0.185999 0.178175,0.149651 0.225775,0.210789 0.05345,0.146854 0.104603,0.286786 -5.7e-5,5.64e-4 -0.0053,0.04345 -0.03209,0.262271 -0.04054,0.22873 -0.175001,0.26 -0.394002,0.245996 -0.379619,-0.01098 -0.229729,0.03203 z m -28.296081,-105.128005 -0.303192,-0.05894 -0.225724,-0.05606 -0.166839,-0.160839 -0.210709,-0.226222 -0.05145,-0.179795 -0.03246,-0.113414 -0.04154,-0.201702 0.03053,-0.179177 0.03548,-0.142849 0.008,-0.0322 0.01247,-0.05023 0.225769,-0.210289 0.123124,-0.196697 0.12963,-0.08758 0.101158,-0.04535 1.408844,-0.631649 0.047,-0.0032 0.415999,-0.02875 0.270234,0.149349 0.325326,0.252251 0.130363,0.27972 -0.0055,0.156346 0.07057,0.334335 -0.04149,0.113998 -0.01196,0.03285 -0.108109,0.217217 -0.225776,0.210789 -0.171669,0.141143 -0.648003,0.302079 -0.544571,0.253864 -0.152428,0.07106 -0.235733,0.04355 z m 19.845081,106.687006 -0.04104,0.314314 -0.02201,0.119176 -0.0193,0.104507 -0.002,0.01157 0.102105,0.208709 0.04851,0.195355 0.0074,0.02992 0.253252,0.170668 0.301199,0.231767 0.462999,0.032 0.294,-0.106996 0.421002,-0.452005 0.144012,-0.320996 0.532988,-1.188001 0.032,-0.462997 -0.05345,-0.146857 -0.170879,-0.250147 -0.04383,-0.06417 -0.0959,-0.123377 -0.204794,-0.108889 -0.166539,-0.06739 -0.04868,-0.0197 -0.156662,0.0055 -0.231267,-0.01597 -0.417,0.203 -0.160418,0.190996 -0.138582,0.165002 -0.598817,1.284543 z"
       id="path8"
       inkscape:connector-curvature="0"
       style="fill:none;stroke:#0000ff;stroke-width:0.01mm" />
  </g>
  <g
     inkscape:groupmode="layer"
     id="layer2"
     inkscape:label="desing"
     transform="translate(28.46794,31.169428)">
    <ellipse
       style="color:#000000;clip-rule:nonzero;display:inline;overflow:visible;visibility:visible;opacity:1;isolation:auto;mix-blend-mode:normal;color-interpolation:sRGB;color-interpolation-filters:linearRGB;solid-color:#000000;solid-opacity:1;fill:none;fill-opacity:1;fill-rule:evenodd;stroke:#6699ff;stroke-width:0.26362219;stroke-linecap:butt;stroke-linejoin:round;stroke-miterlimit:4;stroke-dasharray:none;stroke-dashoffset:8.05119991;stroke-opacity:1;marker:none;color-rendering:auto;image-rendering:auto;shape-rendering:auto;text-rendering:auto;enable-background:accumulate"
       id="circle4202"
       cx="-33.388569"
       cy="-0.91259128"
       rx="1.8681887"
       ry="1.8681889" />
    <ellipse
       ry="1.8681889"
       rx="1.8681887"
       cy="-0.91259128"
       cx="-1.4974618"
       id="ellipse4204"
       style="color:#000000;clip-rule:nonzero;display:inline;overflow:visible;visibility:visible;opacity:1;isolation:auto;mix-blend-mode:normal;color-interpolation:sRGB;color-interpolation-filters:linearRGB;solid-color:#000000;solid-opacity:1;fill:none;fill-opacity:1;fill-rule:evenodd;stroke:#6699ff;stroke-width:0.26362219;stroke-linecap:butt;stroke-linejoin:round;stroke-miterlimit:4;stroke-dasharray:none;stroke-dashoffset:8.05119991;stroke-opacity:1;marker:none;color-rendering:auto;image-rendering:auto;shape-rendering:auto;text-rendering:auto;enable-background:accumulate" />
    <ellipse
       ry="1.8681889"
       rx="1.8681887"
       cy="-43.714111"
       cx="-40.51289"
       id="ellipse4206"
       style="color:#000000;clip-rule:nonzero;display:inline;overflow:visible;visibility:visible;opacity:1;isolation:auto;mix-blend-mode:normal;color-interpolation:sRGB;color-interpolation-filters:linearRGB;solid-color:#000000;solid-opacity:1;fill:none;fill-opacity:1;fill-rule:evenodd;stroke:#6699ff;stroke-width:0.26362219;stroke-linecap:butt;stroke-linejoin:round;stroke-miterlimit:4;stroke-dasharray:none;stroke-dashoffset:8.05119991;stroke-opacity:1;marker:none;color-rendering:auto;image-rendering:auto;shape-rendering:auto;text-rendering:auto;enable-background:accumulate" />
    <ellipse
       style="color:#000000;clip-rule:nonzero;display:inline;overflow:visible;visibility:visible;opacity:1;isolation:auto;mix-blend-mode:normal;color-interpolation:sRGB;color-interpolation-filters:linearRGB;solid-color:#000000;solid-opacity:1;fill:none;fill-opacity:1;fill-rule:evenodd;stroke:#6699ff;stroke-width:0.26362219;stroke-linecap:butt;stroke-linejoin:round;stroke-miterlimit:4;stroke-dasharray:none;stroke-dashoffset:8.05119991;stroke-opacity:1;marker:none;color-rendering:auto;image-rendering:auto;shape-rendering:auto;text-rendering:auto;enable-background:accumulate"
       id="ellipse4208"
       cx="5.6060233"
       cy="-43.714111"
       rx="1.8681887"
       ry="1.8681889" />
    <ellipse
       ry="1.8681889"
       rx="1.8681887"
       cy="-86.517448"
       cx="-30.387056"
       id="ellipse4210"
       style="color:#000000;clip-rule:nonzero;display:inline;overflow:visible;visibility:visible;opacity:1;isolation:auto;mix-blend-mode:normal;color-interpolation:sRGB;color-interpolation-filters:linearRGB;solid-color:#000000;solid-opacity:1;fill:none;fill-opacity:1;fill-rule:evenodd;stroke:#6699ff;stroke-width:0.26362219;stroke-linecap:butt;stroke-linejoin:round;stroke-miterlimit:4;stroke-dasharray:none;stroke-dashoffset:8.05119991;stroke-opacity:1;marker:none;color-rendering:auto;image-rendering:auto;shape-rendering:auto;text-rendering:auto;enable-background:accumulate" />
    <ellipse
       style="color:#000000;clip-rule:nonzero;display:inline;overflow:visible;visibility:visible;opacity:1;isolation:auto;mix-blend-mode:normal;color-interpolation:sRGB;color-interpolation-filters:linearRGB;solid-color:#000000;solid-opacity:1;fill:none;fill-opacity:1;fill-rule:evenodd;stroke:#6699ff;stroke-width:0.26362219;stroke-linecap:butt;stroke-linejoin:round;stroke-miterlimit:4;stroke-dasharray:none;stroke-dashoffset:8.05119991;stroke-opacity:1;marker:none;color-rendering:auto;image-rendering:auto;shape-rendering:auto;text-rendering:auto;enable-background:accumulate"
       id="ellipse4212"
       cx="-4.4906888"
       cy="-86.517448"
       rx="1.8681887"
       ry="1.8681889" />
    <g
       id="g4226">
      <ellipse
         ry="50.535061"
         rx="50.535057"
         cy="-67.413826"
         cx="-88.919182"
         id="path4214"
         style="color:#000000;clip-rule:nonzero;display:inline;overflow:visible;visibility:visible;opacity:1;isolation:auto;mix-blend-mode:normal;color-interpolation:sRGB;color-interpolation-filters:linearRGB;solid-color:#000000;solid-opacity:1;fill:none;fill-opacity:1;fill-rule:evenodd;stroke:#6699ff;stroke-width:0.52987552;stroke-linecap:butt;stroke-linejoin:round;stroke-miterlimit:4;stroke-dasharray:none;stroke-dashoffset:8.05119991;stroke-opacity:1;marker:none;color-rendering:auto;image-rendering:auto;shape-rendering:auto;text-rendering:auto;enable-background:accumulate" />
      <ellipse
         ry="3.3554351"
         rx="3.3554349"
         cy="-67.413826"
         cx="-88.919182"
         id="path4216"
         style="color:#000000;clip-rule:nonzero;display:inline;overflow:visible;visibility:visible;opacity:1;isolation:auto;mix-blend-mode:normal;color-interpolation:sRGB;color-interpolation-filters:linearRGB;solid-color:#000000;solid-opacity:1;fill:none;fill-opacity:1;fill-rule:evenodd;stroke:#6699ff;stroke-width:0.28222221;stroke-linecap:butt;stroke-linejoin:round;stroke-miterlimit:4;stroke-dasharray:none;stroke-dashoffset:8.05119991;stroke-opacity:1;marker:none;color-rendering:auto;image-rendering:auto;shape-rendering:auto;text-rendering:auto;enable-background:accumulate" />
    </g>
    <g
       id="g4222">
      <ellipse
         style="color:#000000;clip-rule:nonzero;display:inline;overflow:visible;visibility:visible;opacity:1;isolation:auto;mix-blend-mode:normal;color-interpolation:sRGB;color-interpolation-filters:linearRGB;solid-color:#000000;solid-opacity:1;fill:none;fill-opacity:1;fill-rule:evenodd;stroke:#6699ff;stroke-width:0.52987552;stroke-linecap:butt;stroke-linejoin:round;stroke-miterlimit:4;stroke-dasharray:none;stroke-dashoffset:8.05119991;stroke-opacity:1;marker:none;color-rendering:auto;image-rendering:auto;shape-rendering:auto;text-rendering:auto;enable-background:accumulate"
         id="ellipse4218"
         cx="53.995277"
         cy="-67.413826"
         rx="50.535057"
         ry="50.535061" />
      <ellipse
         style="color:#000000;clip-rule:nonzero;display:inline;overflow:visible;visibility:visible;opacity:1;isolation:auto;mix-blend-mode:normal;color-interpolation:sRGB;color-interpolation-filters:linearRGB;solid-color:#000000;solid-opacity:1;fill:none;fill-opacity:1;fill-rule:evenodd;stroke:#6699ff;stroke-width:0.28222221;stroke-linecap:butt;stroke-linejoin:round;stroke-miterlimit:4;stroke-dasharray:none;stroke-dashoffset:8.05119991;stroke-opacity:1;marker:none;color-rendering:auto;image-rendering:auto;shape-rendering:auto;text-rendering:auto;enable-background:accumulate"
         id="ellipse4220"
         cx="53.995277"
         cy="-67.413826"
         rx="3.3554349"
         ry="3.3554351" />
    </g>
    <g
       id="g4230"
       transform="translate(17.890012,105.21386)">
      <ellipse
         style="color:#000000;clip-rule:nonzero;display:inline;overflow:visible;visibility:visible;opacity:1;isolation:auto;mix-blend-mode:normal;color-interpolation:sRGB;color-interpolation-filters:linearRGB;solid-color:#000000;solid-opacity:1;fill:none;fill-opacity:1;fill-rule:evenodd;stroke:#6699ff;stroke-width:0.52987552;stroke-linecap:butt;stroke-linejoin:round;stroke-miterlimit:4;stroke-dasharray:none;stroke-dashoffset:8.05119991;stroke-opacity:1;marker:none;color-rendering:auto;image-rendering:auto;shape-rendering:auto;text-rendering:auto;enable-background:accumulate"
         id="ellipse4232"
         cx="-88.919182"
         cy="-67.413826"
         rx="50.535057"
         ry="50.535061" />
      <ellipse
         style="color:#000000;clip-rule:nonzero;display:inline;overflow:visible;visibility:visible;opacity:1;isolation:auto;mix-blend-mode:normal;color-interpolation:sRGB;color-interpolation-filters:linearRGB;solid-color:#000000;solid-opacity:1;fill:none;fill-opacity:1;fill-rule:evenodd;stroke:#6699ff;stroke-width:0.28222221;stroke-linecap:butt;stroke-linejoin:round;stroke-miterlimit:4;stroke-dasharray:none;stroke-dashoffset:8.05119991;stroke-opacity:1;marker:none;color-rendering:auto;image-rendering:auto;shape-rendering:auto;text-rendering:auto;enable-background:accumulate"
         id="ellipse4234"
         cx="-88.919182"
         cy="-67.413826"
         rx="3.3554349"
         ry="3.3554351" />
    </g>
    <g
       id="g4236"
       transform="translate(-17.857792,105.21386)">
      <ellipse
         ry="50.535061"
         rx="50.535057"
         cy="-67.413826"
         cx="53.995277"
         id="ellipse4238"
         style="color:#000000;clip-rule:nonzero;display:inline;overflow:visible;visibility:visible;opacity:1;isolation:auto;mix-blend-mode:normal;color-interpolation:sRGB;color-interpolation-filters:linearRGB;solid-color:#000000;solid-opacity:1;fill:none;fill-opacity:1;fill-rule:evenodd;stroke:#6699ff;stroke-width:0.52987552;stroke-linecap:butt;stroke-linejoin:round;stroke-miterlimit:4;stroke-dasharray:none;stroke-dashoffset:8.05119991;stroke-opacity:1;marker:none;color-rendering:auto;image-rendering:auto;shape-rendering:auto;text-rendering:auto;enable-background:accumulate" />
      <ellipse
         ry="3.3554351"
         rx="3.3554349"
         cy="-67.413826"
         cx="53.995277"
         id="ellipse4240"
         style="color:#000000;clip-rule:nonzero;display:inline;overflow:visible;visibility:visible;opacity:1;isolation:auto;mix-blend-mode:normal;color-interpolation:sRGB;color-interpolation-filters:linearRGB;solid-color:#000000;solid-opacity:1;fill:none;fill-opacity:1;fill-rule:evenodd;stroke:#6699ff;stroke-width:0.28222221;stroke-linecap:butt;stroke-linejoin:round;stroke-miterlimit:4;stroke-dasharray:none;stroke-dashoffset:8.05119991;stroke-opacity:1;marker:none;color-rendering:auto;image-rendering:auto;shape-rendering:auto;text-rendering:auto;enable-background:accumulate" />
    </g>
    <path
       style="fill:#000000;fill-opacity:0.50867052;fill-rule:evenodd;stroke:#000000;stroke-width:0.28222221px;stroke-linecap:butt;stroke-linejoin:miter;stroke-opacity:1"
       d="m -18.304385,-90.78466 c -11.133969,0 -15.717669,-0.319706 -15.717669,4.458063 -1.876765,26.138675 -8.440512,39.826837 -9.09505,41.94963 -0.649188,2.378532 -1.838784,30.840581 -1.838784,30.840581 l 8.889085,14.8477284 8.521214,5.3431976 9.681257,0.6600867"
       id="path4242"
       inkscape:connector-curvature="0"
       sodipodi:nodetypes="ccccccc" />
  </g>
</svg>
