<?xml version="1.0" encoding="UTF-8" standalone="no"?>
<!-- Created with Inkscape (http://www.inkscape.org/) -->

<svg
   xmlns:dc="http://purl.org/dc/elements/1.1/"
   xmlns:cc="http://creativecommons.org/ns#"
   xmlns:rdf="http://www.w3.org/1999/02/22-rdf-syntax-ns#"
   xmlns:svg="http://www.w3.org/2000/svg"
   xmlns="http://www.w3.org/2000/svg"
   xmlns:sodipodi="http://sodipodi.sourceforge.net/DTD/sodipodi-0.dtd"
   xmlns:inkscape="http://www.inkscape.org/namespaces/inkscape"
   width="51.187855mm"
   height="98.027863mm"
   viewBox="0 0 181.37429 347.34282"
   id="svg7306"
   version="1.1"
   inkscape:version="0.91 r13725"
   sodipodi:docname="skirt.svg">
  <defs
     id="defs7308" />
  <sodipodi:namedview
     id="base"
     pagecolor="#ffffff"
     bordercolor="#666666"
     borderopacity="1.0"
     inkscape:pageopacity="0.0"
     inkscape:pageshadow="2"
     inkscape:zoom="1.4"
     inkscape:cx="41.048453"
     inkscape:cy="176.43488"
     inkscape:document-units="px"
     inkscape:current-layer="layer1"
     showgrid="false"
     inkscape:window-width="1366"
     inkscape:window-height="704"
     inkscape:window-x="0"
     inkscape:window-y="27"
     inkscape:window-maximized="1"
     fit-margin-top="0"
     fit-margin-left="0"
     fit-margin-right="0"
     fit-margin-bottom="0" />
  <metadata
     id="metadata7311">
    <rdf:RDF>
      <cc:Work
         rdf:about="">
        <dc:format>image/svg+xml</dc:format>
        <dc:type
           rdf:resource="http://purl.org/dc/dcmitype/StillImage" />
        <dc:title />
      </cc:Work>
    </rdf:RDF>
  </metadata>
  <g
     inkscape:label="Layer 1"
     inkscape:groupmode="layer"
     id="layer1"
     transform="translate(-281.3601,-352.50969)">
    <path
       inkscape:connector-curvature="0"
       style="color:#000000;clip-rule:nonzero;display:inline;overflow:visible;visibility:visible;opacity:1;isolation:auto;mix-blend-mode:normal;color-interpolation:sRGB;color-interpolation-filters:linearRGB;solid-color:#000000;solid-opacity:1;fill:#669900;fill-opacity:1;fill-rule:evenodd;stroke:#bfbfbf;stroke-width:1.01015258;stroke-linecap:butt;stroke-linejoin:round;stroke-miterlimit:4;stroke-dasharray:none;stroke-dashoffset:8.05119991;stroke-opacity:1;marker:none;color-rendering:auto;image-rendering:auto;shape-rendering:auto;text-rendering:auto;enable-background:accumulate"
       d="m 733.66283,22.328886 c -0.3222,0 -0.58593,1.73322 -0.58593,3.85352 0,10.11279 -4.06503,24.40471 -10.75,37.79492 -4.167,8.34663 -4.40235,9.28134 -4.40235,17.46484 0,19.182124 -3.52142,37.890084 -10.54883,56.042974 -2.04324,5.27804 -3.94738,10.31088 -4.23046,11.1836 -0.37324,1.15071 0.56725,1.91094 3.41992,2.76562 5.53428,1.6581 8.18314,7.2808 5.94922,12.625 -1.89493,4.53323 -4.09115,6.02734 -8.85742,6.02734 l -4.13086,0 0.62304,3.88477 c 5.56276,34.78759 5.26522,78.53296 -0.76953,113.23633 l -1.33008,7.64844 8.53711,6.41992 c 4.69542,3.53115 9.15977,6.86757 9.91992,7.41406 1.02185,0.73462 2.11145,0.11844 4.18164,-2.36133 2.42701,-2.90717 3.4412,-3.36278 7.61133,-3.42578 5.42618,-0.082 9.82813,2.96054 9.82813,6.79297 0,1.88816 0.89752,2.29972 7.32226,3.35156 8.94128,1.46385 24.39548,3.1524 32.57813,3.56055 3.33351,0.16627 6.74279,0.37594 7.57617,0.46484 3.72253,0.39686 28.70249,-1.88009 37.62891,-3.42969 8.15714,-1.41605 9.84765,-2.02074 9.84765,-3.51953 0,-0.99532 1.06307,-3.04537 2.36133,-4.55468 1.99548,-2.31989 3.12605,-2.73127 7.31836,-2.66797 4.25951,0.0644 5.32671,0.51328 7.5625,3.1914 1.43165,1.71489 2.8921,3.11914 3.24414,3.11914 0.35206,0 4.86403,-3.2393 10.02735,-7.19921 5.72884,-4.39363 9.31254,-7.83967 9.19335,-8.83985 -0.10743,-0.90145 -1.24386,-8.45725 -2.52539,-16.79101 -2.07696,-13.50639 -2.32931,-18.71859 -2.32031,-47.98243 0.008,-26.04649 0.37307,-35.22198 1.76758,-44.40625 0.96672,-6.3669 1.75781,-12.10116 1.75781,-12.74218 0,-0.69489 -1.7065,-1.16407 -4.22656,-1.16407 -3.33634,0 -4.72003,-0.57415 -6.56641,-2.7207 -4.83811,-5.62465 -1.88251,-14.97359 5.15039,-16.29297 l 3.36133,-0.63086 -3.37695,-8.0039 c -7.66863,-18.18303 -11.31607,-34.91125 -12.20508,-55.964854 l -0.59766,-14.14258 -4.89453,-10.10156 c -5.36634,-11.07633 -8.43937,-21.62229 -9.53125,-32.70312 -0.39006,-3.95849 -0.91559,-7.19727 -1.16601,-7.19727 -0.25042,0 -5.98656,0.77832 -12.74805,1.73047 -9.10372,1.28198 -19.23939,1.73047 -39.0625,1.73047 -19.82311,0 -29.95879,-0.44849 -39.0625,-1.73047 -6.76149,-0.95215 -12.55671,-1.73047 -12.87891,-1.73047 z m -2.27929,112.910164 1.75,0.27929 1.58203,0.80469 1.25391,1.25391 0.80664,1.58008 0.27734,1.75 -0.11524,0.73437 -0.1621,1.01953 -0.80664,1.58203 -1.25391,1.25391 -1.58203,0.80469 -1.75,0.27539 -1.75,-0.27539 -1.58008,-0.80469 -1.25391,-1.25391 -0.80859,-1.58203 -0.16016,-1.01953 -0.11523,-0.73437 0.27539,-1.75 0.80859,-1.58008 1.25391,-1.25391 1.58008,-0.80469 1.75,-0.27929 z m 108.07422,0 1.75195,0.27929 0.35742,0.18165 1.22266,0.62304 1.2539,1.25391 0.80664,1.58008 0.27735,1.75 -0.27735,1.7539 -0.80664,1.58203 -1.2539,1.25391 -1.22266,0.62109 -0.35742,0.1836 -1.75195,0.27539 -1.75,-0.27539 -1.58008,-0.80469 -1.25391,-1.25391 -0.80859,-1.58203 -0.27539,-1.7539 0.27539,-1.75 0.80859,-1.58008 1.25391,-1.25391 1.58008,-0.80469 1.75,-0.27929 z m -117.81836,20.19531 1.0957,0.17383 0.98828,0.50391 0.043,0.043 0.74023,0.74024 0.50391,0.98828 0.17188,1.0957 0,11.68946 0,14.51367 0,29.02539 0,16.70312 -0.17188,1.09571 -0.50391,0.98828 -0.7832,0.7832 -0.98828,0.50391 -1.0957,0.17187 -1.09375,-0.17187 -0.98828,-0.50391 -0.78321,-0.7832 -0.5039,-0.98828 -0.17383,-1.09571 0,-16.70312 0,-29.02539 0,-14.51367 0,-11.68946 0.17383,-1.0957 0.5039,-0.98828 0.74024,-0.74024 0.043,-0.043 0.98828,-0.50391 1.09375,-0.17383 z m 127.5625,0 1.0957,0.17383 0.98828,0.50391 0.043,0.043 0.74023,0.74024 0.50391,0.98828 0.17188,1.0957 0,11.68946 0,14.51367 0,29.02539 0,16.70312 -0.17188,1.09571 -0.50391,0.98828 -0.7832,0.7832 -0.98828,0.50391 -1.0957,0.17187 -1.09375,-0.17187 -0.98828,-0.50391 -0.78321,-0.7832 -0.5039,-0.98828 -0.17383,-1.09571 0,-16.70312 0,-29.02539 0,-14.51367 0,-11.68946 0.17383,-1.0957 0.5039,-0.98828 0.74024,-0.74024 0.043,-0.043 0.3789,-0.19336 0.60938,-0.31055 1.09375,-0.17383 z m -117.81836,87.87891 1.75,0.27929 1.58203,0.80469 1.25391,1.25391 0.80664,1.58008 0.27734,1.75195 -0.23828,1.50781 -0.0391,0.2461 -0.80664,1.58007 -1.25391,1.25391 -1.58203,0.80469 -1.75,0.27539 -1.75,-0.27539 -1.58008,-0.80469 -1.25391,-1.25391 -0.80859,-1.58007 -0.0391,-0.2461 -0.23633,-1.50781 0.27539,-1.75195 0.80859,-1.58008 1.25391,-1.25391 1.58008,-0.80469 1.75,-0.27929 z m 108.07422,0 1.75195,0.27929 0.35742,0.18164 1.22266,0.62305 1.2539,1.25391 0.80664,1.58008 0.27735,1.75195 -0.27735,1.75391 -0.80664,1.58007 -1.2539,1.25391 -1.22266,0.62109 -0.35742,0.1836 -1.75195,0.27539 -1.75,-0.27539 -1.58008,-0.80469 -1.25391,-1.25391 -0.80859,-1.58007 -0.27539,-1.75391 0.27539,-1.75195 0.80859,-1.58008 1.25391,-1.25391 1.58008,-0.80469 1.75,-0.27929 z"
       id="path8616" />
    <path
       style="display:inline;opacity:1;fill:#000000;fill-opacity:1;fill-rule:evenodd;stroke:none;stroke-width:0.28222221px;stroke-linecap:butt;stroke-linejoin:miter;stroke-opacity:1"
       d="m 371.88025,353.51022 c -22.49678,0.0319 -34.90959,2.26522 -43.76953,2.80664 -9.08972,0.55538 -10.53492,6.49088 -10.81055,11.02149 0,22.01167 1.02124,34.86549 -15.84961,62.28711 2.51227,34.03598 -7.10305,60.27255 -16.18554,79.1289 -4.3183,7.42354 -5.18987,6.68418 -1.9375,19.51563 7.74797,43.6663 5.79906,85.07913 -1.14649,121.5 -0.74027,2.53648 -0.56008,3.20499 1.38672,4.51172 14.74185,9.99153 27.87305,24.81787 27.87305,24.81787 0,0 19.83232,19.75244 60.60547,19.75244 41.04878,0 60.60742,-19.75244 60.60742,-19.75244 0,0 13.13119,-14.82634 27.87305,-24.81787 1.94681,-1.30673 2.127,-1.97524 1.38671,-4.51172 -6.94553,-36.42087 -8.89445,-77.8337 -1.14648,-121.5 3.25237,-12.83145 2.3808,-12.09209 -1.9375,-19.51563 -9.08248,-18.85635 -18.69784,-45.09292 -16.18555,-79.1289 -16.87087,-27.42162 -15.84961,-40.27544 -15.84961,-62.28711 -0.27563,-4.53061 -1.72082,-10.46611 -10.81054,-11.02149 -8.85994,-0.54142 -21.27275,-2.77394 -43.76953,-2.80664 l -0.16797,0 c -0.0568,-1.1e-4 -0.10912,0 -0.16602,0 z m -45.67383,5.7461 c 4.10988,-2.6e-4 7.44166,3.33152 7.44141,7.4414 2.6e-4,4.10988 -3.33153,7.44167 -7.44141,7.44141 -4.10912,-8.3e-4 -7.43971,-3.33229 -7.43945,-7.44141 -2.5e-4,-4.10911 3.33034,-7.44057 7.43945,-7.4414 z m 91.74805,0 c 4.10988,-2.6e-4 7.44166,3.33152 7.44141,7.4414 2.6e-4,4.10988 -3.33153,7.44167 -7.44141,7.44141 -4.10912,-8.3e-4 -7.43971,-3.33229 -7.43945,-7.44141 -2.5e-4,-4.10911 3.33034,-7.44057 7.43945,-7.4414 z m -98.64258,19.8164 c 34.77719,6.15664 70.02434,6.22424 105.75391,0 0.47799,14.78203 2.98937,30.1766 15.76562,51.13281 -2.23832,32.5991 6.43317,58.20842 15.13672,76.89649 1.93508,3.85027 -6.16304,-0.67836 -9.81836,6.52344 -3.79478,6.95141 2.18462,12.31931 4.34571,13.2832 4.27745,1.90775 8.75992,-1.22607 8.50976,0.81445 -0.0135,0.0528 -0.0256,0.10666 -0.0352,0.16016 -7.80328,43.97822 -5.84297,85.65511 1.14843,122.3164 0.0153,0.0698 0.035,0.13865 0.0566,0.20704 0.31975,1.09527 0.28362,1.46382 0.31055,1.40429 -0.0398,0.0358 -0.20423,0.21082 -0.78906,0.60352 l -0.008,0.008 c -5.33249,3.61421 -10.8882,8.79183 -16.22851,13.22656 -7.08938,6.49598 -3.99645,-3.34326 -12.05859,-4.71289 -6.52245,-1.1081 -11.7059,2.26143 -11.5293,8.97461 l -95.39063,-0.004 c 0.1766,-6.71318 -5.00489,-10.08271 -11.52734,-8.97461 -8.06216,1.36963 -4.97117,11.20887 -12.06055,4.71289 -5.34029,-4.43473 -10.89605,-9.61236 -16.22851,-13.22657 l -0.006,-0.008 c -0.58497,-0.3927 -0.74937,-0.56772 -0.78906,-0.60351 0.0269,0.0595 -0.007,-0.30899 0.3125,-1.4043 0.0227,-0.068 0.0405,-0.13688 0.0547,-0.20703 6.99141,-36.66126 8.95176,-78.33822 1.14844,-122.31641 -0.007,-0.0535 -0.019,-0.10736 -0.0332,-0.16015 -0.25016,-2.04052 4.23033,1.09329 8.50781,-0.81446 2.16106,-0.96388 8.14048,-6.3318 4.3457,-13.2832 -3.65531,-7.20181 -11.75147,-2.67322 -9.8164,-6.52344 8.70357,-18.68811 17.37307,-44.29738 15.13476,-76.89648 12.98944,-21.3059 15.36782,-36.03779 15.78711,-51.12891 z m -28.97851,131.80469 c 4.10988,-2.5e-4 7.44166,3.33153 7.4414,7.44141 2.5e-4,4.10988 -3.33152,7.44165 -7.4414,7.4414 -4.10988,2.6e-4 -7.44166,-3.33152 -7.44141,-7.4414 -2.6e-4,-4.10988 3.33153,-7.44167 7.44141,-7.44141 z m 163.49609,0 c 4.10912,8.3e-4 7.43971,3.33229 7.43945,7.44141 2.5e-4,4.10911 -3.33034,7.44057 -7.43945,7.4414 -4.10988,2.6e-4 -7.44166,-3.33152 -7.44141,-7.4414 -2.6e-4,-4.10988 3.33153,-7.44167 7.44141,-7.44141 z M 315.46033,662.62546 c 4.10988,-2.6e-4 7.44166,3.33152 7.44141,7.4414 -8.2e-4,4.10912 -3.33229,7.43972 -7.44141,7.43946 -4.10912,2.6e-4 -7.44059,-3.33034 -7.44141,-7.43946 -2.5e-4,-4.10988 3.33153,-7.44166 7.44141,-7.4414 z m 113.24219,0 c 4.10988,-2.5e-4 7.44165,3.33152 7.4414,7.4414 -8.2e-4,4.10912 -3.33228,7.43971 -7.4414,7.43946 -4.10912,2.6e-4 -7.44059,-3.33034 -7.44141,-7.43946 -2.5e-4,-4.10988 3.33153,-7.44166 7.44141,-7.4414 z"
       id="path6384-0"
       inkscape:connector-curvature="0"
       sodipodi:nodetypes="cscccccccscccccccscccccccccccccccccccccccccccsccscccccccccccccccccccccccccccccccccc" />
  </g>
</svg>
