<?xml version="1.0" encoding="UTF-8" standalone="no"?>
<!-- Created with Inkscape (http://www.inkscape.org/) -->

<svg
   xmlns:dc="http://purl.org/dc/elements/1.1/"
   xmlns:cc="http://creativecommons.org/ns#"
   xmlns:rdf="http://www.w3.org/1999/02/22-rdf-syntax-ns#"
   xmlns:svg="http://www.w3.org/2000/svg"
   xmlns="http://www.w3.org/2000/svg"
   xmlns:sodipodi="http://sodipodi.sourceforge.net/DTD/sodipodi-0.dtd"
   xmlns:inkscape="http://www.inkscape.org/namespaces/inkscape"
   width="210mm"
   height="297mm"
   viewBox="0 0 744.09448819 1052.3622047"
   id="svg7306"
   version="1.1"
   inkscape:version="0.91 r13725"
   sodipodi:docname="skirt.svg">
  <defs
     id="defs7308" />
  <sodipodi:namedview
     id="base"
     pagecolor="#ffffff"
     bordercolor="#666666"
     borderopacity="1.0"
     inkscape:pageopacity="0.0"
     inkscape:pageshadow="2"
     inkscape:zoom="0.35"
     inkscape:cx="-122.14286"
     inkscape:cy="520"
     inkscape:document-units="px"
     inkscape:current-layer="layer1"
     showgrid="false"
     inkscape:window-width="1366"
     inkscape:window-height="704"
     inkscape:window-x="0"
     inkscape:window-y="27"
     inkscape:window-maximized="1" />
  <metadata
     id="metadata7311">
    <rdf:RDF>
      <cc:Work
         rdf:about="">
        <dc:format>image/svg+xml</dc:format>
        <dc:type
           rdf:resource="http://purl.org/dc/dcmitype/StillImage" />
        <dc:title></dc:title>
      </cc:Work>
    </rdf:RDF>
  </metadata>
  <g
     inkscape:label="Layer 1"
     inkscape:groupmode="layer"
     id="layer1">
    <path
       style="display:inline;opacity:1;fill:#000000;fill-opacity:1;fill-rule:evenodd;stroke:none;stroke-width:0.28222221px;stroke-linecap:butt;stroke-linejoin:miter;stroke-opacity:1"
       d="m 371.88026,352.50974 0,0 c -22.49678,0.0319 -34.90959,2.2653 -43.76953,2.80672 -9.08972,0.55538 -10.53491,6.49088 -10.81054,11.02149 0,22.01167 1.02124,34.86547 -15.84961,62.28709 2.51227,34.03598 -7.10306,60.27254 -16.18555,79.12889 -4.3183,7.42354 -5.18987,6.68416 -1.9375,19.51561 7.74797,43.6663 5.79907,86.07916 -1.14648,122.50003 -0.74027,2.53648 -0.56008,3.20496 1.38672,4.51169 14.74185,9.99153 26.19045,19.51523 34.87304,30.33989 14.88737,0 12.83329,15.23136 53.60644,15.23136 41.04878,0 38.71904,-15.23136 53.60643,-15.23136 8.68258,-10.82466 20.13119,-20.34836 34.87305,-30.33989 1.94681,-1.30673 2.127,-1.97521 1.38671,-4.51169 -6.94553,-36.42087 -8.89445,-78.83373 -1.14648,-122.50003 3.25237,-12.83145 2.3808,-12.09207 -1.9375,-19.51561 -9.08248,-18.85635 -18.69784,-45.09291 -16.18555,-79.12889 -16.87087,-27.42162 -15.84961,-40.27542 -15.84961,-62.28709 -0.27563,-4.53061 -1.72082,-10.46611 -10.81054,-11.02149 -8.85994,-0.54142 -21.27275,-2.77402 -43.76953,-2.80672 l 0,0 -0.16799,0 c -0.0568,-1.1e-4 -0.1091,0 -0.166,0 z m 53.18507,25.56251 c 0.47799,14.78203 2.9899,30.17748 15.76615,51.13369 -2.23832,32.5991 6.43317,58.20842 15.13672,76.89649 1.93508,3.85027 -6.16304,-0.67836 -9.81836,6.52344 -3.79478,6.95141 2.18462,12.3193 4.34571,13.28319 4.27745,1.90775 8.75992,-1.22606 8.50976,0.81446 -0.0135,0.0528 -0.0256,0.10666 -0.0352,0.16016 -7.80328,43.97822 -5.84296,86.65512 1.14844,123.31641 0.0153,0.0698 0.035,0.13854 0.0566,0.20693 0.31975,1.09527 0.28362,1.46381 0.31055,1.40428 -0.0398,0.0358 -0.20423,0.21083 -0.78906,0.60353 l -0.008,0.007 c -5.33249,3.61421 -10.88821,7.79184 -16.22852,12.22657 -7.08938,6.49598 -3.99645,-3.34325 -12.05859,-4.71288 -6.52245,-1.1081 -11.70589,2.26141 -11.52929,8.97459 -31.7968,7.14982 -63.59361,6.30384 -95.39041,-0.004 0.1766,-6.71318 -5.00489,-10.08269 -11.52734,-8.97459 -8.06216,1.36963 -4.97117,11.20886 -12.06055,4.71288 -5.34029,-4.43473 -10.89605,-8.61236 -16.22851,-12.22657 l -0.006,-0.007 c -0.58497,-0.3927 -0.74938,-0.5677 -0.78907,-0.60349 0.0269,0.0595 -0.007,-0.30898 0.31249,-1.40429 0.0227,-0.068 0.0405,-0.13677 0.0547,-0.20692 6.99141,-36.66126 8.95176,-79.33819 1.14844,-123.31638 -0.007,-0.0535 -0.0191,-0.10736 -0.0333,-0.16015 -0.25016,-2.04052 4.23034,1.09328 8.50782,-0.81447 2.16106,-0.96388 8.14048,-6.33178 4.3457,-13.28318 -3.65531,-7.20181 -11.75148,-2.67322 -9.81641,-6.52344 8.70357,-18.68811 17.37308,-44.2974 15.13477,-76.8965 12.98944,-21.3059 15.36913,-36.03864 15.78842,-51.12976 34.77719,6.15664 70.02277,6.22424 105.75234,0 z m -98.88429,-19.06051 c 3.65554,2.1e-4 6.61889,2.96362 6.61915,6.61911 -2.1e-4,3.6556 -2.96357,6.61901 -6.61915,6.61918 -3.65557,-1.7e-4 -6.61893,-2.96358 -6.61914,-6.61918 2.6e-4,-3.65549 2.96361,-6.6189 6.61914,-6.61911 z m 91.75977,0 c 3.65554,2.1e-4 6.61888,2.96362 6.61914,6.61911 -2e-4,3.6556 -2.96356,6.61901 -6.61914,6.61918 -3.65634,8.2e-4 -6.6209,-2.96287 -6.6211,-6.61918 2.6e-4,-3.6563 2.9648,-6.61989 6.6211,-6.61911 z M 290.30214,510.67581 c 3.65555,2.1e-4 6.61891,2.96359 6.61914,6.61915 8.5e-4,3.6563 -2.96282,6.62084 -6.61914,6.62109 -3.65632,-2.5e-4 -6.61999,-2.96479 -6.61914,-6.62109 2.4e-4,-3.65556 2.96359,-6.61894 6.61914,-6.61915 z m 163.41406,0 c 3.65555,2.1e-4 6.6189,2.96359 6.61914,6.61915 8.5e-4,3.6563 -2.96282,6.62084 -6.61914,6.62109 -3.65632,-2.5e-4 -6.61999,-2.96479 -6.61914,-6.62109 2.4e-4,-3.65556 2.96359,-6.61894 6.61914,-6.61915 z M 315.54628,662.33594 c 3.65555,2.5e-4 6.61891,2.96359 6.61914,6.61915 -2.3e-4,3.65556 -2.96359,6.6189 -6.61914,6.61915 -3.65555,-2.5e-4 -6.6189,-2.96359 -6.61914,-6.61915 2.4e-4,-3.65556 2.96359,-6.6189 6.61914,-6.61915 z m 113,0 c 3.65555,2.5e-4 6.6189,2.96359 6.61914,6.61915 -2.4e-4,3.65556 -2.96359,6.6189 -6.61914,6.61915 -3.65555,-2.5e-4 -6.6189,-2.96359 -6.61914,-6.61915 2.4e-4,-3.65556 2.96359,-6.6189 6.61914,-6.61915 z"
       id="path6384-0"
       inkscape:connector-curvature="0"
       sodipodi:nodetypes="ccscccccccccccccccscccccccccccccccccssccccccccccccccccccccccccccccccccccccccccccccccc" />
  </g>
</svg>
